G04 #@! TF.GenerationSoftware,KiCad,Pcbnew,6.0.2+dfsg-1*
G04 #@! TF.CreationDate,2023-08-11T11:48:17-04:00*
G04 #@! TF.ProjectId,HL2IO_endcap,484c3249-4f5f-4656-9e64-6361702e6b69,2.1*
G04 #@! TF.SameCoordinates,PX2faf080PY6422c40*
G04 #@! TF.FileFunction,Legend,Top*
G04 #@! TF.FilePolarity,Positive*
%FSLAX46Y46*%
G04 Gerber Fmt 4.6, Leading zero omitted, Abs format (unit mm)*
G04 Created by KiCad (PCBNEW 6.0.2+dfsg-1) date 2023-08-11 11:48:17*
%MOMM*%
%LPD*%
G01*
G04 APERTURE LIST*
%ADD10C,0.300000*%
%ADD11C,0.200000*%
%ADD12C,0.150000*%
%ADD13C,4.900000*%
%ADD14C,9.500000*%
%ADD15C,7.000000*%
%ADD16C,1.000000*%
%ADD17C,3.050000*%
G04 APERTURE END LIST*
D10*
X82547619Y34369048D02*
X82547619Y36869048D01*
X83500000Y36869048D01*
X83738095Y36750000D01*
X83857142Y36630953D01*
X83976190Y36392858D01*
X83976190Y36035715D01*
X83857142Y35797620D01*
X83738095Y35678572D01*
X83500000Y35559524D01*
X82547619Y35559524D01*
X85047619Y34369048D02*
X85047619Y36035715D01*
X85047619Y36869048D02*
X84928571Y36750000D01*
X85047619Y36630953D01*
X85166666Y36750000D01*
X85047619Y36869048D01*
X85047619Y36630953D01*
X87309523Y34488096D02*
X87071428Y34369048D01*
X86595238Y34369048D01*
X86357142Y34488096D01*
X86238095Y34607143D01*
X86119047Y34845239D01*
X86119047Y35559524D01*
X86238095Y35797620D01*
X86357142Y35916667D01*
X86595238Y36035715D01*
X87071428Y36035715D01*
X87309523Y35916667D01*
X88738095Y34369048D02*
X88500000Y34488096D01*
X88380952Y34607143D01*
X88261904Y34845239D01*
X88261904Y35559524D01*
X88380952Y35797620D01*
X88500000Y35916667D01*
X88738095Y36035715D01*
X89095238Y36035715D01*
X89333333Y35916667D01*
X89452380Y35797620D01*
X89571428Y35559524D01*
X89571428Y34845239D01*
X89452380Y34607143D01*
X89333333Y34488096D01*
X89095238Y34369048D01*
X88738095Y34369048D01*
X22219047Y14078572D02*
X23052380Y14078572D01*
X23409523Y12769048D02*
X22219047Y12769048D01*
X22219047Y15269048D01*
X23409523Y15269048D01*
X24242857Y15269048D02*
X25909523Y12769048D01*
X25909523Y15269048D02*
X24242857Y12769048D01*
X26504761Y15269048D02*
X27933333Y15269048D01*
X27219047Y12769048D02*
X27219047Y15269048D01*
X28409523Y15269048D02*
X29838095Y15269048D01*
X29123809Y12769048D02*
X29123809Y15269048D01*
X32100000Y12769048D02*
X31266666Y13959524D01*
X30671428Y12769048D02*
X30671428Y15269048D01*
X31623809Y15269048D01*
X31861904Y15150000D01*
X31980952Y15030953D01*
X32100000Y14792858D01*
X32100000Y14435715D01*
X31980952Y14197620D01*
X31861904Y14078572D01*
X31623809Y13959524D01*
X30671428Y13959524D01*
X28440476Y36095834D02*
X29630952Y36095834D01*
X28202380Y35381548D02*
X29035714Y37881548D01*
X29869047Y35381548D01*
X31892857Y35381548D02*
X30702380Y35381548D01*
X30702380Y37881548D01*
X32369047Y37881548D02*
X33797619Y37881548D01*
X33083333Y35381548D02*
X33083333Y37881548D01*
X30583333Y31356548D02*
X29750000Y32547024D01*
X29154761Y31356548D02*
X29154761Y33856548D01*
X30107142Y33856548D01*
X30345238Y33737500D01*
X30464285Y33618453D01*
X30583333Y33380358D01*
X30583333Y33023215D01*
X30464285Y32785120D01*
X30345238Y32666072D01*
X30107142Y32547024D01*
X29154761Y32547024D01*
X31416666Y33856548D02*
X33083333Y31356548D01*
X33083333Y33856548D02*
X31416666Y31356548D01*
X73142857Y7783334D02*
X74333333Y7783334D01*
X72904761Y7069048D02*
X73738095Y9569048D01*
X74571428Y7069048D01*
X75404761Y7069048D02*
X75404761Y9569048D01*
X76833333Y7069048D01*
X76833333Y9569048D01*
X77666666Y9569048D02*
X79095238Y9569048D01*
X78380952Y7069048D02*
X78380952Y9569048D01*
X51604761Y23583334D02*
X52795238Y23583334D01*
X51366666Y22869048D02*
X52200000Y25369048D01*
X53033333Y22869048D01*
X55295238Y23107143D02*
X55176190Y22988096D01*
X54819047Y22869048D01*
X54580952Y22869048D01*
X54223809Y22988096D01*
X53985714Y23226191D01*
X53866666Y23464286D01*
X53747619Y23940477D01*
X53747619Y24297620D01*
X53866666Y24773810D01*
X53985714Y25011905D01*
X54223809Y25250000D01*
X54580952Y25369048D01*
X54819047Y25369048D01*
X55176190Y25250000D01*
X55295238Y25130953D01*
X57795238Y23107143D02*
X57676190Y22988096D01*
X57319047Y22869048D01*
X57080952Y22869048D01*
X56723809Y22988096D01*
X56485714Y23226191D01*
X56366666Y23464286D01*
X56247619Y23940477D01*
X56247619Y24297620D01*
X56366666Y24773810D01*
X56485714Y25011905D01*
X56723809Y25250000D01*
X57080952Y25369048D01*
X57319047Y25369048D01*
X57676190Y25250000D01*
X57795238Y25130953D01*
X12654761Y31369048D02*
X12654761Y33869048D01*
X13607142Y33869048D01*
X13845238Y33750000D01*
X13964285Y33630953D01*
X14083333Y33392858D01*
X14083333Y33035715D01*
X13964285Y32797620D01*
X13845238Y32678572D01*
X13607142Y32559524D01*
X12654761Y32559524D01*
X15154761Y33869048D02*
X15154761Y31845239D01*
X15273809Y31607143D01*
X15392857Y31488096D01*
X15630952Y31369048D01*
X16107142Y31369048D01*
X16345238Y31488096D01*
X16464285Y31607143D01*
X16583333Y31845239D01*
X16583333Y33869048D01*
X19202380Y31369048D02*
X18369047Y32559524D01*
X17773809Y31369048D02*
X17773809Y33869048D01*
X18726190Y33869048D01*
X18964285Y33750000D01*
X19083333Y33630953D01*
X19202380Y33392858D01*
X19202380Y33035715D01*
X19083333Y32797620D01*
X18964285Y32678572D01*
X18726190Y32559524D01*
X17773809Y32559524D01*
X20273809Y32678572D02*
X21107142Y32678572D01*
X21464285Y31369048D02*
X20273809Y31369048D01*
X20273809Y33869048D01*
X21464285Y33869048D01*
X42211904Y7069048D02*
X41378571Y8259524D01*
X40783333Y7069048D02*
X40783333Y9569048D01*
X41735714Y9569048D01*
X41973809Y9450000D01*
X42092857Y9330953D01*
X42211904Y9092858D01*
X42211904Y8735715D01*
X42092857Y8497620D01*
X41973809Y8378572D01*
X41735714Y8259524D01*
X40783333Y8259524D01*
X44116666Y8378572D02*
X43283333Y8378572D01*
X43283333Y7069048D02*
X43283333Y9569048D01*
X44473809Y9569048D01*
X46735714Y7069048D02*
X45307142Y7069048D01*
X46021428Y7069048D02*
X46021428Y9569048D01*
X45783333Y9211905D01*
X45545238Y8973810D01*
X45307142Y8854762D01*
D11*
X78500000Y2685715D02*
X78500000Y4485715D01*
X78500000Y3628572D02*
X79528571Y3628572D01*
X79528571Y2685715D02*
X79528571Y4485715D01*
X81071428Y2771429D02*
X80900000Y2685715D01*
X80557142Y2685715D01*
X80385714Y2771429D01*
X80300000Y2942858D01*
X80300000Y3628572D01*
X80385714Y3800000D01*
X80557142Y3885715D01*
X80900000Y3885715D01*
X81071428Y3800000D01*
X81157142Y3628572D01*
X81157142Y3457143D01*
X80300000Y3285715D01*
X81928571Y2685715D02*
X81928571Y3885715D01*
X81928571Y3542858D02*
X82014285Y3714286D01*
X82100000Y3800000D01*
X82271428Y3885715D01*
X82442857Y3885715D01*
X83042857Y2685715D02*
X83042857Y3885715D01*
X83042857Y3714286D02*
X83128571Y3800000D01*
X83300000Y3885715D01*
X83557142Y3885715D01*
X83728571Y3800000D01*
X83814285Y3628572D01*
X83814285Y2685715D01*
X83814285Y3628572D02*
X83900000Y3800000D01*
X84071428Y3885715D01*
X84328571Y3885715D01*
X84500000Y3800000D01*
X84585714Y3628572D01*
X84585714Y2685715D01*
X86128571Y2771429D02*
X85957142Y2685715D01*
X85614285Y2685715D01*
X85442857Y2771429D01*
X85357142Y2942858D01*
X85357142Y3628572D01*
X85442857Y3800000D01*
X85614285Y3885715D01*
X85957142Y3885715D01*
X86128571Y3800000D01*
X86214285Y3628572D01*
X86214285Y3457143D01*
X85357142Y3285715D01*
X86900000Y2771429D02*
X87071428Y2685715D01*
X87414285Y2685715D01*
X87585714Y2771429D01*
X87671428Y2942858D01*
X87671428Y3028572D01*
X87585714Y3200000D01*
X87414285Y3285715D01*
X87157142Y3285715D01*
X86985714Y3371429D01*
X86900000Y3542858D01*
X86900000Y3628572D01*
X86985714Y3800000D01*
X87157142Y3885715D01*
X87414285Y3885715D01*
X87585714Y3800000D01*
X88442857Y3371429D02*
X89814285Y3371429D01*
X91528571Y2685715D02*
X90671428Y2685715D01*
X90671428Y4485715D01*
X92128571Y2685715D02*
X92128571Y3885715D01*
X92128571Y4485715D02*
X92042857Y4400000D01*
X92128571Y4314286D01*
X92214285Y4400000D01*
X92128571Y4485715D01*
X92128571Y4314286D01*
X92728571Y3885715D02*
X93414285Y3885715D01*
X92985714Y4485715D02*
X92985714Y2942858D01*
X93071428Y2771429D01*
X93242857Y2685715D01*
X93414285Y2685715D01*
X94700000Y2771429D02*
X94528571Y2685715D01*
X94185714Y2685715D01*
X94014285Y2771429D01*
X93928571Y2942858D01*
X93928571Y3628572D01*
X94014285Y3800000D01*
X94185714Y3885715D01*
X94528571Y3885715D01*
X94700000Y3800000D01*
X94785714Y3628572D01*
X94785714Y3457143D01*
X93928571Y3285715D01*
D12*
X29966666Y25782620D02*
X29633333Y26258810D01*
X29395238Y25782620D02*
X29395238Y26782620D01*
X29776190Y26782620D01*
X29871428Y26735000D01*
X29919047Y26687381D01*
X29966666Y26592143D01*
X29966666Y26449286D01*
X29919047Y26354048D01*
X29871428Y26306429D01*
X29776190Y26258810D01*
X29395238Y26258810D01*
X30395238Y26306429D02*
X30728571Y26306429D01*
X30871428Y25782620D02*
X30395238Y25782620D01*
X30395238Y26782620D01*
X30871428Y26782620D01*
X31633333Y26306429D02*
X31300000Y26306429D01*
X31300000Y25782620D02*
X31300000Y26782620D01*
X31776190Y26782620D01*
X32300000Y26782620D02*
X32300000Y26544524D01*
X32061904Y26639762D02*
X32300000Y26544524D01*
X32538095Y26639762D01*
X32157142Y26354048D02*
X32300000Y26544524D01*
X32442857Y26354048D01*
X33061904Y26782620D02*
X33061904Y26544524D01*
X32823809Y26639762D02*
X33061904Y26544524D01*
X33300000Y26639762D01*
X32919047Y26354048D02*
X33061904Y26544524D01*
X33204761Y26354048D01*
X15766666Y25517620D02*
X15433333Y25993810D01*
X15195238Y25517620D02*
X15195238Y26517620D01*
X15576190Y26517620D01*
X15671428Y26470000D01*
X15719047Y26422381D01*
X15766666Y26327143D01*
X15766666Y26184286D01*
X15719047Y26089048D01*
X15671428Y26041429D01*
X15576190Y25993810D01*
X15195238Y25993810D01*
X16195238Y26041429D02*
X16528571Y26041429D01*
X16671428Y25517620D02*
X16195238Y25517620D01*
X16195238Y26517620D01*
X16671428Y26517620D01*
X17433333Y26041429D02*
X17100000Y26041429D01*
X17100000Y25517620D02*
X17100000Y26517620D01*
X17576190Y26517620D01*
X18100000Y26517620D02*
X18100000Y26279524D01*
X17861904Y26374762D02*
X18100000Y26279524D01*
X18338095Y26374762D01*
X17957142Y26089048D02*
X18100000Y26279524D01*
X18242857Y26089048D01*
X18861904Y26517620D02*
X18861904Y26279524D01*
X18623809Y26374762D02*
X18861904Y26279524D01*
X19100000Y26374762D01*
X18719047Y26089048D02*
X18861904Y26279524D01*
X19004761Y26089048D01*
X84666666Y29547620D02*
X84333333Y30023810D01*
X84095238Y29547620D02*
X84095238Y30547620D01*
X84476190Y30547620D01*
X84571428Y30500000D01*
X84619047Y30452381D01*
X84666666Y30357143D01*
X84666666Y30214286D01*
X84619047Y30119048D01*
X84571428Y30071429D01*
X84476190Y30023810D01*
X84095238Y30023810D01*
X85095238Y30071429D02*
X85428571Y30071429D01*
X85571428Y29547620D02*
X85095238Y29547620D01*
X85095238Y30547620D01*
X85571428Y30547620D01*
X86333333Y30071429D02*
X86000000Y30071429D01*
X86000000Y29547620D02*
X86000000Y30547620D01*
X86476190Y30547620D01*
X87000000Y30547620D02*
X87000000Y30309524D01*
X86761904Y30404762D02*
X87000000Y30309524D01*
X87238095Y30404762D01*
X86857142Y30119048D02*
X87000000Y30309524D01*
X87142857Y30119048D01*
X87761904Y30547620D02*
X87761904Y30309524D01*
X87523809Y30404762D02*
X87761904Y30309524D01*
X88000000Y30404762D01*
X87619047Y30119048D02*
X87761904Y30309524D01*
X87904761Y30119048D01*
%LPC*%
D13*
X101125000Y3750000D03*
X4875000Y3750000D03*
X4875000Y51250000D03*
X101125000Y51250000D03*
D14*
X15000000Y14100000D03*
D15*
X35000000Y8235000D03*
X67000000Y8235000D03*
D16*
X102000000Y36000000D03*
D15*
X90500000Y17800000D03*
X31300000Y25735000D03*
X17300000Y25735000D03*
D16*
X4000000Y36000000D03*
D17*
X68000000Y33735000D03*
X43000000Y33735000D03*
M02*
