G04 #@! TF.GenerationSoftware,KiCad,Pcbnew,6.0.2+dfsg-1*
G04 #@! TF.CreationDate,2023-08-11T11:48:17-04:00*
G04 #@! TF.ProjectId,HL2IO_endcap,484c3249-4f5f-4656-9e64-6361702e6b69,2.1*
G04 #@! TF.SameCoordinates,PX2faf080PY6422c40*
G04 #@! TF.FileFunction,Profile,NP*
%FSLAX46Y46*%
G04 Gerber Fmt 4.6, Leading zero omitted, Abs format (unit mm)*
G04 Created by KiCad (PCBNEW 6.0.2+dfsg-1) date 2023-08-11 11:48:17*
%MOMM*%
%LPD*%
G01*
G04 APERTURE LIST*
G04 #@! TA.AperFunction,Profile*
%ADD10C,0.150000*%
G04 #@! TD*
G04 #@! TA.AperFunction,Profile*
%ADD11C,0.250000*%
G04 #@! TD*
G04 #@! TA.AperFunction,Profile*
%ADD12C,0.100000*%
G04 #@! TD*
G04 APERTURE END LIST*
D10*
X104000000Y0D02*
X2000000Y0D01*
X106000000Y45000000D02*
X105000000Y44500000D01*
X1000000Y10500000D02*
X1000000Y44500000D01*
X105000000Y44500000D02*
X105000000Y10500000D01*
X2000000Y55000000D02*
X104000000Y55000000D01*
X105000000Y10500000D02*
X106000000Y10000000D01*
X0Y10000000D02*
X1000000Y10500000D01*
X0Y2000000D02*
X0Y10000000D01*
X2000000Y55000000D02*
G75*
G03*
X0Y53000000I-1J-1999999D01*
G01*
X106000000Y10000000D02*
X106000000Y2000000D01*
X0Y2000000D02*
G75*
G03*
X2000000Y0I1999999J-1D01*
G01*
X106000000Y53000000D02*
G75*
G03*
X104000000Y55000000I-1999999J1D01*
G01*
X104000000Y0D02*
G75*
G03*
X106000000Y2000000I1J1999999D01*
G01*
X106000000Y53000000D02*
X106000000Y45000000D01*
X0Y45000000D02*
X0Y53000000D01*
X1000000Y44500000D02*
X0Y45000000D01*
D11*
X90262563Y32512563D02*
X81737437Y32512563D01*
X79987437Y28237437D02*
X79987437Y30762563D01*
X90262563Y26487437D02*
X81737437Y26487437D01*
X92012563Y30762563D02*
X92012563Y28237437D01*
X90262563Y26487437D02*
G75*
G03*
X92012563Y28237437I-3J1750003D01*
G01*
X79987437Y28237437D02*
G75*
G03*
X81737437Y26487437I1750000J0D01*
G01*
X92012563Y30762563D02*
G75*
G03*
X90262563Y32512563I-1750003J-3D01*
G01*
X81737437Y32512563D02*
G75*
G03*
X79987437Y30762563I0J-1750000D01*
G01*
D12*
X62385000Y39065000D02*
X48615000Y39065000D01*
X61505000Y28405000D02*
X49495000Y28405000D01*
X45350000Y35005000D02*
X46230000Y30985000D01*
X65650000Y35005000D02*
X64770000Y30985000D01*
X61489200Y28400468D02*
G75*
G03*
X64770000Y30985000I15799J3354532D01*
G01*
X46230000Y30985000D02*
G75*
G03*
X49510800Y28400469I3264999J769998D01*
G01*
X65649140Y34961414D02*
G75*
G03*
X62385000Y39065000I-3264141J753585D01*
G01*
X48615000Y39064999D02*
G75*
G03*
X45350860Y34961414I-1J-3349999D01*
G01*
M02*
