G04 #@! TF.GenerationSoftware,KiCad,Pcbnew,(6.0.10)*
G04 #@! TF.CreationDate,2023-08-09T07:30:24+00:00*
G04 #@! TF.ProjectId,HL2IO_endcap,484c3249-4f5f-4656-9e64-6361702e6b69,2.1*
G04 #@! TF.SameCoordinates,PX2e593c0PY56057c0*
G04 #@! TF.FileFunction,Profile,NP*
%FSLAX46Y46*%
G04 Gerber Fmt 4.6, Leading zero omitted, Abs format (unit mm)*
G04 Created by KiCad (PCBNEW (6.0.10)) date 2023-08-09 07:30:24*
%MOMM*%
%LPD*%
G01*
G04 APERTURE LIST*
G04 #@! TA.AperFunction,Profile*
%ADD10C,0.150000*%
G04 #@! TD*
G04 #@! TA.AperFunction,Profile*
%ADD11C,0.250000*%
G04 #@! TD*
G04 #@! TA.AperFunction,Profile*
%ADD12C,0.100000*%
G04 #@! TD*
G04 APERTURE END LIST*
D10*
X104000000Y0D02*
X2000000Y0D01*
X106000000Y38000000D02*
G75*
G03*
X104000000Y40000000I-2000000J0D01*
G01*
X2000000Y40000000D02*
X104000000Y40000000D01*
X106000000Y38000000D02*
X106000000Y2000000D01*
X0Y2000000D02*
G75*
G03*
X2000000Y0I2000000J0D01*
G01*
X2000000Y40000000D02*
G75*
G03*
X0Y38000000I0J-2000000D01*
G01*
X0Y2000000D02*
X0Y38000000D01*
X104000000Y0D02*
G75*
G03*
X106000000Y2000000I0J2000000D01*
G01*
D11*
X90262563Y29112563D02*
X81737437Y29112563D01*
X79987437Y24837437D02*
X79987437Y27362563D01*
X90262563Y23087437D02*
X81737437Y23087437D01*
X92012563Y27362563D02*
X92012563Y24837437D01*
X90262563Y23087437D02*
G75*
G03*
X92012563Y24837437I-3J1750003D01*
G01*
X79987437Y24837437D02*
G75*
G03*
X81737437Y23087437I1750000J0D01*
G01*
X92012563Y27362563D02*
G75*
G03*
X90262563Y29112563I-1750003J-3D01*
G01*
X81737437Y29112563D02*
G75*
G03*
X79987437Y27362563I0J-1750000D01*
G01*
D12*
X45350000Y32705000D02*
X46230000Y28685000D01*
X65650000Y32705000D02*
X64770000Y28685000D01*
X62385000Y36765000D02*
X48615000Y36765000D01*
X61505000Y26105000D02*
X49495000Y26105000D01*
X61489200Y26100468D02*
G75*
G03*
X64770000Y28685000I15799J3354532D01*
G01*
X46230000Y28685000D02*
G75*
G03*
X49510800Y26100469I3265000J770000D01*
G01*
X65649140Y32661414D02*
G75*
G03*
X62385000Y36765000I-3264141J753585D01*
G01*
X48615000Y36765000D02*
G75*
G03*
X45350860Y32661414I0J-3350000D01*
G01*
M02*
