G04 #@! TF.GenerationSoftware,KiCad,Pcbnew,(6.0.10)*
G04 #@! TF.CreationDate,2023-08-09T07:30:24+00:00*
G04 #@! TF.ProjectId,HL2IO_endcap,484c3249-4f5f-4656-9e64-6361702e6b69,2.1*
G04 #@! TF.SameCoordinates,PX2e593c0PY56057c0*
G04 #@! TF.FileFunction,Copper,L1,Top*
G04 #@! TF.FilePolarity,Positive*
%FSLAX46Y46*%
G04 Gerber Fmt 4.6, Leading zero omitted, Abs format (unit mm)*
G04 Created by KiCad (PCBNEW (6.0.10)) date 2023-08-09 07:30:24*
%MOMM*%
%LPD*%
G01*
G04 APERTURE LIST*
G04 #@! TA.AperFunction,ComponentPad*
%ADD10C,4.900000*%
G04 #@! TD*
G04 APERTURE END LIST*
D10*
X102000000Y4000000D03*
X4000000Y4000000D03*
X4000000Y36000000D03*
X102000000Y36000000D03*
G04 #@! TA.AperFunction,Conductor*
G36*
X103982236Y39697996D02*
G01*
X104000000Y39694864D01*
X104008530Y39696368D01*
X104013056Y39696368D01*
X104030907Y39697289D01*
X104152893Y39688565D01*
X104234809Y39682707D01*
X104248785Y39680696D01*
X104471884Y39632163D01*
X104485432Y39628186D01*
X104568484Y39597209D01*
X104699364Y39548394D01*
X104712213Y39542526D01*
X104912604Y39433103D01*
X104924486Y39425467D01*
X105107264Y39288642D01*
X105117940Y39279392D01*
X105279392Y39117940D01*
X105288642Y39107264D01*
X105425467Y38924486D01*
X105433103Y38912604D01*
X105542526Y38712213D01*
X105548394Y38699364D01*
X105628185Y38485435D01*
X105632164Y38471882D01*
X105680696Y38248788D01*
X105682707Y38234806D01*
X105697289Y38030907D01*
X105696368Y38013056D01*
X105696368Y38008530D01*
X105694864Y38000000D01*
X105696368Y37991472D01*
X105697996Y37982239D01*
X105699500Y37965047D01*
X105699500Y2034953D01*
X105697996Y2017764D01*
X105694864Y2000000D01*
X105696368Y1991470D01*
X105696368Y1986944D01*
X105697289Y1969093D01*
X105682707Y1765194D01*
X105680696Y1751212D01*
X105632164Y1528118D01*
X105628185Y1514565D01*
X105548394Y1300636D01*
X105542526Y1287787D01*
X105433103Y1087396D01*
X105425467Y1075514D01*
X105288642Y892736D01*
X105279392Y882060D01*
X105117940Y720608D01*
X105107264Y711358D01*
X104924486Y574533D01*
X104912604Y566897D01*
X104712213Y457474D01*
X104699364Y451606D01*
X104568484Y402791D01*
X104485432Y371814D01*
X104471884Y367837D01*
X104248785Y319304D01*
X104234809Y317293D01*
X104152893Y311435D01*
X104030907Y302711D01*
X104013056Y303632D01*
X104008530Y303632D01*
X104000000Y305136D01*
X103982236Y302004D01*
X103965047Y300500D01*
X2034953Y300500D01*
X2017764Y302004D01*
X2000000Y305136D01*
X1991470Y303632D01*
X1986944Y303632D01*
X1969093Y302711D01*
X1847107Y311435D01*
X1765191Y317293D01*
X1751215Y319304D01*
X1528116Y367837D01*
X1514568Y371814D01*
X1431516Y402791D01*
X1300636Y451606D01*
X1287787Y457474D01*
X1087396Y566897D01*
X1075514Y574533D01*
X892736Y711358D01*
X882060Y720608D01*
X720608Y882060D01*
X711358Y892736D01*
X574533Y1075514D01*
X566897Y1087396D01*
X457474Y1287787D01*
X451606Y1300636D01*
X371815Y1514565D01*
X367836Y1528118D01*
X319304Y1751212D01*
X317293Y1765194D01*
X302711Y1969093D01*
X303632Y1986944D01*
X303632Y1991470D01*
X305136Y2000000D01*
X302004Y2017764D01*
X300500Y2034953D01*
X300500Y9234618D01*
X31195758Y9234618D01*
X31195822Y9232081D01*
X31195822Y9232073D01*
X31200801Y9035382D01*
X31205670Y8843042D01*
X31255780Y8454560D01*
X31345558Y8073287D01*
X31474053Y7703261D01*
X31639902Y7348404D01*
X31641206Y7346229D01*
X31641210Y7346222D01*
X31840039Y7014660D01*
X31840046Y7014650D01*
X31841350Y7012475D01*
X32076262Y6699033D01*
X32342149Y6411398D01*
X32636194Y6152618D01*
X32955282Y5925435D01*
X32957496Y5924180D01*
X32957502Y5924176D01*
X33138297Y5821679D01*
X33296032Y5732255D01*
X33298368Y5731232D01*
X33298370Y5731231D01*
X33652507Y5576144D01*
X33652515Y5576141D01*
X33654835Y5575125D01*
X34027889Y5455709D01*
X34030387Y5455185D01*
X34030394Y5455183D01*
X34248209Y5409481D01*
X34411243Y5375273D01*
X34413765Y5375010D01*
X34413766Y5375010D01*
X34798932Y5334867D01*
X34798935Y5334867D01*
X34800833Y5334669D01*
X34804805Y5334565D01*
X34806671Y5334516D01*
X34806681Y5334516D01*
X34807287Y5334500D01*
X35097917Y5334500D01*
X35391182Y5349613D01*
X35559338Y5375795D01*
X35775690Y5409481D01*
X35775694Y5409482D01*
X35778219Y5409875D01*
X36157012Y5509603D01*
X36328817Y5574351D01*
X36521165Y5646841D01*
X36521170Y5646843D01*
X36523547Y5647739D01*
X36698057Y5734937D01*
X36871656Y5821679D01*
X36871660Y5821681D01*
X36873941Y5822821D01*
X36950168Y5871289D01*
X37202327Y6031624D01*
X37202332Y6031628D01*
X37204481Y6032994D01*
X37355680Y6152618D01*
X37509658Y6274440D01*
X37509664Y6274445D01*
X37511667Y6276030D01*
X37513496Y6277812D01*
X37513502Y6277817D01*
X37652543Y6413265D01*
X37792243Y6549355D01*
X38043237Y6850073D01*
X38261990Y7174999D01*
X38446184Y7520690D01*
X38593868Y7883483D01*
X38703477Y8259535D01*
X38773850Y8644862D01*
X38804242Y9035382D01*
X38799264Y9232073D01*
X38799200Y9234618D01*
X63195758Y9234618D01*
X63195822Y9232081D01*
X63195822Y9232073D01*
X63200801Y9035382D01*
X63205670Y8843042D01*
X63255780Y8454560D01*
X63345558Y8073287D01*
X63474053Y7703261D01*
X63639902Y7348404D01*
X63641206Y7346229D01*
X63641210Y7346222D01*
X63840039Y7014660D01*
X63840046Y7014650D01*
X63841350Y7012475D01*
X64076262Y6699033D01*
X64342149Y6411398D01*
X64636194Y6152618D01*
X64955282Y5925435D01*
X64957496Y5924180D01*
X64957502Y5924176D01*
X65138297Y5821679D01*
X65296032Y5732255D01*
X65298368Y5731232D01*
X65298370Y5731231D01*
X65652507Y5576144D01*
X65652515Y5576141D01*
X65654835Y5575125D01*
X66027889Y5455709D01*
X66030387Y5455185D01*
X66030394Y5455183D01*
X66248209Y5409481D01*
X66411243Y5375273D01*
X66413765Y5375010D01*
X66413766Y5375010D01*
X66798932Y5334867D01*
X66798935Y5334867D01*
X66800833Y5334669D01*
X66804805Y5334565D01*
X66806671Y5334516D01*
X66806681Y5334516D01*
X66807287Y5334500D01*
X67097917Y5334500D01*
X67391182Y5349613D01*
X67559338Y5375795D01*
X67775690Y5409481D01*
X67775694Y5409482D01*
X67778219Y5409875D01*
X68157012Y5509603D01*
X68328817Y5574351D01*
X68521165Y5646841D01*
X68521170Y5646843D01*
X68523547Y5647739D01*
X68698057Y5734937D01*
X68871656Y5821679D01*
X68871660Y5821681D01*
X68873941Y5822821D01*
X68950168Y5871289D01*
X69202327Y6031624D01*
X69202332Y6031628D01*
X69204481Y6032994D01*
X69355680Y6152618D01*
X69509658Y6274440D01*
X69509664Y6274445D01*
X69511667Y6276030D01*
X69513496Y6277812D01*
X69513502Y6277817D01*
X69652543Y6413265D01*
X69792243Y6549355D01*
X70043237Y6850073D01*
X70261990Y7174999D01*
X70446184Y7520690D01*
X70593868Y7883483D01*
X70703477Y8259535D01*
X70773850Y8644862D01*
X70804242Y9035382D01*
X70799264Y9232073D01*
X70794395Y9424403D01*
X70794395Y9424409D01*
X70794330Y9426958D01*
X70744220Y9815440D01*
X70654442Y10196713D01*
X70525947Y10566739D01*
X70360098Y10921596D01*
X70358790Y10923778D01*
X70159961Y11255340D01*
X70159954Y11255350D01*
X70158650Y11257525D01*
X69923738Y11570967D01*
X69657851Y11858602D01*
X69363806Y12117382D01*
X69098214Y12306477D01*
X69046797Y12343085D01*
X69046794Y12343087D01*
X69044718Y12344565D01*
X69042504Y12345820D01*
X69042498Y12345824D01*
X68706185Y12536488D01*
X68703968Y12537745D01*
X68701630Y12538769D01*
X68347493Y12693856D01*
X68347485Y12693859D01*
X68345165Y12694875D01*
X67972111Y12814291D01*
X67969613Y12814815D01*
X67969606Y12814817D01*
X67706332Y12870057D01*
X67588757Y12894727D01*
X67586234Y12894990D01*
X67201068Y12935133D01*
X67201065Y12935133D01*
X67199167Y12935331D01*
X67195024Y12935439D01*
X67193329Y12935484D01*
X67193319Y12935484D01*
X67192713Y12935500D01*
X66902083Y12935500D01*
X66608818Y12920387D01*
X66446783Y12895158D01*
X66224310Y12860519D01*
X66224306Y12860518D01*
X66221781Y12860125D01*
X65842988Y12760397D01*
X65840615Y12759503D01*
X65840616Y12759503D01*
X65478835Y12623159D01*
X65478830Y12623157D01*
X65476453Y12622261D01*
X65309359Y12538769D01*
X65128344Y12448321D01*
X65128340Y12448319D01*
X65126059Y12447179D01*
X65123903Y12445808D01*
X64797673Y12238376D01*
X64797668Y12238372D01*
X64795519Y12237006D01*
X64793516Y12235421D01*
X64490342Y11995560D01*
X64490336Y11995555D01*
X64488333Y11993970D01*
X64486504Y11992188D01*
X64486498Y11992183D01*
X64369059Y11877778D01*
X64207757Y11720645D01*
X63956763Y11419927D01*
X63738010Y11095001D01*
X63553816Y10749310D01*
X63406132Y10386517D01*
X63405417Y10384063D01*
X63299834Y10021824D01*
X63296523Y10010465D01*
X63226150Y9625138D01*
X63195758Y9234618D01*
X38799200Y9234618D01*
X38794395Y9424403D01*
X38794395Y9424409D01*
X38794330Y9426958D01*
X38744220Y9815440D01*
X38654442Y10196713D01*
X38525947Y10566739D01*
X38360098Y10921596D01*
X38358790Y10923778D01*
X38159961Y11255340D01*
X38159954Y11255350D01*
X38158650Y11257525D01*
X37923738Y11570967D01*
X37657851Y11858602D01*
X37363806Y12117382D01*
X37098214Y12306477D01*
X37046797Y12343085D01*
X37046794Y12343087D01*
X37044718Y12344565D01*
X37042504Y12345820D01*
X37042498Y12345824D01*
X36706185Y12536488D01*
X36703968Y12537745D01*
X36701630Y12538769D01*
X36347493Y12693856D01*
X36347485Y12693859D01*
X36345165Y12694875D01*
X35972111Y12814291D01*
X35969613Y12814815D01*
X35969606Y12814817D01*
X35706332Y12870057D01*
X35588757Y12894727D01*
X35586234Y12894990D01*
X35201068Y12935133D01*
X35201065Y12935133D01*
X35199167Y12935331D01*
X35195024Y12935439D01*
X35193329Y12935484D01*
X35193319Y12935484D01*
X35192713Y12935500D01*
X34902083Y12935500D01*
X34608818Y12920387D01*
X34446783Y12895158D01*
X34224310Y12860519D01*
X34224306Y12860518D01*
X34221781Y12860125D01*
X33842988Y12760397D01*
X33840615Y12759503D01*
X33840616Y12759503D01*
X33478835Y12623159D01*
X33478830Y12623157D01*
X33476453Y12622261D01*
X33309359Y12538769D01*
X33128344Y12448321D01*
X33128340Y12448319D01*
X33126059Y12447179D01*
X33123903Y12445808D01*
X32797673Y12238376D01*
X32797668Y12238372D01*
X32795519Y12237006D01*
X32793516Y12235421D01*
X32490342Y11995560D01*
X32490336Y11995555D01*
X32488333Y11993970D01*
X32486504Y11992188D01*
X32486498Y11992183D01*
X32369059Y11877778D01*
X32207757Y11720645D01*
X31956763Y11419927D01*
X31738010Y11095001D01*
X31553816Y10749310D01*
X31406132Y10386517D01*
X31405417Y10384063D01*
X31299834Y10021824D01*
X31296523Y10010465D01*
X31226150Y9625138D01*
X31195758Y9234618D01*
X300500Y9234618D01*
X300500Y15000000D01*
X9944552Y15000000D01*
X9963790Y14559389D01*
X9971526Y14500628D01*
X10021074Y14124269D01*
X10021076Y14124257D01*
X10021356Y14122131D01*
X10116812Y13691554D01*
X10249433Y13270935D01*
X10418208Y12863475D01*
X10621854Y12472276D01*
X10623006Y12470468D01*
X10623007Y12470466D01*
X10847946Y12117382D01*
X10858819Y12100314D01*
X11127302Y11750421D01*
X11425258Y11425258D01*
X11750421Y11127302D01*
X12100314Y10858819D01*
X12102130Y10857662D01*
X12102133Y10857660D01*
X12272209Y10749310D01*
X12472276Y10621854D01*
X12474181Y10620862D01*
X12474185Y10620860D01*
X12582778Y10564330D01*
X12863475Y10418208D01*
X13270935Y10249433D01*
X13691554Y10116812D01*
X13693666Y10116344D01*
X13693669Y10116343D01*
X13782901Y10096561D01*
X14122131Y10021356D01*
X14124257Y10021076D01*
X14124269Y10021074D01*
X14412762Y9983094D01*
X14559389Y9963790D01*
X14886675Y9949500D01*
X15113325Y9949500D01*
X15440611Y9963790D01*
X15587238Y9983094D01*
X15875731Y10021074D01*
X15875743Y10021076D01*
X15877869Y10021356D01*
X16217099Y10096561D01*
X16306331Y10116343D01*
X16306334Y10116344D01*
X16308446Y10116812D01*
X16729065Y10249433D01*
X17136525Y10418208D01*
X17417222Y10564330D01*
X17525815Y10620860D01*
X17525819Y10620862D01*
X17527724Y10621854D01*
X17727791Y10749310D01*
X17897867Y10857660D01*
X17897870Y10857662D01*
X17899686Y10858819D01*
X18249579Y11127302D01*
X18574742Y11425258D01*
X18872698Y11750421D01*
X19141181Y12100314D01*
X19152055Y12117382D01*
X19376993Y12470466D01*
X19376994Y12470468D01*
X19378146Y12472276D01*
X19581792Y12863475D01*
X19617994Y12950874D01*
X89695541Y12950874D01*
X89725935Y12749903D01*
X89796119Y12559148D01*
X89903226Y12386401D01*
X90042881Y12238720D01*
X90046986Y12235846D01*
X90046989Y12235843D01*
X90047592Y12235421D01*
X90209379Y12122137D01*
X90213975Y12120148D01*
X90213977Y12120147D01*
X90259809Y12100314D01*
X90395919Y12041414D01*
X90594880Y11999849D01*
X90599432Y11999610D01*
X90600234Y11999568D01*
X90600249Y11999568D01*
X90601539Y11999500D01*
X90750800Y11999500D01*
X90753288Y11999753D01*
X90753294Y11999753D01*
X90813816Y12005901D01*
X90902216Y12014880D01*
X91096172Y12075662D01*
X91273944Y12174203D01*
X91428271Y12306477D01*
X91552848Y12467081D01*
X91642587Y12649455D01*
X91693822Y12846148D01*
X91694521Y12859475D01*
X91699310Y12950874D01*
X92195541Y12950874D01*
X92225935Y12749903D01*
X92296119Y12559148D01*
X92403226Y12386401D01*
X92542881Y12238720D01*
X92546986Y12235846D01*
X92546989Y12235843D01*
X92547592Y12235421D01*
X92709379Y12122137D01*
X92713975Y12120148D01*
X92713977Y12120147D01*
X92759809Y12100314D01*
X92895919Y12041414D01*
X93094880Y11999849D01*
X93099432Y11999610D01*
X93100234Y11999568D01*
X93100249Y11999568D01*
X93101539Y11999500D01*
X93250800Y11999500D01*
X93253288Y11999753D01*
X93253294Y11999753D01*
X93313816Y12005901D01*
X93402216Y12014880D01*
X93596172Y12075662D01*
X93773944Y12174203D01*
X93928271Y12306477D01*
X94052848Y12467081D01*
X94142587Y12649455D01*
X94193822Y12846148D01*
X94194521Y12859475D01*
X94199310Y12950874D01*
X94695541Y12950874D01*
X94725935Y12749903D01*
X94796119Y12559148D01*
X94903226Y12386401D01*
X95042881Y12238720D01*
X95046986Y12235846D01*
X95046989Y12235843D01*
X95047592Y12235421D01*
X95209379Y12122137D01*
X95213975Y12120148D01*
X95213977Y12120147D01*
X95259809Y12100314D01*
X95395919Y12041414D01*
X95594880Y11999849D01*
X95599432Y11999610D01*
X95600234Y11999568D01*
X95600249Y11999568D01*
X95601539Y11999500D01*
X95750800Y11999500D01*
X95753288Y11999753D01*
X95753294Y11999753D01*
X95813816Y12005901D01*
X95902216Y12014880D01*
X96096172Y12075662D01*
X96273944Y12174203D01*
X96428271Y12306477D01*
X96552848Y12467081D01*
X96642587Y12649455D01*
X96693822Y12846148D01*
X96694521Y12859475D01*
X96704196Y13044115D01*
X96704459Y13049126D01*
X96674065Y13250097D01*
X96603881Y13440852D01*
X96496774Y13613599D01*
X96357119Y13761280D01*
X96353014Y13764154D01*
X96353011Y13764157D01*
X96194727Y13874988D01*
X96190621Y13877863D01*
X96186025Y13879852D01*
X96186023Y13879853D01*
X96008677Y13956597D01*
X96008678Y13956597D01*
X96004081Y13958586D01*
X95805120Y14000151D01*
X95800568Y14000390D01*
X95799766Y14000432D01*
X95799751Y14000432D01*
X95798461Y14000500D01*
X95649200Y14000500D01*
X95646712Y14000247D01*
X95646706Y14000247D01*
X95586184Y13994099D01*
X95497784Y13985120D01*
X95303828Y13924338D01*
X95126056Y13825797D01*
X94971729Y13693523D01*
X94847152Y13532919D01*
X94757413Y13350545D01*
X94706178Y13153852D01*
X94695541Y12950874D01*
X94199310Y12950874D01*
X94204196Y13044115D01*
X94204459Y13049126D01*
X94174065Y13250097D01*
X94103881Y13440852D01*
X93996774Y13613599D01*
X93857119Y13761280D01*
X93853014Y13764154D01*
X93853011Y13764157D01*
X93694727Y13874988D01*
X93690621Y13877863D01*
X93686025Y13879852D01*
X93686023Y13879853D01*
X93508677Y13956597D01*
X93508678Y13956597D01*
X93504081Y13958586D01*
X93305120Y14000151D01*
X93300568Y14000390D01*
X93299766Y14000432D01*
X93299751Y14000432D01*
X93298461Y14000500D01*
X93149200Y14000500D01*
X93146712Y14000247D01*
X93146706Y14000247D01*
X93086184Y13994099D01*
X92997784Y13985120D01*
X92803828Y13924338D01*
X92626056Y13825797D01*
X92471729Y13693523D01*
X92347152Y13532919D01*
X92257413Y13350545D01*
X92206178Y13153852D01*
X92195541Y12950874D01*
X91699310Y12950874D01*
X91704196Y13044115D01*
X91704459Y13049126D01*
X91674065Y13250097D01*
X91603881Y13440852D01*
X91496774Y13613599D01*
X91357119Y13761280D01*
X91353014Y13764154D01*
X91353011Y13764157D01*
X91194727Y13874988D01*
X91190621Y13877863D01*
X91186025Y13879852D01*
X91186023Y13879853D01*
X91008677Y13956597D01*
X91008678Y13956597D01*
X91004081Y13958586D01*
X90805120Y14000151D01*
X90800568Y14000390D01*
X90799766Y14000432D01*
X90799751Y14000432D01*
X90798461Y14000500D01*
X90649200Y14000500D01*
X90646712Y14000247D01*
X90646706Y14000247D01*
X90586184Y13994099D01*
X90497784Y13985120D01*
X90303828Y13924338D01*
X90126056Y13825797D01*
X89971729Y13693523D01*
X89847152Y13532919D01*
X89757413Y13350545D01*
X89706178Y13153852D01*
X89695541Y12950874D01*
X19617994Y12950874D01*
X19750567Y13270935D01*
X19883188Y13691554D01*
X19978644Y14122131D01*
X19978924Y14124257D01*
X19978926Y14124269D01*
X20028474Y14500628D01*
X20036210Y14559389D01*
X20055448Y15000000D01*
X20036210Y15440611D01*
X20034859Y15450874D01*
X89695541Y15450874D01*
X89725935Y15249903D01*
X89796119Y15059148D01*
X89903226Y14886401D01*
X90042881Y14738720D01*
X90046986Y14735846D01*
X90046989Y14735843D01*
X90130358Y14677468D01*
X90209379Y14622137D01*
X90213975Y14620148D01*
X90213977Y14620147D01*
X90311156Y14578094D01*
X90395919Y14541414D01*
X90594880Y14499849D01*
X90599432Y14499610D01*
X90600234Y14499568D01*
X90600249Y14499568D01*
X90601539Y14499500D01*
X90750800Y14499500D01*
X90753288Y14499753D01*
X90753294Y14499753D01*
X90813816Y14505901D01*
X90902216Y14514880D01*
X91096172Y14575662D01*
X91273944Y14674203D01*
X91428271Y14806477D01*
X91552848Y14967081D01*
X91642587Y15149455D01*
X91693822Y15346148D01*
X91699310Y15450874D01*
X92195541Y15450874D01*
X92225935Y15249903D01*
X92296119Y15059148D01*
X92403226Y14886401D01*
X92542881Y14738720D01*
X92546986Y14735846D01*
X92546989Y14735843D01*
X92630358Y14677468D01*
X92709379Y14622137D01*
X92713975Y14620148D01*
X92713977Y14620147D01*
X92811156Y14578094D01*
X92895919Y14541414D01*
X93094880Y14499849D01*
X93099432Y14499610D01*
X93100234Y14499568D01*
X93100249Y14499568D01*
X93101539Y14499500D01*
X93250800Y14499500D01*
X93253288Y14499753D01*
X93253294Y14499753D01*
X93313816Y14505901D01*
X93402216Y14514880D01*
X93596172Y14575662D01*
X93773944Y14674203D01*
X93928271Y14806477D01*
X94052848Y14967081D01*
X94142587Y15149455D01*
X94193822Y15346148D01*
X94199310Y15450874D01*
X94695541Y15450874D01*
X94725935Y15249903D01*
X94796119Y15059148D01*
X94903226Y14886401D01*
X95042881Y14738720D01*
X95046986Y14735846D01*
X95046989Y14735843D01*
X95130358Y14677468D01*
X95209379Y14622137D01*
X95213975Y14620148D01*
X95213977Y14620147D01*
X95311156Y14578094D01*
X95395919Y14541414D01*
X95594880Y14499849D01*
X95599432Y14499610D01*
X95600234Y14499568D01*
X95600249Y14499568D01*
X95601539Y14499500D01*
X95750800Y14499500D01*
X95753288Y14499753D01*
X95753294Y14499753D01*
X95813816Y14505901D01*
X95902216Y14514880D01*
X96096172Y14575662D01*
X96273944Y14674203D01*
X96428271Y14806477D01*
X96552848Y14967081D01*
X96642587Y15149455D01*
X96693822Y15346148D01*
X96704459Y15549126D01*
X96674065Y15750097D01*
X96603881Y15940852D01*
X96496774Y16113599D01*
X96357119Y16261280D01*
X96353014Y16264154D01*
X96353011Y16264157D01*
X96194727Y16374988D01*
X96190621Y16377863D01*
X96186025Y16379852D01*
X96186023Y16379853D01*
X96008677Y16456597D01*
X96008678Y16456597D01*
X96004081Y16458586D01*
X95805120Y16500151D01*
X95800568Y16500390D01*
X95799766Y16500432D01*
X95799751Y16500432D01*
X95798461Y16500500D01*
X95649200Y16500500D01*
X95646712Y16500247D01*
X95646706Y16500247D01*
X95586184Y16494099D01*
X95497784Y16485120D01*
X95303828Y16424338D01*
X95126056Y16325797D01*
X94971729Y16193523D01*
X94847152Y16032919D01*
X94757413Y15850545D01*
X94706178Y15653852D01*
X94695541Y15450874D01*
X94199310Y15450874D01*
X94204459Y15549126D01*
X94174065Y15750097D01*
X94103881Y15940852D01*
X93996774Y16113599D01*
X93857119Y16261280D01*
X93853014Y16264154D01*
X93853011Y16264157D01*
X93694727Y16374988D01*
X93690621Y16377863D01*
X93686025Y16379852D01*
X93686023Y16379853D01*
X93508677Y16456597D01*
X93508678Y16456597D01*
X93504081Y16458586D01*
X93305120Y16500151D01*
X93300568Y16500390D01*
X93299766Y16500432D01*
X93299751Y16500432D01*
X93298461Y16500500D01*
X93149200Y16500500D01*
X93146712Y16500247D01*
X93146706Y16500247D01*
X93086184Y16494099D01*
X92997784Y16485120D01*
X92803828Y16424338D01*
X92626056Y16325797D01*
X92471729Y16193523D01*
X92347152Y16032919D01*
X92257413Y15850545D01*
X92206178Y15653852D01*
X92195541Y15450874D01*
X91699310Y15450874D01*
X91704459Y15549126D01*
X91674065Y15750097D01*
X91603881Y15940852D01*
X91496774Y16113599D01*
X91357119Y16261280D01*
X91353014Y16264154D01*
X91353011Y16264157D01*
X91194727Y16374988D01*
X91190621Y16377863D01*
X91186025Y16379852D01*
X91186023Y16379853D01*
X91008677Y16456597D01*
X91008678Y16456597D01*
X91004081Y16458586D01*
X90805120Y16500151D01*
X90800568Y16500390D01*
X90799766Y16500432D01*
X90799751Y16500432D01*
X90798461Y16500500D01*
X90649200Y16500500D01*
X90646712Y16500247D01*
X90646706Y16500247D01*
X90586184Y16494099D01*
X90497784Y16485120D01*
X90303828Y16424338D01*
X90126056Y16325797D01*
X89971729Y16193523D01*
X89847152Y16032919D01*
X89757413Y15850545D01*
X89706178Y15653852D01*
X89695541Y15450874D01*
X20034859Y15450874D01*
X20016906Y15587238D01*
X19978926Y15875731D01*
X19978924Y15875743D01*
X19978644Y15877869D01*
X19883188Y16308446D01*
X19750567Y16729065D01*
X19581792Y17136525D01*
X19409715Y17467081D01*
X19379140Y17525815D01*
X19379138Y17525819D01*
X19378146Y17527724D01*
X19141181Y17899686D01*
X19101903Y17950874D01*
X89695541Y17950874D01*
X89725935Y17749903D01*
X89796119Y17559148D01*
X89903226Y17386401D01*
X90042881Y17238720D01*
X90046986Y17235846D01*
X90046989Y17235843D01*
X90130358Y17177468D01*
X90209379Y17122137D01*
X90213975Y17120148D01*
X90213977Y17120147D01*
X90311156Y17078094D01*
X90395919Y17041414D01*
X90594880Y16999849D01*
X90599432Y16999610D01*
X90600234Y16999568D01*
X90600249Y16999568D01*
X90601539Y16999500D01*
X90750800Y16999500D01*
X90753288Y16999753D01*
X90753294Y16999753D01*
X90813816Y17005901D01*
X90902216Y17014880D01*
X91096172Y17075662D01*
X91273944Y17174203D01*
X91428271Y17306477D01*
X91552848Y17467081D01*
X91642587Y17649455D01*
X91693822Y17846148D01*
X91699310Y17950874D01*
X92195541Y17950874D01*
X92225935Y17749903D01*
X92296119Y17559148D01*
X92403226Y17386401D01*
X92542881Y17238720D01*
X92546986Y17235846D01*
X92546989Y17235843D01*
X92630358Y17177468D01*
X92709379Y17122137D01*
X92713975Y17120148D01*
X92713977Y17120147D01*
X92811156Y17078094D01*
X92895919Y17041414D01*
X93094880Y16999849D01*
X93099432Y16999610D01*
X93100234Y16999568D01*
X93100249Y16999568D01*
X93101539Y16999500D01*
X93250800Y16999500D01*
X93253288Y16999753D01*
X93253294Y16999753D01*
X93313816Y17005901D01*
X93402216Y17014880D01*
X93596172Y17075662D01*
X93773944Y17174203D01*
X93928271Y17306477D01*
X94052848Y17467081D01*
X94142587Y17649455D01*
X94193822Y17846148D01*
X94199310Y17950874D01*
X94695541Y17950874D01*
X94725935Y17749903D01*
X94796119Y17559148D01*
X94903226Y17386401D01*
X95042881Y17238720D01*
X95046986Y17235846D01*
X95046989Y17235843D01*
X95130358Y17177468D01*
X95209379Y17122137D01*
X95213975Y17120148D01*
X95213977Y17120147D01*
X95311156Y17078094D01*
X95395919Y17041414D01*
X95594880Y16999849D01*
X95599432Y16999610D01*
X95600234Y16999568D01*
X95600249Y16999568D01*
X95601539Y16999500D01*
X95750800Y16999500D01*
X95753288Y16999753D01*
X95753294Y16999753D01*
X95813816Y17005901D01*
X95902216Y17014880D01*
X96096172Y17075662D01*
X96273944Y17174203D01*
X96428271Y17306477D01*
X96552848Y17467081D01*
X96642587Y17649455D01*
X96693822Y17846148D01*
X96704459Y18049126D01*
X96674065Y18250097D01*
X96603881Y18440852D01*
X96496774Y18613599D01*
X96357119Y18761280D01*
X96353014Y18764154D01*
X96353011Y18764157D01*
X96194727Y18874988D01*
X96190621Y18877863D01*
X96186025Y18879852D01*
X96186023Y18879853D01*
X96008677Y18956597D01*
X96008678Y18956597D01*
X96004081Y18958586D01*
X95805120Y19000151D01*
X95800568Y19000390D01*
X95799766Y19000432D01*
X95799751Y19000432D01*
X95798461Y19000500D01*
X95649200Y19000500D01*
X95646712Y19000247D01*
X95646706Y19000247D01*
X95586184Y18994099D01*
X95497784Y18985120D01*
X95303828Y18924338D01*
X95126056Y18825797D01*
X94971729Y18693523D01*
X94847152Y18532919D01*
X94757413Y18350545D01*
X94706178Y18153852D01*
X94695541Y17950874D01*
X94199310Y17950874D01*
X94204459Y18049126D01*
X94174065Y18250097D01*
X94103881Y18440852D01*
X93996774Y18613599D01*
X93857119Y18761280D01*
X93853014Y18764154D01*
X93853011Y18764157D01*
X93694727Y18874988D01*
X93690621Y18877863D01*
X93686025Y18879852D01*
X93686023Y18879853D01*
X93508677Y18956597D01*
X93508678Y18956597D01*
X93504081Y18958586D01*
X93305120Y19000151D01*
X93300568Y19000390D01*
X93299766Y19000432D01*
X93299751Y19000432D01*
X93298461Y19000500D01*
X93149200Y19000500D01*
X93146712Y19000247D01*
X93146706Y19000247D01*
X93086184Y18994099D01*
X92997784Y18985120D01*
X92803828Y18924338D01*
X92626056Y18825797D01*
X92471729Y18693523D01*
X92347152Y18532919D01*
X92257413Y18350545D01*
X92206178Y18153852D01*
X92195541Y17950874D01*
X91699310Y17950874D01*
X91704459Y18049126D01*
X91674065Y18250097D01*
X91603881Y18440852D01*
X91496774Y18613599D01*
X91357119Y18761280D01*
X91353014Y18764154D01*
X91353011Y18764157D01*
X91194727Y18874988D01*
X91190621Y18877863D01*
X91186025Y18879852D01*
X91186023Y18879853D01*
X91008677Y18956597D01*
X91008678Y18956597D01*
X91004081Y18958586D01*
X90805120Y19000151D01*
X90800568Y19000390D01*
X90799766Y19000432D01*
X90799751Y19000432D01*
X90798461Y19000500D01*
X90649200Y19000500D01*
X90646712Y19000247D01*
X90646706Y19000247D01*
X90586184Y18994099D01*
X90497784Y18985120D01*
X90303828Y18924338D01*
X90126056Y18825797D01*
X89971729Y18693523D01*
X89847152Y18532919D01*
X89757413Y18350545D01*
X89706178Y18153852D01*
X89695541Y17950874D01*
X19101903Y17950874D01*
X18872698Y18249579D01*
X18574742Y18574742D01*
X18249579Y18872698D01*
X17899686Y19141181D01*
X17527724Y19378146D01*
X17525815Y19379140D01*
X17390592Y19449533D01*
X17347706Y19493174D01*
X17338663Y19553687D01*
X17366915Y19607959D01*
X17421672Y19635260D01*
X17431204Y19636215D01*
X17691182Y19649613D01*
X17859338Y19675795D01*
X18075690Y19709481D01*
X18075694Y19709482D01*
X18078219Y19709875D01*
X18457012Y19809603D01*
X18628817Y19874351D01*
X18821165Y19946841D01*
X18821170Y19946843D01*
X18823547Y19947739D01*
X19000793Y20036304D01*
X19171656Y20121679D01*
X19171660Y20121681D01*
X19173941Y20122821D01*
X19259889Y20177471D01*
X19502327Y20331624D01*
X19502332Y20331628D01*
X19504481Y20332994D01*
X19655680Y20452618D01*
X19809658Y20574440D01*
X19809664Y20574445D01*
X19811667Y20576030D01*
X19813496Y20577812D01*
X19813502Y20577817D01*
X19952543Y20713265D01*
X20092243Y20849355D01*
X20343237Y21150073D01*
X20561990Y21474999D01*
X20746184Y21820690D01*
X20893868Y22183483D01*
X21003477Y22559535D01*
X21073850Y22944862D01*
X21082531Y23056400D01*
X21104045Y23332851D01*
X21104242Y23335382D01*
X21103002Y23384392D01*
X21099199Y23534618D01*
X27495758Y23534618D01*
X27495822Y23532081D01*
X27495822Y23532073D01*
X27504047Y23207163D01*
X27505670Y23143042D01*
X27505996Y23140515D01*
X27552202Y22782301D01*
X27555780Y22754560D01*
X27645558Y22373287D01*
X27774053Y22003261D01*
X27939902Y21648404D01*
X27941206Y21646229D01*
X27941210Y21646222D01*
X28140039Y21314660D01*
X28140046Y21314650D01*
X28141350Y21312475D01*
X28376262Y20999033D01*
X28642149Y20711398D01*
X28936194Y20452618D01*
X29255282Y20225435D01*
X29257496Y20224180D01*
X29257502Y20224176D01*
X29438297Y20121679D01*
X29596032Y20032255D01*
X29598368Y20031232D01*
X29598370Y20031231D01*
X29952507Y19876144D01*
X29952515Y19876141D01*
X29954835Y19875125D01*
X30327889Y19755709D01*
X30330387Y19755185D01*
X30330394Y19755183D01*
X30548209Y19709481D01*
X30711243Y19675273D01*
X30713765Y19675010D01*
X30713766Y19675010D01*
X31098932Y19634867D01*
X31098935Y19634867D01*
X31100833Y19634669D01*
X31104805Y19634565D01*
X31106671Y19634516D01*
X31106681Y19634516D01*
X31107287Y19634500D01*
X31397917Y19634500D01*
X31691182Y19649613D01*
X31859338Y19675795D01*
X32075690Y19709481D01*
X32075694Y19709482D01*
X32078219Y19709875D01*
X32457012Y19809603D01*
X32628817Y19874351D01*
X32821165Y19946841D01*
X32821170Y19946843D01*
X32823547Y19947739D01*
X33000793Y20036304D01*
X33171656Y20121679D01*
X33171660Y20121681D01*
X33173941Y20122821D01*
X33259889Y20177471D01*
X33502327Y20331624D01*
X33502332Y20331628D01*
X33504481Y20332994D01*
X33655680Y20452618D01*
X33809658Y20574440D01*
X33809664Y20574445D01*
X33811667Y20576030D01*
X33813496Y20577812D01*
X33813502Y20577817D01*
X33952543Y20713265D01*
X34092243Y20849355D01*
X34343237Y21150073D01*
X34561990Y21474999D01*
X34746184Y21820690D01*
X34893868Y22183483D01*
X35003477Y22559535D01*
X35073850Y22944862D01*
X35082531Y23056400D01*
X35104045Y23332851D01*
X35104242Y23335382D01*
X35103002Y23384392D01*
X35094395Y23724403D01*
X35094395Y23724409D01*
X35094330Y23726958D01*
X35060133Y23992072D01*
X35044546Y24112915D01*
X35044545Y24112921D01*
X35044220Y24115440D01*
X34954442Y24496713D01*
X34836120Y24837443D01*
X79682301Y24837443D01*
X79682677Y24835313D01*
X79683216Y24827088D01*
X79697396Y24610678D01*
X79700112Y24569222D01*
X79700744Y24566046D01*
X79737288Y24382311D01*
X79752547Y24305590D01*
X79838946Y24051058D01*
X79840375Y24048160D01*
X79840378Y24048153D01*
X79899802Y23927651D01*
X79957829Y23809981D01*
X79959622Y23807298D01*
X79959624Y23807294D01*
X80051481Y23669819D01*
X80107163Y23586484D01*
X80284392Y23384392D01*
X80486484Y23207163D01*
X80489179Y23205363D01*
X80489178Y23205363D01*
X80707294Y23059624D01*
X80707298Y23059622D01*
X80709981Y23057829D01*
X80712873Y23056403D01*
X80712878Y23056400D01*
X80948153Y22940378D01*
X80948160Y22940375D01*
X80951058Y22938946D01*
X81205590Y22852547D01*
X81208771Y22851914D01*
X81208776Y22851913D01*
X81339660Y22825881D01*
X81469222Y22800112D01*
X81472449Y22799901D01*
X81472453Y22799900D01*
X81650582Y22788229D01*
X81735313Y22782677D01*
X81737443Y22782301D01*
X81755204Y22785433D01*
X81772396Y22786937D01*
X90227604Y22786937D01*
X90244796Y22785433D01*
X90262557Y22782301D01*
X90264687Y22782677D01*
X90329703Y22786937D01*
X90527547Y22799900D01*
X90527551Y22799901D01*
X90530778Y22800112D01*
X90660340Y22825881D01*
X90791224Y22851913D01*
X90791229Y22851914D01*
X90794410Y22852547D01*
X91048942Y22938946D01*
X91051840Y22940375D01*
X91051847Y22940378D01*
X91287122Y23056400D01*
X91287127Y23056403D01*
X91290019Y23057829D01*
X91292702Y23059622D01*
X91292706Y23059624D01*
X91510822Y23205363D01*
X91510821Y23205363D01*
X91513516Y23207163D01*
X91715608Y23384392D01*
X91892837Y23586484D01*
X91948519Y23669819D01*
X92040376Y23807294D01*
X92040378Y23807298D01*
X92042171Y23809981D01*
X92100198Y23927651D01*
X92159622Y24048153D01*
X92159625Y24048160D01*
X92161054Y24051058D01*
X92247453Y24305590D01*
X92262713Y24382311D01*
X92299256Y24566046D01*
X92299888Y24569222D01*
X92302605Y24610678D01*
X92316659Y24825181D01*
X92317323Y24835313D01*
X92317699Y24837443D01*
X92314567Y24855204D01*
X92313063Y24872396D01*
X92313063Y27327604D01*
X92314567Y27344797D01*
X92316194Y27354025D01*
X92317699Y27362557D01*
X92317323Y27364687D01*
X92313384Y27424811D01*
X92300100Y27627547D01*
X92300099Y27627551D01*
X92299888Y27630778D01*
X92264144Y27810491D01*
X92248087Y27891224D01*
X92248086Y27891229D01*
X92247453Y27894410D01*
X92161054Y28148942D01*
X92159625Y28151840D01*
X92159622Y28151847D01*
X92043600Y28387122D01*
X92043597Y28387127D01*
X92042171Y28390019D01*
X92004615Y28446227D01*
X91894637Y28610822D01*
X91892837Y28613516D01*
X91749182Y28777324D01*
X91717754Y28813161D01*
X91715608Y28815608D01*
X91513516Y28992837D01*
X91484991Y29011896D01*
X91292706Y29140376D01*
X91292702Y29140378D01*
X91290019Y29142171D01*
X91287127Y29143597D01*
X91287122Y29143600D01*
X91051847Y29259622D01*
X91051840Y29259625D01*
X91048942Y29261054D01*
X90794410Y29347453D01*
X90791229Y29348086D01*
X90791224Y29348087D01*
X90660340Y29374119D01*
X90530778Y29399888D01*
X90527551Y29400099D01*
X90527547Y29400100D01*
X90349418Y29411771D01*
X90264687Y29417323D01*
X90262557Y29417699D01*
X90244797Y29414567D01*
X90227604Y29413063D01*
X81772396Y29413063D01*
X81755203Y29414567D01*
X81737443Y29417699D01*
X81735313Y29417323D01*
X81675189Y29413384D01*
X81472453Y29400100D01*
X81472449Y29400099D01*
X81469222Y29399888D01*
X81339660Y29374119D01*
X81208776Y29348087D01*
X81208771Y29348086D01*
X81205590Y29347453D01*
X80951058Y29261054D01*
X80948160Y29259625D01*
X80948153Y29259622D01*
X80712878Y29143600D01*
X80712873Y29143597D01*
X80709981Y29142171D01*
X80707298Y29140378D01*
X80707294Y29140376D01*
X80515009Y29011896D01*
X80486484Y28992837D01*
X80284392Y28815608D01*
X80282246Y28813161D01*
X80250818Y28777324D01*
X80107163Y28613516D01*
X80105363Y28610822D01*
X79995386Y28446227D01*
X79957829Y28390019D01*
X79956403Y28387127D01*
X79956400Y28387122D01*
X79840378Y28151847D01*
X79840375Y28151840D01*
X79838946Y28148942D01*
X79752547Y27894410D01*
X79751914Y27891229D01*
X79751913Y27891224D01*
X79735856Y27810491D01*
X79700112Y27630778D01*
X79699901Y27627551D01*
X79699900Y27627547D01*
X79688229Y27449418D01*
X79682677Y27364687D01*
X79682301Y27362557D01*
X79683806Y27354025D01*
X79685433Y27344797D01*
X79686937Y27327604D01*
X79686937Y24872396D01*
X79685433Y24855204D01*
X79682301Y24837443D01*
X34836120Y24837443D01*
X34825947Y24866739D01*
X34660098Y25221596D01*
X34658790Y25223778D01*
X34459961Y25555340D01*
X34459954Y25555350D01*
X34458650Y25557525D01*
X34273552Y25804500D01*
X34225255Y25868943D01*
X34225254Y25868944D01*
X34223738Y25870967D01*
X33957851Y26158602D01*
X33710071Y26376666D01*
X33665723Y26415695D01*
X33665722Y26415696D01*
X33663806Y26417382D01*
X33344718Y26644565D01*
X33342504Y26645820D01*
X33342498Y26645824D01*
X33006185Y26836488D01*
X33003968Y26837745D01*
X33001630Y26838769D01*
X32647493Y26993856D01*
X32647485Y26993859D01*
X32645165Y26994875D01*
X32272111Y27114291D01*
X32269613Y27114815D01*
X32269606Y27114817D01*
X32006332Y27170057D01*
X31888757Y27194727D01*
X31886234Y27194990D01*
X31501068Y27235133D01*
X31501065Y27235133D01*
X31499167Y27235331D01*
X31495024Y27235439D01*
X31493329Y27235484D01*
X31493319Y27235484D01*
X31492713Y27235500D01*
X31202083Y27235500D01*
X30908818Y27220387D01*
X30746783Y27195158D01*
X30524310Y27160519D01*
X30524306Y27160518D01*
X30521781Y27160125D01*
X30142988Y27060397D01*
X30140615Y27059503D01*
X30140616Y27059503D01*
X29778835Y26923159D01*
X29778830Y26923157D01*
X29776453Y26922261D01*
X29774174Y26921122D01*
X29428344Y26748321D01*
X29428340Y26748319D01*
X29426059Y26747179D01*
X29423903Y26745808D01*
X29097673Y26538376D01*
X29097668Y26538372D01*
X29095519Y26537006D01*
X29093516Y26535421D01*
X28790342Y26295560D01*
X28790336Y26295555D01*
X28788333Y26293970D01*
X28786504Y26292188D01*
X28786498Y26292183D01*
X28693105Y26201203D01*
X28507757Y26020645D01*
X28256763Y25719927D01*
X28038010Y25395001D01*
X27853816Y25049310D01*
X27706132Y24686517D01*
X27684027Y24610678D01*
X27621771Y24397086D01*
X27596523Y24310465D01*
X27526150Y23925138D01*
X27495758Y23534618D01*
X21099199Y23534618D01*
X21094395Y23724403D01*
X21094395Y23724409D01*
X21094330Y23726958D01*
X21060133Y23992072D01*
X21044546Y24112915D01*
X21044545Y24112921D01*
X21044220Y24115440D01*
X20954442Y24496713D01*
X20825947Y24866739D01*
X20660098Y25221596D01*
X20658790Y25223778D01*
X20459961Y25555340D01*
X20459954Y25555350D01*
X20458650Y25557525D01*
X20273552Y25804500D01*
X20225255Y25868943D01*
X20225254Y25868944D01*
X20223738Y25870967D01*
X19957851Y26158602D01*
X19710071Y26376666D01*
X19665723Y26415695D01*
X19665722Y26415696D01*
X19663806Y26417382D01*
X19344718Y26644565D01*
X19342504Y26645820D01*
X19342498Y26645824D01*
X19006185Y26836488D01*
X19003968Y26837745D01*
X19001630Y26838769D01*
X18647493Y26993856D01*
X18647485Y26993859D01*
X18645165Y26994875D01*
X18272111Y27114291D01*
X18269613Y27114815D01*
X18269606Y27114817D01*
X18006332Y27170057D01*
X17888757Y27194727D01*
X17886234Y27194990D01*
X17501068Y27235133D01*
X17501065Y27235133D01*
X17499167Y27235331D01*
X17495024Y27235439D01*
X17493329Y27235484D01*
X17493319Y27235484D01*
X17492713Y27235500D01*
X17202083Y27235500D01*
X16908818Y27220387D01*
X16746783Y27195158D01*
X16524310Y27160519D01*
X16524306Y27160518D01*
X16521781Y27160125D01*
X16142988Y27060397D01*
X16140615Y27059503D01*
X16140616Y27059503D01*
X15778835Y26923159D01*
X15778830Y26923157D01*
X15776453Y26922261D01*
X15774174Y26921122D01*
X15428344Y26748321D01*
X15428340Y26748319D01*
X15426059Y26747179D01*
X15423903Y26745808D01*
X15097673Y26538376D01*
X15097668Y26538372D01*
X15095519Y26537006D01*
X15093516Y26535421D01*
X14790342Y26295560D01*
X14790336Y26295555D01*
X14788333Y26293970D01*
X14786504Y26292188D01*
X14786498Y26292183D01*
X14693105Y26201203D01*
X14507757Y26020645D01*
X14256763Y25719927D01*
X14038010Y25395001D01*
X13853816Y25049310D01*
X13706132Y24686517D01*
X13684027Y24610678D01*
X13621771Y24397086D01*
X13596523Y24310465D01*
X13526150Y23925138D01*
X13495758Y23534618D01*
X13495822Y23532081D01*
X13495822Y23532073D01*
X13504047Y23207163D01*
X13505670Y23143042D01*
X13505996Y23140515D01*
X13552202Y22782301D01*
X13555780Y22754560D01*
X13645558Y22373287D01*
X13774053Y22003261D01*
X13939902Y21648404D01*
X13941206Y21646229D01*
X13941210Y21646222D01*
X14140039Y21314660D01*
X14140046Y21314650D01*
X14141350Y21312475D01*
X14376262Y20999033D01*
X14642149Y20711398D01*
X14936194Y20452618D01*
X15066230Y20360036D01*
X15253611Y20226624D01*
X15290049Y20177471D01*
X15290636Y20116288D01*
X15255149Y20066446D01*
X15191874Y20047070D01*
X15113325Y20050500D01*
X14886675Y20050500D01*
X14559389Y20036210D01*
X14412762Y20016906D01*
X14124269Y19978926D01*
X14124257Y19978924D01*
X14122131Y19978644D01*
X13782901Y19903439D01*
X13693669Y19883657D01*
X13693666Y19883656D01*
X13691554Y19883188D01*
X13270935Y19750567D01*
X12863475Y19581792D01*
X12472276Y19378146D01*
X12100314Y19141181D01*
X11750421Y18872698D01*
X11425258Y18574742D01*
X11127302Y18249579D01*
X10858819Y17899686D01*
X10621854Y17527724D01*
X10620862Y17525819D01*
X10620860Y17525815D01*
X10590285Y17467081D01*
X10418208Y17136525D01*
X10249433Y16729065D01*
X10116812Y16308446D01*
X10021356Y15877869D01*
X10021076Y15875743D01*
X10021074Y15875731D01*
X9983094Y15587238D01*
X9963790Y15440611D01*
X9944552Y15000000D01*
X300500Y15000000D01*
X300500Y31323243D01*
X41172795Y31323243D01*
X41209384Y31054393D01*
X41285310Y30793904D01*
X41286849Y30790566D01*
X41397367Y30550833D01*
X41397370Y30550827D01*
X41398905Y30547498D01*
X41547672Y30320590D01*
X41728345Y30118163D01*
X41936954Y29944665D01*
X42168916Y29803907D01*
X42419136Y29698981D01*
X42422698Y29698076D01*
X42422699Y29698076D01*
X42678555Y29633096D01*
X42678560Y29633095D01*
X42682116Y29632192D01*
X42907470Y29609500D01*
X43068884Y29609500D01*
X43159394Y29616226D01*
X43266929Y29624217D01*
X43266935Y29624218D01*
X43270583Y29624489D01*
X43535221Y29684370D01*
X43538638Y29685699D01*
X43538642Y29685700D01*
X43784682Y29781380D01*
X43788102Y29782710D01*
X43828528Y29805815D01*
X44020481Y29915526D01*
X44023669Y29917348D01*
X44236748Y30085326D01*
X44239262Y30087999D01*
X44239268Y30088004D01*
X44420144Y30280282D01*
X44422658Y30282954D01*
X44577315Y30505891D01*
X44697320Y30749238D01*
X44780039Y31007650D01*
X44780629Y31011271D01*
X44823064Y31271832D01*
X44823064Y31271837D01*
X44823653Y31275451D01*
X44827205Y31546757D01*
X44790616Y31815607D01*
X44714690Y32076096D01*
X44688244Y32133462D01*
X44602633Y32319167D01*
X44602630Y32319173D01*
X44601095Y32322502D01*
X44452328Y32549410D01*
X44406015Y32601300D01*
X44274098Y32749100D01*
X44274097Y32749101D01*
X44271655Y32751837D01*
X44181123Y32827132D01*
X44065874Y32922983D01*
X44063046Y32925335D01*
X43831084Y33066093D01*
X43580864Y33171019D01*
X43577301Y33171924D01*
X43321445Y33236904D01*
X43321440Y33236905D01*
X43317884Y33237808D01*
X43092530Y33260500D01*
X42931116Y33260500D01*
X42840606Y33253774D01*
X42733071Y33245783D01*
X42733065Y33245782D01*
X42729417Y33245511D01*
X42464779Y33185630D01*
X42461362Y33184301D01*
X42461358Y33184300D01*
X42215318Y33088620D01*
X42211898Y33087290D01*
X42208718Y33085472D01*
X42208715Y33085471D01*
X42149627Y33051699D01*
X41976331Y32952652D01*
X41763252Y32784674D01*
X41760738Y32782001D01*
X41760732Y32781996D01*
X41729787Y32749100D01*
X41577342Y32587046D01*
X41422685Y32364109D01*
X41302680Y32120762D01*
X41219961Y31862350D01*
X41219372Y31858733D01*
X41219371Y31858729D01*
X41212922Y31819127D01*
X41176347Y31594549D01*
X41172795Y31323243D01*
X300500Y31323243D01*
X300500Y33315779D01*
X44961303Y33315779D01*
X44961494Y33313307D01*
X44961494Y33313305D01*
X44980736Y33064185D01*
X44989402Y32951980D01*
X44989834Y32949565D01*
X44989835Y32949556D01*
X45025193Y32751837D01*
X45053506Y32593515D01*
X45053545Y32592773D01*
X45056928Y32584804D01*
X45077621Y32536054D01*
X45083201Y32518541D01*
X45929669Y28651722D01*
X45931798Y28636197D01*
X45933011Y28614960D01*
X45934145Y28612323D01*
X46030268Y28277542D01*
X46031141Y28275328D01*
X46031142Y28275325D01*
X46128951Y28027275D01*
X46159073Y27950883D01*
X46234531Y27802914D01*
X46317512Y27640195D01*
X46318594Y27638073D01*
X46319871Y27636070D01*
X46319875Y27636063D01*
X46505574Y27344797D01*
X46507362Y27341993D01*
X46508814Y27340136D01*
X46508821Y27340126D01*
X46654644Y27153616D01*
X46723640Y27065369D01*
X46965434Y26810747D01*
X46967222Y26809194D01*
X46967227Y26809189D01*
X47149563Y26650798D01*
X47230520Y26580472D01*
X47285914Y26540989D01*
X47478852Y26403469D01*
X47516457Y26376665D01*
X47518513Y26375479D01*
X47518516Y26375477D01*
X47818544Y26202394D01*
X47818551Y26202390D01*
X47820611Y26201202D01*
X47822783Y26200213D01*
X47822789Y26200210D01*
X48138020Y26056683D01*
X48138027Y26056680D01*
X48140182Y26055699D01*
X48472228Y25941495D01*
X48474536Y25940942D01*
X48474542Y25940940D01*
X48668587Y25894426D01*
X48813691Y25859643D01*
X48816045Y25859313D01*
X49159064Y25811225D01*
X49159072Y25811224D01*
X49161428Y25810894D01*
X49292340Y25805224D01*
X49500407Y25796212D01*
X49500409Y25796212D01*
X49509398Y25795823D01*
X49512237Y25795336D01*
X49520758Y25796880D01*
X49520760Y25796880D01*
X49554060Y25802914D01*
X49571711Y25804500D01*
X61428289Y25804500D01*
X61445940Y25802914D01*
X61479241Y25796880D01*
X61479242Y25796880D01*
X61487763Y25795336D01*
X61490610Y25795824D01*
X61497401Y25796118D01*
X61613237Y25801135D01*
X61838572Y25810895D01*
X61840928Y25811225D01*
X61840936Y25811226D01*
X62183954Y25859314D01*
X62186308Y25859644D01*
X62331563Y25894463D01*
X62525458Y25940941D01*
X62525464Y25940943D01*
X62527772Y25941496D01*
X62859817Y26055700D01*
X62861976Y26056683D01*
X62861979Y26056684D01*
X63177210Y26200211D01*
X63177216Y26200214D01*
X63179388Y26201203D01*
X63181453Y26202394D01*
X63181455Y26202395D01*
X63481484Y26375478D01*
X63481487Y26375480D01*
X63483543Y26376666D01*
X63521887Y26403996D01*
X63710418Y26538376D01*
X63769479Y26580473D01*
X63959808Y26745808D01*
X64032772Y26809190D01*
X64032777Y26809195D01*
X64034565Y26810748D01*
X64036195Y26812464D01*
X64036205Y26812474D01*
X64274727Y27063649D01*
X64274731Y27063653D01*
X64276360Y27065369D01*
X64277815Y27067231D01*
X64277821Y27067237D01*
X64491177Y27340126D01*
X64491182Y27340132D01*
X64492637Y27341994D01*
X64666503Y27614700D01*
X64680124Y27636064D01*
X64680128Y27636071D01*
X64681405Y27638074D01*
X64840926Y27950884D01*
X64841798Y27953095D01*
X64841801Y27953102D01*
X64968857Y28275326D01*
X64968858Y28275329D01*
X64969731Y28277543D01*
X65001309Y28387525D01*
X65063370Y28603671D01*
X65063370Y28603672D01*
X65065852Y28612316D01*
X65066989Y28614960D01*
X65068203Y28636203D01*
X65070332Y28651724D01*
X65476942Y30509193D01*
X65655142Y31323243D01*
X66172795Y31323243D01*
X66209384Y31054393D01*
X66285310Y30793904D01*
X66286849Y30790566D01*
X66397367Y30550833D01*
X66397370Y30550827D01*
X66398905Y30547498D01*
X66547672Y30320590D01*
X66728345Y30118163D01*
X66936954Y29944665D01*
X67168916Y29803907D01*
X67419136Y29698981D01*
X67422698Y29698076D01*
X67422699Y29698076D01*
X67678555Y29633096D01*
X67678560Y29633095D01*
X67682116Y29632192D01*
X67907470Y29609500D01*
X68068884Y29609500D01*
X68159394Y29616226D01*
X68266929Y29624217D01*
X68266935Y29624218D01*
X68270583Y29624489D01*
X68535221Y29684370D01*
X68538638Y29685699D01*
X68538642Y29685700D01*
X68784682Y29781380D01*
X68788102Y29782710D01*
X68828528Y29805815D01*
X69020481Y29915526D01*
X69023669Y29917348D01*
X69236748Y30085326D01*
X69239262Y30087999D01*
X69239268Y30088004D01*
X69420144Y30280282D01*
X69422658Y30282954D01*
X69577315Y30505891D01*
X69697320Y30749238D01*
X69780039Y31007650D01*
X69780629Y31011271D01*
X69823064Y31271832D01*
X69823064Y31271837D01*
X69823653Y31275451D01*
X69827205Y31546757D01*
X69790616Y31815607D01*
X69714690Y32076096D01*
X69688244Y32133462D01*
X69602633Y32319167D01*
X69602630Y32319173D01*
X69601095Y32322502D01*
X69452328Y32549410D01*
X69406015Y32601300D01*
X69274098Y32749100D01*
X69274097Y32749101D01*
X69271655Y32751837D01*
X69181123Y32827132D01*
X69065874Y32922983D01*
X69063046Y32925335D01*
X68831084Y33066093D01*
X68580864Y33171019D01*
X68577301Y33171924D01*
X68321445Y33236904D01*
X68321440Y33236905D01*
X68317884Y33237808D01*
X68092530Y33260500D01*
X67931116Y33260500D01*
X67840606Y33253774D01*
X67733071Y33245783D01*
X67733065Y33245782D01*
X67729417Y33245511D01*
X67464779Y33185630D01*
X67461362Y33184301D01*
X67461358Y33184300D01*
X67215318Y33088620D01*
X67211898Y33087290D01*
X67208718Y33085472D01*
X67208715Y33085471D01*
X67149627Y33051699D01*
X66976331Y32952652D01*
X66763252Y32784674D01*
X66760738Y32782001D01*
X66760732Y32781996D01*
X66729787Y32749100D01*
X66577342Y32587046D01*
X66422685Y32364109D01*
X66302680Y32120762D01*
X66219961Y31862350D01*
X66219372Y31858733D01*
X66219371Y31858729D01*
X66212922Y31819127D01*
X66176347Y31594549D01*
X66172795Y31323243D01*
X65655142Y31323243D01*
X65916799Y32518544D01*
X65922376Y32536046D01*
X65946455Y32592773D01*
X65946494Y32593515D01*
X65974807Y32751837D01*
X66010165Y32949556D01*
X66010166Y32949565D01*
X66010598Y32951980D01*
X66019265Y33064185D01*
X66038506Y33313305D01*
X66038506Y33313307D01*
X66038697Y33315779D01*
X66030383Y33680568D01*
X65985740Y34042710D01*
X65905211Y34398597D01*
X65789599Y34744680D01*
X65640058Y35077512D01*
X65458076Y35393776D01*
X65245467Y35690318D01*
X65004351Y35964185D01*
X64737131Y36212647D01*
X64605776Y36312331D01*
X64448449Y36431725D01*
X64448441Y36431730D01*
X64446469Y36433227D01*
X64135262Y36623727D01*
X63806612Y36782249D01*
X63463794Y36907213D01*
X63279879Y36954111D01*
X63112619Y36996763D01*
X63112610Y36996765D01*
X63110225Y36997373D01*
X62749429Y37051831D01*
X62701553Y37054224D01*
X62396779Y37069456D01*
X62396777Y37069456D01*
X62385728Y37070008D01*
X62385000Y37070136D01*
X62367236Y37067004D01*
X62350047Y37065500D01*
X48649953Y37065500D01*
X48632764Y37067004D01*
X48615000Y37070136D01*
X48614272Y37070008D01*
X48606368Y37069613D01*
X48554165Y37067004D01*
X48250571Y37051831D01*
X47889775Y36997373D01*
X47887390Y36996765D01*
X47887381Y36996763D01*
X47720121Y36954111D01*
X47536206Y36907213D01*
X47193388Y36782249D01*
X46864738Y36623727D01*
X46553531Y36433227D01*
X46551559Y36431730D01*
X46551551Y36431725D01*
X46394224Y36312331D01*
X46262869Y36212647D01*
X45995649Y35964185D01*
X45754533Y35690318D01*
X45541924Y35393776D01*
X45359942Y35077512D01*
X45210401Y34744680D01*
X45094789Y34398597D01*
X45014260Y34042710D01*
X44969617Y33680568D01*
X44961303Y33315779D01*
X300500Y33315779D01*
X300500Y37965047D01*
X302004Y37982239D01*
X303632Y37991472D01*
X305136Y38000000D01*
X303632Y38008530D01*
X303632Y38013056D01*
X302711Y38030907D01*
X317293Y38234806D01*
X319304Y38248788D01*
X367836Y38471882D01*
X371815Y38485435D01*
X451606Y38699364D01*
X457474Y38712213D01*
X566897Y38912604D01*
X574533Y38924486D01*
X711358Y39107264D01*
X720608Y39117940D01*
X882060Y39279392D01*
X892736Y39288642D01*
X1075514Y39425467D01*
X1087396Y39433103D01*
X1287787Y39542526D01*
X1300636Y39548394D01*
X1431516Y39597209D01*
X1514568Y39628186D01*
X1528116Y39632163D01*
X1751215Y39680696D01*
X1765191Y39682707D01*
X1847107Y39688565D01*
X1969093Y39697289D01*
X1986944Y39696368D01*
X1991470Y39696368D01*
X2000000Y39694864D01*
X2017764Y39697996D01*
X2034953Y39699500D01*
X103965047Y39699500D01*
X103982236Y39697996D01*
G37*
G04 #@! TD.AperFunction*
M02*
