G04 #@! TF.GenerationSoftware,KiCad,Pcbnew,6.0.2+dfsg-1*
G04 #@! TF.CreationDate,2023-08-11T11:42:39-04:00*
G04 #@! TF.ProjectId,HL2IO_endcap,484c3249-4f5f-4656-9e64-6361702e6b69,2.1*
G04 #@! TF.SameCoordinates,PX2e593c0PY56057c0*
G04 #@! TF.FileFunction,Legend,Bot*
G04 #@! TF.FilePolarity,Positive*
%FSLAX46Y46*%
G04 Gerber Fmt 4.6, Leading zero omitted, Abs format (unit mm)*
G04 Created by KiCad (PCBNEW 6.0.2+dfsg-1) date 2023-08-11 11:42:39*
%MOMM*%
%LPD*%
G01*
G04 APERTURE LIST*
%ADD10C,0.120000*%
%ADD11C,0.100000*%
%ADD12C,0.002540*%
G04 APERTURE END LIST*
D10*
X9016095Y4947381D02*
X9016095Y3947381D01*
X9016095Y4423572D02*
X9587523Y4423572D01*
X9587523Y4947381D02*
X9587523Y3947381D01*
X10539904Y4947381D02*
X10063714Y4947381D01*
X10063714Y3947381D01*
X10825619Y4042620D02*
X10873238Y3995000D01*
X10968476Y3947381D01*
X11206571Y3947381D01*
X11301809Y3995000D01*
X11349428Y4042620D01*
X11397047Y4137858D01*
X11397047Y4233096D01*
X11349428Y4375953D01*
X10778000Y4947381D01*
X11397047Y4947381D01*
X12587523Y4947381D02*
X12587523Y3947381D01*
X13254190Y3947381D02*
X13444666Y3947381D01*
X13539904Y3995000D01*
X13635142Y4090239D01*
X13682761Y4280715D01*
X13682761Y4614048D01*
X13635142Y4804524D01*
X13539904Y4899762D01*
X13444666Y4947381D01*
X13254190Y4947381D01*
X13158952Y4899762D01*
X13063714Y4804524D01*
X13016095Y4614048D01*
X13016095Y4280715D01*
X13063714Y4090239D01*
X13158952Y3995000D01*
X13254190Y3947381D01*
X14873238Y4423572D02*
X15206571Y4423572D01*
X15349428Y4947381D02*
X14873238Y4947381D01*
X14873238Y3947381D01*
X15349428Y3947381D01*
X15777999Y4280715D02*
X15777999Y4947381D01*
X15777999Y4375953D02*
X15825619Y4328334D01*
X15920857Y4280715D01*
X16063714Y4280715D01*
X16158952Y4328334D01*
X16206571Y4423572D01*
X16206571Y4947381D01*
X17111333Y4947381D02*
X17111333Y3947381D01*
X17111333Y4899762D02*
X17016095Y4947381D01*
X16825619Y4947381D01*
X16730380Y4899762D01*
X16682761Y4852143D01*
X16635142Y4756905D01*
X16635142Y4471191D01*
X16682761Y4375953D01*
X16730380Y4328334D01*
X16825619Y4280715D01*
X17016095Y4280715D01*
X17111333Y4328334D01*
X18349428Y4947381D02*
X18349428Y3947381D01*
X18730380Y3947381D01*
X18825619Y3995000D01*
X18873238Y4042620D01*
X18920857Y4137858D01*
X18920857Y4280715D01*
X18873238Y4375953D01*
X18825619Y4423572D01*
X18730380Y4471191D01*
X18349428Y4471191D01*
X19492285Y4947381D02*
X19397047Y4899762D01*
X19349428Y4804524D01*
X19349428Y3947381D01*
X20301809Y4947381D02*
X20301809Y4423572D01*
X20254190Y4328334D01*
X20158952Y4280715D01*
X19968476Y4280715D01*
X19873238Y4328334D01*
X20301809Y4899762D02*
X20206571Y4947381D01*
X19968476Y4947381D01*
X19873238Y4899762D01*
X19825619Y4804524D01*
X19825619Y4709286D01*
X19873238Y4614048D01*
X19968476Y4566429D01*
X20206571Y4566429D01*
X20301809Y4518810D01*
X20635142Y4280715D02*
X21016095Y4280715D01*
X20778000Y3947381D02*
X20778000Y4804524D01*
X20825619Y4899762D01*
X20920857Y4947381D01*
X21016095Y4947381D01*
X21730380Y4899762D02*
X21635142Y4947381D01*
X21444666Y4947381D01*
X21349428Y4899762D01*
X21301809Y4804524D01*
X21301809Y4423572D01*
X21349428Y4328334D01*
X21444666Y4280715D01*
X21635142Y4280715D01*
X21730380Y4328334D01*
X21778000Y4423572D01*
X21778000Y4518810D01*
X21301809Y4614048D01*
X22873238Y4280715D02*
X23111333Y4947381D01*
X23349428Y4280715D01*
X23682761Y4042620D02*
X23730380Y3995000D01*
X23825619Y3947381D01*
X24063714Y3947381D01*
X24158952Y3995000D01*
X24206571Y4042620D01*
X24254190Y4137858D01*
X24254190Y4233096D01*
X24206571Y4375953D01*
X23635142Y4947381D01*
X24254190Y4947381D01*
X24682761Y4852143D02*
X24730380Y4899762D01*
X24682761Y4947381D01*
X24635142Y4899762D01*
X24682761Y4852143D01*
X24682761Y4947381D01*
X25682761Y4947381D02*
X25111333Y4947381D01*
X25397047Y4947381D02*
X25397047Y3947381D01*
X25301809Y4090239D01*
X25206571Y4185477D01*
X25111333Y4233096D01*
X9825619Y5795477D02*
X9730380Y5747858D01*
X9539904Y5747858D01*
X9444666Y5795477D01*
X9349428Y5890715D01*
X9301809Y5985953D01*
X9301809Y6176429D01*
X9349428Y6271667D01*
X9444666Y6366905D01*
X9539904Y6414524D01*
X9730380Y6414524D01*
X9825619Y6366905D01*
X9635142Y5414524D02*
X9397047Y5462143D01*
X9158952Y5605000D01*
X9016095Y5843096D01*
X8968476Y6081191D01*
X9016095Y6319286D01*
X9158952Y6557381D01*
X9397047Y6700239D01*
X9635142Y6747858D01*
X9873238Y6700239D01*
X10111333Y6557381D01*
X10254190Y6319286D01*
X10301809Y6081191D01*
X10254190Y5843096D01*
X10111333Y5605000D01*
X9873238Y5462143D01*
X9635142Y5414524D01*
X11444666Y5652620D02*
X11492285Y5605000D01*
X11587523Y5557381D01*
X11825619Y5557381D01*
X11920857Y5605000D01*
X11968476Y5652620D01*
X12016095Y5747858D01*
X12016095Y5843096D01*
X11968476Y5985953D01*
X11397047Y6557381D01*
X12016095Y6557381D01*
X12635142Y5557381D02*
X12730380Y5557381D01*
X12825619Y5605000D01*
X12873238Y5652620D01*
X12920857Y5747858D01*
X12968476Y5938334D01*
X12968476Y6176429D01*
X12920857Y6366905D01*
X12873238Y6462143D01*
X12825619Y6509762D01*
X12730380Y6557381D01*
X12635142Y6557381D01*
X12539904Y6509762D01*
X12492285Y6462143D01*
X12444666Y6366905D01*
X12397047Y6176429D01*
X12397047Y5938334D01*
X12444666Y5747858D01*
X12492285Y5652620D01*
X12539904Y5605000D01*
X12635142Y5557381D01*
X13349428Y5652620D02*
X13397047Y5605000D01*
X13492285Y5557381D01*
X13730380Y5557381D01*
X13825619Y5605000D01*
X13873238Y5652620D01*
X13920857Y5747858D01*
X13920857Y5843096D01*
X13873238Y5985953D01*
X13301809Y6557381D01*
X13920857Y6557381D01*
X14539904Y5557381D02*
X14635142Y5557381D01*
X14730380Y5605000D01*
X14778000Y5652620D01*
X14825619Y5747858D01*
X14873238Y5938334D01*
X14873238Y6176429D01*
X14825619Y6366905D01*
X14778000Y6462143D01*
X14730380Y6509762D01*
X14635142Y6557381D01*
X14539904Y6557381D01*
X14444666Y6509762D01*
X14397047Y6462143D01*
X14349428Y6366905D01*
X14301809Y6176429D01*
X14301809Y5938334D01*
X14349428Y5747858D01*
X14397047Y5652620D01*
X14444666Y5605000D01*
X14539904Y5557381D01*
X16016095Y6509762D02*
X16158952Y6557381D01*
X16397047Y6557381D01*
X16492285Y6509762D01*
X16539904Y6462143D01*
X16587523Y6366905D01*
X16587523Y6271667D01*
X16539904Y6176429D01*
X16492285Y6128810D01*
X16397047Y6081191D01*
X16206571Y6033572D01*
X16111333Y5985953D01*
X16063714Y5938334D01*
X16016095Y5843096D01*
X16016095Y5747858D01*
X16063714Y5652620D01*
X16111333Y5605000D01*
X16206571Y5557381D01*
X16444666Y5557381D01*
X16587523Y5605000D01*
X17158952Y6557381D02*
X17063714Y6509762D01*
X17016095Y6462143D01*
X16968476Y6366905D01*
X16968476Y6081191D01*
X17016095Y5985953D01*
X17063714Y5938334D01*
X17158952Y5890715D01*
X17301809Y5890715D01*
X17397047Y5938334D01*
X17444666Y5985953D01*
X17492285Y6081191D01*
X17492285Y6366905D01*
X17444666Y6462143D01*
X17397047Y6509762D01*
X17301809Y6557381D01*
X17158952Y6557381D01*
X17778000Y5890715D02*
X18158952Y5890715D01*
X17920857Y6557381D02*
X17920857Y5700239D01*
X17968476Y5605000D01*
X18063714Y5557381D01*
X18158952Y5557381D01*
X18349428Y5890715D02*
X18730380Y5890715D01*
X18492285Y5557381D02*
X18492285Y6414524D01*
X18539904Y6509762D01*
X18635142Y6557381D01*
X18730380Y6557381D01*
X19444666Y6509762D02*
X19349428Y6557381D01*
X19158952Y6557381D01*
X19063714Y6509762D01*
X19016095Y6414524D01*
X19016095Y6033572D01*
X19063714Y5938334D01*
X19158952Y5890715D01*
X19349428Y5890715D01*
X19444666Y5938334D01*
X19492285Y6033572D01*
X19492285Y6128810D01*
X19016095Y6224048D01*
X19920857Y6557381D02*
X19920857Y5890715D01*
X19920857Y6081191D02*
X19968476Y5985953D01*
X20016095Y5938334D01*
X20111333Y5890715D01*
X20206571Y5890715D01*
X20539904Y6557381D02*
X20539904Y5557381D01*
X20539904Y6033572D02*
X21111333Y6033572D01*
X21111333Y6557381D02*
X21111333Y5557381D01*
X22016095Y6557381D02*
X22016095Y6033572D01*
X21968476Y5938334D01*
X21873238Y5890715D01*
X21682761Y5890715D01*
X21587523Y5938334D01*
X22016095Y6509762D02*
X21920857Y6557381D01*
X21682761Y6557381D01*
X21587523Y6509762D01*
X21539904Y6414524D01*
X21539904Y6319286D01*
X21587523Y6224048D01*
X21682761Y6176429D01*
X21920857Y6176429D01*
X22016095Y6128810D01*
X22492285Y6557381D02*
X22492285Y5890715D01*
X22492285Y6081191D02*
X22539904Y5985953D01*
X22587523Y5938334D01*
X22682761Y5890715D01*
X22778000Y5890715D01*
X23539904Y6557381D02*
X23539904Y5557381D01*
X23539904Y6509762D02*
X23444666Y6557381D01*
X23254190Y6557381D01*
X23158952Y6509762D01*
X23111333Y6462143D01*
X23063714Y6366905D01*
X23063714Y6081191D01*
X23111333Y5985953D01*
X23158952Y5938334D01*
X23254190Y5890715D01*
X23444666Y5890715D01*
X23539904Y5938334D01*
X23920857Y5890715D02*
X24111333Y6557381D01*
X24301809Y6081191D01*
X24492285Y6557381D01*
X24682761Y5890715D01*
X25492285Y6557381D02*
X25492285Y6033572D01*
X25444666Y5938334D01*
X25349428Y5890715D01*
X25158952Y5890715D01*
X25063714Y5938334D01*
X25492285Y6509762D02*
X25397047Y6557381D01*
X25158952Y6557381D01*
X25063714Y6509762D01*
X25016095Y6414524D01*
X25016095Y6319286D01*
X25063714Y6224048D01*
X25158952Y6176429D01*
X25397047Y6176429D01*
X25492285Y6128810D01*
X25968476Y6557381D02*
X25968476Y5890715D01*
X25968476Y6081191D02*
X26016095Y5985953D01*
X26063714Y5938334D01*
X26158952Y5890715D01*
X26254190Y5890715D01*
X26968476Y6509762D02*
X26873238Y6557381D01*
X26682761Y6557381D01*
X26587523Y6509762D01*
X26539904Y6414524D01*
X26539904Y6033572D01*
X26587523Y5938334D01*
X26682761Y5890715D01*
X26873238Y5890715D01*
X26968476Y5938334D01*
X27016095Y6033572D01*
X27016095Y6128810D01*
X26539904Y6224048D01*
X40016095Y4847381D02*
X40016095Y3847381D01*
X40016095Y4323572D02*
X40587523Y4323572D01*
X40587523Y4847381D02*
X40587523Y3847381D01*
X41539904Y4847381D02*
X41063714Y4847381D01*
X41063714Y3847381D01*
X41825619Y3942620D02*
X41873238Y3895000D01*
X41968476Y3847381D01*
X42206571Y3847381D01*
X42301809Y3895000D01*
X42349428Y3942620D01*
X42397047Y4037858D01*
X42397047Y4133096D01*
X42349428Y4275953D01*
X41778000Y4847381D01*
X42397047Y4847381D01*
X42825619Y4847381D02*
X42825619Y3847381D01*
X43492285Y3847381D02*
X43682761Y3847381D01*
X43778000Y3895000D01*
X43873238Y3990239D01*
X43920857Y4180715D01*
X43920857Y4514048D01*
X43873238Y4704524D01*
X43778000Y4799762D01*
X43682761Y4847381D01*
X43492285Y4847381D01*
X43397047Y4799762D01*
X43301809Y4704524D01*
X43254190Y4514048D01*
X43254190Y4180715D01*
X43301809Y3990239D01*
X43397047Y3895000D01*
X43492285Y3847381D01*
X44682761Y4323572D02*
X44825619Y4371191D01*
X44873238Y4418810D01*
X44920857Y4514048D01*
X44920857Y4656905D01*
X44873238Y4752143D01*
X44825619Y4799762D01*
X44730380Y4847381D01*
X44349428Y4847381D01*
X44349428Y3847381D01*
X44682761Y3847381D01*
X44778000Y3895000D01*
X44825619Y3942620D01*
X44873238Y4037858D01*
X44873238Y4133096D01*
X44825619Y4228334D01*
X44778000Y4275953D01*
X44682761Y4323572D01*
X44349428Y4323572D01*
X45492285Y4847381D02*
X45397047Y4799762D01*
X45349428Y4752143D01*
X45301809Y4656905D01*
X45301809Y4371191D01*
X45349428Y4275953D01*
X45397047Y4228334D01*
X45492285Y4180715D01*
X45635142Y4180715D01*
X45730380Y4228334D01*
X45778000Y4275953D01*
X45825619Y4371191D01*
X45825619Y4656905D01*
X45778000Y4752143D01*
X45730380Y4799762D01*
X45635142Y4847381D01*
X45492285Y4847381D01*
X46682761Y4847381D02*
X46682761Y4323572D01*
X46635142Y4228334D01*
X46539904Y4180715D01*
X46349428Y4180715D01*
X46254190Y4228334D01*
X46682761Y4799762D02*
X46587523Y4847381D01*
X46349428Y4847381D01*
X46254190Y4799762D01*
X46206571Y4704524D01*
X46206571Y4609286D01*
X46254190Y4514048D01*
X46349428Y4466429D01*
X46587523Y4466429D01*
X46682761Y4418810D01*
X47158952Y4847381D02*
X47158952Y4180715D01*
X47158952Y4371191D02*
X47206571Y4275953D01*
X47254190Y4228334D01*
X47349428Y4180715D01*
X47444666Y4180715D01*
X48206571Y4847381D02*
X48206571Y3847381D01*
X48206571Y4799762D02*
X48111333Y4847381D01*
X47920857Y4847381D01*
X47825619Y4799762D01*
X47778000Y4752143D01*
X47730380Y4656905D01*
X47730380Y4371191D01*
X47778000Y4275953D01*
X47825619Y4228334D01*
X47920857Y4180715D01*
X48111333Y4180715D01*
X48206571Y4228334D01*
X49397047Y4799762D02*
X49492285Y4847381D01*
X49682761Y4847381D01*
X49778000Y4799762D01*
X49825619Y4704524D01*
X49825619Y4656905D01*
X49778000Y4561667D01*
X49682761Y4514048D01*
X49539904Y4514048D01*
X49444666Y4466429D01*
X49397047Y4371191D01*
X49397047Y4323572D01*
X49444666Y4228334D01*
X49539904Y4180715D01*
X49682761Y4180715D01*
X49778000Y4228334D01*
X50682761Y4180715D02*
X50682761Y4847381D01*
X50254190Y4180715D02*
X50254190Y4704524D01*
X50301809Y4799762D01*
X50397047Y4847381D01*
X50539904Y4847381D01*
X50635142Y4799762D01*
X50682761Y4752143D01*
X51158952Y4180715D02*
X51158952Y5180715D01*
X51158952Y4228334D02*
X51254190Y4180715D01*
X51444666Y4180715D01*
X51539904Y4228334D01*
X51587523Y4275953D01*
X51635142Y4371191D01*
X51635142Y4656905D01*
X51587523Y4752143D01*
X51539904Y4799762D01*
X51444666Y4847381D01*
X51254190Y4847381D01*
X51158952Y4799762D01*
X52063714Y4180715D02*
X52063714Y5180715D01*
X52063714Y4228334D02*
X52158952Y4180715D01*
X52349428Y4180715D01*
X52444666Y4228334D01*
X52492285Y4275953D01*
X52539904Y4371191D01*
X52539904Y4656905D01*
X52492285Y4752143D01*
X52444666Y4799762D01*
X52349428Y4847381D01*
X52158952Y4847381D01*
X52063714Y4799762D01*
X53111333Y4847381D02*
X53016095Y4799762D01*
X52968476Y4752143D01*
X52920857Y4656905D01*
X52920857Y4371191D01*
X52968476Y4275953D01*
X53016095Y4228334D01*
X53111333Y4180715D01*
X53254190Y4180715D01*
X53349428Y4228334D01*
X53397047Y4275953D01*
X53444666Y4371191D01*
X53444666Y4656905D01*
X53397047Y4752143D01*
X53349428Y4799762D01*
X53254190Y4847381D01*
X53111333Y4847381D01*
X53873238Y4847381D02*
X53873238Y4180715D01*
X53873238Y4371191D02*
X53920857Y4275953D01*
X53968476Y4228334D01*
X54063714Y4180715D01*
X54158952Y4180715D01*
X54349428Y4180715D02*
X54730380Y4180715D01*
X54492285Y3847381D02*
X54492285Y4704524D01*
X54539904Y4799762D01*
X54635142Y4847381D01*
X54730380Y4847381D01*
X39968476Y5552620D02*
X40016095Y5505000D01*
X40111333Y5457381D01*
X40349428Y5457381D01*
X40444666Y5505000D01*
X40492285Y5552620D01*
X40539904Y5647858D01*
X40539904Y5743096D01*
X40492285Y5885953D01*
X39920857Y6457381D01*
X40539904Y6457381D01*
X41158952Y5457381D02*
X41254190Y5457381D01*
X41349428Y5505000D01*
X41397047Y5552620D01*
X41444666Y5647858D01*
X41492285Y5838334D01*
X41492285Y6076429D01*
X41444666Y6266905D01*
X41397047Y6362143D01*
X41349428Y6409762D01*
X41254190Y6457381D01*
X41158952Y6457381D01*
X41063714Y6409762D01*
X41016095Y6362143D01*
X40968476Y6266905D01*
X40920857Y6076429D01*
X40920857Y5838334D01*
X40968476Y5647858D01*
X41016095Y5552620D01*
X41063714Y5505000D01*
X41158952Y5457381D01*
X41873238Y5552620D02*
X41920857Y5505000D01*
X42016095Y5457381D01*
X42254190Y5457381D01*
X42349428Y5505000D01*
X42397047Y5552620D01*
X42444666Y5647858D01*
X42444666Y5743096D01*
X42397047Y5885953D01*
X41825619Y6457381D01*
X42444666Y6457381D01*
X42778000Y5457381D02*
X43397047Y5457381D01*
X43063714Y5838334D01*
X43206571Y5838334D01*
X43301809Y5885953D01*
X43349428Y5933572D01*
X43397047Y6028810D01*
X43397047Y6266905D01*
X43349428Y6362143D01*
X43301809Y6409762D01*
X43206571Y6457381D01*
X42920857Y6457381D01*
X42825619Y6409762D01*
X42778000Y6362143D01*
X45111333Y5505000D02*
X45016095Y5457381D01*
X44873238Y5457381D01*
X44730380Y5505000D01*
X44635142Y5600239D01*
X44587523Y5695477D01*
X44539904Y5885953D01*
X44539904Y6028810D01*
X44587523Y6219286D01*
X44635142Y6314524D01*
X44730380Y6409762D01*
X44873238Y6457381D01*
X44968476Y6457381D01*
X45111333Y6409762D01*
X45158952Y6362143D01*
X45158952Y6028810D01*
X44968476Y6028810D01*
X46016095Y5790715D02*
X46016095Y6457381D01*
X45778000Y5409762D02*
X45539904Y6124048D01*
X46158952Y6124048D01*
X46873238Y5933572D02*
X47016095Y5981191D01*
X47063714Y6028810D01*
X47111333Y6124048D01*
X47111333Y6266905D01*
X47063714Y6362143D01*
X47016095Y6409762D01*
X46920857Y6457381D01*
X46539904Y6457381D01*
X46539904Y5457381D01*
X46873238Y5457381D01*
X46968476Y5505000D01*
X47016095Y5552620D01*
X47063714Y5647858D01*
X47063714Y5743096D01*
X47016095Y5838334D01*
X46968476Y5885953D01*
X46873238Y5933572D01*
X46539904Y5933572D01*
X48111333Y6457381D02*
X47778000Y5981191D01*
X47539904Y6457381D02*
X47539904Y5457381D01*
X47920857Y5457381D01*
X48016095Y5505000D01*
X48063714Y5552620D01*
X48111333Y5647858D01*
X48111333Y5790715D01*
X48063714Y5885953D01*
X48016095Y5933572D01*
X47920857Y5981191D01*
X47539904Y5981191D01*
X48539904Y6457381D02*
X48539904Y5457381D01*
X49111333Y6457381D02*
X48682761Y5885953D01*
X49111333Y5457381D02*
X48539904Y6028810D01*
X50206571Y5790715D02*
X50444666Y6457381D01*
X50682761Y5790715D01*
X51016095Y5552620D02*
X51063714Y5505000D01*
X51158952Y5457381D01*
X51397047Y5457381D01*
X51492285Y5505000D01*
X51539904Y5552620D01*
X51587523Y5647858D01*
X51587523Y5743096D01*
X51539904Y5885953D01*
X50968476Y6457381D01*
X51587523Y6457381D01*
X52016095Y6362143D02*
X52063714Y6409762D01*
X52016095Y6457381D01*
X51968476Y6409762D01*
X52016095Y6362143D01*
X52016095Y6457381D01*
X52397047Y5457381D02*
X53016095Y5457381D01*
X52682761Y5838334D01*
X52825619Y5838334D01*
X52920857Y5885953D01*
X52968476Y5933572D01*
X53016095Y6028810D01*
X53016095Y6266905D01*
X52968476Y6362143D01*
X52920857Y6409762D01*
X52825619Y6457381D01*
X52539904Y6457381D01*
X52444666Y6409762D01*
X52397047Y6362143D01*
D11*
X70971428Y23401667D02*
X70590476Y23401667D01*
X71047619Y23173096D02*
X70780952Y23973096D01*
X70514285Y23173096D01*
X69790476Y23249286D02*
X69828571Y23211191D01*
X69942857Y23173096D01*
X70019047Y23173096D01*
X70133333Y23211191D01*
X70209523Y23287381D01*
X70247619Y23363572D01*
X70285714Y23515953D01*
X70285714Y23630239D01*
X70247619Y23782620D01*
X70209523Y23858810D01*
X70133333Y23935000D01*
X70019047Y23973096D01*
X69942857Y23973096D01*
X69828571Y23935000D01*
X69790476Y23896905D01*
X68990476Y23249286D02*
X69028571Y23211191D01*
X69142857Y23173096D01*
X69219047Y23173096D01*
X69333333Y23211191D01*
X69409523Y23287381D01*
X69447619Y23363572D01*
X69485714Y23515953D01*
X69485714Y23630239D01*
X69447619Y23782620D01*
X69409523Y23858810D01*
X69333333Y23935000D01*
X69219047Y23973096D01*
X69142857Y23973096D01*
X69028571Y23935000D01*
X68990476Y23896905D01*
X68228571Y23173096D02*
X68685714Y23173096D01*
X68457142Y23173096D02*
X68457142Y23973096D01*
X68533333Y23858810D01*
X68609523Y23782620D01*
X68685714Y23744524D01*
X40000000Y37935000D02*
X40000000Y24935000D01*
X71000000Y24935000D02*
X71000000Y37935000D01*
X71000000Y37935000D02*
X40000000Y37935000D01*
X40000000Y24935000D02*
X71000000Y24935000D01*
D12*
X29504520Y5996620D02*
X29494360Y5991540D01*
X29494360Y5991540D02*
X29471500Y5976300D01*
X29471500Y5976300D02*
X29438480Y5955980D01*
X29438480Y5955980D02*
X29397840Y5928040D01*
X29397840Y5928040D02*
X29359740Y5902640D01*
X29359740Y5902640D02*
X29326720Y5879780D01*
X29326720Y5879780D02*
X29303860Y5864540D01*
X29303860Y5864540D02*
X29293700Y5859460D01*
X29293700Y5859460D02*
X29288620Y5862000D01*
X29288620Y5862000D02*
X29270840Y5872160D01*
X29270840Y5872160D02*
X29242900Y5884860D01*
X29242900Y5884860D02*
X29227660Y5892480D01*
X29227660Y5892480D02*
X29202260Y5905180D01*
X29202260Y5905180D02*
X29189560Y5907720D01*
X29189560Y5907720D02*
X29187020Y5902640D01*
X29187020Y5902640D02*
X29176860Y5884860D01*
X29176860Y5884860D02*
X29164160Y5851840D01*
X29164160Y5851840D02*
X29143840Y5808660D01*
X29143840Y5808660D02*
X29123520Y5757860D01*
X29123520Y5757860D02*
X29100660Y5701980D01*
X29100660Y5701980D02*
X29077800Y5646100D01*
X29077800Y5646100D02*
X29054940Y5592760D01*
X29054940Y5592760D02*
X29034620Y5544500D01*
X29034620Y5544500D02*
X29019380Y5506400D01*
X29019380Y5506400D02*
X29009220Y5478460D01*
X29009220Y5478460D02*
X29004140Y5468300D01*
X29004140Y5468300D02*
X29006680Y5465760D01*
X29006680Y5465760D02*
X29019380Y5453060D01*
X29019380Y5453060D02*
X29039700Y5437820D01*
X29039700Y5437820D02*
X29087960Y5397180D01*
X29087960Y5397180D02*
X29133680Y5338760D01*
X29133680Y5338760D02*
X29164160Y5272720D01*
X29164160Y5272720D02*
X29171780Y5199060D01*
X29171780Y5199060D02*
X29164160Y5133020D01*
X29164160Y5133020D02*
X29138760Y5069520D01*
X29138760Y5069520D02*
X29093040Y5008560D01*
X29093040Y5008560D02*
X29037160Y4965380D01*
X29037160Y4965380D02*
X28971120Y4937440D01*
X28971120Y4937440D02*
X28900000Y4929820D01*
X28900000Y4929820D02*
X28831420Y4937440D01*
X28831420Y4937440D02*
X28765380Y4962840D01*
X28765380Y4962840D02*
X28704420Y5008560D01*
X28704420Y5008560D02*
X28681560Y5036500D01*
X28681560Y5036500D02*
X28646000Y5097460D01*
X28646000Y5097460D02*
X28625680Y5158420D01*
X28625680Y5158420D02*
X28625680Y5173660D01*
X28625680Y5173660D02*
X28628220Y5244780D01*
X28628220Y5244780D02*
X28648540Y5313360D01*
X28648540Y5313360D02*
X28684100Y5371780D01*
X28684100Y5371780D02*
X28737440Y5422580D01*
X28737440Y5422580D02*
X28742520Y5427660D01*
X28742520Y5427660D02*
X28767920Y5445440D01*
X28767920Y5445440D02*
X28783160Y5455600D01*
X28783160Y5455600D02*
X28795860Y5465760D01*
X28795860Y5465760D02*
X28706960Y5681660D01*
X28706960Y5681660D02*
X28691720Y5717220D01*
X28691720Y5717220D02*
X28666320Y5775640D01*
X28666320Y5775640D02*
X28646000Y5826440D01*
X28646000Y5826440D02*
X28628220Y5867080D01*
X28628220Y5867080D02*
X28615520Y5892480D01*
X28615520Y5892480D02*
X28610440Y5905180D01*
X28610440Y5905180D02*
X28602820Y5905180D01*
X28602820Y5905180D02*
X28587580Y5900100D01*
X28587580Y5900100D02*
X28557100Y5884860D01*
X28557100Y5884860D02*
X28536780Y5874700D01*
X28536780Y5874700D02*
X28513920Y5864540D01*
X28513920Y5864540D02*
X28503760Y5859460D01*
X28503760Y5859460D02*
X28493600Y5864540D01*
X28493600Y5864540D02*
X28473280Y5879780D01*
X28473280Y5879780D02*
X28440260Y5900100D01*
X28440260Y5900100D02*
X28402160Y5925500D01*
X28402160Y5925500D02*
X28366600Y5950900D01*
X28366600Y5950900D02*
X28331040Y5973760D01*
X28331040Y5973760D02*
X28308180Y5989000D01*
X28308180Y5989000D02*
X28295480Y5996620D01*
X28295480Y5996620D02*
X28292940Y5996620D01*
X28292940Y5996620D02*
X28282780Y5989000D01*
X28282780Y5989000D02*
X28262460Y5973760D01*
X28262460Y5973760D02*
X28234520Y5945820D01*
X28234520Y5945820D02*
X28193880Y5905180D01*
X28193880Y5905180D02*
X28186260Y5900100D01*
X28186260Y5900100D02*
X28153240Y5864540D01*
X28153240Y5864540D02*
X28125300Y5834060D01*
X28125300Y5834060D02*
X28104980Y5813740D01*
X28104980Y5813740D02*
X28099900Y5806120D01*
X28099900Y5806120D02*
X28104980Y5793420D01*
X28104980Y5793420D02*
X28120220Y5768020D01*
X28120220Y5768020D02*
X28143080Y5735000D01*
X28143080Y5735000D02*
X28171020Y5694360D01*
X28171020Y5694360D02*
X28242140Y5590220D01*
X28242140Y5590220D02*
X28201500Y5493700D01*
X28201500Y5493700D02*
X28191340Y5463220D01*
X28191340Y5463220D02*
X28176100Y5427660D01*
X28176100Y5427660D02*
X28163400Y5402260D01*
X28163400Y5402260D02*
X28158320Y5389560D01*
X28158320Y5389560D02*
X28148160Y5387020D01*
X28148160Y5387020D02*
X28120220Y5379400D01*
X28120220Y5379400D02*
X28082120Y5371780D01*
X28082120Y5371780D02*
X28036400Y5364160D01*
X28036400Y5364160D02*
X27990680Y5354000D01*
X27990680Y5354000D02*
X27952580Y5346380D01*
X27952580Y5346380D02*
X27922100Y5341300D01*
X27922100Y5341300D02*
X27909400Y5338760D01*
X27909400Y5338760D02*
X27906860Y5336220D01*
X27906860Y5336220D02*
X27904320Y5331140D01*
X27904320Y5331140D02*
X27901780Y5318440D01*
X27901780Y5318440D02*
X27901780Y5293040D01*
X27901780Y5293040D02*
X27901780Y5254940D01*
X27901780Y5254940D02*
X27901780Y5199060D01*
X27901780Y5199060D02*
X27901780Y5193980D01*
X27901780Y5193980D02*
X27901780Y5140640D01*
X27901780Y5140640D02*
X27901780Y5100000D01*
X27901780Y5100000D02*
X27904320Y5074600D01*
X27904320Y5074600D02*
X27906860Y5064440D01*
X27906860Y5064440D02*
X27919560Y5059360D01*
X27919560Y5059360D02*
X27947500Y5054280D01*
X27947500Y5054280D02*
X27985600Y5046660D01*
X27985600Y5046660D02*
X28033860Y5036500D01*
X28033860Y5036500D02*
X28036400Y5036500D01*
X28036400Y5036500D02*
X28084660Y5028880D01*
X28084660Y5028880D02*
X28122760Y5018720D01*
X28122760Y5018720D02*
X28150700Y5013640D01*
X28150700Y5013640D02*
X28163400Y5008560D01*
X28163400Y5008560D02*
X28165940Y5006020D01*
X28165940Y5006020D02*
X28176100Y4988240D01*
X28176100Y4988240D02*
X28188800Y4957760D01*
X28188800Y4957760D02*
X28204040Y4922200D01*
X28204040Y4922200D02*
X28219280Y4886640D01*
X28219280Y4886640D02*
X28234520Y4851080D01*
X28234520Y4851080D02*
X28242140Y4828220D01*
X28242140Y4828220D02*
X28244680Y4815520D01*
X28244680Y4815520D02*
X28237060Y4805360D01*
X28237060Y4805360D02*
X28221820Y4779960D01*
X28221820Y4779960D02*
X28198960Y4746940D01*
X28198960Y4746940D02*
X28171020Y4706300D01*
X28171020Y4706300D02*
X28168480Y4701220D01*
X28168480Y4701220D02*
X28140540Y4663120D01*
X28140540Y4663120D02*
X28120220Y4627560D01*
X28120220Y4627560D02*
X28104980Y4604700D01*
X28104980Y4604700D02*
X28099900Y4594540D01*
X28099900Y4594540D02*
X28099900Y4592000D01*
X28099900Y4592000D02*
X28107520Y4581840D01*
X28107520Y4581840D02*
X28127840Y4558980D01*
X28127840Y4558980D02*
X28158320Y4528500D01*
X28158320Y4528500D02*
X28193880Y4492940D01*
X28193880Y4492940D02*
X28204040Y4482780D01*
X28204040Y4482780D02*
X28242140Y4444680D01*
X28242140Y4444680D02*
X28270080Y4419280D01*
X28270080Y4419280D02*
X28287860Y4406580D01*
X28287860Y4406580D02*
X28295480Y4401500D01*
X28295480Y4401500D02*
X28295480Y4404040D01*
X28295480Y4404040D02*
X28308180Y4409120D01*
X28308180Y4409120D02*
X28333580Y4426900D01*
X28333580Y4426900D02*
X28366600Y4449760D01*
X28366600Y4449760D02*
X28407240Y4477700D01*
X28407240Y4477700D02*
X28409780Y4480240D01*
X28409780Y4480240D02*
X28450420Y4505640D01*
X28450420Y4505640D02*
X28483440Y4528500D01*
X28483440Y4528500D02*
X28506300Y4543740D01*
X28506300Y4543740D02*
X28516460Y4551360D01*
X28516460Y4551360D02*
X28519000Y4551360D01*
X28519000Y4551360D02*
X28534240Y4546280D01*
X28534240Y4546280D02*
X28564720Y4536120D01*
X28564720Y4536120D02*
X28597740Y4523420D01*
X28597740Y4523420D02*
X28635840Y4508180D01*
X28635840Y4508180D02*
X28668860Y4492940D01*
X28668860Y4492940D02*
X28694260Y4482780D01*
X28694260Y4482780D02*
X28706960Y4475160D01*
X28706960Y4475160D02*
X28712040Y4459920D01*
X28712040Y4459920D02*
X28717120Y4429440D01*
X28717120Y4429440D02*
X28727280Y4388800D01*
X28727280Y4388800D02*
X28734900Y4340540D01*
X28734900Y4340540D02*
X28737440Y4332920D01*
X28737440Y4332920D02*
X28745060Y4284660D01*
X28745060Y4284660D02*
X28752680Y4246560D01*
X28752680Y4246560D02*
X28760300Y4218620D01*
X28760300Y4218620D02*
X28762840Y4205920D01*
X28762840Y4205920D02*
X28767920Y4205920D01*
X28767920Y4205920D02*
X28793320Y4203380D01*
X28793320Y4203380D02*
X28828880Y4203380D01*
X28828880Y4203380D02*
X28872060Y4203380D01*
X28872060Y4203380D02*
X28915240Y4203380D01*
X28915240Y4203380D02*
X28958420Y4203380D01*
X28958420Y4203380D02*
X28996520Y4205920D01*
X28996520Y4205920D02*
X29021920Y4205920D01*
X29021920Y4205920D02*
X29034620Y4208460D01*
X29034620Y4208460D02*
X29034620Y4211000D01*
X29034620Y4211000D02*
X29039700Y4223700D01*
X29039700Y4223700D02*
X29044780Y4254180D01*
X29044780Y4254180D02*
X29054940Y4294820D01*
X29054940Y4294820D02*
X29062560Y4345620D01*
X29062560Y4345620D02*
X29065100Y4353240D01*
X29065100Y4353240D02*
X29072720Y4401500D01*
X29072720Y4401500D02*
X29082880Y4439600D01*
X29082880Y4439600D02*
X29087960Y4467540D01*
X29087960Y4467540D02*
X29090500Y4477700D01*
X29090500Y4477700D02*
X29095580Y4480240D01*
X29095580Y4480240D02*
X29113360Y4487860D01*
X29113360Y4487860D02*
X29146380Y4500560D01*
X29146380Y4500560D02*
X29187020Y4518340D01*
X29187020Y4518340D02*
X29278460Y4553900D01*
X29278460Y4553900D02*
X29390220Y4477700D01*
X29390220Y4477700D02*
X29400380Y4470080D01*
X29400380Y4470080D02*
X29441020Y4442140D01*
X29441020Y4442140D02*
X29474040Y4421820D01*
X29474040Y4421820D02*
X29496900Y4406580D01*
X29496900Y4406580D02*
X29507060Y4401500D01*
X29507060Y4401500D02*
X29517220Y4411660D01*
X29517220Y4411660D02*
X29540080Y4431980D01*
X29540080Y4431980D02*
X29570560Y4462460D01*
X29570560Y4462460D02*
X29606120Y4495480D01*
X29606120Y4495480D02*
X29631520Y4523420D01*
X29631520Y4523420D02*
X29662000Y4553900D01*
X29662000Y4553900D02*
X29682320Y4574220D01*
X29682320Y4574220D02*
X29692480Y4589460D01*
X29692480Y4589460D02*
X29697560Y4597080D01*
X29697560Y4597080D02*
X29695020Y4602160D01*
X29695020Y4602160D02*
X29689940Y4614860D01*
X29689940Y4614860D02*
X29672160Y4637720D01*
X29672160Y4637720D02*
X29649300Y4673280D01*
X29649300Y4673280D02*
X29621360Y4711380D01*
X29621360Y4711380D02*
X29598500Y4746940D01*
X29598500Y4746940D02*
X29575640Y4782500D01*
X29575640Y4782500D02*
X29560400Y4810440D01*
X29560400Y4810440D02*
X29552780Y4823140D01*
X29552780Y4823140D02*
X29555320Y4828220D01*
X29555320Y4828220D02*
X29562940Y4851080D01*
X29562940Y4851080D02*
X29575640Y4884100D01*
X29575640Y4884100D02*
X29593420Y4924740D01*
X29593420Y4924740D02*
X29631520Y5013640D01*
X29631520Y5013640D02*
X29689940Y5023800D01*
X29689940Y5023800D02*
X29725500Y5031420D01*
X29725500Y5031420D02*
X29776300Y5039040D01*
X29776300Y5039040D02*
X29822020Y5049200D01*
X29822020Y5049200D02*
X29895680Y5064440D01*
X29895680Y5064440D02*
X29898220Y5331140D01*
X29898220Y5331140D02*
X29888060Y5336220D01*
X29888060Y5336220D02*
X29875360Y5341300D01*
X29875360Y5341300D02*
X29849960Y5346380D01*
X29849960Y5346380D02*
X29809320Y5354000D01*
X29809320Y5354000D02*
X29763600Y5361620D01*
X29763600Y5361620D02*
X29725500Y5369240D01*
X29725500Y5369240D02*
X29684860Y5376860D01*
X29684860Y5376860D02*
X29656920Y5381940D01*
X29656920Y5381940D02*
X29644220Y5384480D01*
X29644220Y5384480D02*
X29641680Y5389560D01*
X29641680Y5389560D02*
X29631520Y5409880D01*
X29631520Y5409880D02*
X29616280Y5440360D01*
X29616280Y5440360D02*
X29601040Y5475920D01*
X29601040Y5475920D02*
X29585800Y5514020D01*
X29585800Y5514020D02*
X29573100Y5549580D01*
X29573100Y5549580D02*
X29562940Y5574980D01*
X29562940Y5574980D02*
X29557860Y5590220D01*
X29557860Y5590220D02*
X29562940Y5600380D01*
X29562940Y5600380D02*
X29578180Y5623240D01*
X29578180Y5623240D02*
X29601040Y5656260D01*
X29601040Y5656260D02*
X29626440Y5694360D01*
X29626440Y5694360D02*
X29654380Y5735000D01*
X29654380Y5735000D02*
X29677240Y5768020D01*
X29677240Y5768020D02*
X29692480Y5793420D01*
X29692480Y5793420D02*
X29700100Y5803580D01*
X29700100Y5803580D02*
X29695020Y5811200D01*
X29695020Y5811200D02*
X29679780Y5828980D01*
X29679780Y5828980D02*
X29651840Y5859460D01*
X29651840Y5859460D02*
X29606120Y5905180D01*
X29606120Y5905180D02*
X29598500Y5910260D01*
X29598500Y5910260D02*
X29565480Y5945820D01*
X29565480Y5945820D02*
X29535000Y5971220D01*
X29535000Y5971220D02*
X29514680Y5991540D01*
X29514680Y5991540D02*
X29504520Y5996620D01*
X29504520Y5996620D02*
X29504520Y5996620D01*
G36*
X28308180Y5989000D02*
G01*
X28331040Y5973760D01*
X28366600Y5950900D01*
X28402160Y5925500D01*
X28440260Y5900100D01*
X28473280Y5879780D01*
X28493600Y5864540D01*
X28503760Y5859460D01*
X28513920Y5864540D01*
X28536780Y5874700D01*
X28587580Y5900100D01*
X28602820Y5905180D01*
X28610440Y5905180D01*
X28615520Y5892480D01*
X28628220Y5867080D01*
X28646000Y5826440D01*
X28666320Y5775640D01*
X28691720Y5717220D01*
X28706960Y5681660D01*
X28795860Y5465760D01*
X28783160Y5455600D01*
X28767920Y5445440D01*
X28742520Y5427660D01*
X28737440Y5422580D01*
X28684100Y5371780D01*
X28648540Y5313360D01*
X28628220Y5244780D01*
X28625680Y5173660D01*
X28625680Y5158420D01*
X28646000Y5097460D01*
X28681560Y5036500D01*
X28704420Y5008560D01*
X28765380Y4962840D01*
X28831420Y4937440D01*
X28900000Y4929820D01*
X28971120Y4937440D01*
X29037160Y4965380D01*
X29093040Y5008560D01*
X29138760Y5069520D01*
X29164160Y5133020D01*
X29171780Y5199060D01*
X29164160Y5272720D01*
X29133680Y5338760D01*
X29087960Y5397180D01*
X29039700Y5437820D01*
X29019380Y5453060D01*
X29004140Y5468300D01*
X29009220Y5478460D01*
X29019380Y5506400D01*
X29034620Y5544500D01*
X29054940Y5592760D01*
X29077800Y5646100D01*
X29123520Y5757860D01*
X29143840Y5808660D01*
X29164160Y5851840D01*
X29176860Y5884860D01*
X29187020Y5902640D01*
X29189560Y5907720D01*
X29202260Y5905180D01*
X29242900Y5884860D01*
X29270840Y5872160D01*
X29288620Y5862000D01*
X29293700Y5859460D01*
X29303860Y5864540D01*
X29326720Y5879780D01*
X29359740Y5902640D01*
X29397840Y5928040D01*
X29438480Y5955980D01*
X29471500Y5976300D01*
X29494360Y5991540D01*
X29504520Y5996620D01*
X29514680Y5991540D01*
X29535000Y5971220D01*
X29565480Y5945820D01*
X29598500Y5910260D01*
X29606120Y5905180D01*
X29651840Y5859460D01*
X29679780Y5828980D01*
X29695020Y5811200D01*
X29700100Y5803580D01*
X29692480Y5793420D01*
X29677240Y5768020D01*
X29654380Y5735000D01*
X29626440Y5694360D01*
X29601040Y5656260D01*
X29578180Y5623240D01*
X29562940Y5600380D01*
X29557860Y5590220D01*
X29562940Y5574980D01*
X29573100Y5549580D01*
X29585800Y5514020D01*
X29601040Y5475920D01*
X29616280Y5440360D01*
X29644220Y5384480D01*
X29656920Y5381940D01*
X29684860Y5376860D01*
X29725500Y5369240D01*
X29763600Y5361620D01*
X29809320Y5354000D01*
X29849960Y5346380D01*
X29875360Y5341300D01*
X29888060Y5336220D01*
X29898220Y5331140D01*
X29895680Y5064440D01*
X29822020Y5049200D01*
X29776300Y5039040D01*
X29725500Y5031420D01*
X29689940Y5023800D01*
X29631520Y5013640D01*
X29593420Y4924740D01*
X29575640Y4884100D01*
X29562940Y4851080D01*
X29555320Y4828220D01*
X29552780Y4823140D01*
X29560400Y4810440D01*
X29575640Y4782500D01*
X29621360Y4711380D01*
X29649300Y4673280D01*
X29672160Y4637720D01*
X29689940Y4614860D01*
X29695020Y4602160D01*
X29697560Y4597080D01*
X29682320Y4574220D01*
X29631520Y4523420D01*
X29606120Y4495480D01*
X29570560Y4462460D01*
X29540080Y4431980D01*
X29517220Y4411660D01*
X29507060Y4401500D01*
X29496900Y4406580D01*
X29474040Y4421820D01*
X29441020Y4442140D01*
X29400380Y4470080D01*
X29390220Y4477700D01*
X29278460Y4553900D01*
X29187020Y4518340D01*
X29146380Y4500560D01*
X29113360Y4487860D01*
X29095580Y4480240D01*
X29090500Y4477700D01*
X29087960Y4467540D01*
X29082880Y4439600D01*
X29072720Y4401500D01*
X29065100Y4353240D01*
X29062560Y4345620D01*
X29054940Y4294820D01*
X29044780Y4254180D01*
X29039700Y4223700D01*
X29034620Y4211000D01*
X29034620Y4208460D01*
X29021920Y4205920D01*
X28996520Y4205920D01*
X28958420Y4203380D01*
X28793320Y4203380D01*
X28767920Y4205920D01*
X28762840Y4205920D01*
X28760300Y4218620D01*
X28752680Y4246560D01*
X28745060Y4284660D01*
X28737440Y4332920D01*
X28734900Y4340540D01*
X28727280Y4388800D01*
X28717120Y4429440D01*
X28712040Y4459920D01*
X28706960Y4475160D01*
X28694260Y4482780D01*
X28668860Y4492940D01*
X28635840Y4508180D01*
X28597740Y4523420D01*
X28564720Y4536120D01*
X28519000Y4551360D01*
X28516460Y4551360D01*
X28506300Y4543740D01*
X28483440Y4528500D01*
X28450420Y4505640D01*
X28409780Y4480240D01*
X28407240Y4477700D01*
X28366600Y4449760D01*
X28333580Y4426900D01*
X28308180Y4409120D01*
X28295480Y4404040D01*
X28295480Y4401500D01*
X28287860Y4406580D01*
X28270080Y4419280D01*
X28242140Y4444680D01*
X28127840Y4558980D01*
X28107520Y4581840D01*
X28099900Y4592000D01*
X28099900Y4594540D01*
X28104980Y4604700D01*
X28120220Y4627560D01*
X28140540Y4663120D01*
X28168480Y4701220D01*
X28171020Y4706300D01*
X28198960Y4746940D01*
X28221820Y4779960D01*
X28237060Y4805360D01*
X28244680Y4815520D01*
X28242140Y4828220D01*
X28234520Y4851080D01*
X28188800Y4957760D01*
X28176100Y4988240D01*
X28165940Y5006020D01*
X28163400Y5008560D01*
X28150700Y5013640D01*
X28122760Y5018720D01*
X28084660Y5028880D01*
X28036400Y5036500D01*
X28033860Y5036500D01*
X27985600Y5046660D01*
X27947500Y5054280D01*
X27919560Y5059360D01*
X27906860Y5064440D01*
X27904320Y5074600D01*
X27901780Y5100000D01*
X27901780Y5318440D01*
X27904320Y5331140D01*
X27906860Y5336220D01*
X27909400Y5338760D01*
X27922100Y5341300D01*
X27952580Y5346380D01*
X27990680Y5354000D01*
X28036400Y5364160D01*
X28082120Y5371780D01*
X28120220Y5379400D01*
X28148160Y5387020D01*
X28158320Y5389560D01*
X28163400Y5402260D01*
X28176100Y5427660D01*
X28191340Y5463220D01*
X28201500Y5493700D01*
X28242140Y5590220D01*
X28171020Y5694360D01*
X28143080Y5735000D01*
X28120220Y5768020D01*
X28104980Y5793420D01*
X28099900Y5806120D01*
X28104980Y5813740D01*
X28125300Y5834060D01*
X28153240Y5864540D01*
X28186260Y5900100D01*
X28193880Y5905180D01*
X28262460Y5973760D01*
X28292940Y5996620D01*
X28295480Y5996620D01*
X28308180Y5989000D01*
G37*
X28308180Y5989000D02*
X28331040Y5973760D01*
X28366600Y5950900D01*
X28402160Y5925500D01*
X28440260Y5900100D01*
X28473280Y5879780D01*
X28493600Y5864540D01*
X28503760Y5859460D01*
X28513920Y5864540D01*
X28536780Y5874700D01*
X28587580Y5900100D01*
X28602820Y5905180D01*
X28610440Y5905180D01*
X28615520Y5892480D01*
X28628220Y5867080D01*
X28646000Y5826440D01*
X28666320Y5775640D01*
X28691720Y5717220D01*
X28706960Y5681660D01*
X28795860Y5465760D01*
X28783160Y5455600D01*
X28767920Y5445440D01*
X28742520Y5427660D01*
X28737440Y5422580D01*
X28684100Y5371780D01*
X28648540Y5313360D01*
X28628220Y5244780D01*
X28625680Y5173660D01*
X28625680Y5158420D01*
X28646000Y5097460D01*
X28681560Y5036500D01*
X28704420Y5008560D01*
X28765380Y4962840D01*
X28831420Y4937440D01*
X28900000Y4929820D01*
X28971120Y4937440D01*
X29037160Y4965380D01*
X29093040Y5008560D01*
X29138760Y5069520D01*
X29164160Y5133020D01*
X29171780Y5199060D01*
X29164160Y5272720D01*
X29133680Y5338760D01*
X29087960Y5397180D01*
X29039700Y5437820D01*
X29019380Y5453060D01*
X29004140Y5468300D01*
X29009220Y5478460D01*
X29019380Y5506400D01*
X29034620Y5544500D01*
X29054940Y5592760D01*
X29077800Y5646100D01*
X29123520Y5757860D01*
X29143840Y5808660D01*
X29164160Y5851840D01*
X29176860Y5884860D01*
X29187020Y5902640D01*
X29189560Y5907720D01*
X29202260Y5905180D01*
X29242900Y5884860D01*
X29270840Y5872160D01*
X29288620Y5862000D01*
X29293700Y5859460D01*
X29303860Y5864540D01*
X29326720Y5879780D01*
X29359740Y5902640D01*
X29397840Y5928040D01*
X29438480Y5955980D01*
X29471500Y5976300D01*
X29494360Y5991540D01*
X29504520Y5996620D01*
X29514680Y5991540D01*
X29535000Y5971220D01*
X29565480Y5945820D01*
X29598500Y5910260D01*
X29606120Y5905180D01*
X29651840Y5859460D01*
X29679780Y5828980D01*
X29695020Y5811200D01*
X29700100Y5803580D01*
X29692480Y5793420D01*
X29677240Y5768020D01*
X29654380Y5735000D01*
X29626440Y5694360D01*
X29601040Y5656260D01*
X29578180Y5623240D01*
X29562940Y5600380D01*
X29557860Y5590220D01*
X29562940Y5574980D01*
X29573100Y5549580D01*
X29585800Y5514020D01*
X29601040Y5475920D01*
X29616280Y5440360D01*
X29644220Y5384480D01*
X29656920Y5381940D01*
X29684860Y5376860D01*
X29725500Y5369240D01*
X29763600Y5361620D01*
X29809320Y5354000D01*
X29849960Y5346380D01*
X29875360Y5341300D01*
X29888060Y5336220D01*
X29898220Y5331140D01*
X29895680Y5064440D01*
X29822020Y5049200D01*
X29776300Y5039040D01*
X29725500Y5031420D01*
X29689940Y5023800D01*
X29631520Y5013640D01*
X29593420Y4924740D01*
X29575640Y4884100D01*
X29562940Y4851080D01*
X29555320Y4828220D01*
X29552780Y4823140D01*
X29560400Y4810440D01*
X29575640Y4782500D01*
X29621360Y4711380D01*
X29649300Y4673280D01*
X29672160Y4637720D01*
X29689940Y4614860D01*
X29695020Y4602160D01*
X29697560Y4597080D01*
X29682320Y4574220D01*
X29631520Y4523420D01*
X29606120Y4495480D01*
X29570560Y4462460D01*
X29540080Y4431980D01*
X29517220Y4411660D01*
X29507060Y4401500D01*
X29496900Y4406580D01*
X29474040Y4421820D01*
X29441020Y4442140D01*
X29400380Y4470080D01*
X29390220Y4477700D01*
X29278460Y4553900D01*
X29187020Y4518340D01*
X29146380Y4500560D01*
X29113360Y4487860D01*
X29095580Y4480240D01*
X29090500Y4477700D01*
X29087960Y4467540D01*
X29082880Y4439600D01*
X29072720Y4401500D01*
X29065100Y4353240D01*
X29062560Y4345620D01*
X29054940Y4294820D01*
X29044780Y4254180D01*
X29039700Y4223700D01*
X29034620Y4211000D01*
X29034620Y4208460D01*
X29021920Y4205920D01*
X28996520Y4205920D01*
X28958420Y4203380D01*
X28793320Y4203380D01*
X28767920Y4205920D01*
X28762840Y4205920D01*
X28760300Y4218620D01*
X28752680Y4246560D01*
X28745060Y4284660D01*
X28737440Y4332920D01*
X28734900Y4340540D01*
X28727280Y4388800D01*
X28717120Y4429440D01*
X28712040Y4459920D01*
X28706960Y4475160D01*
X28694260Y4482780D01*
X28668860Y4492940D01*
X28635840Y4508180D01*
X28597740Y4523420D01*
X28564720Y4536120D01*
X28519000Y4551360D01*
X28516460Y4551360D01*
X28506300Y4543740D01*
X28483440Y4528500D01*
X28450420Y4505640D01*
X28409780Y4480240D01*
X28407240Y4477700D01*
X28366600Y4449760D01*
X28333580Y4426900D01*
X28308180Y4409120D01*
X28295480Y4404040D01*
X28295480Y4401500D01*
X28287860Y4406580D01*
X28270080Y4419280D01*
X28242140Y4444680D01*
X28127840Y4558980D01*
X28107520Y4581840D01*
X28099900Y4592000D01*
X28099900Y4594540D01*
X28104980Y4604700D01*
X28120220Y4627560D01*
X28140540Y4663120D01*
X28168480Y4701220D01*
X28171020Y4706300D01*
X28198960Y4746940D01*
X28221820Y4779960D01*
X28237060Y4805360D01*
X28244680Y4815520D01*
X28242140Y4828220D01*
X28234520Y4851080D01*
X28188800Y4957760D01*
X28176100Y4988240D01*
X28165940Y5006020D01*
X28163400Y5008560D01*
X28150700Y5013640D01*
X28122760Y5018720D01*
X28084660Y5028880D01*
X28036400Y5036500D01*
X28033860Y5036500D01*
X27985600Y5046660D01*
X27947500Y5054280D01*
X27919560Y5059360D01*
X27906860Y5064440D01*
X27904320Y5074600D01*
X27901780Y5100000D01*
X27901780Y5318440D01*
X27904320Y5331140D01*
X27906860Y5336220D01*
X27909400Y5338760D01*
X27922100Y5341300D01*
X27952580Y5346380D01*
X27990680Y5354000D01*
X28036400Y5364160D01*
X28082120Y5371780D01*
X28120220Y5379400D01*
X28148160Y5387020D01*
X28158320Y5389560D01*
X28163400Y5402260D01*
X28176100Y5427660D01*
X28191340Y5463220D01*
X28201500Y5493700D01*
X28242140Y5590220D01*
X28171020Y5694360D01*
X28143080Y5735000D01*
X28120220Y5768020D01*
X28104980Y5793420D01*
X28099900Y5806120D01*
X28104980Y5813740D01*
X28125300Y5834060D01*
X28153240Y5864540D01*
X28186260Y5900100D01*
X28193880Y5905180D01*
X28262460Y5973760D01*
X28292940Y5996620D01*
X28295480Y5996620D01*
X28308180Y5989000D01*
M02*
