G04 #@! TF.GenerationSoftware,KiCad,Pcbnew,6.0.2+dfsg-1*
G04 #@! TF.CreationDate,2023-08-11T11:42:38-04:00*
G04 #@! TF.ProjectId,HL2IO_endcap,484c3249-4f5f-4656-9e64-6361702e6b69,2.1*
G04 #@! TF.SameCoordinates,PX2e593c0PY56057c0*
G04 #@! TF.FileFunction,Copper,L1,Top*
G04 #@! TF.FilePolarity,Positive*
%FSLAX46Y46*%
G04 Gerber Fmt 4.6, Leading zero omitted, Abs format (unit mm)*
G04 Created by KiCad (PCBNEW 6.0.2+dfsg-1) date 2023-08-11 11:42:38*
%MOMM*%
%LPD*%
G01*
G04 APERTURE LIST*
G04 #@! TA.AperFunction,ComponentPad*
%ADD10C,4.900000*%
G04 #@! TD*
G04 APERTURE END LIST*
D10*
X102000000Y4000000D03*
X4000000Y4000000D03*
X4000000Y36000000D03*
X102000000Y36000000D03*
G04 #@! TA.AperFunction,Conductor*
G36*
X103982282Y39698496D02*
G01*
X104000000Y39695372D01*
X104008528Y39696876D01*
X104013146Y39696876D01*
X104030879Y39697792D01*
X104234871Y39683202D01*
X104248852Y39681191D01*
X104472030Y39632641D01*
X104485583Y39628662D01*
X104699572Y39548849D01*
X104712421Y39542981D01*
X104912875Y39433524D01*
X104924757Y39425888D01*
X105107592Y39289021D01*
X105118268Y39279771D01*
X105279771Y39118268D01*
X105289021Y39107592D01*
X105425888Y38924757D01*
X105433524Y38912875D01*
X105542981Y38712421D01*
X105548849Y38699572D01*
X105628662Y38485583D01*
X105632641Y38472030D01*
X105681191Y38248852D01*
X105683202Y38234871D01*
X105697792Y38030879D01*
X105696876Y38013146D01*
X105696876Y38008528D01*
X105695372Y38000000D01*
X105696876Y37991470D01*
X105698496Y37982283D01*
X105700000Y37965092D01*
X105700000Y2034908D01*
X105698496Y2017718D01*
X105695372Y2000000D01*
X105696876Y1991472D01*
X105696876Y1986854D01*
X105697792Y1969121D01*
X105683202Y1765129D01*
X105681191Y1751148D01*
X105632641Y1527970D01*
X105628662Y1514417D01*
X105548849Y1300428D01*
X105542981Y1287579D01*
X105433524Y1087125D01*
X105425888Y1075243D01*
X105289021Y892408D01*
X105279771Y881732D01*
X105118268Y720229D01*
X105107592Y710979D01*
X104924757Y574112D01*
X104912875Y566476D01*
X104712421Y457019D01*
X104699572Y451151D01*
X104485583Y371338D01*
X104472030Y367359D01*
X104248852Y318809D01*
X104234871Y316798D01*
X104030879Y302208D01*
X104013146Y303124D01*
X104008528Y303124D01*
X104000000Y304628D01*
X103991470Y303124D01*
X103982283Y301504D01*
X103965092Y300000D01*
X2034908Y300000D01*
X2017717Y301504D01*
X2008530Y303124D01*
X2000000Y304628D01*
X1991472Y303124D01*
X1986854Y303124D01*
X1969121Y302208D01*
X1765129Y316798D01*
X1751148Y318809D01*
X1527970Y367359D01*
X1514417Y371338D01*
X1300428Y451151D01*
X1287579Y457019D01*
X1087125Y566476D01*
X1075243Y574112D01*
X892408Y710979D01*
X881732Y720229D01*
X720229Y881732D01*
X710979Y892408D01*
X574112Y1075243D01*
X566476Y1087125D01*
X457019Y1287579D01*
X451151Y1300428D01*
X371338Y1514417D01*
X367359Y1527970D01*
X318809Y1751148D01*
X316798Y1765129D01*
X302208Y1969121D01*
X303124Y1986854D01*
X303124Y1991472D01*
X304628Y2000000D01*
X301504Y2017718D01*
X300000Y2034908D01*
X300000Y9234618D01*
X31195758Y9234618D01*
X31195822Y9232081D01*
X31195822Y9232073D01*
X31200801Y9035382D01*
X31205670Y8843042D01*
X31255780Y8454560D01*
X31345558Y8073287D01*
X31474053Y7703261D01*
X31639902Y7348404D01*
X31641206Y7346229D01*
X31641210Y7346222D01*
X31840039Y7014660D01*
X31840046Y7014650D01*
X31841350Y7012475D01*
X32076262Y6699033D01*
X32342149Y6411398D01*
X32636194Y6152618D01*
X32955282Y5925435D01*
X32957496Y5924180D01*
X32957502Y5924176D01*
X33138297Y5821679D01*
X33296032Y5732255D01*
X33298368Y5731232D01*
X33298370Y5731231D01*
X33652507Y5576144D01*
X33652515Y5576141D01*
X33654835Y5575125D01*
X34027889Y5455709D01*
X34030387Y5455185D01*
X34030394Y5455183D01*
X34248209Y5409481D01*
X34411243Y5375273D01*
X34413765Y5375010D01*
X34413766Y5375010D01*
X34798932Y5334867D01*
X34798935Y5334867D01*
X34800833Y5334669D01*
X34804805Y5334565D01*
X34806671Y5334516D01*
X34806681Y5334516D01*
X34807287Y5334500D01*
X35097917Y5334500D01*
X35391182Y5349613D01*
X35559338Y5375795D01*
X35775690Y5409481D01*
X35775694Y5409482D01*
X35778219Y5409875D01*
X36157012Y5509603D01*
X36328817Y5574351D01*
X36521165Y5646841D01*
X36521170Y5646843D01*
X36523547Y5647739D01*
X36698057Y5734937D01*
X36871656Y5821679D01*
X36871660Y5821681D01*
X36873941Y5822821D01*
X36950168Y5871289D01*
X37202327Y6031624D01*
X37202332Y6031628D01*
X37204481Y6032994D01*
X37355680Y6152618D01*
X37509658Y6274440D01*
X37509664Y6274445D01*
X37511667Y6276030D01*
X37513496Y6277812D01*
X37513502Y6277817D01*
X37652543Y6413265D01*
X37792243Y6549355D01*
X38043237Y6850073D01*
X38261990Y7174999D01*
X38446184Y7520690D01*
X38593868Y7883483D01*
X38703477Y8259535D01*
X38773850Y8644862D01*
X38804242Y9035382D01*
X38799264Y9232073D01*
X38799200Y9234618D01*
X63195758Y9234618D01*
X63195822Y9232081D01*
X63195822Y9232073D01*
X63200801Y9035382D01*
X63205670Y8843042D01*
X63255780Y8454560D01*
X63345558Y8073287D01*
X63474053Y7703261D01*
X63639902Y7348404D01*
X63641206Y7346229D01*
X63641210Y7346222D01*
X63840039Y7014660D01*
X63840046Y7014650D01*
X63841350Y7012475D01*
X64076262Y6699033D01*
X64342149Y6411398D01*
X64636194Y6152618D01*
X64955282Y5925435D01*
X64957496Y5924180D01*
X64957502Y5924176D01*
X65138297Y5821679D01*
X65296032Y5732255D01*
X65298368Y5731232D01*
X65298370Y5731231D01*
X65652507Y5576144D01*
X65652515Y5576141D01*
X65654835Y5575125D01*
X66027889Y5455709D01*
X66030387Y5455185D01*
X66030394Y5455183D01*
X66248209Y5409481D01*
X66411243Y5375273D01*
X66413765Y5375010D01*
X66413766Y5375010D01*
X66798932Y5334867D01*
X66798935Y5334867D01*
X66800833Y5334669D01*
X66804805Y5334565D01*
X66806671Y5334516D01*
X66806681Y5334516D01*
X66807287Y5334500D01*
X67097917Y5334500D01*
X67391182Y5349613D01*
X67559338Y5375795D01*
X67775690Y5409481D01*
X67775694Y5409482D01*
X67778219Y5409875D01*
X68157012Y5509603D01*
X68328817Y5574351D01*
X68521165Y5646841D01*
X68521170Y5646843D01*
X68523547Y5647739D01*
X68698057Y5734937D01*
X68871656Y5821679D01*
X68871660Y5821681D01*
X68873941Y5822821D01*
X68950168Y5871289D01*
X69202327Y6031624D01*
X69202332Y6031628D01*
X69204481Y6032994D01*
X69355680Y6152618D01*
X69509658Y6274440D01*
X69509664Y6274445D01*
X69511667Y6276030D01*
X69513496Y6277812D01*
X69513502Y6277817D01*
X69652543Y6413265D01*
X69792243Y6549355D01*
X70043237Y6850073D01*
X70261990Y7174999D01*
X70446184Y7520690D01*
X70593868Y7883483D01*
X70703477Y8259535D01*
X70773850Y8644862D01*
X70804242Y9035382D01*
X70799264Y9232073D01*
X70794395Y9424403D01*
X70794395Y9424409D01*
X70794330Y9426958D01*
X70744220Y9815440D01*
X70654442Y10196713D01*
X70525947Y10566739D01*
X70360098Y10921596D01*
X70358790Y10923778D01*
X70159961Y11255340D01*
X70159954Y11255350D01*
X70158650Y11257525D01*
X69923738Y11570967D01*
X69657851Y11858602D01*
X69363806Y12117382D01*
X69098214Y12306477D01*
X69046797Y12343085D01*
X69046794Y12343087D01*
X69044718Y12344565D01*
X69042504Y12345820D01*
X69042498Y12345824D01*
X68706185Y12536488D01*
X68703968Y12537745D01*
X68701630Y12538769D01*
X68347493Y12693856D01*
X68347485Y12693859D01*
X68345165Y12694875D01*
X67972111Y12814291D01*
X67969613Y12814815D01*
X67969606Y12814817D01*
X67706332Y12870057D01*
X67588757Y12894727D01*
X67586234Y12894990D01*
X67201068Y12935133D01*
X67201065Y12935133D01*
X67199167Y12935331D01*
X67195024Y12935439D01*
X67193329Y12935484D01*
X67193319Y12935484D01*
X67192713Y12935500D01*
X66902083Y12935500D01*
X66608818Y12920387D01*
X66446783Y12895158D01*
X66224310Y12860519D01*
X66224306Y12860518D01*
X66221781Y12860125D01*
X65842988Y12760397D01*
X65840615Y12759503D01*
X65840616Y12759503D01*
X65478835Y12623159D01*
X65478830Y12623157D01*
X65476453Y12622261D01*
X65309359Y12538769D01*
X65128344Y12448321D01*
X65128340Y12448319D01*
X65126059Y12447179D01*
X65123903Y12445808D01*
X64797673Y12238376D01*
X64797668Y12238372D01*
X64795519Y12237006D01*
X64793516Y12235421D01*
X64490342Y11995560D01*
X64490336Y11995555D01*
X64488333Y11993970D01*
X64486504Y11992188D01*
X64486498Y11992183D01*
X64369059Y11877778D01*
X64207757Y11720645D01*
X63956763Y11419927D01*
X63738010Y11095001D01*
X63553816Y10749310D01*
X63406132Y10386517D01*
X63405417Y10384063D01*
X63299834Y10021824D01*
X63296523Y10010465D01*
X63226150Y9625138D01*
X63195758Y9234618D01*
X38799200Y9234618D01*
X38794395Y9424403D01*
X38794395Y9424409D01*
X38794330Y9426958D01*
X38744220Y9815440D01*
X38654442Y10196713D01*
X38525947Y10566739D01*
X38360098Y10921596D01*
X38358790Y10923778D01*
X38159961Y11255340D01*
X38159954Y11255350D01*
X38158650Y11257525D01*
X37923738Y11570967D01*
X37657851Y11858602D01*
X37363806Y12117382D01*
X37098214Y12306477D01*
X37046797Y12343085D01*
X37046794Y12343087D01*
X37044718Y12344565D01*
X37042504Y12345820D01*
X37042498Y12345824D01*
X36706185Y12536488D01*
X36703968Y12537745D01*
X36701630Y12538769D01*
X36347493Y12693856D01*
X36347485Y12693859D01*
X36345165Y12694875D01*
X35972111Y12814291D01*
X35969613Y12814815D01*
X35969606Y12814817D01*
X35706332Y12870057D01*
X35588757Y12894727D01*
X35586234Y12894990D01*
X35201068Y12935133D01*
X35201065Y12935133D01*
X35199167Y12935331D01*
X35195024Y12935439D01*
X35193329Y12935484D01*
X35193319Y12935484D01*
X35192713Y12935500D01*
X34902083Y12935500D01*
X34608818Y12920387D01*
X34446783Y12895158D01*
X34224310Y12860519D01*
X34224306Y12860518D01*
X34221781Y12860125D01*
X33842988Y12760397D01*
X33840615Y12759503D01*
X33840616Y12759503D01*
X33478835Y12623159D01*
X33478830Y12623157D01*
X33476453Y12622261D01*
X33309359Y12538769D01*
X33128344Y12448321D01*
X33128340Y12448319D01*
X33126059Y12447179D01*
X33123903Y12445808D01*
X32797673Y12238376D01*
X32797668Y12238372D01*
X32795519Y12237006D01*
X32793516Y12235421D01*
X32490342Y11995560D01*
X32490336Y11995555D01*
X32488333Y11993970D01*
X32486504Y11992188D01*
X32486498Y11992183D01*
X32369059Y11877778D01*
X32207757Y11720645D01*
X31956763Y11419927D01*
X31738010Y11095001D01*
X31553816Y10749310D01*
X31406132Y10386517D01*
X31405417Y10384063D01*
X31299834Y10021824D01*
X31296523Y10010465D01*
X31226150Y9625138D01*
X31195758Y9234618D01*
X300000Y9234618D01*
X300000Y15000000D01*
X9944552Y15000000D01*
X9963790Y14559389D01*
X9971526Y14500628D01*
X10021074Y14124269D01*
X10021076Y14124257D01*
X10021356Y14122131D01*
X10116812Y13691554D01*
X10249433Y13270935D01*
X10418208Y12863475D01*
X10621854Y12472276D01*
X10623006Y12470468D01*
X10623007Y12470466D01*
X10847946Y12117382D01*
X10858819Y12100314D01*
X11127302Y11750421D01*
X11425258Y11425258D01*
X11750421Y11127302D01*
X12100314Y10858819D01*
X12102130Y10857662D01*
X12102133Y10857660D01*
X12272209Y10749310D01*
X12472276Y10621854D01*
X12474181Y10620862D01*
X12474185Y10620860D01*
X12582778Y10564330D01*
X12863475Y10418208D01*
X13270935Y10249433D01*
X13691554Y10116812D01*
X13693666Y10116344D01*
X13693669Y10116343D01*
X13782901Y10096561D01*
X14122131Y10021356D01*
X14124257Y10021076D01*
X14124269Y10021074D01*
X14412762Y9983094D01*
X14559389Y9963790D01*
X14886675Y9949500D01*
X15113325Y9949500D01*
X15440611Y9963790D01*
X15587238Y9983094D01*
X15875731Y10021074D01*
X15875743Y10021076D01*
X15877869Y10021356D01*
X16217099Y10096561D01*
X16306331Y10116343D01*
X16306334Y10116344D01*
X16308446Y10116812D01*
X16729065Y10249433D01*
X17136525Y10418208D01*
X17417222Y10564330D01*
X17525815Y10620860D01*
X17525819Y10620862D01*
X17527724Y10621854D01*
X17727791Y10749310D01*
X17897867Y10857660D01*
X17897870Y10857662D01*
X17899686Y10858819D01*
X18249579Y11127302D01*
X18574742Y11425258D01*
X18872698Y11750421D01*
X19141181Y12100314D01*
X19152055Y12117382D01*
X19376993Y12470466D01*
X19376994Y12470468D01*
X19378146Y12472276D01*
X19581792Y12863475D01*
X19617994Y12950874D01*
X89695541Y12950874D01*
X89725935Y12749903D01*
X89796119Y12559148D01*
X89903226Y12386401D01*
X90042881Y12238720D01*
X90046986Y12235846D01*
X90046989Y12235843D01*
X90047592Y12235421D01*
X90209379Y12122137D01*
X90213975Y12120148D01*
X90213977Y12120147D01*
X90259809Y12100314D01*
X90395919Y12041414D01*
X90594880Y11999849D01*
X90599432Y11999610D01*
X90600234Y11999568D01*
X90600249Y11999568D01*
X90601539Y11999500D01*
X90750800Y11999500D01*
X90753288Y11999753D01*
X90753294Y11999753D01*
X90813816Y12005901D01*
X90902216Y12014880D01*
X91096172Y12075662D01*
X91273944Y12174203D01*
X91428271Y12306477D01*
X91552848Y12467081D01*
X91642587Y12649455D01*
X91693822Y12846148D01*
X91694521Y12859475D01*
X91699310Y12950874D01*
X92195541Y12950874D01*
X92225935Y12749903D01*
X92296119Y12559148D01*
X92403226Y12386401D01*
X92542881Y12238720D01*
X92546986Y12235846D01*
X92546989Y12235843D01*
X92547592Y12235421D01*
X92709379Y12122137D01*
X92713975Y12120148D01*
X92713977Y12120147D01*
X92759809Y12100314D01*
X92895919Y12041414D01*
X93094880Y11999849D01*
X93099432Y11999610D01*
X93100234Y11999568D01*
X93100249Y11999568D01*
X93101539Y11999500D01*
X93250800Y11999500D01*
X93253288Y11999753D01*
X93253294Y11999753D01*
X93313816Y12005901D01*
X93402216Y12014880D01*
X93596172Y12075662D01*
X93773944Y12174203D01*
X93928271Y12306477D01*
X94052848Y12467081D01*
X94142587Y12649455D01*
X94193822Y12846148D01*
X94194521Y12859475D01*
X94199310Y12950874D01*
X94695541Y12950874D01*
X94725935Y12749903D01*
X94796119Y12559148D01*
X94903226Y12386401D01*
X95042881Y12238720D01*
X95046986Y12235846D01*
X95046989Y12235843D01*
X95047592Y12235421D01*
X95209379Y12122137D01*
X95213975Y12120148D01*
X95213977Y12120147D01*
X95259809Y12100314D01*
X95395919Y12041414D01*
X95594880Y11999849D01*
X95599432Y11999610D01*
X95600234Y11999568D01*
X95600249Y11999568D01*
X95601539Y11999500D01*
X95750800Y11999500D01*
X95753288Y11999753D01*
X95753294Y11999753D01*
X95813816Y12005901D01*
X95902216Y12014880D01*
X96096172Y12075662D01*
X96273944Y12174203D01*
X96428271Y12306477D01*
X96552848Y12467081D01*
X96642587Y12649455D01*
X96693822Y12846148D01*
X96694521Y12859475D01*
X96704196Y13044115D01*
X96704459Y13049126D01*
X96674065Y13250097D01*
X96603881Y13440852D01*
X96496774Y13613599D01*
X96357119Y13761280D01*
X96353014Y13764154D01*
X96353011Y13764157D01*
X96194727Y13874988D01*
X96190621Y13877863D01*
X96186025Y13879852D01*
X96186023Y13879853D01*
X96008677Y13956597D01*
X96008678Y13956597D01*
X96004081Y13958586D01*
X95805120Y14000151D01*
X95800568Y14000390D01*
X95799766Y14000432D01*
X95799751Y14000432D01*
X95798461Y14000500D01*
X95649200Y14000500D01*
X95646712Y14000247D01*
X95646706Y14000247D01*
X95586184Y13994099D01*
X95497784Y13985120D01*
X95303828Y13924338D01*
X95126056Y13825797D01*
X94971729Y13693523D01*
X94847152Y13532919D01*
X94757413Y13350545D01*
X94706178Y13153852D01*
X94695541Y12950874D01*
X94199310Y12950874D01*
X94204196Y13044115D01*
X94204459Y13049126D01*
X94174065Y13250097D01*
X94103881Y13440852D01*
X93996774Y13613599D01*
X93857119Y13761280D01*
X93853014Y13764154D01*
X93853011Y13764157D01*
X93694727Y13874988D01*
X93690621Y13877863D01*
X93686025Y13879852D01*
X93686023Y13879853D01*
X93508677Y13956597D01*
X93508678Y13956597D01*
X93504081Y13958586D01*
X93305120Y14000151D01*
X93300568Y14000390D01*
X93299766Y14000432D01*
X93299751Y14000432D01*
X93298461Y14000500D01*
X93149200Y14000500D01*
X93146712Y14000247D01*
X93146706Y14000247D01*
X93086184Y13994099D01*
X92997784Y13985120D01*
X92803828Y13924338D01*
X92626056Y13825797D01*
X92471729Y13693523D01*
X92347152Y13532919D01*
X92257413Y13350545D01*
X92206178Y13153852D01*
X92195541Y12950874D01*
X91699310Y12950874D01*
X91704196Y13044115D01*
X91704459Y13049126D01*
X91674065Y13250097D01*
X91603881Y13440852D01*
X91496774Y13613599D01*
X91357119Y13761280D01*
X91353014Y13764154D01*
X91353011Y13764157D01*
X91194727Y13874988D01*
X91190621Y13877863D01*
X91186025Y13879852D01*
X91186023Y13879853D01*
X91008677Y13956597D01*
X91008678Y13956597D01*
X91004081Y13958586D01*
X90805120Y14000151D01*
X90800568Y14000390D01*
X90799766Y14000432D01*
X90799751Y14000432D01*
X90798461Y14000500D01*
X90649200Y14000500D01*
X90646712Y14000247D01*
X90646706Y14000247D01*
X90586184Y13994099D01*
X90497784Y13985120D01*
X90303828Y13924338D01*
X90126056Y13825797D01*
X89971729Y13693523D01*
X89847152Y13532919D01*
X89757413Y13350545D01*
X89706178Y13153852D01*
X89695541Y12950874D01*
X19617994Y12950874D01*
X19750567Y13270935D01*
X19883188Y13691554D01*
X19978644Y14122131D01*
X19978924Y14124257D01*
X19978926Y14124269D01*
X20028474Y14500628D01*
X20036210Y14559389D01*
X20055448Y15000000D01*
X20036210Y15440611D01*
X20034859Y15450874D01*
X89695541Y15450874D01*
X89725935Y15249903D01*
X89796119Y15059148D01*
X89903226Y14886401D01*
X90042881Y14738720D01*
X90046986Y14735846D01*
X90046989Y14735843D01*
X90130358Y14677468D01*
X90209379Y14622137D01*
X90213975Y14620148D01*
X90213977Y14620147D01*
X90311156Y14578094D01*
X90395919Y14541414D01*
X90594880Y14499849D01*
X90599432Y14499610D01*
X90600234Y14499568D01*
X90600249Y14499568D01*
X90601539Y14499500D01*
X90750800Y14499500D01*
X90753288Y14499753D01*
X90753294Y14499753D01*
X90813816Y14505901D01*
X90902216Y14514880D01*
X91096172Y14575662D01*
X91273944Y14674203D01*
X91428271Y14806477D01*
X91552848Y14967081D01*
X91642587Y15149455D01*
X91693822Y15346148D01*
X91699310Y15450874D01*
X92195541Y15450874D01*
X92225935Y15249903D01*
X92296119Y15059148D01*
X92403226Y14886401D01*
X92542881Y14738720D01*
X92546986Y14735846D01*
X92546989Y14735843D01*
X92630358Y14677468D01*
X92709379Y14622137D01*
X92713975Y14620148D01*
X92713977Y14620147D01*
X92811156Y14578094D01*
X92895919Y14541414D01*
X93094880Y14499849D01*
X93099432Y14499610D01*
X93100234Y14499568D01*
X93100249Y14499568D01*
X93101539Y14499500D01*
X93250800Y14499500D01*
X93253288Y14499753D01*
X93253294Y14499753D01*
X93313816Y14505901D01*
X93402216Y14514880D01*
X93596172Y14575662D01*
X93773944Y14674203D01*
X93928271Y14806477D01*
X94052848Y14967081D01*
X94142587Y15149455D01*
X94193822Y15346148D01*
X94199310Y15450874D01*
X94695541Y15450874D01*
X94725935Y15249903D01*
X94796119Y15059148D01*
X94903226Y14886401D01*
X95042881Y14738720D01*
X95046986Y14735846D01*
X95046989Y14735843D01*
X95130358Y14677468D01*
X95209379Y14622137D01*
X95213975Y14620148D01*
X95213977Y14620147D01*
X95311156Y14578094D01*
X95395919Y14541414D01*
X95594880Y14499849D01*
X95599432Y14499610D01*
X95600234Y14499568D01*
X95600249Y14499568D01*
X95601539Y14499500D01*
X95750800Y14499500D01*
X95753288Y14499753D01*
X95753294Y14499753D01*
X95813816Y14505901D01*
X95902216Y14514880D01*
X96096172Y14575662D01*
X96273944Y14674203D01*
X96428271Y14806477D01*
X96552848Y14967081D01*
X96642587Y15149455D01*
X96693822Y15346148D01*
X96704459Y15549126D01*
X96674065Y15750097D01*
X96603881Y15940852D01*
X96496774Y16113599D01*
X96357119Y16261280D01*
X96353014Y16264154D01*
X96353011Y16264157D01*
X96194727Y16374988D01*
X96190621Y16377863D01*
X96186025Y16379852D01*
X96186023Y16379853D01*
X96008677Y16456597D01*
X96008678Y16456597D01*
X96004081Y16458586D01*
X95805120Y16500151D01*
X95800568Y16500390D01*
X95799766Y16500432D01*
X95799751Y16500432D01*
X95798461Y16500500D01*
X95649200Y16500500D01*
X95646712Y16500247D01*
X95646706Y16500247D01*
X95586184Y16494099D01*
X95497784Y16485120D01*
X95303828Y16424338D01*
X95126056Y16325797D01*
X94971729Y16193523D01*
X94847152Y16032919D01*
X94757413Y15850545D01*
X94706178Y15653852D01*
X94695541Y15450874D01*
X94199310Y15450874D01*
X94204459Y15549126D01*
X94174065Y15750097D01*
X94103881Y15940852D01*
X93996774Y16113599D01*
X93857119Y16261280D01*
X93853014Y16264154D01*
X93853011Y16264157D01*
X93694727Y16374988D01*
X93690621Y16377863D01*
X93686025Y16379852D01*
X93686023Y16379853D01*
X93508677Y16456597D01*
X93508678Y16456597D01*
X93504081Y16458586D01*
X93305120Y16500151D01*
X93300568Y16500390D01*
X93299766Y16500432D01*
X93299751Y16500432D01*
X93298461Y16500500D01*
X93149200Y16500500D01*
X93146712Y16500247D01*
X93146706Y16500247D01*
X93086184Y16494099D01*
X92997784Y16485120D01*
X92803828Y16424338D01*
X92626056Y16325797D01*
X92471729Y16193523D01*
X92347152Y16032919D01*
X92257413Y15850545D01*
X92206178Y15653852D01*
X92195541Y15450874D01*
X91699310Y15450874D01*
X91704459Y15549126D01*
X91674065Y15750097D01*
X91603881Y15940852D01*
X91496774Y16113599D01*
X91357119Y16261280D01*
X91353014Y16264154D01*
X91353011Y16264157D01*
X91194727Y16374988D01*
X91190621Y16377863D01*
X91186025Y16379852D01*
X91186023Y16379853D01*
X91008677Y16456597D01*
X91008678Y16456597D01*
X91004081Y16458586D01*
X90805120Y16500151D01*
X90800568Y16500390D01*
X90799766Y16500432D01*
X90799751Y16500432D01*
X90798461Y16500500D01*
X90649200Y16500500D01*
X90646712Y16500247D01*
X90646706Y16500247D01*
X90586184Y16494099D01*
X90497784Y16485120D01*
X90303828Y16424338D01*
X90126056Y16325797D01*
X89971729Y16193523D01*
X89847152Y16032919D01*
X89757413Y15850545D01*
X89706178Y15653852D01*
X89695541Y15450874D01*
X20034859Y15450874D01*
X20016906Y15587238D01*
X19978926Y15875731D01*
X19978924Y15875743D01*
X19978644Y15877869D01*
X19883188Y16308446D01*
X19750567Y16729065D01*
X19581792Y17136525D01*
X19409715Y17467081D01*
X19379140Y17525815D01*
X19379138Y17525819D01*
X19378146Y17527724D01*
X19141181Y17899686D01*
X19101903Y17950874D01*
X89695541Y17950874D01*
X89725935Y17749903D01*
X89796119Y17559148D01*
X89903226Y17386401D01*
X90042881Y17238720D01*
X90046986Y17235846D01*
X90046989Y17235843D01*
X90130358Y17177468D01*
X90209379Y17122137D01*
X90213975Y17120148D01*
X90213977Y17120147D01*
X90311156Y17078094D01*
X90395919Y17041414D01*
X90594880Y16999849D01*
X90599432Y16999610D01*
X90600234Y16999568D01*
X90600249Y16999568D01*
X90601539Y16999500D01*
X90750800Y16999500D01*
X90753288Y16999753D01*
X90753294Y16999753D01*
X90813816Y17005901D01*
X90902216Y17014880D01*
X91096172Y17075662D01*
X91273944Y17174203D01*
X91428271Y17306477D01*
X91552848Y17467081D01*
X91642587Y17649455D01*
X91693822Y17846148D01*
X91699310Y17950874D01*
X92195541Y17950874D01*
X92225935Y17749903D01*
X92296119Y17559148D01*
X92403226Y17386401D01*
X92542881Y17238720D01*
X92546986Y17235846D01*
X92546989Y17235843D01*
X92630358Y17177468D01*
X92709379Y17122137D01*
X92713975Y17120148D01*
X92713977Y17120147D01*
X92811156Y17078094D01*
X92895919Y17041414D01*
X93094880Y16999849D01*
X93099432Y16999610D01*
X93100234Y16999568D01*
X93100249Y16999568D01*
X93101539Y16999500D01*
X93250800Y16999500D01*
X93253288Y16999753D01*
X93253294Y16999753D01*
X93313816Y17005901D01*
X93402216Y17014880D01*
X93596172Y17075662D01*
X93773944Y17174203D01*
X93928271Y17306477D01*
X94052848Y17467081D01*
X94142587Y17649455D01*
X94193822Y17846148D01*
X94199310Y17950874D01*
X94695541Y17950874D01*
X94725935Y17749903D01*
X94796119Y17559148D01*
X94903226Y17386401D01*
X95042881Y17238720D01*
X95046986Y17235846D01*
X95046989Y17235843D01*
X95130358Y17177468D01*
X95209379Y17122137D01*
X95213975Y17120148D01*
X95213977Y17120147D01*
X95311156Y17078094D01*
X95395919Y17041414D01*
X95594880Y16999849D01*
X95599432Y16999610D01*
X95600234Y16999568D01*
X95600249Y16999568D01*
X95601539Y16999500D01*
X95750800Y16999500D01*
X95753288Y16999753D01*
X95753294Y16999753D01*
X95813816Y17005901D01*
X95902216Y17014880D01*
X96096172Y17075662D01*
X96273944Y17174203D01*
X96428271Y17306477D01*
X96552848Y17467081D01*
X96642587Y17649455D01*
X96693822Y17846148D01*
X96704459Y18049126D01*
X96674065Y18250097D01*
X96603881Y18440852D01*
X96496774Y18613599D01*
X96357119Y18761280D01*
X96353014Y18764154D01*
X96353011Y18764157D01*
X96194727Y18874988D01*
X96190621Y18877863D01*
X96186025Y18879852D01*
X96186023Y18879853D01*
X96008677Y18956597D01*
X96008678Y18956597D01*
X96004081Y18958586D01*
X95805120Y19000151D01*
X95800568Y19000390D01*
X95799766Y19000432D01*
X95799751Y19000432D01*
X95798461Y19000500D01*
X95649200Y19000500D01*
X95646712Y19000247D01*
X95646706Y19000247D01*
X95586184Y18994099D01*
X95497784Y18985120D01*
X95303828Y18924338D01*
X95126056Y18825797D01*
X94971729Y18693523D01*
X94847152Y18532919D01*
X94757413Y18350545D01*
X94706178Y18153852D01*
X94695541Y17950874D01*
X94199310Y17950874D01*
X94204459Y18049126D01*
X94174065Y18250097D01*
X94103881Y18440852D01*
X93996774Y18613599D01*
X93857119Y18761280D01*
X93853014Y18764154D01*
X93853011Y18764157D01*
X93694727Y18874988D01*
X93690621Y18877863D01*
X93686025Y18879852D01*
X93686023Y18879853D01*
X93508677Y18956597D01*
X93508678Y18956597D01*
X93504081Y18958586D01*
X93305120Y19000151D01*
X93300568Y19000390D01*
X93299766Y19000432D01*
X93299751Y19000432D01*
X93298461Y19000500D01*
X93149200Y19000500D01*
X93146712Y19000247D01*
X93146706Y19000247D01*
X93086184Y18994099D01*
X92997784Y18985120D01*
X92803828Y18924338D01*
X92626056Y18825797D01*
X92471729Y18693523D01*
X92347152Y18532919D01*
X92257413Y18350545D01*
X92206178Y18153852D01*
X92195541Y17950874D01*
X91699310Y17950874D01*
X91704459Y18049126D01*
X91674065Y18250097D01*
X91603881Y18440852D01*
X91496774Y18613599D01*
X91357119Y18761280D01*
X91353014Y18764154D01*
X91353011Y18764157D01*
X91194727Y18874988D01*
X91190621Y18877863D01*
X91186025Y18879852D01*
X91186023Y18879853D01*
X91008677Y18956597D01*
X91008678Y18956597D01*
X91004081Y18958586D01*
X90805120Y19000151D01*
X90800568Y19000390D01*
X90799766Y19000432D01*
X90799751Y19000432D01*
X90798461Y19000500D01*
X90649200Y19000500D01*
X90646712Y19000247D01*
X90646706Y19000247D01*
X90586184Y18994099D01*
X90497784Y18985120D01*
X90303828Y18924338D01*
X90126056Y18825797D01*
X89971729Y18693523D01*
X89847152Y18532919D01*
X89757413Y18350545D01*
X89706178Y18153852D01*
X89695541Y17950874D01*
X19101903Y17950874D01*
X18872698Y18249579D01*
X18574742Y18574742D01*
X18249579Y18872698D01*
X17899686Y19141181D01*
X17527724Y19378146D01*
X17525815Y19379140D01*
X17390592Y19449533D01*
X17347706Y19493174D01*
X17338663Y19553687D01*
X17366915Y19607959D01*
X17421672Y19635260D01*
X17431204Y19636215D01*
X17691182Y19649613D01*
X17859338Y19675795D01*
X18075690Y19709481D01*
X18075694Y19709482D01*
X18078219Y19709875D01*
X18457012Y19809603D01*
X18628817Y19874351D01*
X18821165Y19946841D01*
X18821170Y19946843D01*
X18823547Y19947739D01*
X19000793Y20036304D01*
X19171656Y20121679D01*
X19171660Y20121681D01*
X19173941Y20122821D01*
X19259889Y20177471D01*
X19502327Y20331624D01*
X19502332Y20331628D01*
X19504481Y20332994D01*
X19655680Y20452618D01*
X19809658Y20574440D01*
X19809664Y20574445D01*
X19811667Y20576030D01*
X19813496Y20577812D01*
X19813502Y20577817D01*
X19952543Y20713265D01*
X20092243Y20849355D01*
X20343237Y21150073D01*
X20561990Y21474999D01*
X20746184Y21820690D01*
X20893868Y22183483D01*
X21003477Y22559535D01*
X21073850Y22944862D01*
X21082677Y23058276D01*
X21104045Y23332851D01*
X21104242Y23335382D01*
X21103047Y23382612D01*
X21099199Y23534618D01*
X27495758Y23534618D01*
X27495822Y23532081D01*
X27495822Y23532073D01*
X27504082Y23205771D01*
X27505670Y23143042D01*
X27505996Y23140515D01*
X27551943Y22784310D01*
X27555780Y22754560D01*
X27645558Y22373287D01*
X27774053Y22003261D01*
X27939902Y21648404D01*
X27941206Y21646229D01*
X27941210Y21646222D01*
X28140039Y21314660D01*
X28140046Y21314650D01*
X28141350Y21312475D01*
X28376262Y20999033D01*
X28642149Y20711398D01*
X28936194Y20452618D01*
X29255282Y20225435D01*
X29257496Y20224180D01*
X29257502Y20224176D01*
X29438297Y20121679D01*
X29596032Y20032255D01*
X29598368Y20031232D01*
X29598370Y20031231D01*
X29952507Y19876144D01*
X29952515Y19876141D01*
X29954835Y19875125D01*
X30327889Y19755709D01*
X30330387Y19755185D01*
X30330394Y19755183D01*
X30548209Y19709481D01*
X30711243Y19675273D01*
X30713765Y19675010D01*
X30713766Y19675010D01*
X31098932Y19634867D01*
X31098935Y19634867D01*
X31100833Y19634669D01*
X31104805Y19634565D01*
X31106671Y19634516D01*
X31106681Y19634516D01*
X31107287Y19634500D01*
X31397917Y19634500D01*
X31691182Y19649613D01*
X31859338Y19675795D01*
X32075690Y19709481D01*
X32075694Y19709482D01*
X32078219Y19709875D01*
X32457012Y19809603D01*
X32628817Y19874351D01*
X32821165Y19946841D01*
X32821170Y19946843D01*
X32823547Y19947739D01*
X33000793Y20036304D01*
X33171656Y20121679D01*
X33171660Y20121681D01*
X33173941Y20122821D01*
X33259889Y20177471D01*
X33502327Y20331624D01*
X33502332Y20331628D01*
X33504481Y20332994D01*
X33655680Y20452618D01*
X33809658Y20574440D01*
X33809664Y20574445D01*
X33811667Y20576030D01*
X33813496Y20577812D01*
X33813502Y20577817D01*
X33952543Y20713265D01*
X34092243Y20849355D01*
X34343237Y21150073D01*
X34561990Y21474999D01*
X34746184Y21820690D01*
X34893868Y22183483D01*
X35003477Y22559535D01*
X35073850Y22944862D01*
X35082677Y23058276D01*
X35104045Y23332851D01*
X35104242Y23335382D01*
X35103047Y23382612D01*
X35094395Y23724403D01*
X35094395Y23724409D01*
X35094330Y23726958D01*
X35083588Y23810238D01*
X35044546Y24112915D01*
X35044545Y24112921D01*
X35044220Y24115440D01*
X34954442Y24496713D01*
X34836122Y24837437D01*
X79682809Y24837437D01*
X79683173Y24835370D01*
X79683714Y24827112D01*
X79683714Y24827111D01*
X79693091Y24684063D01*
X79700614Y24569284D01*
X79753040Y24305719D01*
X79839420Y24051253D01*
X79840853Y24048348D01*
X79840853Y24048347D01*
X79954419Y23818057D01*
X79958275Y23810237D01*
X80107573Y23586798D01*
X80284758Y23384758D01*
X80486798Y23207573D01*
X80489495Y23205771D01*
X80489502Y23205766D01*
X80583375Y23143042D01*
X80710238Y23058275D01*
X80713142Y23056843D01*
X80713147Y23056840D01*
X80935065Y22947403D01*
X80951253Y22939420D01*
X80954322Y22938378D01*
X80954325Y22938377D01*
X81016931Y22917125D01*
X81205719Y22853040D01*
X81469284Y22800614D01*
X81472508Y22800403D01*
X81472513Y22800402D01*
X81600094Y22792040D01*
X81735370Y22783173D01*
X81737437Y22782809D01*
X81755155Y22785933D01*
X81772345Y22787437D01*
X90227656Y22787437D01*
X90244846Y22785933D01*
X90262564Y22782809D01*
X90264631Y22783173D01*
X90272889Y22783714D01*
X90272890Y22783714D01*
X90527487Y22800402D01*
X90527492Y22800403D01*
X90530716Y22800614D01*
X90794281Y22853041D01*
X90983069Y22917126D01*
X91045675Y22938378D01*
X91045678Y22938379D01*
X91048747Y22939421D01*
X91289762Y23058276D01*
X91513201Y23207574D01*
X91515638Y23209711D01*
X91515643Y23209715D01*
X91712795Y23382612D01*
X91715242Y23384758D01*
X91779829Y23458406D01*
X91890285Y23584357D01*
X91890289Y23584362D01*
X91892426Y23586799D01*
X92041724Y23810238D01*
X92160579Y24051253D01*
X92246959Y24305719D01*
X92299386Y24569284D01*
X92316827Y24835369D01*
X92317191Y24837436D01*
X92314067Y24855155D01*
X92312563Y24872344D01*
X92312563Y27327656D01*
X92314067Y27344847D01*
X92315688Y27354040D01*
X92317191Y27362564D01*
X92316827Y27364631D01*
X92316160Y27374816D01*
X92299598Y27627487D01*
X92299597Y27627492D01*
X92299386Y27630716D01*
X92246959Y27894281D01*
X92160579Y28148747D01*
X92041724Y28389762D01*
X91892426Y28613201D01*
X91890289Y28615638D01*
X91890285Y28615643D01*
X91717388Y28812795D01*
X91715242Y28815242D01*
X91712795Y28817388D01*
X91515643Y28990285D01*
X91515638Y28990289D01*
X91513201Y28992426D01*
X91289762Y29141724D01*
X91048747Y29260579D01*
X91045678Y29261621D01*
X91045675Y29261622D01*
X90983069Y29282874D01*
X90794281Y29346959D01*
X90530716Y29399386D01*
X90527492Y29399597D01*
X90527487Y29399598D01*
X90399587Y29407981D01*
X90264631Y29416827D01*
X90262564Y29417191D01*
X90254040Y29415688D01*
X90244847Y29414067D01*
X90227656Y29412563D01*
X81772345Y29412563D01*
X81755154Y29414067D01*
X81745961Y29415688D01*
X81737437Y29417191D01*
X81735370Y29416827D01*
X81727112Y29416286D01*
X81727111Y29416286D01*
X81472513Y29399598D01*
X81472508Y29399597D01*
X81469284Y29399386D01*
X81205719Y29346960D01*
X81016931Y29282875D01*
X80954325Y29261623D01*
X80954322Y29261622D01*
X80951253Y29260580D01*
X80948339Y29259143D01*
X80713147Y29143160D01*
X80713142Y29143157D01*
X80710238Y29141725D01*
X80486798Y28992427D01*
X80284758Y28815242D01*
X80107573Y28613202D01*
X80105769Y28610502D01*
X80105766Y28610498D01*
X79960390Y28392928D01*
X79958275Y28389762D01*
X79956843Y28386858D01*
X79956840Y28386853D01*
X79872019Y28214852D01*
X79839420Y28148747D01*
X79753040Y27894281D01*
X79700614Y27630716D01*
X79700403Y27627492D01*
X79700402Y27627487D01*
X79699544Y27614399D01*
X79683173Y27364630D01*
X79682809Y27362563D01*
X79684312Y27354040D01*
X79684312Y27354039D01*
X79685933Y27344846D01*
X79687437Y27327655D01*
X79687437Y24872345D01*
X79685933Y24855155D01*
X79682809Y24837437D01*
X34836122Y24837437D01*
X34825947Y24866739D01*
X34660098Y25221596D01*
X34658790Y25223778D01*
X34459961Y25555340D01*
X34459954Y25555350D01*
X34458650Y25557525D01*
X34278939Y25797312D01*
X34225255Y25868943D01*
X34225254Y25868944D01*
X34223738Y25870967D01*
X33957851Y26158602D01*
X33679587Y26403494D01*
X33665723Y26415695D01*
X33665722Y26415696D01*
X33663806Y26417382D01*
X33344718Y26644565D01*
X33342504Y26645820D01*
X33342498Y26645824D01*
X33006185Y26836488D01*
X33003968Y26837745D01*
X33001630Y26838769D01*
X32647493Y26993856D01*
X32647485Y26993859D01*
X32645165Y26994875D01*
X32272111Y27114291D01*
X32269613Y27114815D01*
X32269606Y27114817D01*
X32006332Y27170057D01*
X31888757Y27194727D01*
X31886234Y27194990D01*
X31501068Y27235133D01*
X31501065Y27235133D01*
X31499167Y27235331D01*
X31495024Y27235439D01*
X31493329Y27235484D01*
X31493319Y27235484D01*
X31492713Y27235500D01*
X31202083Y27235500D01*
X30908818Y27220387D01*
X30746783Y27195158D01*
X30524310Y27160519D01*
X30524306Y27160518D01*
X30521781Y27160125D01*
X30142988Y27060397D01*
X30140615Y27059503D01*
X30140616Y27059503D01*
X29778835Y26923159D01*
X29778830Y26923157D01*
X29776453Y26922261D01*
X29774174Y26921122D01*
X29428344Y26748321D01*
X29428340Y26748319D01*
X29426059Y26747179D01*
X29423903Y26745808D01*
X29097673Y26538376D01*
X29097668Y26538372D01*
X29095519Y26537006D01*
X29093516Y26535421D01*
X28790342Y26295560D01*
X28790336Y26295555D01*
X28788333Y26293970D01*
X28786504Y26292188D01*
X28786498Y26292183D01*
X28692542Y26200655D01*
X28507757Y26020645D01*
X28256763Y25719927D01*
X28038010Y25395001D01*
X27853816Y25049310D01*
X27706132Y24686517D01*
X27666327Y24549952D01*
X27617421Y24382162D01*
X27596523Y24310465D01*
X27526150Y23925138D01*
X27525953Y23922602D01*
X27525952Y23922597D01*
X27510923Y23729485D01*
X27495758Y23534618D01*
X21099199Y23534618D01*
X21094395Y23724403D01*
X21094395Y23724409D01*
X21094330Y23726958D01*
X21083588Y23810238D01*
X21044546Y24112915D01*
X21044545Y24112921D01*
X21044220Y24115440D01*
X20954442Y24496713D01*
X20825947Y24866739D01*
X20660098Y25221596D01*
X20658790Y25223778D01*
X20459961Y25555340D01*
X20459954Y25555350D01*
X20458650Y25557525D01*
X20278939Y25797312D01*
X20225255Y25868943D01*
X20225254Y25868944D01*
X20223738Y25870967D01*
X19957851Y26158602D01*
X19679587Y26403494D01*
X19665723Y26415695D01*
X19665722Y26415696D01*
X19663806Y26417382D01*
X19344718Y26644565D01*
X19342504Y26645820D01*
X19342498Y26645824D01*
X19006185Y26836488D01*
X19003968Y26837745D01*
X19001630Y26838769D01*
X18647493Y26993856D01*
X18647485Y26993859D01*
X18645165Y26994875D01*
X18272111Y27114291D01*
X18269613Y27114815D01*
X18269606Y27114817D01*
X18006332Y27170057D01*
X17888757Y27194727D01*
X17886234Y27194990D01*
X17501068Y27235133D01*
X17501065Y27235133D01*
X17499167Y27235331D01*
X17495024Y27235439D01*
X17493329Y27235484D01*
X17493319Y27235484D01*
X17492713Y27235500D01*
X17202083Y27235500D01*
X16908818Y27220387D01*
X16746783Y27195158D01*
X16524310Y27160519D01*
X16524306Y27160518D01*
X16521781Y27160125D01*
X16142988Y27060397D01*
X16140615Y27059503D01*
X16140616Y27059503D01*
X15778835Y26923159D01*
X15778830Y26923157D01*
X15776453Y26922261D01*
X15774174Y26921122D01*
X15428344Y26748321D01*
X15428340Y26748319D01*
X15426059Y26747179D01*
X15423903Y26745808D01*
X15097673Y26538376D01*
X15097668Y26538372D01*
X15095519Y26537006D01*
X15093516Y26535421D01*
X14790342Y26295560D01*
X14790336Y26295555D01*
X14788333Y26293970D01*
X14786504Y26292188D01*
X14786498Y26292183D01*
X14692542Y26200655D01*
X14507757Y26020645D01*
X14256763Y25719927D01*
X14038010Y25395001D01*
X13853816Y25049310D01*
X13706132Y24686517D01*
X13666327Y24549952D01*
X13617421Y24382162D01*
X13596523Y24310465D01*
X13526150Y23925138D01*
X13525953Y23922602D01*
X13525952Y23922597D01*
X13510923Y23729485D01*
X13495758Y23534618D01*
X13495822Y23532081D01*
X13495822Y23532073D01*
X13504082Y23205771D01*
X13505670Y23143042D01*
X13505996Y23140515D01*
X13551943Y22784310D01*
X13555780Y22754560D01*
X13645558Y22373287D01*
X13774053Y22003261D01*
X13939902Y21648404D01*
X13941206Y21646229D01*
X13941210Y21646222D01*
X14140039Y21314660D01*
X14140046Y21314650D01*
X14141350Y21312475D01*
X14376262Y20999033D01*
X14642149Y20711398D01*
X14936194Y20452618D01*
X15066230Y20360036D01*
X15253611Y20226624D01*
X15290049Y20177471D01*
X15290636Y20116288D01*
X15255149Y20066446D01*
X15191874Y20047070D01*
X15113325Y20050500D01*
X14886675Y20050500D01*
X14559389Y20036210D01*
X14412762Y20016906D01*
X14124269Y19978926D01*
X14124257Y19978924D01*
X14122131Y19978644D01*
X13782901Y19903439D01*
X13693669Y19883657D01*
X13693666Y19883656D01*
X13691554Y19883188D01*
X13270935Y19750567D01*
X12863475Y19581792D01*
X12472276Y19378146D01*
X12100314Y19141181D01*
X11750421Y18872698D01*
X11425258Y18574742D01*
X11127302Y18249579D01*
X10858819Y17899686D01*
X10621854Y17527724D01*
X10620862Y17525819D01*
X10620860Y17525815D01*
X10590285Y17467081D01*
X10418208Y17136525D01*
X10249433Y16729065D01*
X10116812Y16308446D01*
X10021356Y15877869D01*
X10021076Y15875743D01*
X10021074Y15875731D01*
X9983094Y15587238D01*
X9963790Y15440611D01*
X9944552Y15000000D01*
X300000Y15000000D01*
X300000Y31323243D01*
X41172795Y31323243D01*
X41209384Y31054393D01*
X41285310Y30793904D01*
X41286849Y30790566D01*
X41397367Y30550833D01*
X41397370Y30550827D01*
X41398905Y30547498D01*
X41547672Y30320590D01*
X41728345Y30118163D01*
X41936954Y29944665D01*
X42168916Y29803907D01*
X42419136Y29698981D01*
X42422698Y29698076D01*
X42422699Y29698076D01*
X42678555Y29633096D01*
X42678560Y29633095D01*
X42682116Y29632192D01*
X42907470Y29609500D01*
X43068884Y29609500D01*
X43159394Y29616226D01*
X43266929Y29624217D01*
X43266935Y29624218D01*
X43270583Y29624489D01*
X43535221Y29684370D01*
X43538638Y29685699D01*
X43538642Y29685700D01*
X43784682Y29781380D01*
X43788102Y29782710D01*
X43828528Y29805815D01*
X44020481Y29915526D01*
X44023669Y29917348D01*
X44236748Y30085326D01*
X44239262Y30087999D01*
X44239268Y30088004D01*
X44420144Y30280282D01*
X44422658Y30282954D01*
X44577315Y30505891D01*
X44697320Y30749238D01*
X44780039Y31007650D01*
X44780629Y31011271D01*
X44823064Y31271832D01*
X44823064Y31271837D01*
X44823653Y31275451D01*
X44827205Y31546757D01*
X44790616Y31815607D01*
X44714690Y32076096D01*
X44688244Y32133462D01*
X44602633Y32319167D01*
X44602630Y32319173D01*
X44601095Y32322502D01*
X44472465Y32518696D01*
X44454339Y32546343D01*
X44454338Y32546345D01*
X44452328Y32549410D01*
X44420649Y32584904D01*
X44274098Y32749100D01*
X44274097Y32749101D01*
X44271655Y32751837D01*
X44223414Y32791959D01*
X44065874Y32922983D01*
X44063046Y32925335D01*
X43831084Y33066093D01*
X43580864Y33171019D01*
X43577301Y33171924D01*
X43321445Y33236904D01*
X43321440Y33236905D01*
X43317884Y33237808D01*
X43092530Y33260500D01*
X42931116Y33260500D01*
X42840606Y33253774D01*
X42733071Y33245783D01*
X42733065Y33245782D01*
X42729417Y33245511D01*
X42464779Y33185630D01*
X42461362Y33184301D01*
X42461358Y33184300D01*
X42215318Y33088620D01*
X42211898Y33087290D01*
X42208718Y33085472D01*
X42208715Y33085471D01*
X42149522Y33051639D01*
X41976331Y32952652D01*
X41763252Y32784674D01*
X41760738Y32782001D01*
X41760732Y32781996D01*
X41729787Y32749100D01*
X41577342Y32587046D01*
X41422685Y32364109D01*
X41302680Y32120762D01*
X41219961Y31862350D01*
X41219372Y31858733D01*
X41219371Y31858729D01*
X41212922Y31819127D01*
X41176347Y31594549D01*
X41172795Y31323243D01*
X300000Y31323243D01*
X300000Y33315793D01*
X44961804Y33315793D01*
X44961995Y33313321D01*
X44961995Y33313319D01*
X44983009Y33041252D01*
X44989899Y32952043D01*
X44990331Y32949628D01*
X44990332Y32949619D01*
X45026191Y32749100D01*
X45054004Y32593571D01*
X45054040Y32592888D01*
X45072495Y32549410D01*
X45078099Y32536208D01*
X45083678Y32518699D01*
X45460473Y30797431D01*
X45930166Y28651790D01*
X45932295Y28636270D01*
X45933506Y28615077D01*
X45934614Y28612500D01*
X45936500Y28605931D01*
X45936500Y28605930D01*
X45956683Y28535637D01*
X46030741Y28277703D01*
X46031612Y28275495D01*
X46031613Y28275491D01*
X46129403Y28027490D01*
X46159529Y27951089D01*
X46160605Y27948979D01*
X46235017Y27803063D01*
X46319028Y27638322D01*
X46320305Y27636320D01*
X46320309Y27636312D01*
X46355176Y27581624D01*
X46507771Y27342282D01*
X46509226Y27340420D01*
X46509231Y27340414D01*
X46722557Y27067563D01*
X46722563Y27067557D01*
X46724018Y27065695D01*
X46725648Y27063979D01*
X46725651Y27063975D01*
X46823357Y26961086D01*
X46965780Y26811108D01*
X46967568Y26809555D01*
X46967573Y26809550D01*
X47146171Y26654406D01*
X47230830Y26580865D01*
X47285643Y26541796D01*
X47480417Y26402967D01*
X47516727Y26377086D01*
X47820840Y26201647D01*
X48140367Y26056163D01*
X48142604Y26055394D01*
X48142603Y26055394D01*
X48470128Y25942745D01*
X48470136Y25942743D01*
X48472368Y25941975D01*
X48622337Y25906026D01*
X48811488Y25860684D01*
X48811495Y25860683D01*
X48813784Y25860134D01*
X48816128Y25859805D01*
X48816130Y25859805D01*
X49159109Y25811723D01*
X49159117Y25811722D01*
X49161473Y25811392D01*
X49509458Y25796320D01*
X49512235Y25795844D01*
X49554014Y25803414D01*
X49571665Y25805000D01*
X61428335Y25805000D01*
X61445986Y25803414D01*
X61487765Y25795844D01*
X61490542Y25796320D01*
X61838527Y25811392D01*
X61840883Y25811722D01*
X61840891Y25811723D01*
X62183870Y25859805D01*
X62183872Y25859805D01*
X62186216Y25860134D01*
X62188504Y25860683D01*
X62188512Y25860684D01*
X62377247Y25905927D01*
X62527632Y25941976D01*
X62529864Y25942744D01*
X62529872Y25942746D01*
X62857390Y26055393D01*
X62857393Y26055394D01*
X62859632Y26056164D01*
X63080519Y26156735D01*
X63176982Y26200655D01*
X63176988Y26200658D01*
X63179160Y26201647D01*
X63181220Y26202835D01*
X63181227Y26202839D01*
X63481213Y26375898D01*
X63481216Y26375900D01*
X63483272Y26377086D01*
X63519583Y26402967D01*
X63705412Y26535421D01*
X63769170Y26580866D01*
X63849145Y26650339D01*
X64032426Y26809551D01*
X64032431Y26809556D01*
X64034219Y26811109D01*
X64275981Y27065696D01*
X64492229Y27342282D01*
X64493865Y27344847D01*
X64679687Y27636308D01*
X64679687Y27636309D01*
X64680971Y27638322D01*
X64764983Y27803063D01*
X64839394Y27948979D01*
X64840470Y27951089D01*
X64870596Y28027490D01*
X64968386Y28275492D01*
X64968387Y28275496D01*
X64969258Y28277704D01*
X65065382Y28612490D01*
X65066494Y28615076D01*
X65067705Y28636270D01*
X65069834Y28651792D01*
X65595776Y31054393D01*
X65654629Y31323243D01*
X66172795Y31323243D01*
X66209384Y31054393D01*
X66285310Y30793904D01*
X66286849Y30790566D01*
X66397367Y30550833D01*
X66397370Y30550827D01*
X66398905Y30547498D01*
X66547672Y30320590D01*
X66728345Y30118163D01*
X66936954Y29944665D01*
X67168916Y29803907D01*
X67419136Y29698981D01*
X67422698Y29698076D01*
X67422699Y29698076D01*
X67678555Y29633096D01*
X67678560Y29633095D01*
X67682116Y29632192D01*
X67907470Y29609500D01*
X68068884Y29609500D01*
X68159394Y29616226D01*
X68266929Y29624217D01*
X68266935Y29624218D01*
X68270583Y29624489D01*
X68535221Y29684370D01*
X68538638Y29685699D01*
X68538642Y29685700D01*
X68784682Y29781380D01*
X68788102Y29782710D01*
X68828528Y29805815D01*
X69020481Y29915526D01*
X69023669Y29917348D01*
X69236748Y30085326D01*
X69239262Y30087999D01*
X69239268Y30088004D01*
X69420144Y30280282D01*
X69422658Y30282954D01*
X69577315Y30505891D01*
X69697320Y30749238D01*
X69780039Y31007650D01*
X69780629Y31011271D01*
X69823064Y31271832D01*
X69823064Y31271837D01*
X69823653Y31275451D01*
X69827205Y31546757D01*
X69790616Y31815607D01*
X69714690Y32076096D01*
X69688244Y32133462D01*
X69602633Y32319167D01*
X69602630Y32319173D01*
X69601095Y32322502D01*
X69472465Y32518696D01*
X69454339Y32546343D01*
X69454338Y32546345D01*
X69452328Y32549410D01*
X69420649Y32584904D01*
X69274098Y32749100D01*
X69274097Y32749101D01*
X69271655Y32751837D01*
X69223414Y32791959D01*
X69065874Y32922983D01*
X69063046Y32925335D01*
X68831084Y33066093D01*
X68580864Y33171019D01*
X68577301Y33171924D01*
X68321445Y33236904D01*
X68321440Y33236905D01*
X68317884Y33237808D01*
X68092530Y33260500D01*
X67931116Y33260500D01*
X67840606Y33253774D01*
X67733071Y33245783D01*
X67733065Y33245782D01*
X67729417Y33245511D01*
X67464779Y33185630D01*
X67461362Y33184301D01*
X67461358Y33184300D01*
X67215318Y33088620D01*
X67211898Y33087290D01*
X67208718Y33085472D01*
X67208715Y33085471D01*
X67149522Y33051639D01*
X66976331Y32952652D01*
X66763252Y32784674D01*
X66760738Y32782001D01*
X66760732Y32781996D01*
X66729787Y32749100D01*
X66577342Y32587046D01*
X66422685Y32364109D01*
X66302680Y32120762D01*
X66219961Y31862350D01*
X66219372Y31858733D01*
X66219371Y31858729D01*
X66212922Y31819127D01*
X66176347Y31594549D01*
X66172795Y31323243D01*
X65654629Y31323243D01*
X65916321Y32518698D01*
X65921898Y32536201D01*
X65945960Y32592888D01*
X65945995Y32593564D01*
X65974299Y32751837D01*
X66009667Y32949615D01*
X66009667Y32949619D01*
X66010101Y32952043D01*
X66038196Y33315793D01*
X66029884Y33680532D01*
X65985246Y34042624D01*
X65904728Y34398462D01*
X65789132Y34744498D01*
X65711525Y34917227D01*
X65640622Y35075035D01*
X65640618Y35075043D01*
X65639611Y35077284D01*
X65457654Y35393504D01*
X65426353Y35437163D01*
X65246519Y35687992D01*
X65246518Y35687993D01*
X65245075Y35690006D01*
X65003992Y35963836D01*
X64736808Y36212263D01*
X64495125Y36395674D01*
X64448166Y36431311D01*
X64448158Y36431316D01*
X64446186Y36432813D01*
X64396062Y36463496D01*
X64324289Y36507430D01*
X64135022Y36623287D01*
X63806417Y36781787D01*
X63463646Y36906734D01*
X63290224Y36950957D01*
X63112532Y36996269D01*
X63112522Y36996271D01*
X63110126Y36996882D01*
X63107676Y36997252D01*
X63107670Y36997253D01*
X62751826Y37050963D01*
X62751819Y37050964D01*
X62749379Y37051332D01*
X62632452Y37057176D01*
X62396804Y37068953D01*
X62396802Y37068953D01*
X62385673Y37069509D01*
X62385000Y37069628D01*
X62367283Y37066504D01*
X62350092Y37065000D01*
X48649908Y37065000D01*
X48632717Y37066504D01*
X48615000Y37069628D01*
X48614319Y37069508D01*
X48250621Y37051331D01*
X48248181Y37050963D01*
X48248174Y37050962D01*
X47892330Y36997252D01*
X47892324Y36997251D01*
X47889874Y36996881D01*
X47887478Y36996270D01*
X47887468Y36996268D01*
X47709776Y36950956D01*
X47536354Y36906733D01*
X47193583Y36781787D01*
X46864978Y36623287D01*
X46675711Y36507430D01*
X46603939Y36463496D01*
X46553814Y36432813D01*
X46551842Y36431316D01*
X46551834Y36431311D01*
X46504875Y36395674D01*
X46263192Y36212263D01*
X45996008Y35963836D01*
X45754925Y35690006D01*
X45753482Y35687993D01*
X45753481Y35687992D01*
X45573648Y35437163D01*
X45542346Y35393504D01*
X45360389Y35077284D01*
X45359382Y35075043D01*
X45359378Y35075035D01*
X45284379Y34908112D01*
X45210867Y34744498D01*
X45095272Y34398462D01*
X45014754Y34042624D01*
X44970116Y33680532D01*
X44961804Y33315793D01*
X300000Y33315793D01*
X300000Y37965092D01*
X301504Y37982283D01*
X303124Y37991470D01*
X304628Y38000000D01*
X303124Y38008528D01*
X303124Y38013146D01*
X302208Y38030879D01*
X316798Y38234871D01*
X318809Y38248852D01*
X367359Y38472030D01*
X371338Y38485583D01*
X451151Y38699572D01*
X457019Y38712421D01*
X566476Y38912875D01*
X574112Y38924757D01*
X710979Y39107592D01*
X720229Y39118268D01*
X881732Y39279771D01*
X892408Y39289021D01*
X1075243Y39425888D01*
X1087125Y39433524D01*
X1287579Y39542981D01*
X1300428Y39548849D01*
X1514417Y39628662D01*
X1527970Y39632641D01*
X1751148Y39681191D01*
X1765129Y39683202D01*
X1969121Y39697792D01*
X1986854Y39696876D01*
X1991472Y39696876D01*
X2000000Y39695372D01*
X2017718Y39698496D01*
X2034908Y39700000D01*
X103965092Y39700000D01*
X103982282Y39698496D01*
G37*
G04 #@! TD.AperFunction*
M02*
