G04 #@! TF.GenerationSoftware,KiCad,Pcbnew,6.0.2+dfsg-1*
G04 #@! TF.CreationDate,2023-08-11T11:42:39-04:00*
G04 #@! TF.ProjectId,HL2IO_endcap,484c3249-4f5f-4656-9e64-6361702e6b69,2.1*
G04 #@! TF.SameCoordinates,PX2e593c0PY56057c0*
G04 #@! TF.FileFunction,Legend,Top*
G04 #@! TF.FilePolarity,Positive*
%FSLAX46Y46*%
G04 Gerber Fmt 4.6, Leading zero omitted, Abs format (unit mm)*
G04 Created by KiCad (PCBNEW 6.0.2+dfsg-1) date 2023-08-11 11:42:39*
%MOMM*%
%LPD*%
G01*
G04 APERTURE LIST*
%ADD10C,0.300000*%
%ADD11C,0.200000*%
%ADD12C,0.150000*%
G04 APERTURE END LIST*
D10*
X41311904Y7969048D02*
X40478571Y9159524D01*
X39883333Y7969048D02*
X39883333Y10469048D01*
X40835714Y10469048D01*
X41073809Y10350000D01*
X41192857Y10230953D01*
X41311904Y9992858D01*
X41311904Y9635715D01*
X41192857Y9397620D01*
X41073809Y9278572D01*
X40835714Y9159524D01*
X39883333Y9159524D01*
X43216666Y9278572D02*
X42383333Y9278572D01*
X42383333Y7969048D02*
X42383333Y10469048D01*
X43573809Y10469048D01*
X45835714Y7969048D02*
X44407142Y7969048D01*
X45121428Y7969048D02*
X45121428Y10469048D01*
X44883333Y10111905D01*
X44645238Y9873810D01*
X44407142Y9754762D01*
X13054761Y29769048D02*
X13054761Y32269048D01*
X14007142Y32269048D01*
X14245238Y32150000D01*
X14364285Y32030953D01*
X14483333Y31792858D01*
X14483333Y31435715D01*
X14364285Y31197620D01*
X14245238Y31078572D01*
X14007142Y30959524D01*
X13054761Y30959524D01*
X15554761Y32269048D02*
X15554761Y30245239D01*
X15673809Y30007143D01*
X15792857Y29888096D01*
X16030952Y29769048D01*
X16507142Y29769048D01*
X16745238Y29888096D01*
X16864285Y30007143D01*
X16983333Y30245239D01*
X16983333Y32269048D01*
X19602380Y29769048D02*
X18769047Y30959524D01*
X18173809Y29769048D02*
X18173809Y32269048D01*
X19126190Y32269048D01*
X19364285Y32150000D01*
X19483333Y32030953D01*
X19602380Y31792858D01*
X19602380Y31435715D01*
X19483333Y31197620D01*
X19364285Y31078572D01*
X19126190Y30959524D01*
X18173809Y30959524D01*
X20673809Y31078572D02*
X21507142Y31078572D01*
X21864285Y29769048D02*
X20673809Y29769048D01*
X20673809Y32269048D01*
X21864285Y32269048D01*
X10119047Y7378572D02*
X10952380Y7378572D01*
X11309523Y6069048D02*
X10119047Y6069048D01*
X10119047Y8569048D01*
X11309523Y8569048D01*
X12142857Y8569048D02*
X13809523Y6069048D01*
X13809523Y8569048D02*
X12142857Y6069048D01*
X14404761Y8569048D02*
X15833333Y8569048D01*
X15119047Y6069048D02*
X15119047Y8569048D01*
X16309523Y8569048D02*
X17738095Y8569048D01*
X17023809Y6069048D02*
X17023809Y8569048D01*
X20000000Y6069048D02*
X19166666Y7259524D01*
X18571428Y6069048D02*
X18571428Y8569048D01*
X19523809Y8569048D01*
X19761904Y8450000D01*
X19880952Y8330953D01*
X20000000Y8092858D01*
X20000000Y7735715D01*
X19880952Y7497620D01*
X19761904Y7378572D01*
X19523809Y7259524D01*
X18571428Y7259524D01*
X52604761Y20783334D02*
X53795238Y20783334D01*
X52366666Y20069048D02*
X53200000Y22569048D01*
X54033333Y20069048D01*
X56295238Y20307143D02*
X56176190Y20188096D01*
X55819047Y20069048D01*
X55580952Y20069048D01*
X55223809Y20188096D01*
X54985714Y20426191D01*
X54866666Y20664286D01*
X54747619Y21140477D01*
X54747619Y21497620D01*
X54866666Y21973810D01*
X54985714Y22211905D01*
X55223809Y22450000D01*
X55580952Y22569048D01*
X55819047Y22569048D01*
X56176190Y22450000D01*
X56295238Y22330953D01*
X58795238Y20307143D02*
X58676190Y20188096D01*
X58319047Y20069048D01*
X58080952Y20069048D01*
X57723809Y20188096D01*
X57485714Y20426191D01*
X57366666Y20664286D01*
X57247619Y21140477D01*
X57247619Y21497620D01*
X57366666Y21973810D01*
X57485714Y22211905D01*
X57723809Y22450000D01*
X58080952Y22569048D01*
X58319047Y22569048D01*
X58676190Y22450000D01*
X58795238Y22330953D01*
D11*
X80300000Y2285715D02*
X80300000Y4085715D01*
X80300000Y3228572D02*
X81328571Y3228572D01*
X81328571Y2285715D02*
X81328571Y4085715D01*
X82871428Y2371429D02*
X82700000Y2285715D01*
X82357142Y2285715D01*
X82185714Y2371429D01*
X82100000Y2542858D01*
X82100000Y3228572D01*
X82185714Y3400000D01*
X82357142Y3485715D01*
X82700000Y3485715D01*
X82871428Y3400000D01*
X82957142Y3228572D01*
X82957142Y3057143D01*
X82100000Y2885715D01*
X83728571Y2285715D02*
X83728571Y3485715D01*
X83728571Y3142858D02*
X83814285Y3314286D01*
X83900000Y3400000D01*
X84071428Y3485715D01*
X84242857Y3485715D01*
X84842857Y2285715D02*
X84842857Y3485715D01*
X84842857Y3314286D02*
X84928571Y3400000D01*
X85100000Y3485715D01*
X85357142Y3485715D01*
X85528571Y3400000D01*
X85614285Y3228572D01*
X85614285Y2285715D01*
X85614285Y3228572D02*
X85700000Y3400000D01*
X85871428Y3485715D01*
X86128571Y3485715D01*
X86300000Y3400000D01*
X86385714Y3228572D01*
X86385714Y2285715D01*
X87928571Y2371429D02*
X87757142Y2285715D01*
X87414285Y2285715D01*
X87242857Y2371429D01*
X87157142Y2542858D01*
X87157142Y3228572D01*
X87242857Y3400000D01*
X87414285Y3485715D01*
X87757142Y3485715D01*
X87928571Y3400000D01*
X88014285Y3228572D01*
X88014285Y3057143D01*
X87157142Y2885715D01*
X88700000Y2371429D02*
X88871428Y2285715D01*
X89214285Y2285715D01*
X89385714Y2371429D01*
X89471428Y2542858D01*
X89471428Y2628572D01*
X89385714Y2800000D01*
X89214285Y2885715D01*
X88957142Y2885715D01*
X88785714Y2971429D01*
X88700000Y3142858D01*
X88700000Y3228572D01*
X88785714Y3400000D01*
X88957142Y3485715D01*
X89214285Y3485715D01*
X89385714Y3400000D01*
X90242857Y2971429D02*
X91614285Y2971429D01*
X93328571Y2285715D02*
X92471428Y2285715D01*
X92471428Y4085715D01*
X93928571Y2285715D02*
X93928571Y3485715D01*
X93928571Y4085715D02*
X93842857Y4000000D01*
X93928571Y3914286D01*
X94014285Y4000000D01*
X93928571Y4085715D01*
X93928571Y3914286D01*
X94528571Y3485715D02*
X95214285Y3485715D01*
X94785714Y4085715D02*
X94785714Y2542858D01*
X94871428Y2371429D01*
X95042857Y2285715D01*
X95214285Y2285715D01*
X96500000Y2371429D02*
X96328571Y2285715D01*
X95985714Y2285715D01*
X95814285Y2371429D01*
X95728571Y2542858D01*
X95728571Y3228572D01*
X95814285Y3400000D01*
X95985714Y3485715D01*
X96328571Y3485715D01*
X96500000Y3400000D01*
X96585714Y3228572D01*
X96585714Y3057143D01*
X95728571Y2885715D01*
D10*
X72042857Y8683334D02*
X73233333Y8683334D01*
X71804761Y7969048D02*
X72638095Y10469048D01*
X73471428Y7969048D01*
X74304761Y7969048D02*
X74304761Y10469048D01*
X75733333Y7969048D01*
X75733333Y10469048D01*
X76566666Y10469048D02*
X77995238Y10469048D01*
X77280952Y7969048D02*
X77280952Y10469048D01*
X82247619Y32069048D02*
X82247619Y34569048D01*
X83200000Y34569048D01*
X83438095Y34450000D01*
X83557142Y34330953D01*
X83676190Y34092858D01*
X83676190Y33735715D01*
X83557142Y33497620D01*
X83438095Y33378572D01*
X83200000Y33259524D01*
X82247619Y33259524D01*
X84747619Y32069048D02*
X84747619Y33735715D01*
X84747619Y34569048D02*
X84628571Y34450000D01*
X84747619Y34330953D01*
X84866666Y34450000D01*
X84747619Y34569048D01*
X84747619Y34330953D01*
X87009523Y32188096D02*
X86771428Y32069048D01*
X86295238Y32069048D01*
X86057142Y32188096D01*
X85938095Y32307143D01*
X85819047Y32545239D01*
X85819047Y33259524D01*
X85938095Y33497620D01*
X86057142Y33616667D01*
X86295238Y33735715D01*
X86771428Y33735715D01*
X87009523Y33616667D01*
X88438095Y32069048D02*
X88200000Y32188096D01*
X88080952Y32307143D01*
X87961904Y32545239D01*
X87961904Y33259524D01*
X88080952Y33497620D01*
X88200000Y33616667D01*
X88438095Y33735715D01*
X88795238Y33735715D01*
X89033333Y33616667D01*
X89152380Y33497620D01*
X89271428Y33259524D01*
X89271428Y32545239D01*
X89152380Y32307143D01*
X89033333Y32188096D01*
X88795238Y32069048D01*
X88438095Y32069048D01*
X28740476Y34195834D02*
X29930952Y34195834D01*
X28502380Y33481548D02*
X29335714Y35981548D01*
X30169047Y33481548D01*
X32192857Y33481548D02*
X31002380Y33481548D01*
X31002380Y35981548D01*
X32669047Y35981548D02*
X34097619Y35981548D01*
X33383333Y33481548D02*
X33383333Y35981548D01*
X30883333Y29456548D02*
X30050000Y30647024D01*
X29454761Y29456548D02*
X29454761Y31956548D01*
X30407142Y31956548D01*
X30645238Y31837500D01*
X30764285Y31718453D01*
X30883333Y31480358D01*
X30883333Y31123215D01*
X30764285Y30885120D01*
X30645238Y30766072D01*
X30407142Y30647024D01*
X29454761Y30647024D01*
X31716666Y31956548D02*
X33383333Y29456548D01*
X33383333Y31956548D02*
X31716666Y29456548D01*
D12*
X15766666Y23217620D02*
X15433333Y23693810D01*
X15195238Y23217620D02*
X15195238Y24217620D01*
X15576190Y24217620D01*
X15671428Y24170000D01*
X15719047Y24122381D01*
X15766666Y24027143D01*
X15766666Y23884286D01*
X15719047Y23789048D01*
X15671428Y23741429D01*
X15576190Y23693810D01*
X15195238Y23693810D01*
X16195238Y23741429D02*
X16528571Y23741429D01*
X16671428Y23217620D02*
X16195238Y23217620D01*
X16195238Y24217620D01*
X16671428Y24217620D01*
X17433333Y23741429D02*
X17100000Y23741429D01*
X17100000Y23217620D02*
X17100000Y24217620D01*
X17576190Y24217620D01*
X18100000Y24217620D02*
X18100000Y23979524D01*
X17861904Y24074762D02*
X18100000Y23979524D01*
X18338095Y24074762D01*
X17957142Y23789048D02*
X18100000Y23979524D01*
X18242857Y23789048D01*
X18861904Y24217620D02*
X18861904Y23979524D01*
X18623809Y24074762D02*
X18861904Y23979524D01*
X19100000Y24074762D01*
X18719047Y23789048D02*
X18861904Y23979524D01*
X19004761Y23789048D01*
X84666666Y26747620D02*
X84333333Y27223810D01*
X84095238Y26747620D02*
X84095238Y27747620D01*
X84476190Y27747620D01*
X84571428Y27700000D01*
X84619047Y27652381D01*
X84666666Y27557143D01*
X84666666Y27414286D01*
X84619047Y27319048D01*
X84571428Y27271429D01*
X84476190Y27223810D01*
X84095238Y27223810D01*
X85095238Y27271429D02*
X85428571Y27271429D01*
X85571428Y26747620D02*
X85095238Y26747620D01*
X85095238Y27747620D01*
X85571428Y27747620D01*
X86333333Y27271429D02*
X86000000Y27271429D01*
X86000000Y26747620D02*
X86000000Y27747620D01*
X86476190Y27747620D01*
X87000000Y27747620D02*
X87000000Y27509524D01*
X86761904Y27604762D02*
X87000000Y27509524D01*
X87238095Y27604762D01*
X86857142Y27319048D02*
X87000000Y27509524D01*
X87142857Y27319048D01*
X87761904Y27747620D02*
X87761904Y27509524D01*
X87523809Y27604762D02*
X87761904Y27509524D01*
X88000000Y27604762D01*
X87619047Y27319048D02*
X87761904Y27509524D01*
X87904761Y27319048D01*
X29966666Y23482620D02*
X29633333Y23958810D01*
X29395238Y23482620D02*
X29395238Y24482620D01*
X29776190Y24482620D01*
X29871428Y24435000D01*
X29919047Y24387381D01*
X29966666Y24292143D01*
X29966666Y24149286D01*
X29919047Y24054048D01*
X29871428Y24006429D01*
X29776190Y23958810D01*
X29395238Y23958810D01*
X30395238Y24006429D02*
X30728571Y24006429D01*
X30871428Y23482620D02*
X30395238Y23482620D01*
X30395238Y24482620D01*
X30871428Y24482620D01*
X31633333Y24006429D02*
X31300000Y24006429D01*
X31300000Y23482620D02*
X31300000Y24482620D01*
X31776190Y24482620D01*
X32300000Y24482620D02*
X32300000Y24244524D01*
X32061904Y24339762D02*
X32300000Y24244524D01*
X32538095Y24339762D01*
X32157142Y24054048D02*
X32300000Y24244524D01*
X32442857Y24054048D01*
X33061904Y24482620D02*
X33061904Y24244524D01*
X32823809Y24339762D02*
X33061904Y24244524D01*
X33300000Y24339762D01*
X32919047Y24054048D02*
X33061904Y24244524D01*
X33204761Y24054048D01*
M02*
