G04 #@! TF.GenerationSoftware,KiCad,Pcbnew,6.0.2+dfsg-1*
G04 #@! TF.CreationDate,2023-03-30T12:38:24-04:00*
G04 #@! TF.ProjectId,HL2IOBoard,484c3249-4f42-46f6-9172-642e6b696361,E*
G04 #@! TF.SameCoordinates,Original*
G04 #@! TF.FileFunction,Legend,Bot*
G04 #@! TF.FilePolarity,Positive*
%FSLAX46Y46*%
G04 Gerber Fmt 4.6, Leading zero omitted, Abs format (unit mm)*
G04 Created by KiCad (PCBNEW 6.0.2+dfsg-1) date 2023-03-30 12:38:24*
%MOMM*%
%LPD*%
G01*
G04 APERTURE LIST*
%ADD10C,0.150000*%
%ADD11C,0.120000*%
G04 APERTURE END LIST*
D10*
X175302142Y-85133333D02*
X175349761Y-85085714D01*
X175397380Y-84942857D01*
X175397380Y-84847619D01*
X175349761Y-84704761D01*
X175254523Y-84609523D01*
X175159285Y-84561904D01*
X174968809Y-84514285D01*
X174825952Y-84514285D01*
X174635476Y-84561904D01*
X174540238Y-84609523D01*
X174445000Y-84704761D01*
X174397380Y-84847619D01*
X174397380Y-84942857D01*
X174445000Y-85085714D01*
X174492619Y-85133333D01*
X174730714Y-85990476D02*
X175397380Y-85990476D01*
X174349761Y-85752380D02*
X175064047Y-85514285D01*
X175064047Y-86133333D01*
X182534761Y-112408571D02*
X182391904Y-112456190D01*
X182344285Y-112503809D01*
X182296666Y-112599047D01*
X182296666Y-112741904D01*
X182344285Y-112837142D01*
X182391904Y-112884761D01*
X182487142Y-112932380D01*
X182868095Y-112932380D01*
X182868095Y-111932380D01*
X182534761Y-111932380D01*
X182439523Y-111980000D01*
X182391904Y-112027619D01*
X182344285Y-112122857D01*
X182344285Y-112218095D01*
X182391904Y-112313333D01*
X182439523Y-112360952D01*
X182534761Y-112408571D01*
X182868095Y-112408571D01*
X181820476Y-112932380D02*
X181630000Y-112932380D01*
X181534761Y-112884761D01*
X181487142Y-112837142D01*
X181391904Y-112694285D01*
X181344285Y-112503809D01*
X181344285Y-112122857D01*
X181391904Y-112027619D01*
X181439523Y-111980000D01*
X181534761Y-111932380D01*
X181725238Y-111932380D01*
X181820476Y-111980000D01*
X181868095Y-112027619D01*
X181915714Y-112122857D01*
X181915714Y-112360952D01*
X181868095Y-112456190D01*
X181820476Y-112503809D01*
X181725238Y-112551428D01*
X181534761Y-112551428D01*
X181439523Y-112503809D01*
X181391904Y-112456190D01*
X181344285Y-112360952D01*
X133124761Y-96878571D02*
X132981904Y-96926190D01*
X132934285Y-96973809D01*
X132886666Y-97069047D01*
X132886666Y-97211904D01*
X132934285Y-97307142D01*
X132981904Y-97354761D01*
X133077142Y-97402380D01*
X133458095Y-97402380D01*
X133458095Y-96402380D01*
X133124761Y-96402380D01*
X133029523Y-96450000D01*
X132981904Y-96497619D01*
X132934285Y-96592857D01*
X132934285Y-96688095D01*
X132981904Y-96783333D01*
X133029523Y-96830952D01*
X133124761Y-96878571D01*
X133458095Y-96878571D01*
X131934285Y-97402380D02*
X132505714Y-97402380D01*
X132220000Y-97402380D02*
X132220000Y-96402380D01*
X132315238Y-96545238D01*
X132410476Y-96640476D01*
X132505714Y-96688095D01*
X156110952Y-89138571D02*
X155968095Y-89186190D01*
X155920476Y-89233809D01*
X155872857Y-89329047D01*
X155872857Y-89471904D01*
X155920476Y-89567142D01*
X155968095Y-89614761D01*
X156063333Y-89662380D01*
X156444285Y-89662380D01*
X156444285Y-88662380D01*
X156110952Y-88662380D01*
X156015714Y-88710000D01*
X155968095Y-88757619D01*
X155920476Y-88852857D01*
X155920476Y-88948095D01*
X155968095Y-89043333D01*
X156015714Y-89090952D01*
X156110952Y-89138571D01*
X156444285Y-89138571D01*
X154920476Y-89662380D02*
X155491904Y-89662380D01*
X155206190Y-89662380D02*
X155206190Y-88662380D01*
X155301428Y-88805238D01*
X155396666Y-88900476D01*
X155491904Y-88948095D01*
X154301428Y-88662380D02*
X154206190Y-88662380D01*
X154110952Y-88710000D01*
X154063333Y-88757619D01*
X154015714Y-88852857D01*
X153968095Y-89043333D01*
X153968095Y-89281428D01*
X154015714Y-89471904D01*
X154063333Y-89567142D01*
X154110952Y-89614761D01*
X154206190Y-89662380D01*
X154301428Y-89662380D01*
X154396666Y-89614761D01*
X154444285Y-89567142D01*
X154491904Y-89471904D01*
X154539523Y-89281428D01*
X154539523Y-89043333D01*
X154491904Y-88852857D01*
X154444285Y-88757619D01*
X154396666Y-88710000D01*
X154301428Y-88662380D01*
X178711904Y-116162380D02*
X178711904Y-116971904D01*
X178664285Y-117067142D01*
X178616666Y-117114761D01*
X178521428Y-117162380D01*
X178330952Y-117162380D01*
X178235714Y-117114761D01*
X178188095Y-117067142D01*
X178140476Y-116971904D01*
X178140476Y-116162380D01*
X177616666Y-117162380D02*
X177426190Y-117162380D01*
X177330952Y-117114761D01*
X177283333Y-117067142D01*
X177188095Y-116924285D01*
X177140476Y-116733809D01*
X177140476Y-116352857D01*
X177188095Y-116257619D01*
X177235714Y-116210000D01*
X177330952Y-116162380D01*
X177521428Y-116162380D01*
X177616666Y-116210000D01*
X177664285Y-116257619D01*
X177711904Y-116352857D01*
X177711904Y-116590952D01*
X177664285Y-116686190D01*
X177616666Y-116733809D01*
X177521428Y-116781428D01*
X177330952Y-116781428D01*
X177235714Y-116733809D01*
X177188095Y-116686190D01*
X177140476Y-116590952D01*
X175931904Y-89792380D02*
X175931904Y-90601904D01*
X175884285Y-90697142D01*
X175836666Y-90744761D01*
X175741428Y-90792380D01*
X175550952Y-90792380D01*
X175455714Y-90744761D01*
X175408095Y-90697142D01*
X175360476Y-90601904D01*
X175360476Y-89792380D01*
X174408095Y-89792380D02*
X174884285Y-89792380D01*
X174931904Y-90268571D01*
X174884285Y-90220952D01*
X174789047Y-90173333D01*
X174550952Y-90173333D01*
X174455714Y-90220952D01*
X174408095Y-90268571D01*
X174360476Y-90363809D01*
X174360476Y-90601904D01*
X174408095Y-90697142D01*
X174455714Y-90744761D01*
X174550952Y-90792380D01*
X174789047Y-90792380D01*
X174884285Y-90744761D01*
X174931904Y-90697142D01*
X134572380Y-89653333D02*
X134096190Y-89320000D01*
X134572380Y-89081904D02*
X133572380Y-89081904D01*
X133572380Y-89462857D01*
X133620000Y-89558095D01*
X133667619Y-89605714D01*
X133762857Y-89653333D01*
X133905714Y-89653333D01*
X134000952Y-89605714D01*
X134048571Y-89558095D01*
X134096190Y-89462857D01*
X134096190Y-89081904D01*
X133572380Y-89986666D02*
X133572380Y-90653333D01*
X134572380Y-90224761D01*
X163416666Y-109437142D02*
X163464285Y-109484761D01*
X163607142Y-109532380D01*
X163702380Y-109532380D01*
X163845238Y-109484761D01*
X163940476Y-109389523D01*
X163988095Y-109294285D01*
X164035714Y-109103809D01*
X164035714Y-108960952D01*
X163988095Y-108770476D01*
X163940476Y-108675238D01*
X163845238Y-108580000D01*
X163702380Y-108532380D01*
X163607142Y-108532380D01*
X163464285Y-108580000D01*
X163416666Y-108627619D01*
X162511904Y-108532380D02*
X162988095Y-108532380D01*
X163035714Y-109008571D01*
X162988095Y-108960952D01*
X162892857Y-108913333D01*
X162654761Y-108913333D01*
X162559523Y-108960952D01*
X162511904Y-109008571D01*
X162464285Y-109103809D01*
X162464285Y-109341904D01*
X162511904Y-109437142D01*
X162559523Y-109484761D01*
X162654761Y-109532380D01*
X162892857Y-109532380D01*
X162988095Y-109484761D01*
X163035714Y-109437142D01*
X166506666Y-117072380D02*
X166840000Y-116596190D01*
X167078095Y-117072380D02*
X167078095Y-116072380D01*
X166697142Y-116072380D01*
X166601904Y-116120000D01*
X166554285Y-116167619D01*
X166506666Y-116262857D01*
X166506666Y-116405714D01*
X166554285Y-116500952D01*
X166601904Y-116548571D01*
X166697142Y-116596190D01*
X167078095Y-116596190D01*
X165935238Y-116500952D02*
X166030476Y-116453333D01*
X166078095Y-116405714D01*
X166125714Y-116310476D01*
X166125714Y-116262857D01*
X166078095Y-116167619D01*
X166030476Y-116120000D01*
X165935238Y-116072380D01*
X165744761Y-116072380D01*
X165649523Y-116120000D01*
X165601904Y-116167619D01*
X165554285Y-116262857D01*
X165554285Y-116310476D01*
X165601904Y-116405714D01*
X165649523Y-116453333D01*
X165744761Y-116500952D01*
X165935238Y-116500952D01*
X166030476Y-116548571D01*
X166078095Y-116596190D01*
X166125714Y-116691428D01*
X166125714Y-116881904D01*
X166078095Y-116977142D01*
X166030476Y-117024761D01*
X165935238Y-117072380D01*
X165744761Y-117072380D01*
X165649523Y-117024761D01*
X165601904Y-116977142D01*
X165554285Y-116881904D01*
X165554285Y-116691428D01*
X165601904Y-116596190D01*
X165649523Y-116548571D01*
X165744761Y-116500952D01*
X178665238Y-109967619D02*
X178760476Y-109920000D01*
X178855714Y-109824761D01*
X178998571Y-109681904D01*
X179093809Y-109634285D01*
X179189047Y-109634285D01*
X179141428Y-109872380D02*
X179236666Y-109824761D01*
X179331904Y-109729523D01*
X179379523Y-109539047D01*
X179379523Y-109205714D01*
X179331904Y-109015238D01*
X179236666Y-108920000D01*
X179141428Y-108872380D01*
X178950952Y-108872380D01*
X178855714Y-108920000D01*
X178760476Y-109015238D01*
X178712857Y-109205714D01*
X178712857Y-109539047D01*
X178760476Y-109729523D01*
X178855714Y-109824761D01*
X178950952Y-109872380D01*
X179141428Y-109872380D01*
X178379523Y-108872380D02*
X177760476Y-108872380D01*
X178093809Y-109253333D01*
X177950952Y-109253333D01*
X177855714Y-109300952D01*
X177808095Y-109348571D01*
X177760476Y-109443809D01*
X177760476Y-109681904D01*
X177808095Y-109777142D01*
X177855714Y-109824761D01*
X177950952Y-109872380D01*
X178236666Y-109872380D01*
X178331904Y-109824761D01*
X178379523Y-109777142D01*
X180535238Y-98897619D02*
X180630476Y-98850000D01*
X180725714Y-98754761D01*
X180868571Y-98611904D01*
X180963809Y-98564285D01*
X181059047Y-98564285D01*
X181011428Y-98802380D02*
X181106666Y-98754761D01*
X181201904Y-98659523D01*
X181249523Y-98469047D01*
X181249523Y-98135714D01*
X181201904Y-97945238D01*
X181106666Y-97850000D01*
X181011428Y-97802380D01*
X180820952Y-97802380D01*
X180725714Y-97850000D01*
X180630476Y-97945238D01*
X180582857Y-98135714D01*
X180582857Y-98469047D01*
X180630476Y-98659523D01*
X180725714Y-98754761D01*
X180820952Y-98802380D01*
X181011428Y-98802380D01*
X179678095Y-97802380D02*
X180154285Y-97802380D01*
X180201904Y-98278571D01*
X180154285Y-98230952D01*
X180059047Y-98183333D01*
X179820952Y-98183333D01*
X179725714Y-98230952D01*
X179678095Y-98278571D01*
X179630476Y-98373809D01*
X179630476Y-98611904D01*
X179678095Y-98707142D01*
X179725714Y-98754761D01*
X179820952Y-98802380D01*
X180059047Y-98802380D01*
X180154285Y-98754761D01*
X180201904Y-98707142D01*
X176846666Y-98822380D02*
X177180000Y-98346190D01*
X177418095Y-98822380D02*
X177418095Y-97822380D01*
X177037142Y-97822380D01*
X176941904Y-97870000D01*
X176894285Y-97917619D01*
X176846666Y-98012857D01*
X176846666Y-98155714D01*
X176894285Y-98250952D01*
X176941904Y-98298571D01*
X177037142Y-98346190D01*
X177418095Y-98346190D01*
X176370476Y-98822380D02*
X176180000Y-98822380D01*
X176084761Y-98774761D01*
X176037142Y-98727142D01*
X175941904Y-98584285D01*
X175894285Y-98393809D01*
X175894285Y-98012857D01*
X175941904Y-97917619D01*
X175989523Y-97870000D01*
X176084761Y-97822380D01*
X176275238Y-97822380D01*
X176370476Y-97870000D01*
X176418095Y-97917619D01*
X176465714Y-98012857D01*
X176465714Y-98250952D01*
X176418095Y-98346190D01*
X176370476Y-98393809D01*
X176275238Y-98441428D01*
X176084761Y-98441428D01*
X175989523Y-98393809D01*
X175941904Y-98346190D01*
X175894285Y-98250952D01*
X184222380Y-106107142D02*
X183746190Y-105773809D01*
X184222380Y-105535714D02*
X183222380Y-105535714D01*
X183222380Y-105916666D01*
X183270000Y-106011904D01*
X183317619Y-106059523D01*
X183412857Y-106107142D01*
X183555714Y-106107142D01*
X183650952Y-106059523D01*
X183698571Y-106011904D01*
X183746190Y-105916666D01*
X183746190Y-105535714D01*
X184222380Y-107059523D02*
X184222380Y-106488095D01*
X184222380Y-106773809D02*
X183222380Y-106773809D01*
X183365238Y-106678571D01*
X183460476Y-106583333D01*
X183508095Y-106488095D01*
X184222380Y-108011904D02*
X184222380Y-107440476D01*
X184222380Y-107726190D02*
X183222380Y-107726190D01*
X183365238Y-107630952D01*
X183460476Y-107535714D01*
X183508095Y-107440476D01*
X140042857Y-110262380D02*
X140376190Y-109786190D01*
X140614285Y-110262380D02*
X140614285Y-109262380D01*
X140233333Y-109262380D01*
X140138095Y-109310000D01*
X140090476Y-109357619D01*
X140042857Y-109452857D01*
X140042857Y-109595714D01*
X140090476Y-109690952D01*
X140138095Y-109738571D01*
X140233333Y-109786190D01*
X140614285Y-109786190D01*
X139090476Y-110262380D02*
X139661904Y-110262380D01*
X139376190Y-110262380D02*
X139376190Y-109262380D01*
X139471428Y-109405238D01*
X139566666Y-109500476D01*
X139661904Y-109548095D01*
X138709523Y-109357619D02*
X138661904Y-109310000D01*
X138566666Y-109262380D01*
X138328571Y-109262380D01*
X138233333Y-109310000D01*
X138185714Y-109357619D01*
X138138095Y-109452857D01*
X138138095Y-109548095D01*
X138185714Y-109690952D01*
X138757142Y-110262380D01*
X138138095Y-110262380D01*
X147252857Y-113962380D02*
X147586190Y-113486190D01*
X147824285Y-113962380D02*
X147824285Y-112962380D01*
X147443333Y-112962380D01*
X147348095Y-113010000D01*
X147300476Y-113057619D01*
X147252857Y-113152857D01*
X147252857Y-113295714D01*
X147300476Y-113390952D01*
X147348095Y-113438571D01*
X147443333Y-113486190D01*
X147824285Y-113486190D01*
X146300476Y-113962380D02*
X146871904Y-113962380D01*
X146586190Y-113962380D02*
X146586190Y-112962380D01*
X146681428Y-113105238D01*
X146776666Y-113200476D01*
X146871904Y-113248095D01*
X145967142Y-112962380D02*
X145348095Y-112962380D01*
X145681428Y-113343333D01*
X145538571Y-113343333D01*
X145443333Y-113390952D01*
X145395714Y-113438571D01*
X145348095Y-113533809D01*
X145348095Y-113771904D01*
X145395714Y-113867142D01*
X145443333Y-113914761D01*
X145538571Y-113962380D01*
X145824285Y-113962380D01*
X145919523Y-113914761D01*
X145967142Y-113867142D01*
X140142857Y-106452380D02*
X140476190Y-105976190D01*
X140714285Y-106452380D02*
X140714285Y-105452380D01*
X140333333Y-105452380D01*
X140238095Y-105500000D01*
X140190476Y-105547619D01*
X140142857Y-105642857D01*
X140142857Y-105785714D01*
X140190476Y-105880952D01*
X140238095Y-105928571D01*
X140333333Y-105976190D01*
X140714285Y-105976190D01*
X139190476Y-106452380D02*
X139761904Y-106452380D01*
X139476190Y-106452380D02*
X139476190Y-105452380D01*
X139571428Y-105595238D01*
X139666666Y-105690476D01*
X139761904Y-105738095D01*
X138333333Y-105785714D02*
X138333333Y-106452380D01*
X138571428Y-105404761D02*
X138809523Y-106119047D01*
X138190476Y-106119047D01*
X140142857Y-101652380D02*
X140476190Y-101176190D01*
X140714285Y-101652380D02*
X140714285Y-100652380D01*
X140333333Y-100652380D01*
X140238095Y-100700000D01*
X140190476Y-100747619D01*
X140142857Y-100842857D01*
X140142857Y-100985714D01*
X140190476Y-101080952D01*
X140238095Y-101128571D01*
X140333333Y-101176190D01*
X140714285Y-101176190D01*
X139190476Y-101652380D02*
X139761904Y-101652380D01*
X139476190Y-101652380D02*
X139476190Y-100652380D01*
X139571428Y-100795238D01*
X139666666Y-100890476D01*
X139761904Y-100938095D01*
X138285714Y-100652380D02*
X138761904Y-100652380D01*
X138809523Y-101128571D01*
X138761904Y-101080952D01*
X138666666Y-101033333D01*
X138428571Y-101033333D01*
X138333333Y-101080952D01*
X138285714Y-101128571D01*
X138238095Y-101223809D01*
X138238095Y-101461904D01*
X138285714Y-101557142D01*
X138333333Y-101604761D01*
X138428571Y-101652380D01*
X138666666Y-101652380D01*
X138761904Y-101604761D01*
X138809523Y-101557142D01*
X140142857Y-96952380D02*
X140476190Y-96476190D01*
X140714285Y-96952380D02*
X140714285Y-95952380D01*
X140333333Y-95952380D01*
X140238095Y-96000000D01*
X140190476Y-96047619D01*
X140142857Y-96142857D01*
X140142857Y-96285714D01*
X140190476Y-96380952D01*
X140238095Y-96428571D01*
X140333333Y-96476190D01*
X140714285Y-96476190D01*
X139190476Y-96952380D02*
X139761904Y-96952380D01*
X139476190Y-96952380D02*
X139476190Y-95952380D01*
X139571428Y-96095238D01*
X139666666Y-96190476D01*
X139761904Y-96238095D01*
X138333333Y-95952380D02*
X138523809Y-95952380D01*
X138619047Y-96000000D01*
X138666666Y-96047619D01*
X138761904Y-96190476D01*
X138809523Y-96380952D01*
X138809523Y-96761904D01*
X138761904Y-96857142D01*
X138714285Y-96904761D01*
X138619047Y-96952380D01*
X138428571Y-96952380D01*
X138333333Y-96904761D01*
X138285714Y-96857142D01*
X138238095Y-96761904D01*
X138238095Y-96523809D01*
X138285714Y-96428571D01*
X138333333Y-96380952D01*
X138428571Y-96333333D01*
X138619047Y-96333333D01*
X138714285Y-96380952D01*
X138761904Y-96428571D01*
X138809523Y-96523809D01*
X140002857Y-108902380D02*
X140336190Y-108426190D01*
X140574285Y-108902380D02*
X140574285Y-107902380D01*
X140193333Y-107902380D01*
X140098095Y-107950000D01*
X140050476Y-107997619D01*
X140002857Y-108092857D01*
X140002857Y-108235714D01*
X140050476Y-108330952D01*
X140098095Y-108378571D01*
X140193333Y-108426190D01*
X140574285Y-108426190D01*
X139621904Y-107997619D02*
X139574285Y-107950000D01*
X139479047Y-107902380D01*
X139240952Y-107902380D01*
X139145714Y-107950000D01*
X139098095Y-107997619D01*
X139050476Y-108092857D01*
X139050476Y-108188095D01*
X139098095Y-108330952D01*
X139669523Y-108902380D01*
X139050476Y-108902380D01*
X138669523Y-107997619D02*
X138621904Y-107950000D01*
X138526666Y-107902380D01*
X138288571Y-107902380D01*
X138193333Y-107950000D01*
X138145714Y-107997619D01*
X138098095Y-108092857D01*
X138098095Y-108188095D01*
X138145714Y-108330952D01*
X138717142Y-108902380D01*
X138098095Y-108902380D01*
X139642857Y-103952380D02*
X139976190Y-103476190D01*
X140214285Y-103952380D02*
X140214285Y-102952380D01*
X139833333Y-102952380D01*
X139738095Y-103000000D01*
X139690476Y-103047619D01*
X139642857Y-103142857D01*
X139642857Y-103285714D01*
X139690476Y-103380952D01*
X139738095Y-103428571D01*
X139833333Y-103476190D01*
X140214285Y-103476190D01*
X139261904Y-103047619D02*
X139214285Y-103000000D01*
X139119047Y-102952380D01*
X138880952Y-102952380D01*
X138785714Y-103000000D01*
X138738095Y-103047619D01*
X138690476Y-103142857D01*
X138690476Y-103238095D01*
X138738095Y-103380952D01*
X139309523Y-103952380D01*
X138690476Y-103952380D01*
X138357142Y-102952380D02*
X137738095Y-102952380D01*
X138071428Y-103333333D01*
X137928571Y-103333333D01*
X137833333Y-103380952D01*
X137785714Y-103428571D01*
X137738095Y-103523809D01*
X137738095Y-103761904D01*
X137785714Y-103857142D01*
X137833333Y-103904761D01*
X137928571Y-103952380D01*
X138214285Y-103952380D01*
X138309523Y-103904761D01*
X138357142Y-103857142D01*
X140042857Y-99052380D02*
X140376190Y-98576190D01*
X140614285Y-99052380D02*
X140614285Y-98052380D01*
X140233333Y-98052380D01*
X140138095Y-98100000D01*
X140090476Y-98147619D01*
X140042857Y-98242857D01*
X140042857Y-98385714D01*
X140090476Y-98480952D01*
X140138095Y-98528571D01*
X140233333Y-98576190D01*
X140614285Y-98576190D01*
X139661904Y-98147619D02*
X139614285Y-98100000D01*
X139519047Y-98052380D01*
X139280952Y-98052380D01*
X139185714Y-98100000D01*
X139138095Y-98147619D01*
X139090476Y-98242857D01*
X139090476Y-98338095D01*
X139138095Y-98480952D01*
X139709523Y-99052380D01*
X139090476Y-99052380D01*
X138233333Y-98385714D02*
X138233333Y-99052380D01*
X138471428Y-98004761D02*
X138709523Y-98719047D01*
X138090476Y-98719047D01*
X165238095Y-129602380D02*
X165238095Y-128602380D01*
X165000000Y-128602380D01*
X164857142Y-128650000D01*
X164761904Y-128745238D01*
X164714285Y-128840476D01*
X164666666Y-129030952D01*
X164666666Y-129173809D01*
X164714285Y-129364285D01*
X164761904Y-129459523D01*
X164857142Y-129554761D01*
X165000000Y-129602380D01*
X165238095Y-129602380D01*
X163809523Y-128602380D02*
X164000000Y-128602380D01*
X164095238Y-128650000D01*
X164142857Y-128697619D01*
X164238095Y-128840476D01*
X164285714Y-129030952D01*
X164285714Y-129411904D01*
X164238095Y-129507142D01*
X164190476Y-129554761D01*
X164095238Y-129602380D01*
X163904761Y-129602380D01*
X163809523Y-129554761D01*
X163761904Y-129507142D01*
X163714285Y-129411904D01*
X163714285Y-129173809D01*
X163761904Y-129078571D01*
X163809523Y-129030952D01*
X163904761Y-128983333D01*
X164095238Y-128983333D01*
X164190476Y-129030952D01*
X164238095Y-129078571D01*
X164285714Y-129173809D01*
X139392857Y-92382380D02*
X139726190Y-91906190D01*
X139964285Y-92382380D02*
X139964285Y-91382380D01*
X139583333Y-91382380D01*
X139488095Y-91430000D01*
X139440476Y-91477619D01*
X139392857Y-91572857D01*
X139392857Y-91715714D01*
X139440476Y-91810952D01*
X139488095Y-91858571D01*
X139583333Y-91906190D01*
X139964285Y-91906190D01*
X139011904Y-91477619D02*
X138964285Y-91430000D01*
X138869047Y-91382380D01*
X138630952Y-91382380D01*
X138535714Y-91430000D01*
X138488095Y-91477619D01*
X138440476Y-91572857D01*
X138440476Y-91668095D01*
X138488095Y-91810952D01*
X139059523Y-92382380D01*
X138440476Y-92382380D01*
X137535714Y-91382380D02*
X138011904Y-91382380D01*
X138059523Y-91858571D01*
X138011904Y-91810952D01*
X137916666Y-91763333D01*
X137678571Y-91763333D01*
X137583333Y-91810952D01*
X137535714Y-91858571D01*
X137488095Y-91953809D01*
X137488095Y-92191904D01*
X137535714Y-92287142D01*
X137583333Y-92334761D01*
X137678571Y-92382380D01*
X137916666Y-92382380D01*
X138011904Y-92334761D01*
X138059523Y-92287142D01*
X140042857Y-94562380D02*
X140376190Y-94086190D01*
X140614285Y-94562380D02*
X140614285Y-93562380D01*
X140233333Y-93562380D01*
X140138095Y-93610000D01*
X140090476Y-93657619D01*
X140042857Y-93752857D01*
X140042857Y-93895714D01*
X140090476Y-93990952D01*
X140138095Y-94038571D01*
X140233333Y-94086190D01*
X140614285Y-94086190D01*
X139661904Y-93657619D02*
X139614285Y-93610000D01*
X139519047Y-93562380D01*
X139280952Y-93562380D01*
X139185714Y-93610000D01*
X139138095Y-93657619D01*
X139090476Y-93752857D01*
X139090476Y-93848095D01*
X139138095Y-93990952D01*
X139709523Y-94562380D01*
X139090476Y-94562380D01*
X138757142Y-93562380D02*
X138090476Y-93562380D01*
X138519047Y-94562380D01*
X160512857Y-91882380D02*
X160846190Y-91406190D01*
X161084285Y-91882380D02*
X161084285Y-90882380D01*
X160703333Y-90882380D01*
X160608095Y-90930000D01*
X160560476Y-90977619D01*
X160512857Y-91072857D01*
X160512857Y-91215714D01*
X160560476Y-91310952D01*
X160608095Y-91358571D01*
X160703333Y-91406190D01*
X161084285Y-91406190D01*
X159560476Y-91882380D02*
X160131904Y-91882380D01*
X159846190Y-91882380D02*
X159846190Y-90882380D01*
X159941428Y-91025238D01*
X160036666Y-91120476D01*
X160131904Y-91168095D01*
X159227142Y-90882380D02*
X158560476Y-90882380D01*
X158989047Y-91882380D01*
X159752857Y-95922380D02*
X160086190Y-95446190D01*
X160324285Y-95922380D02*
X160324285Y-94922380D01*
X159943333Y-94922380D01*
X159848095Y-94970000D01*
X159800476Y-95017619D01*
X159752857Y-95112857D01*
X159752857Y-95255714D01*
X159800476Y-95350952D01*
X159848095Y-95398571D01*
X159943333Y-95446190D01*
X160324285Y-95446190D01*
X158800476Y-95922380D02*
X159371904Y-95922380D01*
X159086190Y-95922380D02*
X159086190Y-94922380D01*
X159181428Y-95065238D01*
X159276666Y-95160476D01*
X159371904Y-95208095D01*
X158229047Y-95350952D02*
X158324285Y-95303333D01*
X158371904Y-95255714D01*
X158419523Y-95160476D01*
X158419523Y-95112857D01*
X158371904Y-95017619D01*
X158324285Y-94970000D01*
X158229047Y-94922380D01*
X158038571Y-94922380D01*
X157943333Y-94970000D01*
X157895714Y-95017619D01*
X157848095Y-95112857D01*
X157848095Y-95160476D01*
X157895714Y-95255714D01*
X157943333Y-95303333D01*
X158038571Y-95350952D01*
X158229047Y-95350952D01*
X158324285Y-95398571D01*
X158371904Y-95446190D01*
X158419523Y-95541428D01*
X158419523Y-95731904D01*
X158371904Y-95827142D01*
X158324285Y-95874761D01*
X158229047Y-95922380D01*
X158038571Y-95922380D01*
X157943333Y-95874761D01*
X157895714Y-95827142D01*
X157848095Y-95731904D01*
X157848095Y-95541428D01*
X157895714Y-95446190D01*
X157943333Y-95398571D01*
X158038571Y-95350952D01*
X138460952Y-115028571D02*
X138318095Y-115076190D01*
X138270476Y-115123809D01*
X138222857Y-115219047D01*
X138222857Y-115361904D01*
X138270476Y-115457142D01*
X138318095Y-115504761D01*
X138413333Y-115552380D01*
X138794285Y-115552380D01*
X138794285Y-114552380D01*
X138460952Y-114552380D01*
X138365714Y-114600000D01*
X138318095Y-114647619D01*
X138270476Y-114742857D01*
X138270476Y-114838095D01*
X138318095Y-114933333D01*
X138365714Y-114980952D01*
X138460952Y-115028571D01*
X138794285Y-115028571D01*
X137270476Y-115552380D02*
X137841904Y-115552380D01*
X137556190Y-115552380D02*
X137556190Y-114552380D01*
X137651428Y-114695238D01*
X137746666Y-114790476D01*
X137841904Y-114838095D01*
X136365714Y-114552380D02*
X136841904Y-114552380D01*
X136889523Y-115028571D01*
X136841904Y-114980952D01*
X136746666Y-114933333D01*
X136508571Y-114933333D01*
X136413333Y-114980952D01*
X136365714Y-115028571D01*
X136318095Y-115123809D01*
X136318095Y-115361904D01*
X136365714Y-115457142D01*
X136413333Y-115504761D01*
X136508571Y-115552380D01*
X136746666Y-115552380D01*
X136841904Y-115504761D01*
X136889523Y-115457142D01*
X158790952Y-128518571D02*
X158648095Y-128566190D01*
X158600476Y-128613809D01*
X158552857Y-128709047D01*
X158552857Y-128851904D01*
X158600476Y-128947142D01*
X158648095Y-128994761D01*
X158743333Y-129042380D01*
X159124285Y-129042380D01*
X159124285Y-128042380D01*
X158790952Y-128042380D01*
X158695714Y-128090000D01*
X158648095Y-128137619D01*
X158600476Y-128232857D01*
X158600476Y-128328095D01*
X158648095Y-128423333D01*
X158695714Y-128470952D01*
X158790952Y-128518571D01*
X159124285Y-128518571D01*
X157600476Y-129042380D02*
X158171904Y-129042380D01*
X157886190Y-129042380D02*
X157886190Y-128042380D01*
X157981428Y-128185238D01*
X158076666Y-128280476D01*
X158171904Y-128328095D01*
X157219523Y-128137619D02*
X157171904Y-128090000D01*
X157076666Y-128042380D01*
X156838571Y-128042380D01*
X156743333Y-128090000D01*
X156695714Y-128137619D01*
X156648095Y-128232857D01*
X156648095Y-128328095D01*
X156695714Y-128470952D01*
X157267142Y-129042380D01*
X156648095Y-129042380D01*
X164192857Y-97992380D02*
X164526190Y-97516190D01*
X164764285Y-97992380D02*
X164764285Y-96992380D01*
X164383333Y-96992380D01*
X164288095Y-97040000D01*
X164240476Y-97087619D01*
X164192857Y-97182857D01*
X164192857Y-97325714D01*
X164240476Y-97420952D01*
X164288095Y-97468571D01*
X164383333Y-97516190D01*
X164764285Y-97516190D01*
X163859523Y-96992380D02*
X163240476Y-96992380D01*
X163573809Y-97373333D01*
X163430952Y-97373333D01*
X163335714Y-97420952D01*
X163288095Y-97468571D01*
X163240476Y-97563809D01*
X163240476Y-97801904D01*
X163288095Y-97897142D01*
X163335714Y-97944761D01*
X163430952Y-97992380D01*
X163716666Y-97992380D01*
X163811904Y-97944761D01*
X163859523Y-97897142D01*
X162621428Y-96992380D02*
X162526190Y-96992380D01*
X162430952Y-97040000D01*
X162383333Y-97087619D01*
X162335714Y-97182857D01*
X162288095Y-97373333D01*
X162288095Y-97611428D01*
X162335714Y-97801904D01*
X162383333Y-97897142D01*
X162430952Y-97944761D01*
X162526190Y-97992380D01*
X162621428Y-97992380D01*
X162716666Y-97944761D01*
X162764285Y-97897142D01*
X162811904Y-97801904D01*
X162859523Y-97611428D01*
X162859523Y-97373333D01*
X162811904Y-97182857D01*
X162764285Y-97087619D01*
X162716666Y-97040000D01*
X162621428Y-96992380D01*
X170732857Y-98782380D02*
X171066190Y-98306190D01*
X171304285Y-98782380D02*
X171304285Y-97782380D01*
X170923333Y-97782380D01*
X170828095Y-97830000D01*
X170780476Y-97877619D01*
X170732857Y-97972857D01*
X170732857Y-98115714D01*
X170780476Y-98210952D01*
X170828095Y-98258571D01*
X170923333Y-98306190D01*
X171304285Y-98306190D01*
X170399523Y-97782380D02*
X169780476Y-97782380D01*
X170113809Y-98163333D01*
X169970952Y-98163333D01*
X169875714Y-98210952D01*
X169828095Y-98258571D01*
X169780476Y-98353809D01*
X169780476Y-98591904D01*
X169828095Y-98687142D01*
X169875714Y-98734761D01*
X169970952Y-98782380D01*
X170256666Y-98782380D01*
X170351904Y-98734761D01*
X170399523Y-98687142D01*
X168828095Y-98782380D02*
X169399523Y-98782380D01*
X169113809Y-98782380D02*
X169113809Y-97782380D01*
X169209047Y-97925238D01*
X169304285Y-98020476D01*
X169399523Y-98068095D01*
X183238095Y-94452380D02*
X183238095Y-95261904D01*
X183190476Y-95357142D01*
X183142857Y-95404761D01*
X183047619Y-95452380D01*
X182857142Y-95452380D01*
X182761904Y-95404761D01*
X182714285Y-95357142D01*
X182666666Y-95261904D01*
X182666666Y-94452380D01*
X181666666Y-95452380D02*
X182238095Y-95452380D01*
X181952380Y-95452380D02*
X181952380Y-94452380D01*
X182047619Y-94595238D01*
X182142857Y-94690476D01*
X182238095Y-94738095D01*
X180714285Y-95452380D02*
X181285714Y-95452380D01*
X181000000Y-95452380D02*
X181000000Y-94452380D01*
X181095238Y-94595238D01*
X181190476Y-94690476D01*
X181285714Y-94738095D01*
X118288571Y-92802738D02*
X118336190Y-92945595D01*
X118383809Y-92993214D01*
X118479047Y-93040833D01*
X118621904Y-93040833D01*
X118717142Y-92993214D01*
X118764761Y-92945595D01*
X118812380Y-92850357D01*
X118812380Y-92469404D01*
X117812380Y-92469404D01*
X117812380Y-92802738D01*
X117860000Y-92897976D01*
X117907619Y-92945595D01*
X118002857Y-92993214D01*
X118098095Y-92993214D01*
X118193333Y-92945595D01*
X118240952Y-92897976D01*
X118288571Y-92802738D01*
X118288571Y-92469404D01*
X117907619Y-93421785D02*
X117860000Y-93469404D01*
X117812380Y-93564642D01*
X117812380Y-93802738D01*
X117860000Y-93897976D01*
X117907619Y-93945595D01*
X118002857Y-93993214D01*
X118098095Y-93993214D01*
X118240952Y-93945595D01*
X118812380Y-93374166D01*
X118812380Y-93993214D01*
X133642857Y-120102380D02*
X133976190Y-119626190D01*
X134214285Y-120102380D02*
X134214285Y-119102380D01*
X133833333Y-119102380D01*
X133738095Y-119150000D01*
X133690476Y-119197619D01*
X133642857Y-119292857D01*
X133642857Y-119435714D01*
X133690476Y-119530952D01*
X133738095Y-119578571D01*
X133833333Y-119626190D01*
X134214285Y-119626190D01*
X133309523Y-119102380D02*
X132690476Y-119102380D01*
X133023809Y-119483333D01*
X132880952Y-119483333D01*
X132785714Y-119530952D01*
X132738095Y-119578571D01*
X132690476Y-119673809D01*
X132690476Y-119911904D01*
X132738095Y-120007142D01*
X132785714Y-120054761D01*
X132880952Y-120102380D01*
X133166666Y-120102380D01*
X133261904Y-120054761D01*
X133309523Y-120007142D01*
X132309523Y-119197619D02*
X132261904Y-119150000D01*
X132166666Y-119102380D01*
X131928571Y-119102380D01*
X131833333Y-119150000D01*
X131785714Y-119197619D01*
X131738095Y-119292857D01*
X131738095Y-119388095D01*
X131785714Y-119530952D01*
X132357142Y-120102380D01*
X131738095Y-120102380D01*
X188142857Y-105472380D02*
X188476190Y-104996190D01*
X188714285Y-105472380D02*
X188714285Y-104472380D01*
X188333333Y-104472380D01*
X188238095Y-104520000D01*
X188190476Y-104567619D01*
X188142857Y-104662857D01*
X188142857Y-104805714D01*
X188190476Y-104900952D01*
X188238095Y-104948571D01*
X188333333Y-104996190D01*
X188714285Y-104996190D01*
X187809523Y-104472380D02*
X187190476Y-104472380D01*
X187523809Y-104853333D01*
X187380952Y-104853333D01*
X187285714Y-104900952D01*
X187238095Y-104948571D01*
X187190476Y-105043809D01*
X187190476Y-105281904D01*
X187238095Y-105377142D01*
X187285714Y-105424761D01*
X187380952Y-105472380D01*
X187666666Y-105472380D01*
X187761904Y-105424761D01*
X187809523Y-105377142D01*
X186857142Y-104472380D02*
X186238095Y-104472380D01*
X186571428Y-104853333D01*
X186428571Y-104853333D01*
X186333333Y-104900952D01*
X186285714Y-104948571D01*
X186238095Y-105043809D01*
X186238095Y-105281904D01*
X186285714Y-105377142D01*
X186333333Y-105424761D01*
X186428571Y-105472380D01*
X186714285Y-105472380D01*
X186809523Y-105424761D01*
X186857142Y-105377142D01*
X133788095Y-108302380D02*
X133788095Y-109111904D01*
X133740476Y-109207142D01*
X133692857Y-109254761D01*
X133597619Y-109302380D01*
X133407142Y-109302380D01*
X133311904Y-109254761D01*
X133264285Y-109207142D01*
X133216666Y-109111904D01*
X133216666Y-108302380D01*
X132216666Y-109302380D02*
X132788095Y-109302380D01*
X132502380Y-109302380D02*
X132502380Y-108302380D01*
X132597619Y-108445238D01*
X132692857Y-108540476D01*
X132788095Y-108588095D01*
X131883333Y-108302380D02*
X131264285Y-108302380D01*
X131597619Y-108683333D01*
X131454761Y-108683333D01*
X131359523Y-108730952D01*
X131311904Y-108778571D01*
X131264285Y-108873809D01*
X131264285Y-109111904D01*
X131311904Y-109207142D01*
X131359523Y-109254761D01*
X131454761Y-109302380D01*
X131740476Y-109302380D01*
X131835714Y-109254761D01*
X131883333Y-109207142D01*
X127855238Y-117517619D02*
X127950476Y-117470000D01*
X128045714Y-117374761D01*
X128188571Y-117231904D01*
X128283809Y-117184285D01*
X128379047Y-117184285D01*
X128331428Y-117422380D02*
X128426666Y-117374761D01*
X128521904Y-117279523D01*
X128569523Y-117089047D01*
X128569523Y-116755714D01*
X128521904Y-116565238D01*
X128426666Y-116470000D01*
X128331428Y-116422380D01*
X128140952Y-116422380D01*
X128045714Y-116470000D01*
X127950476Y-116565238D01*
X127902857Y-116755714D01*
X127902857Y-117089047D01*
X127950476Y-117279523D01*
X128045714Y-117374761D01*
X128140952Y-117422380D01*
X128331428Y-117422380D01*
X127045714Y-116422380D02*
X127236190Y-116422380D01*
X127331428Y-116470000D01*
X127379047Y-116517619D01*
X127474285Y-116660476D01*
X127521904Y-116850952D01*
X127521904Y-117231904D01*
X127474285Y-117327142D01*
X127426666Y-117374761D01*
X127331428Y-117422380D01*
X127140952Y-117422380D01*
X127045714Y-117374761D01*
X126998095Y-117327142D01*
X126950476Y-117231904D01*
X126950476Y-116993809D01*
X126998095Y-116898571D01*
X127045714Y-116850952D01*
X127140952Y-116803333D01*
X127331428Y-116803333D01*
X127426666Y-116850952D01*
X127474285Y-116898571D01*
X127521904Y-116993809D01*
X183518571Y-115449047D02*
X183566190Y-115591904D01*
X183613809Y-115639523D01*
X183709047Y-115687142D01*
X183851904Y-115687142D01*
X183947142Y-115639523D01*
X183994761Y-115591904D01*
X184042380Y-115496666D01*
X184042380Y-115115714D01*
X183042380Y-115115714D01*
X183042380Y-115449047D01*
X183090000Y-115544285D01*
X183137619Y-115591904D01*
X183232857Y-115639523D01*
X183328095Y-115639523D01*
X183423333Y-115591904D01*
X183470952Y-115544285D01*
X183518571Y-115449047D01*
X183518571Y-115115714D01*
X184042380Y-116639523D02*
X184042380Y-116068095D01*
X184042380Y-116353809D02*
X183042380Y-116353809D01*
X183185238Y-116258571D01*
X183280476Y-116163333D01*
X183328095Y-116068095D01*
X184042380Y-117591904D02*
X184042380Y-117020476D01*
X184042380Y-117306190D02*
X183042380Y-117306190D01*
X183185238Y-117210952D01*
X183280476Y-117115714D01*
X183328095Y-117020476D01*
X125082857Y-109812380D02*
X125416190Y-109336190D01*
X125654285Y-109812380D02*
X125654285Y-108812380D01*
X125273333Y-108812380D01*
X125178095Y-108860000D01*
X125130476Y-108907619D01*
X125082857Y-109002857D01*
X125082857Y-109145714D01*
X125130476Y-109240952D01*
X125178095Y-109288571D01*
X125273333Y-109336190D01*
X125654285Y-109336190D01*
X124701904Y-108907619D02*
X124654285Y-108860000D01*
X124559047Y-108812380D01*
X124320952Y-108812380D01*
X124225714Y-108860000D01*
X124178095Y-108907619D01*
X124130476Y-109002857D01*
X124130476Y-109098095D01*
X124178095Y-109240952D01*
X124749523Y-109812380D01*
X124130476Y-109812380D01*
X123559047Y-109240952D02*
X123654285Y-109193333D01*
X123701904Y-109145714D01*
X123749523Y-109050476D01*
X123749523Y-109002857D01*
X123701904Y-108907619D01*
X123654285Y-108860000D01*
X123559047Y-108812380D01*
X123368571Y-108812380D01*
X123273333Y-108860000D01*
X123225714Y-108907619D01*
X123178095Y-109002857D01*
X123178095Y-109050476D01*
X123225714Y-109145714D01*
X123273333Y-109193333D01*
X123368571Y-109240952D01*
X123559047Y-109240952D01*
X123654285Y-109288571D01*
X123701904Y-109336190D01*
X123749523Y-109431428D01*
X123749523Y-109621904D01*
X123701904Y-109717142D01*
X123654285Y-109764761D01*
X123559047Y-109812380D01*
X123368571Y-109812380D01*
X123273333Y-109764761D01*
X123225714Y-109717142D01*
X123178095Y-109621904D01*
X123178095Y-109431428D01*
X123225714Y-109336190D01*
X123273333Y-109288571D01*
X123368571Y-109240952D01*
X132642857Y-106212380D02*
X132976190Y-105736190D01*
X133214285Y-106212380D02*
X133214285Y-105212380D01*
X132833333Y-105212380D01*
X132738095Y-105260000D01*
X132690476Y-105307619D01*
X132642857Y-105402857D01*
X132642857Y-105545714D01*
X132690476Y-105640952D01*
X132738095Y-105688571D01*
X132833333Y-105736190D01*
X133214285Y-105736190D01*
X132261904Y-105307619D02*
X132214285Y-105260000D01*
X132119047Y-105212380D01*
X131880952Y-105212380D01*
X131785714Y-105260000D01*
X131738095Y-105307619D01*
X131690476Y-105402857D01*
X131690476Y-105498095D01*
X131738095Y-105640952D01*
X132309523Y-106212380D01*
X131690476Y-106212380D01*
X131214285Y-106212380D02*
X131023809Y-106212380D01*
X130928571Y-106164761D01*
X130880952Y-106117142D01*
X130785714Y-105974285D01*
X130738095Y-105783809D01*
X130738095Y-105402857D01*
X130785714Y-105307619D01*
X130833333Y-105260000D01*
X130928571Y-105212380D01*
X131119047Y-105212380D01*
X131214285Y-105260000D01*
X131261904Y-105307619D01*
X131309523Y-105402857D01*
X131309523Y-105640952D01*
X131261904Y-105736190D01*
X131214285Y-105783809D01*
X131119047Y-105831428D01*
X130928571Y-105831428D01*
X130833333Y-105783809D01*
X130785714Y-105736190D01*
X130738095Y-105640952D01*
X187736666Y-119332380D02*
X188070000Y-118856190D01*
X188308095Y-119332380D02*
X188308095Y-118332380D01*
X187927142Y-118332380D01*
X187831904Y-118380000D01*
X187784285Y-118427619D01*
X187736666Y-118522857D01*
X187736666Y-118665714D01*
X187784285Y-118760952D01*
X187831904Y-118808571D01*
X187927142Y-118856190D01*
X188308095Y-118856190D01*
X186784285Y-119332380D02*
X187355714Y-119332380D01*
X187070000Y-119332380D02*
X187070000Y-118332380D01*
X187165238Y-118475238D01*
X187260476Y-118570476D01*
X187355714Y-118618095D01*
X123618571Y-111279047D02*
X123666190Y-111421904D01*
X123713809Y-111469523D01*
X123809047Y-111517142D01*
X123951904Y-111517142D01*
X124047142Y-111469523D01*
X124094761Y-111421904D01*
X124142380Y-111326666D01*
X124142380Y-110945714D01*
X123142380Y-110945714D01*
X123142380Y-111279047D01*
X123190000Y-111374285D01*
X123237619Y-111421904D01*
X123332857Y-111469523D01*
X123428095Y-111469523D01*
X123523333Y-111421904D01*
X123570952Y-111374285D01*
X123618571Y-111279047D01*
X123618571Y-110945714D01*
X124142380Y-112469523D02*
X124142380Y-111898095D01*
X124142380Y-112183809D02*
X123142380Y-112183809D01*
X123285238Y-112088571D01*
X123380476Y-111993333D01*
X123428095Y-111898095D01*
X123475714Y-113326666D02*
X124142380Y-113326666D01*
X123094761Y-113088571D02*
X123809047Y-112850476D01*
X123809047Y-113469523D01*
X126198571Y-124549047D02*
X126246190Y-124691904D01*
X126293809Y-124739523D01*
X126389047Y-124787142D01*
X126531904Y-124787142D01*
X126627142Y-124739523D01*
X126674761Y-124691904D01*
X126722380Y-124596666D01*
X126722380Y-124215714D01*
X125722380Y-124215714D01*
X125722380Y-124549047D01*
X125770000Y-124644285D01*
X125817619Y-124691904D01*
X125912857Y-124739523D01*
X126008095Y-124739523D01*
X126103333Y-124691904D01*
X126150952Y-124644285D01*
X126198571Y-124549047D01*
X126198571Y-124215714D01*
X126722380Y-125739523D02*
X126722380Y-125168095D01*
X126722380Y-125453809D02*
X125722380Y-125453809D01*
X125865238Y-125358571D01*
X125960476Y-125263333D01*
X126008095Y-125168095D01*
X126150952Y-126310952D02*
X126103333Y-126215714D01*
X126055714Y-126168095D01*
X125960476Y-126120476D01*
X125912857Y-126120476D01*
X125817619Y-126168095D01*
X125770000Y-126215714D01*
X125722380Y-126310952D01*
X125722380Y-126501428D01*
X125770000Y-126596666D01*
X125817619Y-126644285D01*
X125912857Y-126691904D01*
X125960476Y-126691904D01*
X126055714Y-126644285D01*
X126103333Y-126596666D01*
X126150952Y-126501428D01*
X126150952Y-126310952D01*
X126198571Y-126215714D01*
X126246190Y-126168095D01*
X126341428Y-126120476D01*
X126531904Y-126120476D01*
X126627142Y-126168095D01*
X126674761Y-126215714D01*
X126722380Y-126310952D01*
X126722380Y-126501428D01*
X126674761Y-126596666D01*
X126627142Y-126644285D01*
X126531904Y-126691904D01*
X126341428Y-126691904D01*
X126246190Y-126644285D01*
X126198571Y-126596666D01*
X126150952Y-126501428D01*
X117690952Y-119878571D02*
X117548095Y-119926190D01*
X117500476Y-119973809D01*
X117452857Y-120069047D01*
X117452857Y-120211904D01*
X117500476Y-120307142D01*
X117548095Y-120354761D01*
X117643333Y-120402380D01*
X118024285Y-120402380D01*
X118024285Y-119402380D01*
X117690952Y-119402380D01*
X117595714Y-119450000D01*
X117548095Y-119497619D01*
X117500476Y-119592857D01*
X117500476Y-119688095D01*
X117548095Y-119783333D01*
X117595714Y-119830952D01*
X117690952Y-119878571D01*
X118024285Y-119878571D01*
X116500476Y-120402380D02*
X117071904Y-120402380D01*
X116786190Y-120402380D02*
X116786190Y-119402380D01*
X116881428Y-119545238D01*
X116976666Y-119640476D01*
X117071904Y-119688095D01*
X116024285Y-120402380D02*
X115833809Y-120402380D01*
X115738571Y-120354761D01*
X115690952Y-120307142D01*
X115595714Y-120164285D01*
X115548095Y-119973809D01*
X115548095Y-119592857D01*
X115595714Y-119497619D01*
X115643333Y-119450000D01*
X115738571Y-119402380D01*
X115929047Y-119402380D01*
X116024285Y-119450000D01*
X116071904Y-119497619D01*
X116119523Y-119592857D01*
X116119523Y-119830952D01*
X116071904Y-119926190D01*
X116024285Y-119973809D01*
X115929047Y-120021428D01*
X115738571Y-120021428D01*
X115643333Y-119973809D01*
X115595714Y-119926190D01*
X115548095Y-119830952D01*
X111230952Y-92848571D02*
X111088095Y-92896190D01*
X111040476Y-92943809D01*
X110992857Y-93039047D01*
X110992857Y-93181904D01*
X111040476Y-93277142D01*
X111088095Y-93324761D01*
X111183333Y-93372380D01*
X111564285Y-93372380D01*
X111564285Y-92372380D01*
X111230952Y-92372380D01*
X111135714Y-92420000D01*
X111088095Y-92467619D01*
X111040476Y-92562857D01*
X111040476Y-92658095D01*
X111088095Y-92753333D01*
X111135714Y-92800952D01*
X111230952Y-92848571D01*
X111564285Y-92848571D01*
X110611904Y-92467619D02*
X110564285Y-92420000D01*
X110469047Y-92372380D01*
X110230952Y-92372380D01*
X110135714Y-92420000D01*
X110088095Y-92467619D01*
X110040476Y-92562857D01*
X110040476Y-92658095D01*
X110088095Y-92800952D01*
X110659523Y-93372380D01*
X110040476Y-93372380D01*
X109088095Y-93372380D02*
X109659523Y-93372380D01*
X109373809Y-93372380D02*
X109373809Y-92372380D01*
X109469047Y-92515238D01*
X109564285Y-92610476D01*
X109659523Y-92658095D01*
X139118095Y-90952380D02*
X139118095Y-89952380D01*
X138880000Y-89952380D01*
X138737142Y-90000000D01*
X138641904Y-90095238D01*
X138594285Y-90190476D01*
X138546666Y-90380952D01*
X138546666Y-90523809D01*
X138594285Y-90714285D01*
X138641904Y-90809523D01*
X138737142Y-90904761D01*
X138880000Y-90952380D01*
X139118095Y-90952380D01*
X137594285Y-90952380D02*
X138165714Y-90952380D01*
X137880000Y-90952380D02*
X137880000Y-89952380D01*
X137975238Y-90095238D01*
X138070476Y-90190476D01*
X138165714Y-90238095D01*
X119236666Y-122492380D02*
X119570000Y-122016190D01*
X119808095Y-122492380D02*
X119808095Y-121492380D01*
X119427142Y-121492380D01*
X119331904Y-121540000D01*
X119284285Y-121587619D01*
X119236666Y-121682857D01*
X119236666Y-121825714D01*
X119284285Y-121920952D01*
X119331904Y-121968571D01*
X119427142Y-122016190D01*
X119808095Y-122016190D01*
X118379523Y-121825714D02*
X118379523Y-122492380D01*
X118617619Y-121444761D02*
X118855714Y-122159047D01*
X118236666Y-122159047D01*
X121342857Y-114012380D02*
X121676190Y-113536190D01*
X121914285Y-114012380D02*
X121914285Y-113012380D01*
X121533333Y-113012380D01*
X121438095Y-113060000D01*
X121390476Y-113107619D01*
X121342857Y-113202857D01*
X121342857Y-113345714D01*
X121390476Y-113440952D01*
X121438095Y-113488571D01*
X121533333Y-113536190D01*
X121914285Y-113536190D01*
X121009523Y-113012380D02*
X120390476Y-113012380D01*
X120723809Y-113393333D01*
X120580952Y-113393333D01*
X120485714Y-113440952D01*
X120438095Y-113488571D01*
X120390476Y-113583809D01*
X120390476Y-113821904D01*
X120438095Y-113917142D01*
X120485714Y-113964761D01*
X120580952Y-114012380D01*
X120866666Y-114012380D01*
X120961904Y-113964761D01*
X121009523Y-113917142D01*
X119533333Y-113345714D02*
X119533333Y-114012380D01*
X119771428Y-112964761D02*
X120009523Y-113679047D01*
X119390476Y-113679047D01*
X115112857Y-97272380D02*
X115446190Y-96796190D01*
X115684285Y-97272380D02*
X115684285Y-96272380D01*
X115303333Y-96272380D01*
X115208095Y-96320000D01*
X115160476Y-96367619D01*
X115112857Y-96462857D01*
X115112857Y-96605714D01*
X115160476Y-96700952D01*
X115208095Y-96748571D01*
X115303333Y-96796190D01*
X115684285Y-96796190D01*
X114779523Y-96272380D02*
X114160476Y-96272380D01*
X114493809Y-96653333D01*
X114350952Y-96653333D01*
X114255714Y-96700952D01*
X114208095Y-96748571D01*
X114160476Y-96843809D01*
X114160476Y-97081904D01*
X114208095Y-97177142D01*
X114255714Y-97224761D01*
X114350952Y-97272380D01*
X114636666Y-97272380D01*
X114731904Y-97224761D01*
X114779523Y-97177142D01*
X113255714Y-96272380D02*
X113731904Y-96272380D01*
X113779523Y-96748571D01*
X113731904Y-96700952D01*
X113636666Y-96653333D01*
X113398571Y-96653333D01*
X113303333Y-96700952D01*
X113255714Y-96748571D01*
X113208095Y-96843809D01*
X113208095Y-97081904D01*
X113255714Y-97177142D01*
X113303333Y-97224761D01*
X113398571Y-97272380D01*
X113636666Y-97272380D01*
X113731904Y-97224761D01*
X113779523Y-97177142D01*
X119221904Y-97572380D02*
X119221904Y-98381904D01*
X119174285Y-98477142D01*
X119126666Y-98524761D01*
X119031428Y-98572380D01*
X118840952Y-98572380D01*
X118745714Y-98524761D01*
X118698095Y-98477142D01*
X118650476Y-98381904D01*
X118650476Y-97572380D01*
X117745714Y-97572380D02*
X117936190Y-97572380D01*
X118031428Y-97620000D01*
X118079047Y-97667619D01*
X118174285Y-97810476D01*
X118221904Y-98000952D01*
X118221904Y-98381904D01*
X118174285Y-98477142D01*
X118126666Y-98524761D01*
X118031428Y-98572380D01*
X117840952Y-98572380D01*
X117745714Y-98524761D01*
X117698095Y-98477142D01*
X117650476Y-98381904D01*
X117650476Y-98143809D01*
X117698095Y-98048571D01*
X117745714Y-98000952D01*
X117840952Y-97953333D01*
X118031428Y-97953333D01*
X118126666Y-98000952D01*
X118174285Y-98048571D01*
X118221904Y-98143809D01*
X165820952Y-101118571D02*
X165678095Y-101166190D01*
X165630476Y-101213809D01*
X165582857Y-101309047D01*
X165582857Y-101451904D01*
X165630476Y-101547142D01*
X165678095Y-101594761D01*
X165773333Y-101642380D01*
X166154285Y-101642380D01*
X166154285Y-100642380D01*
X165820952Y-100642380D01*
X165725714Y-100690000D01*
X165678095Y-100737619D01*
X165630476Y-100832857D01*
X165630476Y-100928095D01*
X165678095Y-101023333D01*
X165725714Y-101070952D01*
X165820952Y-101118571D01*
X166154285Y-101118571D01*
X164630476Y-101642380D02*
X165201904Y-101642380D01*
X164916190Y-101642380D02*
X164916190Y-100642380D01*
X165011428Y-100785238D01*
X165106666Y-100880476D01*
X165201904Y-100928095D01*
X164297142Y-100642380D02*
X163630476Y-100642380D01*
X164059047Y-101642380D01*
D11*
X175890000Y-85038748D02*
X175890000Y-85561252D01*
X177360000Y-85038748D02*
X177360000Y-85561252D01*
X178861252Y-112635000D02*
X178338748Y-112635000D01*
X178861252Y-111165000D02*
X178338748Y-111165000D01*
X131955000Y-94351252D02*
X131955000Y-93828748D01*
X133425000Y-94351252D02*
X133425000Y-93828748D01*
X159431252Y-88275000D02*
X158908748Y-88275000D01*
X159431252Y-89745000D02*
X158908748Y-89745000D01*
X178700000Y-120890000D02*
X178700000Y-119960000D01*
X178700000Y-117730000D02*
X178700000Y-118660000D01*
X178700000Y-120890000D02*
X176540000Y-120890000D01*
X178700000Y-117730000D02*
X177240000Y-117730000D01*
X178640000Y-92760000D02*
X178640000Y-92530000D01*
X177500000Y-92530000D02*
X178640000Y-92530000D01*
X181360000Y-92760000D02*
X181360000Y-91450000D01*
X178640000Y-88040000D02*
X178640000Y-88270000D01*
X181360000Y-88040000D02*
X178640000Y-88040000D01*
X178640000Y-92760000D02*
X181360000Y-92760000D01*
X181360000Y-89350000D02*
X181360000Y-88040000D01*
X135465000Y-89572936D02*
X135465000Y-90027064D01*
X136935000Y-89572936D02*
X136935000Y-90027064D01*
X161610000Y-111111252D02*
X161610000Y-110588748D01*
X160140000Y-111111252D02*
X160140000Y-110588748D01*
X163885000Y-116702064D02*
X163885000Y-116247936D01*
X162415000Y-116702064D02*
X162415000Y-116247936D01*
X177040000Y-105120000D02*
X177040000Y-106050000D01*
X177040000Y-108280000D02*
X177040000Y-107350000D01*
X177040000Y-105120000D02*
X179200000Y-105120000D01*
X177040000Y-108280000D02*
X178500000Y-108280000D01*
X181360000Y-102980000D02*
X181360000Y-102050000D01*
X181360000Y-99820000D02*
X181360000Y-100750000D01*
X181360000Y-99820000D02*
X179900000Y-99820000D01*
X181360000Y-102980000D02*
X179200000Y-102980000D01*
X177535000Y-101727064D02*
X177535000Y-101272936D01*
X176065000Y-101727064D02*
X176065000Y-101272936D01*
X182235000Y-106927064D02*
X182235000Y-106472936D01*
X180765000Y-106927064D02*
X180765000Y-106472936D01*
X143267064Y-110195000D02*
X142812936Y-110195000D01*
X143267064Y-111665000D02*
X142812936Y-111665000D01*
X142762936Y-114145000D02*
X143217064Y-114145000D01*
X142762936Y-112675000D02*
X143217064Y-112675000D01*
X143227064Y-106735000D02*
X142772936Y-106735000D01*
X143227064Y-105265000D02*
X142772936Y-105265000D01*
X143227064Y-100265000D02*
X142772936Y-100265000D01*
X143227064Y-101735000D02*
X142772936Y-101735000D01*
X143227064Y-97235000D02*
X142772936Y-97235000D01*
X143227064Y-95765000D02*
X142772936Y-95765000D01*
X142792936Y-107715000D02*
X143247064Y-107715000D01*
X142792936Y-109185000D02*
X143247064Y-109185000D01*
X142772936Y-104235000D02*
X143227064Y-104235000D01*
X142772936Y-102765000D02*
X143227064Y-102765000D01*
X142772936Y-98065000D02*
X143227064Y-98065000D01*
X142772936Y-99535000D02*
X143227064Y-99535000D01*
X166400000Y-130150000D02*
X163250000Y-130150000D01*
X166400000Y-131850000D02*
X163250000Y-131850000D01*
X166400000Y-130150000D02*
X166400000Y-131850000D01*
X143227064Y-92635000D02*
X142772936Y-92635000D01*
X143227064Y-91165000D02*
X142772936Y-91165000D01*
X142772936Y-94845000D02*
X143227064Y-94845000D01*
X142772936Y-93375000D02*
X143227064Y-93375000D01*
X162222936Y-93735000D02*
X162677064Y-93735000D01*
X162222936Y-92265000D02*
X162677064Y-92265000D01*
X162222936Y-96035000D02*
X162677064Y-96035000D01*
X162222936Y-94565000D02*
X162677064Y-94565000D01*
X137865000Y-112038748D02*
X137865000Y-112561252D01*
X139335000Y-112038748D02*
X139335000Y-112561252D01*
X158808748Y-130215000D02*
X159331252Y-130215000D01*
X158808748Y-131685000D02*
X159331252Y-131685000D01*
X166735000Y-95772936D02*
X166735000Y-96227064D01*
X165265000Y-95772936D02*
X165265000Y-96227064D01*
X169535000Y-95772936D02*
X169535000Y-96227064D01*
X168065000Y-95772936D02*
X168065000Y-96227064D01*
X189060000Y-93500000D02*
X189060000Y-96950000D01*
X189060000Y-93500000D02*
X189060000Y-91550000D01*
X183940000Y-93500000D02*
X183940000Y-91550000D01*
X183940000Y-93500000D02*
X183940000Y-95450000D01*
X119305000Y-92946248D02*
X119305000Y-93468752D01*
X120775000Y-92946248D02*
X120775000Y-93468752D01*
X132242936Y-118355000D02*
X132697064Y-118355000D01*
X132242936Y-116885000D02*
X132697064Y-116885000D01*
X186805000Y-108407064D02*
X186805000Y-107952936D01*
X188275000Y-108407064D02*
X188275000Y-107952936D01*
X127900000Y-107240000D02*
X129300000Y-107240000D01*
X129300000Y-109560000D02*
X127400000Y-109560000D01*
X127410000Y-112560000D02*
X127410000Y-115280000D01*
X127410000Y-115280000D02*
X128720000Y-115280000D01*
X127640000Y-111420000D02*
X127640000Y-112560000D01*
X130820000Y-115280000D02*
X132130000Y-115280000D01*
X132130000Y-115280000D02*
X132130000Y-112560000D01*
X127410000Y-112560000D02*
X127640000Y-112560000D01*
X132130000Y-112560000D02*
X131900000Y-112560000D01*
X185025000Y-116231252D02*
X185025000Y-115708748D01*
X186495000Y-116231252D02*
X186495000Y-115708748D01*
X125225000Y-106502936D02*
X125225000Y-106957064D01*
X123755000Y-106502936D02*
X123755000Y-106957064D01*
X128627064Y-104865000D02*
X128172936Y-104865000D01*
X128627064Y-106335000D02*
X128172936Y-106335000D01*
X186957064Y-120075000D02*
X186502936Y-120075000D01*
X186957064Y-121545000D02*
X186502936Y-121545000D01*
X124865000Y-111738748D02*
X124865000Y-112261252D01*
X126335000Y-111738748D02*
X126335000Y-112261252D01*
X122938748Y-126155000D02*
X123461252Y-126155000D01*
X122938748Y-124685000D02*
X123461252Y-124685000D01*
X120701252Y-119135000D02*
X120178748Y-119135000D01*
X120701252Y-120605000D02*
X120178748Y-120605000D01*
X110611252Y-95335000D02*
X110088748Y-95335000D01*
X110611252Y-93865000D02*
X110088748Y-93865000D01*
X141370000Y-89770000D02*
X138220000Y-89770000D01*
X141370000Y-88070000D02*
X141370000Y-89770000D01*
X141370000Y-88070000D02*
X138220000Y-88070000D01*
X119297064Y-122955000D02*
X118842936Y-122955000D01*
X119297064Y-124425000D02*
X118842936Y-124425000D01*
X120785000Y-116052936D02*
X120785000Y-116507064D01*
X122255000Y-116052936D02*
X122255000Y-116507064D01*
X114747064Y-94185000D02*
X114292936Y-94185000D01*
X114747064Y-95655000D02*
X114292936Y-95655000D01*
X113695000Y-103440000D02*
X113695000Y-105390000D01*
X113695000Y-103440000D02*
X113695000Y-101490000D01*
X122565000Y-103440000D02*
X122565000Y-101490000D01*
X122565000Y-103440000D02*
X122565000Y-106890000D01*
X164678748Y-98775000D02*
X165201252Y-98775000D01*
X164678748Y-100245000D02*
X165201252Y-100245000D01*
M02*
