M48
; DRILL file {KiCad 6.0.2+dfsg-1} date Tue 28 Mar 2023 12:09:06 PM EDT
; FORMAT={-:-/ absolute / metric / decimal}
; #@! TF.CreationDate,2023-03-28T12:09:06-04:00
; #@! TF.GenerationSoftware,Kicad,Pcbnew,6.0.2+dfsg-1
; #@! TF.FileFunction,Plated,1,4,PTH
FMAT,2
METRIC
; #@! TA.AperFunction,Plated,PTH,ViaDrill
T1C0.300
; #@! TA.AperFunction,Plated,PTH,ViaDrill
T2C0.400
; #@! TA.AperFunction,Plated,PTH,ViaDrill
T3C0.500
; #@! TA.AperFunction,Plated,PTH,ViaDrill
T4C0.700
; #@! TA.AperFunction,Plated,PTH,ComponentDrill
T5C0.700
; #@! TA.AperFunction,Plated,PTH,ComponentDrill
T6C0.800
; #@! TA.AperFunction,Plated,PTH,ComponentDrill
T7C1.000
; #@! TA.AperFunction,Plated,PTH,ComponentDrill
T8C1.020
; #@! TA.AperFunction,Plated,PTH,ComponentDrill
T9C3.200
%
G90
G05
T1
X127.6Y-110.45
X128.175Y-89.0
X128.65Y-110.45
X131.9Y-107.75
X132.575Y-123.575
X139.65Y-90.275
X140.0Y-93.0
X140.1Y-102.4
X140.2Y-97.7
X140.23Y-107.16
X140.34Y-112.29
X145.5Y-101.0
X145.5Y-103.0
X145.6Y-96.5
X145.66Y-106.03
X145.66Y-111.0
X145.79Y-112.49
X145.8Y-94.0
X145.8Y-97.8
X145.86Y-107.67
X146.0Y-92.6
X165.5Y-112.3
X165.5Y-114.9
X165.649Y-113.297
X169.25Y-115.625
X169.475Y-113.675
X169.75Y-116.275
X188.4Y-89.2
T2
X105.31Y-129.75
X112.1Y-121.4
X113.57Y-93.04
X116.5Y-93.5
X116.9Y-125.5
X119.2Y-89.3
X119.65Y-129.65
X122.2Y-123.8
X122.3Y-122.5
X125.0Y-123.5
X126.11Y-118.64
X127.35Y-102.96
X127.89Y-96.93
X128.08Y-98.64
X128.875Y-124.975
X129.77Y-110.57
X133.4Y-101.1
X133.5Y-107.5
X134.125Y-129.95
X134.6Y-92.4
X150.27Y-114.09
X157.19Y-109.9
X158.37Y-98.95
X158.44Y-103.99
X158.44Y-105.31
X158.46Y-101.51
X158.48Y-106.57
X158.73Y-96.67
X160.92Y-101.84
X163.06Y-102.8
X163.15Y-100.98
X163.93Y-104.14
X163.95Y-105.3
X163.95Y-106.54
X164.72Y-109.51
X164.95Y-116.125
X168.7Y-118.3
X169.161Y-114.356
X175.05Y-102.925
X175.9Y-109.18
X185.38Y-109.19
X185.78Y-118.71
T3
X107.0Y-92.4
X114.13Y-121.87
X116.3Y-120.3
X122.23Y-121.44
X125.94Y-114.76
X128.24Y-120.67
X140.26Y-114.7
T4
X143.2Y-123.97
X148.2Y-114.4
X158.25Y-123.77
T5
X105.54Y-124.33
X107.42Y-114.57
X107.8Y-97.0
X109.19Y-118.3
X110.49Y-97.0
X126.28Y-90.38
X129.8Y-119.3
X129.93Y-96.95
X130.0Y-92.72
X145.47Y-89.42
X155.87Y-93.41
X158.73Y-93.44
X162.62Y-90.32
X165.5Y-90.34
X166.0Y-92.8
X168.1Y-108.9
X168.17Y-90.36
X168.69Y-127.5
X168.8Y-92.8
X168.83Y-100.05
X168.95Y-105.57
T6
X110.08Y-130.51
X112.62Y-130.51
X115.16Y-130.51
X124.08Y-130.51
X126.62Y-130.51
X129.16Y-130.51
T7
X107.54Y-83.72
X107.54Y-86.26
X107.95Y-100.33
X107.95Y-102.87
X107.95Y-105.41
X107.95Y-107.95
X107.95Y-110.49
X110.08Y-83.72
X110.08Y-86.26
X112.62Y-83.72
X112.62Y-86.26
X115.16Y-83.72
X115.16Y-86.26
X117.7Y-83.72
X117.7Y-86.26
X120.24Y-83.72
X120.24Y-86.26
X122.78Y-83.72
X122.78Y-86.26
X125.32Y-83.72
X125.32Y-86.26
X127.86Y-83.72
X127.86Y-86.26
X130.4Y-83.72
X130.4Y-86.26
X130.81Y-100.33
X130.81Y-102.87
X132.94Y-83.72
X132.94Y-86.26
X135.48Y-83.72
X135.48Y-86.26
X135.89Y-95.25
X135.89Y-97.79
X135.89Y-100.33
X135.89Y-102.87
X135.89Y-105.41
X135.89Y-110.49
X135.89Y-113.03
X137.02Y-116.93
X138.02Y-83.72
X138.02Y-86.26
X139.56Y-116.93
X140.56Y-83.72
X140.56Y-86.26
X142.1Y-116.93
X143.1Y-83.72
X143.1Y-86.26
X144.64Y-116.93
X145.64Y-83.72
X145.64Y-86.26
X145.8Y-121.6
X147.18Y-116.93
X147.185Y-124.44
X148.18Y-83.72
X148.18Y-86.26
X148.57Y-121.6
X149.72Y-116.93
X149.86Y-93.98
X149.86Y-96.52
X149.86Y-99.06
X149.86Y-101.6
X149.86Y-104.14
X149.86Y-106.68
X149.86Y-109.22
X149.86Y-111.76
X149.955Y-124.44
X150.72Y-83.72
X150.72Y-86.26
X151.34Y-121.6
X152.26Y-116.93
X152.4Y-93.98
X152.4Y-96.52
X152.4Y-99.06
X152.4Y-101.6
X152.4Y-104.14
X152.4Y-106.68
X152.4Y-109.22
X152.4Y-111.76
X152.725Y-124.44
X153.26Y-83.72
X153.26Y-86.26
X154.11Y-121.6
X154.8Y-116.93
X155.495Y-124.44
X155.8Y-83.72
X155.8Y-86.26
X156.88Y-121.6
X157.34Y-116.93
X158.34Y-83.72
X158.34Y-86.26
X160.88Y-83.72
X160.88Y-86.26
X163.42Y-83.72
X163.42Y-86.26
X165.96Y-83.72
X165.96Y-86.26
X168.5Y-83.72
X168.5Y-86.26
T8
X173.11Y-85.27
X173.11Y-87.81
X173.11Y-90.35
X173.11Y-92.89
X173.11Y-95.43
X173.11Y-97.97
X173.11Y-100.51
X173.11Y-103.05
X173.11Y-105.59
X173.11Y-108.13
X173.11Y-110.67
X173.11Y-113.21
X173.11Y-115.75
X173.11Y-118.29
X173.11Y-120.83
X173.11Y-123.37
X173.11Y-125.91
X173.11Y-128.45
X173.11Y-130.99
X173.11Y-133.53
X179.46Y-85.5
X182.0Y-85.5
X184.54Y-85.5
X190.89Y-85.27
X190.89Y-87.81
X190.89Y-90.35
X190.89Y-92.89
X190.89Y-95.43
X190.89Y-97.97
X190.89Y-100.51
X190.89Y-103.05
X190.89Y-105.59
X190.89Y-108.13
X190.89Y-110.67
X190.89Y-113.21
X190.89Y-115.75
X190.89Y-118.29
X190.89Y-120.83
X190.89Y-123.37
X190.89Y-125.91
X190.89Y-128.45
X190.89Y-130.99
X190.89Y-133.53
T9
X138.84Y-123.02
X163.84Y-123.02
T0
M30
