%TF.GenerationSoftware,KiCad,Pcbnew,5.1.12-84ad8e8a86~92~ubuntu20.04.1*%
%TF.CreationDate,2022-05-15T08:31:46-04:00*%
%TF.ProjectId,HL2IOBoard,484c3249-4f42-46f6-9172-642e6b696361,D*%
%TF.SameCoordinates,Original*%
%TF.FileFunction,Paste,Bot*%
%TF.FilePolarity,Positive*%
%FSLAX46Y46*%
G04 Gerber Fmt 4.6, Leading zero omitted, Abs format (unit mm)*
G04 Created by KiCad (PCBNEW 5.1.12-84ad8e8a86~92~ubuntu20.04.1) date 2022-05-15 08:31:46*
%MOMM*%
%LPD*%
G01*
G04 APERTURE LIST*
%ADD10R,0.900000X0.800000*%
%ADD11R,2.300000X0.900000*%
%ADD12C,0.100000*%
%ADD13R,1.000000X1.000000*%
%ADD14R,1.500000X0.400000*%
%ADD15R,0.900000X1.300000*%
G04 APERTURE END LIST*
%TO.C,B2*%
G36*
G01*
X119565000Y-91582500D02*
X120515000Y-91582500D01*
G75*
G02*
X120765000Y-91832500I0J-250000D01*
G01*
X120765000Y-92507500D01*
G75*
G02*
X120515000Y-92757500I-250000J0D01*
G01*
X119565000Y-92757500D01*
G75*
G02*
X119315000Y-92507500I0J250000D01*
G01*
X119315000Y-91832500D01*
G75*
G02*
X119565000Y-91582500I250000J0D01*
G01*
G37*
G36*
G01*
X119565000Y-93657500D02*
X120515000Y-93657500D01*
G75*
G02*
X120765000Y-93907500I0J-250000D01*
G01*
X120765000Y-94582500D01*
G75*
G02*
X120515000Y-94832500I-250000J0D01*
G01*
X119565000Y-94832500D01*
G75*
G02*
X119315000Y-94582500I0J250000D01*
G01*
X119315000Y-93907500D01*
G75*
G02*
X119565000Y-93657500I250000J0D01*
G01*
G37*
%TD*%
%TO.C,R8*%
G36*
G01*
X163600001Y-118075000D02*
X162699999Y-118075000D01*
G75*
G02*
X162450000Y-117825001I0J249999D01*
G01*
X162450000Y-117124999D01*
G75*
G02*
X162699999Y-116875000I249999J0D01*
G01*
X163600001Y-116875000D01*
G75*
G02*
X163850000Y-117124999I0J-249999D01*
G01*
X163850000Y-117825001D01*
G75*
G02*
X163600001Y-118075000I-249999J0D01*
G01*
G37*
G36*
G01*
X163600001Y-116075000D02*
X162699999Y-116075000D01*
G75*
G02*
X162450000Y-115825001I0J249999D01*
G01*
X162450000Y-115124999D01*
G75*
G02*
X162699999Y-114875000I249999J0D01*
G01*
X163600001Y-114875000D01*
G75*
G02*
X163850000Y-115124999I0J-249999D01*
G01*
X163850000Y-115825001D01*
G75*
G02*
X163600001Y-116075000I-249999J0D01*
G01*
G37*
%TD*%
%TO.C,C5*%
G36*
G01*
X161350000Y-112475000D02*
X160400000Y-112475000D01*
G75*
G02*
X160150000Y-112225000I0J250000D01*
G01*
X160150000Y-111550000D01*
G75*
G02*
X160400000Y-111300000I250000J0D01*
G01*
X161350000Y-111300000D01*
G75*
G02*
X161600000Y-111550000I0J-250000D01*
G01*
X161600000Y-112225000D01*
G75*
G02*
X161350000Y-112475000I-250000J0D01*
G01*
G37*
G36*
G01*
X161350000Y-110400000D02*
X160400000Y-110400000D01*
G75*
G02*
X160150000Y-110150000I0J250000D01*
G01*
X160150000Y-109475000D01*
G75*
G02*
X160400000Y-109225000I250000J0D01*
G01*
X161350000Y-109225000D01*
G75*
G02*
X161600000Y-109475000I0J-250000D01*
G01*
X161600000Y-110150000D01*
G75*
G02*
X161350000Y-110400000I-250000J0D01*
G01*
G37*
%TD*%
%TO.C,C4*%
G36*
G01*
X176150000Y-83675000D02*
X177100000Y-83675000D01*
G75*
G02*
X177350000Y-83925000I0J-250000D01*
G01*
X177350000Y-84600000D01*
G75*
G02*
X177100000Y-84850000I-250000J0D01*
G01*
X176150000Y-84850000D01*
G75*
G02*
X175900000Y-84600000I0J250000D01*
G01*
X175900000Y-83925000D01*
G75*
G02*
X176150000Y-83675000I250000J0D01*
G01*
G37*
G36*
G01*
X176150000Y-85750000D02*
X177100000Y-85750000D01*
G75*
G02*
X177350000Y-86000000I0J-250000D01*
G01*
X177350000Y-86675000D01*
G75*
G02*
X177100000Y-86925000I-250000J0D01*
G01*
X176150000Y-86925000D01*
G75*
G02*
X175900000Y-86675000I0J250000D01*
G01*
X175900000Y-86000000D01*
G75*
G02*
X176150000Y-85750000I250000J0D01*
G01*
G37*
%TD*%
%TO.C,B9*%
G36*
G01*
X178150000Y-111425000D02*
X178150000Y-112375000D01*
G75*
G02*
X177900000Y-112625000I-250000J0D01*
G01*
X177225000Y-112625000D01*
G75*
G02*
X176975000Y-112375000I0J250000D01*
G01*
X176975000Y-111425000D01*
G75*
G02*
X177225000Y-111175000I250000J0D01*
G01*
X177900000Y-111175000D01*
G75*
G02*
X178150000Y-111425000I0J-250000D01*
G01*
G37*
G36*
G01*
X180225000Y-111425000D02*
X180225000Y-112375000D01*
G75*
G02*
X179975000Y-112625000I-250000J0D01*
G01*
X179300000Y-112625000D01*
G75*
G02*
X179050000Y-112375000I0J250000D01*
G01*
X179050000Y-111425000D01*
G75*
G02*
X179300000Y-111175000I250000J0D01*
G01*
X179975000Y-111175000D01*
G75*
G02*
X180225000Y-111425000I0J-250000D01*
G01*
G37*
%TD*%
D10*
%TO.C,U9*%
X176940000Y-120260000D03*
X176940000Y-118360000D03*
X178940000Y-119310000D03*
%TD*%
%TO.C,B1*%
G36*
G01*
X133165000Y-95715000D02*
X132215000Y-95715000D01*
G75*
G02*
X131965000Y-95465000I0J250000D01*
G01*
X131965000Y-94790000D01*
G75*
G02*
X132215000Y-94540000I250000J0D01*
G01*
X133165000Y-94540000D01*
G75*
G02*
X133415000Y-94790000I0J-250000D01*
G01*
X133415000Y-95465000D01*
G75*
G02*
X133165000Y-95715000I-250000J0D01*
G01*
G37*
G36*
G01*
X133165000Y-93640000D02*
X132215000Y-93640000D01*
G75*
G02*
X131965000Y-93390000I0J250000D01*
G01*
X131965000Y-92715000D01*
G75*
G02*
X132215000Y-92465000I250000J0D01*
G01*
X133165000Y-92465000D01*
G75*
G02*
X133415000Y-92715000I0J-250000D01*
G01*
X133415000Y-93390000D01*
G75*
G02*
X133165000Y-93640000I-250000J0D01*
G01*
G37*
%TD*%
%TO.C,B10*%
G36*
G01*
X160795000Y-88535000D02*
X160795000Y-89485000D01*
G75*
G02*
X160545000Y-89735000I-250000J0D01*
G01*
X159870000Y-89735000D01*
G75*
G02*
X159620000Y-89485000I0J250000D01*
G01*
X159620000Y-88535000D01*
G75*
G02*
X159870000Y-88285000I250000J0D01*
G01*
X160545000Y-88285000D01*
G75*
G02*
X160795000Y-88535000I0J-250000D01*
G01*
G37*
G36*
G01*
X158720000Y-88535000D02*
X158720000Y-89485000D01*
G75*
G02*
X158470000Y-89735000I-250000J0D01*
G01*
X157795000Y-89735000D01*
G75*
G02*
X157545000Y-89485000I0J250000D01*
G01*
X157545000Y-88535000D01*
G75*
G02*
X157795000Y-88285000I250000J0D01*
G01*
X158470000Y-88285000D01*
G75*
G02*
X158720000Y-88535000I0J-250000D01*
G01*
G37*
%TD*%
%TO.C,B15*%
G36*
G01*
X139075000Y-111850000D02*
X138125000Y-111850000D01*
G75*
G02*
X137875000Y-111600000I0J250000D01*
G01*
X137875000Y-110925000D01*
G75*
G02*
X138125000Y-110675000I250000J0D01*
G01*
X139075000Y-110675000D01*
G75*
G02*
X139325000Y-110925000I0J-250000D01*
G01*
X139325000Y-111600000D01*
G75*
G02*
X139075000Y-111850000I-250000J0D01*
G01*
G37*
G36*
G01*
X139075000Y-113925000D02*
X138125000Y-113925000D01*
G75*
G02*
X137875000Y-113675000I0J250000D01*
G01*
X137875000Y-113000000D01*
G75*
G02*
X138125000Y-112750000I250000J0D01*
G01*
X139075000Y-112750000D01*
G75*
G02*
X139325000Y-113000000I0J-250000D01*
G01*
X139325000Y-113675000D01*
G75*
G02*
X139075000Y-113925000I-250000J0D01*
G01*
G37*
%TD*%
%TO.C,R17*%
G36*
G01*
X161250001Y-93800000D02*
X160349999Y-93800000D01*
G75*
G02*
X160100000Y-93550001I0J249999D01*
G01*
X160100000Y-92849999D01*
G75*
G02*
X160349999Y-92600000I249999J0D01*
G01*
X161250001Y-92600000D01*
G75*
G02*
X161500000Y-92849999I0J-249999D01*
G01*
X161500000Y-93550001D01*
G75*
G02*
X161250001Y-93800000I-249999J0D01*
G01*
G37*
G36*
G01*
X161250001Y-95800000D02*
X160349999Y-95800000D01*
G75*
G02*
X160100000Y-95550001I0J249999D01*
G01*
X160100000Y-94849999D01*
G75*
G02*
X160349999Y-94600000I249999J0D01*
G01*
X161250001Y-94600000D01*
G75*
G02*
X161500000Y-94849999I0J-249999D01*
G01*
X161500000Y-95550001D01*
G75*
G02*
X161250001Y-95800000I-249999J0D01*
G01*
G37*
%TD*%
%TO.C,R18*%
G36*
G01*
X163850001Y-95800000D02*
X162949999Y-95800000D01*
G75*
G02*
X162700000Y-95550001I0J249999D01*
G01*
X162700000Y-94849999D01*
G75*
G02*
X162949999Y-94600000I249999J0D01*
G01*
X163850001Y-94600000D01*
G75*
G02*
X164100000Y-94849999I0J-249999D01*
G01*
X164100000Y-95550001D01*
G75*
G02*
X163850001Y-95800000I-249999J0D01*
G01*
G37*
G36*
G01*
X163850001Y-93800000D02*
X162949999Y-93800000D01*
G75*
G02*
X162700000Y-93550001I0J249999D01*
G01*
X162700000Y-92849999D01*
G75*
G02*
X162949999Y-92600000I249999J0D01*
G01*
X163850001Y-92600000D01*
G75*
G02*
X164100000Y-92849999I0J-249999D01*
G01*
X164100000Y-93550001D01*
G75*
G02*
X163850001Y-93800000I-249999J0D01*
G01*
G37*
%TD*%
D11*
%TO.C,U5*%
X177550000Y-91900000D03*
X177550000Y-88900000D03*
D12*
G36*
X183000000Y-91266500D02*
G01*
X178875000Y-91266500D01*
X178875000Y-90850000D01*
X176400000Y-90850000D01*
X176400000Y-89950000D01*
X178875000Y-89950000D01*
X178875000Y-89533500D01*
X183000000Y-89533500D01*
X183000000Y-91266500D01*
G37*
%TD*%
%TO.C,R7*%
G36*
G01*
X135749999Y-88200000D02*
X136650001Y-88200000D01*
G75*
G02*
X136900000Y-88449999I0J-249999D01*
G01*
X136900000Y-89150001D01*
G75*
G02*
X136650001Y-89400000I-249999J0D01*
G01*
X135749999Y-89400000D01*
G75*
G02*
X135500000Y-89150001I0J249999D01*
G01*
X135500000Y-88449999D01*
G75*
G02*
X135749999Y-88200000I249999J0D01*
G01*
G37*
G36*
G01*
X135749999Y-90200000D02*
X136650001Y-90200000D01*
G75*
G02*
X136900000Y-90449999I0J-249999D01*
G01*
X136900000Y-91150001D01*
G75*
G02*
X136650001Y-91400000I-249999J0D01*
G01*
X135749999Y-91400000D01*
G75*
G02*
X135500000Y-91150001I0J249999D01*
G01*
X135500000Y-90449999D01*
G75*
G02*
X135749999Y-90200000I249999J0D01*
G01*
G37*
%TD*%
D10*
%TO.C,Q3*%
X176800000Y-106700000D03*
X178800000Y-107650000D03*
X178800000Y-105750000D03*
%TD*%
%TO.C,Q5*%
X179600000Y-102350000D03*
X179600000Y-100450000D03*
X181600000Y-101400000D03*
%TD*%
%TO.C,R9*%
G36*
G01*
X177250001Y-103100000D02*
X176349999Y-103100000D01*
G75*
G02*
X176100000Y-102850001I0J249999D01*
G01*
X176100000Y-102149999D01*
G75*
G02*
X176349999Y-101900000I249999J0D01*
G01*
X177250001Y-101900000D01*
G75*
G02*
X177500000Y-102149999I0J-249999D01*
G01*
X177500000Y-102850001D01*
G75*
G02*
X177250001Y-103100000I-249999J0D01*
G01*
G37*
G36*
G01*
X177250001Y-101100000D02*
X176349999Y-101100000D01*
G75*
G02*
X176100000Y-100850001I0J249999D01*
G01*
X176100000Y-100149999D01*
G75*
G02*
X176349999Y-99900000I249999J0D01*
G01*
X177250001Y-99900000D01*
G75*
G02*
X177500000Y-100149999I0J-249999D01*
G01*
X177500000Y-100850001D01*
G75*
G02*
X177250001Y-101100000I-249999J0D01*
G01*
G37*
%TD*%
%TO.C,R11*%
G36*
G01*
X181950001Y-106300000D02*
X181049999Y-106300000D01*
G75*
G02*
X180800000Y-106050001I0J249999D01*
G01*
X180800000Y-105349999D01*
G75*
G02*
X181049999Y-105100000I249999J0D01*
G01*
X181950001Y-105100000D01*
G75*
G02*
X182200000Y-105349999I0J-249999D01*
G01*
X182200000Y-106050001D01*
G75*
G02*
X181950001Y-106300000I-249999J0D01*
G01*
G37*
G36*
G01*
X181950001Y-108300000D02*
X181049999Y-108300000D01*
G75*
G02*
X180800000Y-108050001I0J249999D01*
G01*
X180800000Y-107349999D01*
G75*
G02*
X181049999Y-107100000I249999J0D01*
G01*
X181950001Y-107100000D01*
G75*
G02*
X182200000Y-107349999I0J-249999D01*
G01*
X182200000Y-108050001D01*
G75*
G02*
X181950001Y-108300000I-249999J0D01*
G01*
G37*
%TD*%
D13*
%TO.C,D6*%
X165750000Y-131000000D03*
X163250000Y-131000000D03*
%TD*%
%TO.C,B12*%
G36*
G01*
X150925000Y-105675000D02*
X151875000Y-105675000D01*
G75*
G02*
X152125000Y-105925000I0J-250000D01*
G01*
X152125000Y-106600000D01*
G75*
G02*
X151875000Y-106850000I-250000J0D01*
G01*
X150925000Y-106850000D01*
G75*
G02*
X150675000Y-106600000I0J250000D01*
G01*
X150675000Y-105925000D01*
G75*
G02*
X150925000Y-105675000I250000J0D01*
G01*
G37*
G36*
G01*
X150925000Y-107750000D02*
X151875000Y-107750000D01*
G75*
G02*
X152125000Y-108000000I0J-250000D01*
G01*
X152125000Y-108675000D01*
G75*
G02*
X151875000Y-108925000I-250000J0D01*
G01*
X150925000Y-108925000D01*
G75*
G02*
X150675000Y-108675000I0J250000D01*
G01*
X150675000Y-108000000D01*
G75*
G02*
X150925000Y-107750000I250000J0D01*
G01*
G37*
%TD*%
%TO.C,R30*%
G36*
G01*
X165549999Y-94400000D02*
X166450001Y-94400000D01*
G75*
G02*
X166700000Y-94649999I0J-249999D01*
G01*
X166700000Y-95350001D01*
G75*
G02*
X166450001Y-95600000I-249999J0D01*
G01*
X165549999Y-95600000D01*
G75*
G02*
X165300000Y-95350001I0J249999D01*
G01*
X165300000Y-94649999D01*
G75*
G02*
X165549999Y-94400000I249999J0D01*
G01*
G37*
G36*
G01*
X165549999Y-96400000D02*
X166450001Y-96400000D01*
G75*
G02*
X166700000Y-96649999I0J-249999D01*
G01*
X166700000Y-97350001D01*
G75*
G02*
X166450001Y-97600000I-249999J0D01*
G01*
X165549999Y-97600000D01*
G75*
G02*
X165300000Y-97350001I0J249999D01*
G01*
X165300000Y-96649999D01*
G75*
G02*
X165549999Y-96400000I249999J0D01*
G01*
G37*
%TD*%
%TO.C,R31*%
G36*
G01*
X168349999Y-96400000D02*
X169250001Y-96400000D01*
G75*
G02*
X169500000Y-96649999I0J-249999D01*
G01*
X169500000Y-97350001D01*
G75*
G02*
X169250001Y-97600000I-249999J0D01*
G01*
X168349999Y-97600000D01*
G75*
G02*
X168100000Y-97350001I0J249999D01*
G01*
X168100000Y-96649999D01*
G75*
G02*
X168349999Y-96400000I249999J0D01*
G01*
G37*
G36*
G01*
X168349999Y-94400000D02*
X169250001Y-94400000D01*
G75*
G02*
X169500000Y-94649999I0J-249999D01*
G01*
X169500000Y-95350001D01*
G75*
G02*
X169250001Y-95600000I-249999J0D01*
G01*
X168349999Y-95600000D01*
G75*
G02*
X168100000Y-95350001I0J249999D01*
G01*
X168100000Y-94649999D01*
G75*
G02*
X168349999Y-94400000I249999J0D01*
G01*
G37*
%TD*%
%TO.C,U11*%
G36*
G01*
X147650000Y-92945000D02*
X147650000Y-93245000D01*
G75*
G02*
X147500000Y-93395000I-150000J0D01*
G01*
X145850000Y-93395000D01*
G75*
G02*
X145700000Y-93245000I0J150000D01*
G01*
X145700000Y-92945000D01*
G75*
G02*
X145850000Y-92795000I150000J0D01*
G01*
X147500000Y-92795000D01*
G75*
G02*
X147650000Y-92945000I0J-150000D01*
G01*
G37*
G36*
G01*
X147650000Y-94215000D02*
X147650000Y-94515000D01*
G75*
G02*
X147500000Y-94665000I-150000J0D01*
G01*
X145850000Y-94665000D01*
G75*
G02*
X145700000Y-94515000I0J150000D01*
G01*
X145700000Y-94215000D01*
G75*
G02*
X145850000Y-94065000I150000J0D01*
G01*
X147500000Y-94065000D01*
G75*
G02*
X147650000Y-94215000I0J-150000D01*
G01*
G37*
G36*
G01*
X147650000Y-95485000D02*
X147650000Y-95785000D01*
G75*
G02*
X147500000Y-95935000I-150000J0D01*
G01*
X145850000Y-95935000D01*
G75*
G02*
X145700000Y-95785000I0J150000D01*
G01*
X145700000Y-95485000D01*
G75*
G02*
X145850000Y-95335000I150000J0D01*
G01*
X147500000Y-95335000D01*
G75*
G02*
X147650000Y-95485000I0J-150000D01*
G01*
G37*
G36*
G01*
X147650000Y-96755000D02*
X147650000Y-97055000D01*
G75*
G02*
X147500000Y-97205000I-150000J0D01*
G01*
X145850000Y-97205000D01*
G75*
G02*
X145700000Y-97055000I0J150000D01*
G01*
X145700000Y-96755000D01*
G75*
G02*
X145850000Y-96605000I150000J0D01*
G01*
X147500000Y-96605000D01*
G75*
G02*
X147650000Y-96755000I0J-150000D01*
G01*
G37*
G36*
G01*
X142700000Y-96755000D02*
X142700000Y-97055000D01*
G75*
G02*
X142550000Y-97205000I-150000J0D01*
G01*
X140900000Y-97205000D01*
G75*
G02*
X140750000Y-97055000I0J150000D01*
G01*
X140750000Y-96755000D01*
G75*
G02*
X140900000Y-96605000I150000J0D01*
G01*
X142550000Y-96605000D01*
G75*
G02*
X142700000Y-96755000I0J-150000D01*
G01*
G37*
G36*
G01*
X142700000Y-95485000D02*
X142700000Y-95785000D01*
G75*
G02*
X142550000Y-95935000I-150000J0D01*
G01*
X140900000Y-95935000D01*
G75*
G02*
X140750000Y-95785000I0J150000D01*
G01*
X140750000Y-95485000D01*
G75*
G02*
X140900000Y-95335000I150000J0D01*
G01*
X142550000Y-95335000D01*
G75*
G02*
X142700000Y-95485000I0J-150000D01*
G01*
G37*
G36*
G01*
X142700000Y-94215000D02*
X142700000Y-94515000D01*
G75*
G02*
X142550000Y-94665000I-150000J0D01*
G01*
X140900000Y-94665000D01*
G75*
G02*
X140750000Y-94515000I0J150000D01*
G01*
X140750000Y-94215000D01*
G75*
G02*
X140900000Y-94065000I150000J0D01*
G01*
X142550000Y-94065000D01*
G75*
G02*
X142700000Y-94215000I0J-150000D01*
G01*
G37*
G36*
G01*
X142700000Y-92945000D02*
X142700000Y-93245000D01*
G75*
G02*
X142550000Y-93395000I-150000J0D01*
G01*
X140900000Y-93395000D01*
G75*
G02*
X140750000Y-93245000I0J150000D01*
G01*
X140750000Y-92945000D01*
G75*
G02*
X140900000Y-92795000I150000J0D01*
G01*
X142550000Y-92795000D01*
G75*
G02*
X142700000Y-92945000I0J-150000D01*
G01*
G37*
%TD*%
%TO.C,R32*%
G36*
G01*
X132870000Y-118070001D02*
X132870000Y-117169999D01*
G75*
G02*
X133119999Y-116920000I249999J0D01*
G01*
X133820001Y-116920000D01*
G75*
G02*
X134070000Y-117169999I0J-249999D01*
G01*
X134070000Y-118070001D01*
G75*
G02*
X133820001Y-118320000I-249999J0D01*
G01*
X133119999Y-118320000D01*
G75*
G02*
X132870000Y-118070001I0J249999D01*
G01*
G37*
G36*
G01*
X130870000Y-118070001D02*
X130870000Y-117169999D01*
G75*
G02*
X131119999Y-116920000I249999J0D01*
G01*
X131820001Y-116920000D01*
G75*
G02*
X132070000Y-117169999I0J-249999D01*
G01*
X132070000Y-118070001D01*
G75*
G02*
X131820001Y-118320000I-249999J0D01*
G01*
X131119999Y-118320000D01*
G75*
G02*
X130870000Y-118070001I0J249999D01*
G01*
G37*
%TD*%
%TO.C,R33*%
G36*
G01*
X187990001Y-109780000D02*
X187089999Y-109780000D01*
G75*
G02*
X186840000Y-109530001I0J249999D01*
G01*
X186840000Y-108829999D01*
G75*
G02*
X187089999Y-108580000I249999J0D01*
G01*
X187990001Y-108580000D01*
G75*
G02*
X188240000Y-108829999I0J-249999D01*
G01*
X188240000Y-109530001D01*
G75*
G02*
X187990001Y-109780000I-249999J0D01*
G01*
G37*
G36*
G01*
X187990001Y-107780000D02*
X187089999Y-107780000D01*
G75*
G02*
X186840000Y-107530001I0J249999D01*
G01*
X186840000Y-106829999D01*
G75*
G02*
X187089999Y-106580000I249999J0D01*
G01*
X187990001Y-106580000D01*
G75*
G02*
X188240000Y-106829999I0J-249999D01*
G01*
X188240000Y-107530001D01*
G75*
G02*
X187990001Y-107780000I-249999J0D01*
G01*
G37*
%TD*%
D14*
%TO.C,U13*%
X127270000Y-109050000D03*
X127270000Y-108400000D03*
X127270000Y-107750000D03*
X129930000Y-107750000D03*
X129930000Y-109050000D03*
%TD*%
D15*
%TO.C,Q6*%
X128270000Y-111970000D03*
X131270000Y-111970000D03*
D12*
G36*
X128903500Y-115920000D02*
G01*
X128903500Y-112795000D01*
X129320000Y-112795000D01*
X129320000Y-111320000D01*
X130220000Y-111320000D01*
X130220000Y-112795000D01*
X130636500Y-112795000D01*
X130636500Y-115920000D01*
X128903500Y-115920000D01*
G37*
%TD*%
%TO.C,B11*%
G36*
G01*
X186235000Y-115520000D02*
X185285000Y-115520000D01*
G75*
G02*
X185035000Y-115270000I0J250000D01*
G01*
X185035000Y-114595000D01*
G75*
G02*
X185285000Y-114345000I250000J0D01*
G01*
X186235000Y-114345000D01*
G75*
G02*
X186485000Y-114595000I0J-250000D01*
G01*
X186485000Y-115270000D01*
G75*
G02*
X186235000Y-115520000I-250000J0D01*
G01*
G37*
G36*
G01*
X186235000Y-117595000D02*
X185285000Y-117595000D01*
G75*
G02*
X185035000Y-117345000I0J250000D01*
G01*
X185035000Y-116670000D01*
G75*
G02*
X185285000Y-116420000I250000J0D01*
G01*
X186235000Y-116420000D01*
G75*
G02*
X186485000Y-116670000I0J-250000D01*
G01*
X186485000Y-117345000D01*
G75*
G02*
X186235000Y-117595000I-250000J0D01*
G01*
G37*
%TD*%
%TO.C,R1*%
G36*
G01*
X186330000Y-120359999D02*
X186330000Y-121260001D01*
G75*
G02*
X186080001Y-121510000I-249999J0D01*
G01*
X185379999Y-121510000D01*
G75*
G02*
X185130000Y-121260001I0J249999D01*
G01*
X185130000Y-120359999D01*
G75*
G02*
X185379999Y-120110000I249999J0D01*
G01*
X186080001Y-120110000D01*
G75*
G02*
X186330000Y-120359999I0J-249999D01*
G01*
G37*
G36*
G01*
X188330000Y-120359999D02*
X188330000Y-121260001D01*
G75*
G02*
X188080001Y-121510000I-249999J0D01*
G01*
X187379999Y-121510000D01*
G75*
G02*
X187130000Y-121260001I0J249999D01*
G01*
X187130000Y-120359999D01*
G75*
G02*
X187379999Y-120110000I249999J0D01*
G01*
X188080001Y-120110000D01*
G75*
G02*
X188330000Y-120359999I0J-249999D01*
G01*
G37*
%TD*%
%TO.C,R28*%
G36*
G01*
X124039999Y-107130000D02*
X124940001Y-107130000D01*
G75*
G02*
X125190000Y-107379999I0J-249999D01*
G01*
X125190000Y-108080001D01*
G75*
G02*
X124940001Y-108330000I-249999J0D01*
G01*
X124039999Y-108330000D01*
G75*
G02*
X123790000Y-108080001I0J249999D01*
G01*
X123790000Y-107379999D01*
G75*
G02*
X124039999Y-107130000I249999J0D01*
G01*
G37*
G36*
G01*
X124039999Y-105130000D02*
X124940001Y-105130000D01*
G75*
G02*
X125190000Y-105379999I0J-249999D01*
G01*
X125190000Y-106080001D01*
G75*
G02*
X124940001Y-106330000I-249999J0D01*
G01*
X124039999Y-106330000D01*
G75*
G02*
X123790000Y-106080001I0J249999D01*
G01*
X123790000Y-105379999D01*
G75*
G02*
X124039999Y-105130000I249999J0D01*
G01*
G37*
%TD*%
%TO.C,R29*%
G36*
G01*
X130000000Y-105149999D02*
X130000000Y-106050001D01*
G75*
G02*
X129750001Y-106300000I-249999J0D01*
G01*
X129049999Y-106300000D01*
G75*
G02*
X128800000Y-106050001I0J249999D01*
G01*
X128800000Y-105149999D01*
G75*
G02*
X129049999Y-104900000I249999J0D01*
G01*
X129750001Y-104900000D01*
G75*
G02*
X130000000Y-105149999I0J-249999D01*
G01*
G37*
G36*
G01*
X128000000Y-105149999D02*
X128000000Y-106050001D01*
G75*
G02*
X127750001Y-106300000I-249999J0D01*
G01*
X127049999Y-106300000D01*
G75*
G02*
X126800000Y-106050001I0J249999D01*
G01*
X126800000Y-105149999D01*
G75*
G02*
X127049999Y-104900000I249999J0D01*
G01*
X127750001Y-104900000D01*
G75*
G02*
X128000000Y-105149999I0J-249999D01*
G01*
G37*
%TD*%
%TO.C,B14*%
G36*
G01*
X125125000Y-110375000D02*
X126075000Y-110375000D01*
G75*
G02*
X126325000Y-110625000I0J-250000D01*
G01*
X126325000Y-111300000D01*
G75*
G02*
X126075000Y-111550000I-250000J0D01*
G01*
X125125000Y-111550000D01*
G75*
G02*
X124875000Y-111300000I0J250000D01*
G01*
X124875000Y-110625000D01*
G75*
G02*
X125125000Y-110375000I250000J0D01*
G01*
G37*
G36*
G01*
X125125000Y-112450000D02*
X126075000Y-112450000D01*
G75*
G02*
X126325000Y-112700000I0J-250000D01*
G01*
X126325000Y-113375000D01*
G75*
G02*
X126075000Y-113625000I-250000J0D01*
G01*
X125125000Y-113625000D01*
G75*
G02*
X124875000Y-113375000I0J250000D01*
G01*
X124875000Y-112700000D01*
G75*
G02*
X125125000Y-112450000I250000J0D01*
G01*
G37*
%TD*%
%TO.C,B18*%
G36*
G01*
X123650000Y-125895000D02*
X123650000Y-124945000D01*
G75*
G02*
X123900000Y-124695000I250000J0D01*
G01*
X124575000Y-124695000D01*
G75*
G02*
X124825000Y-124945000I0J-250000D01*
G01*
X124825000Y-125895000D01*
G75*
G02*
X124575000Y-126145000I-250000J0D01*
G01*
X123900000Y-126145000D01*
G75*
G02*
X123650000Y-125895000I0J250000D01*
G01*
G37*
G36*
G01*
X121575000Y-125895000D02*
X121575000Y-124945000D01*
G75*
G02*
X121825000Y-124695000I250000J0D01*
G01*
X122500000Y-124695000D01*
G75*
G02*
X122750000Y-124945000I0J-250000D01*
G01*
X122750000Y-125895000D01*
G75*
G02*
X122500000Y-126145000I-250000J0D01*
G01*
X121825000Y-126145000D01*
G75*
G02*
X121575000Y-125895000I0J250000D01*
G01*
G37*
%TD*%
%TO.C,B19*%
G36*
G01*
X122065000Y-119395000D02*
X122065000Y-120345000D01*
G75*
G02*
X121815000Y-120595000I-250000J0D01*
G01*
X121140000Y-120595000D01*
G75*
G02*
X120890000Y-120345000I0J250000D01*
G01*
X120890000Y-119395000D01*
G75*
G02*
X121140000Y-119145000I250000J0D01*
G01*
X121815000Y-119145000D01*
G75*
G02*
X122065000Y-119395000I0J-250000D01*
G01*
G37*
G36*
G01*
X119990000Y-119395000D02*
X119990000Y-120345000D01*
G75*
G02*
X119740000Y-120595000I-250000J0D01*
G01*
X119065000Y-120595000D01*
G75*
G02*
X118815000Y-120345000I0J250000D01*
G01*
X118815000Y-119395000D01*
G75*
G02*
X119065000Y-119145000I250000J0D01*
G01*
X119740000Y-119145000D01*
G75*
G02*
X119990000Y-119395000I0J-250000D01*
G01*
G37*
%TD*%
%TO.C,B21*%
G36*
G01*
X111975000Y-94125000D02*
X111975000Y-95075000D01*
G75*
G02*
X111725000Y-95325000I-250000J0D01*
G01*
X111050000Y-95325000D01*
G75*
G02*
X110800000Y-95075000I0J250000D01*
G01*
X110800000Y-94125000D01*
G75*
G02*
X111050000Y-93875000I250000J0D01*
G01*
X111725000Y-93875000D01*
G75*
G02*
X111975000Y-94125000I0J-250000D01*
G01*
G37*
G36*
G01*
X109900000Y-94125000D02*
X109900000Y-95075000D01*
G75*
G02*
X109650000Y-95325000I-250000J0D01*
G01*
X108975000Y-95325000D01*
G75*
G02*
X108725000Y-95075000I0J250000D01*
G01*
X108725000Y-94125000D01*
G75*
G02*
X108975000Y-93875000I250000J0D01*
G01*
X109650000Y-93875000D01*
G75*
G02*
X109900000Y-94125000I0J-250000D01*
G01*
G37*
%TD*%
D13*
%TO.C,D1*%
X140720000Y-88920000D03*
X138220000Y-88920000D03*
%TD*%
%TO.C,R4*%
G36*
G01*
X118670000Y-123239999D02*
X118670000Y-124140001D01*
G75*
G02*
X118420001Y-124390000I-249999J0D01*
G01*
X117719999Y-124390000D01*
G75*
G02*
X117470000Y-124140001I0J249999D01*
G01*
X117470000Y-123239999D01*
G75*
G02*
X117719999Y-122990000I249999J0D01*
G01*
X118420001Y-122990000D01*
G75*
G02*
X118670000Y-123239999I0J-249999D01*
G01*
G37*
G36*
G01*
X120670000Y-123239999D02*
X120670000Y-124140001D01*
G75*
G02*
X120420001Y-124390000I-249999J0D01*
G01*
X119719999Y-124390000D01*
G75*
G02*
X119470000Y-124140001I0J249999D01*
G01*
X119470000Y-123239999D01*
G75*
G02*
X119719999Y-122990000I249999J0D01*
G01*
X120420001Y-122990000D01*
G75*
G02*
X120670000Y-123239999I0J-249999D01*
G01*
G37*
%TD*%
%TO.C,R34*%
G36*
G01*
X121069999Y-114680000D02*
X121970001Y-114680000D01*
G75*
G02*
X122220000Y-114929999I0J-249999D01*
G01*
X122220000Y-115630001D01*
G75*
G02*
X121970001Y-115880000I-249999J0D01*
G01*
X121069999Y-115880000D01*
G75*
G02*
X120820000Y-115630001I0J249999D01*
G01*
X120820000Y-114929999D01*
G75*
G02*
X121069999Y-114680000I249999J0D01*
G01*
G37*
G36*
G01*
X121069999Y-116680000D02*
X121970001Y-116680000D01*
G75*
G02*
X122220000Y-116929999I0J-249999D01*
G01*
X122220000Y-117630001D01*
G75*
G02*
X121970001Y-117880000I-249999J0D01*
G01*
X121069999Y-117880000D01*
G75*
G02*
X120820000Y-117630001I0J249999D01*
G01*
X120820000Y-116929999D01*
G75*
G02*
X121069999Y-116680000I249999J0D01*
G01*
G37*
%TD*%
%TO.C,R35*%
G36*
G01*
X116120000Y-94469999D02*
X116120000Y-95370001D01*
G75*
G02*
X115870001Y-95620000I-249999J0D01*
G01*
X115169999Y-95620000D01*
G75*
G02*
X114920000Y-95370001I0J249999D01*
G01*
X114920000Y-94469999D01*
G75*
G02*
X115169999Y-94220000I249999J0D01*
G01*
X115870001Y-94220000D01*
G75*
G02*
X116120000Y-94469999I0J-249999D01*
G01*
G37*
G36*
G01*
X114120000Y-94469999D02*
X114120000Y-95370001D01*
G75*
G02*
X113870001Y-95620000I-249999J0D01*
G01*
X113169999Y-95620000D01*
G75*
G02*
X112920000Y-95370001I0J249999D01*
G01*
X112920000Y-94469999D01*
G75*
G02*
X113169999Y-94220000I249999J0D01*
G01*
X113870001Y-94220000D01*
G75*
G02*
X114120000Y-94469999I0J-249999D01*
G01*
G37*
%TD*%
%TO.C,U6*%
G36*
G01*
X122090000Y-106890000D02*
X121790000Y-106890000D01*
G75*
G02*
X121640000Y-106740000I0J150000D01*
G01*
X121640000Y-105090000D01*
G75*
G02*
X121790000Y-104940000I150000J0D01*
G01*
X122090000Y-104940000D01*
G75*
G02*
X122240000Y-105090000I0J-150000D01*
G01*
X122240000Y-106740000D01*
G75*
G02*
X122090000Y-106890000I-150000J0D01*
G01*
G37*
G36*
G01*
X120820000Y-106890000D02*
X120520000Y-106890000D01*
G75*
G02*
X120370000Y-106740000I0J150000D01*
G01*
X120370000Y-105090000D01*
G75*
G02*
X120520000Y-104940000I150000J0D01*
G01*
X120820000Y-104940000D01*
G75*
G02*
X120970000Y-105090000I0J-150000D01*
G01*
X120970000Y-106740000D01*
G75*
G02*
X120820000Y-106890000I-150000J0D01*
G01*
G37*
G36*
G01*
X119550000Y-106890000D02*
X119250000Y-106890000D01*
G75*
G02*
X119100000Y-106740000I0J150000D01*
G01*
X119100000Y-105090000D01*
G75*
G02*
X119250000Y-104940000I150000J0D01*
G01*
X119550000Y-104940000D01*
G75*
G02*
X119700000Y-105090000I0J-150000D01*
G01*
X119700000Y-106740000D01*
G75*
G02*
X119550000Y-106890000I-150000J0D01*
G01*
G37*
G36*
G01*
X118280000Y-106890000D02*
X117980000Y-106890000D01*
G75*
G02*
X117830000Y-106740000I0J150000D01*
G01*
X117830000Y-105090000D01*
G75*
G02*
X117980000Y-104940000I150000J0D01*
G01*
X118280000Y-104940000D01*
G75*
G02*
X118430000Y-105090000I0J-150000D01*
G01*
X118430000Y-106740000D01*
G75*
G02*
X118280000Y-106890000I-150000J0D01*
G01*
G37*
G36*
G01*
X117010000Y-106890000D02*
X116710000Y-106890000D01*
G75*
G02*
X116560000Y-106740000I0J150000D01*
G01*
X116560000Y-105090000D01*
G75*
G02*
X116710000Y-104940000I150000J0D01*
G01*
X117010000Y-104940000D01*
G75*
G02*
X117160000Y-105090000I0J-150000D01*
G01*
X117160000Y-106740000D01*
G75*
G02*
X117010000Y-106890000I-150000J0D01*
G01*
G37*
G36*
G01*
X115740000Y-106890000D02*
X115440000Y-106890000D01*
G75*
G02*
X115290000Y-106740000I0J150000D01*
G01*
X115290000Y-105090000D01*
G75*
G02*
X115440000Y-104940000I150000J0D01*
G01*
X115740000Y-104940000D01*
G75*
G02*
X115890000Y-105090000I0J-150000D01*
G01*
X115890000Y-106740000D01*
G75*
G02*
X115740000Y-106890000I-150000J0D01*
G01*
G37*
G36*
G01*
X114470000Y-106890000D02*
X114170000Y-106890000D01*
G75*
G02*
X114020000Y-106740000I0J150000D01*
G01*
X114020000Y-105090000D01*
G75*
G02*
X114170000Y-104940000I150000J0D01*
G01*
X114470000Y-104940000D01*
G75*
G02*
X114620000Y-105090000I0J-150000D01*
G01*
X114620000Y-106740000D01*
G75*
G02*
X114470000Y-106890000I-150000J0D01*
G01*
G37*
G36*
G01*
X114470000Y-101940000D02*
X114170000Y-101940000D01*
G75*
G02*
X114020000Y-101790000I0J150000D01*
G01*
X114020000Y-100140000D01*
G75*
G02*
X114170000Y-99990000I150000J0D01*
G01*
X114470000Y-99990000D01*
G75*
G02*
X114620000Y-100140000I0J-150000D01*
G01*
X114620000Y-101790000D01*
G75*
G02*
X114470000Y-101940000I-150000J0D01*
G01*
G37*
G36*
G01*
X115740000Y-101940000D02*
X115440000Y-101940000D01*
G75*
G02*
X115290000Y-101790000I0J150000D01*
G01*
X115290000Y-100140000D01*
G75*
G02*
X115440000Y-99990000I150000J0D01*
G01*
X115740000Y-99990000D01*
G75*
G02*
X115890000Y-100140000I0J-150000D01*
G01*
X115890000Y-101790000D01*
G75*
G02*
X115740000Y-101940000I-150000J0D01*
G01*
G37*
G36*
G01*
X117010000Y-101940000D02*
X116710000Y-101940000D01*
G75*
G02*
X116560000Y-101790000I0J150000D01*
G01*
X116560000Y-100140000D01*
G75*
G02*
X116710000Y-99990000I150000J0D01*
G01*
X117010000Y-99990000D01*
G75*
G02*
X117160000Y-100140000I0J-150000D01*
G01*
X117160000Y-101790000D01*
G75*
G02*
X117010000Y-101940000I-150000J0D01*
G01*
G37*
G36*
G01*
X118280000Y-101940000D02*
X117980000Y-101940000D01*
G75*
G02*
X117830000Y-101790000I0J150000D01*
G01*
X117830000Y-100140000D01*
G75*
G02*
X117980000Y-99990000I150000J0D01*
G01*
X118280000Y-99990000D01*
G75*
G02*
X118430000Y-100140000I0J-150000D01*
G01*
X118430000Y-101790000D01*
G75*
G02*
X118280000Y-101940000I-150000J0D01*
G01*
G37*
G36*
G01*
X119550000Y-101940000D02*
X119250000Y-101940000D01*
G75*
G02*
X119100000Y-101790000I0J150000D01*
G01*
X119100000Y-100140000D01*
G75*
G02*
X119250000Y-99990000I150000J0D01*
G01*
X119550000Y-99990000D01*
G75*
G02*
X119700000Y-100140000I0J-150000D01*
G01*
X119700000Y-101790000D01*
G75*
G02*
X119550000Y-101940000I-150000J0D01*
G01*
G37*
G36*
G01*
X120820000Y-101940000D02*
X120520000Y-101940000D01*
G75*
G02*
X120370000Y-101790000I0J150000D01*
G01*
X120370000Y-100140000D01*
G75*
G02*
X120520000Y-99990000I150000J0D01*
G01*
X120820000Y-99990000D01*
G75*
G02*
X120970000Y-100140000I0J-150000D01*
G01*
X120970000Y-101790000D01*
G75*
G02*
X120820000Y-101940000I-150000J0D01*
G01*
G37*
G36*
G01*
X122090000Y-101940000D02*
X121790000Y-101940000D01*
G75*
G02*
X121640000Y-101790000I0J150000D01*
G01*
X121640000Y-100140000D01*
G75*
G02*
X121790000Y-99990000I150000J0D01*
G01*
X122090000Y-99990000D01*
G75*
G02*
X122240000Y-100140000I0J-150000D01*
G01*
X122240000Y-101790000D01*
G75*
G02*
X122090000Y-101940000I-150000J0D01*
G01*
G37*
%TD*%
%TO.C,B17*%
G36*
G01*
X163315000Y-99985000D02*
X163315000Y-99035000D01*
G75*
G02*
X163565000Y-98785000I250000J0D01*
G01*
X164240000Y-98785000D01*
G75*
G02*
X164490000Y-99035000I0J-250000D01*
G01*
X164490000Y-99985000D01*
G75*
G02*
X164240000Y-100235000I-250000J0D01*
G01*
X163565000Y-100235000D01*
G75*
G02*
X163315000Y-99985000I0J250000D01*
G01*
G37*
G36*
G01*
X165390000Y-99985000D02*
X165390000Y-99035000D01*
G75*
G02*
X165640000Y-98785000I250000J0D01*
G01*
X166315000Y-98785000D01*
G75*
G02*
X166565000Y-99035000I0J-250000D01*
G01*
X166565000Y-99985000D01*
G75*
G02*
X166315000Y-100235000I-250000J0D01*
G01*
X165640000Y-100235000D01*
G75*
G02*
X165390000Y-99985000I0J250000D01*
G01*
G37*
%TD*%
M02*
