M48
; DRILL file {KiCad 5.1.12-84ad8e8a86~92~ubuntu20.04.1} date Sun 15 May 2022 08:34:44 AM EDT
; FORMAT={3:3/ absolute / metric / keep zeros}
; #@! TF.CreationDate,2022-05-15T08:34:44-04:00
; #@! TF.GenerationSoftware,Kicad,Pcbnew,5.1.12-84ad8e8a86~92~ubuntu20.04.1
FMAT,2
METRIC
T1C0.300
T2C0.400
T3C0.500
T4C0.700
T5C0.800
T6C1.000
T7C1.020
T8C3.200
%
G90
G05
T1
X127600Y-110450
X128175Y-089000
X128650Y-110450
X131900Y-107750
X132575Y-123575
X139650Y-090275
X150000Y-109625
X150000Y-113500
X150100Y-103650
X150175Y-098800
X150250Y-095125
X162600Y-100800
X164700Y-101875
X164750Y-105775
X164775Y-104450
X164850Y-103150
X165025Y-101225
X165325Y-103800
X165325Y-105150
X165375Y-102550
X165500Y-112300
X165500Y-114900
X165649Y-113297
X166300Y-111700
X169250Y-115625
X169475Y-113675
X169750Y-116275
T2
X105310Y-129750
X112100Y-121400
X113570Y-093040
X116500Y-093500
X116900Y-125500
X119200Y-089300
X119650Y-129650
X122200Y-123800
X122300Y-122500
X125000Y-123500
X126110Y-118640
X127350Y-102960
X127890Y-096930
X128080Y-098640
X128875Y-124975
X129770Y-110570
X134125Y-129950
X139040Y-106780
X139760Y-097470
X140060Y-102250
X142800Y-089800
X152630Y-104310
X162400Y-101900
X162400Y-103200
X162400Y-104500
X164720Y-109510
X164950Y-116125
X168700Y-118300
X169161Y-114356
X175050Y-102925
X175900Y-109180
X185380Y-109190
X185780Y-118710
T3
X107000Y-092400
X114130Y-121870
X116300Y-120300
X122230Y-121440
X125940Y-114760
X128240Y-120670
X140300Y-111300
T4
X105540Y-124330
X107420Y-114570
X107800Y-097000
X109190Y-118300
X110490Y-097000
X126280Y-090380
X129800Y-119300
X129930Y-096950
X130000Y-092720
X143200Y-123970
X145470Y-089420
X151400Y-110900
X158250Y-123770
X160660Y-097290
X162620Y-090320
X163330Y-097290
X165500Y-090340
X166000Y-092800
X168100Y-108900
X168170Y-090360
X168690Y-127500
X168800Y-092800
X168830Y-100050
X168950Y-105570
T5
X110080Y-130510
X112620Y-130510
X115160Y-130510
X124080Y-130510
X126620Y-130510
X129160Y-130510
T6
X107540Y-083720
X107540Y-086260
X107950Y-100330
X107950Y-102870
X107950Y-105410
X107950Y-107950
X107950Y-110490
X110080Y-083720
X110080Y-086260
X112620Y-083720
X112620Y-086260
X115160Y-083720
X115160Y-086260
X117700Y-083720
X117700Y-086260
X120240Y-083720
X120240Y-086260
X122780Y-083720
X122780Y-086260
X125320Y-083720
X125320Y-086260
X127860Y-083720
X127860Y-086260
X130400Y-083720
X130400Y-086260
X130810Y-100330
X130810Y-102870
X132940Y-083720
X132940Y-086260
X135480Y-083720
X135480Y-086260
X135890Y-095250
X135890Y-097790
X135890Y-100330
X135890Y-102870
X135890Y-105410
X135890Y-110490
X135890Y-113030
X137020Y-116930
X138020Y-083720
X138020Y-086260
X139560Y-116930
X140560Y-083720
X140560Y-086260
X142100Y-116930
X143100Y-083720
X143100Y-086260
X144640Y-116930
X145640Y-083720
X145640Y-086260
X145800Y-121600
X147180Y-116930
X147185Y-124440
X148180Y-083720
X148180Y-086260
X148570Y-121600
X149720Y-116930
X149955Y-124440
X150720Y-083720
X150720Y-086260
X151340Y-121600
X152260Y-116930
X152725Y-124440
X153260Y-083720
X153260Y-086260
X154110Y-121600
X154200Y-093700
X154200Y-096240
X154200Y-098780
X154200Y-101320
X154800Y-116930
X154940Y-105410
X154940Y-107950
X154940Y-110490
X154940Y-113030
X155495Y-124440
X155800Y-083720
X155800Y-086260
X156740Y-093700
X156740Y-096240
X156740Y-098780
X156740Y-101320
X156880Y-121600
X157340Y-116930
X157480Y-105410
X157480Y-107950
X157480Y-110490
X157480Y-113030
X158340Y-083720
X158340Y-086260
X160880Y-083720
X160880Y-086260
X163420Y-083720
X163420Y-086260
X165960Y-083720
X165960Y-086260
X168500Y-083720
X168500Y-086260
T7
X173110Y-085270
X173110Y-087810
X173110Y-090350
X173110Y-092890
X173110Y-095430
X173110Y-097970
X173110Y-100510
X173110Y-103050
X173110Y-105590
X173110Y-108130
X173110Y-110670
X173110Y-113210
X173110Y-115750
X173110Y-118290
X173110Y-120830
X173110Y-123370
X173110Y-125910
X173110Y-128450
X173110Y-130990
X173110Y-133530
X179460Y-085500
X182000Y-085500
X184540Y-085500
X190890Y-085270
X190890Y-087810
X190890Y-090350
X190890Y-092890
X190890Y-095430
X190890Y-097970
X190890Y-100510
X190890Y-103050
X190890Y-105590
X190890Y-108130
X190890Y-110670
X190890Y-113210
X190890Y-115750
X190890Y-118290
X190890Y-120830
X190890Y-123370
X190890Y-125910
X190890Y-128450
X190890Y-130990
X190890Y-133530
T8
X138840Y-123020
X163840Y-123020
T0
M30
