G04 #@! TF.GenerationSoftware,KiCad,Pcbnew,6.0.2+dfsg-1*
G04 #@! TF.CreationDate,2023-03-30T12:38:24-04:00*
G04 #@! TF.ProjectId,HL2IOBoard,484c3249-4f42-46f6-9172-642e6b696361,E*
G04 #@! TF.SameCoordinates,Original*
G04 #@! TF.FileFunction,Soldermask,Bot*
G04 #@! TF.FilePolarity,Negative*
%FSLAX46Y46*%
G04 Gerber Fmt 4.6, Leading zero omitted, Abs format (unit mm)*
G04 Created by KiCad (PCBNEW 6.0.2+dfsg-1) date 2023-03-30 12:38:24*
%MOMM*%
%LPD*%
G01*
G04 APERTURE LIST*
G04 Aperture macros list*
%AMRoundRect*
0 Rectangle with rounded corners*
0 $1 Rounding radius*
0 $2 $3 $4 $5 $6 $7 $8 $9 X,Y pos of 4 corners*
0 Add a 4 corners polygon primitive as box body*
4,1,4,$2,$3,$4,$5,$6,$7,$8,$9,$2,$3,0*
0 Add four circle primitives for the rounded corners*
1,1,$1+$1,$2,$3*
1,1,$1+$1,$4,$5*
1,1,$1+$1,$6,$7*
1,1,$1+$1,$8,$9*
0 Add four rect primitives between the rounded corners*
20,1,$1+$1,$2,$3,$4,$5,0*
20,1,$1+$1,$4,$5,$6,$7,0*
20,1,$1+$1,$6,$7,$8,$9,0*
20,1,$1+$1,$8,$9,$2,$3,0*%
%AMFreePoly0*
4,1,9,5.362500,-0.866500,1.237500,-0.866500,1.237500,-0.450000,-1.237500,-0.450000,-1.237500,0.450000,1.237500,0.450000,1.237500,0.866500,5.362500,0.866500,5.362500,-0.866500,5.362500,-0.866500,$1*%
%AMFreePoly1*
4,1,9,3.862500,-0.866500,0.737500,-0.866500,0.737500,-0.450000,-0.737500,-0.450000,-0.737500,0.450000,0.737500,0.450000,0.737500,0.866500,3.862500,0.866500,3.862500,-0.866500,3.862500,-0.866500,$1*%
G04 Aperture macros list end*
%ADD10R,1.600000X5.200000*%
%ADD11R,4.400000X5.200000*%
%ADD12C,4.000000*%
%ADD13R,1.600000X1.600000*%
%ADD14C,1.600000*%
%ADD15R,1.700000X1.700000*%
%ADD16O,1.700000X1.700000*%
%ADD17C,1.500000*%
%ADD18RoundRect,0.250000X-0.475000X0.337500X-0.475000X-0.337500X0.475000X-0.337500X0.475000X0.337500X0*%
%ADD19RoundRect,0.250000X0.337500X0.475000X-0.337500X0.475000X-0.337500X-0.475000X0.337500X-0.475000X0*%
%ADD20RoundRect,0.250000X0.475000X-0.337500X0.475000X0.337500X-0.475000X0.337500X-0.475000X-0.337500X0*%
%ADD21R,0.900000X0.800000*%
%ADD22R,2.300000X0.900000*%
%ADD23FreePoly0,0.000000*%
%ADD24RoundRect,0.250000X-0.450000X0.350000X-0.450000X-0.350000X0.450000X-0.350000X0.450000X0.350000X0*%
%ADD25RoundRect,0.250000X0.450000X-0.350000X0.450000X0.350000X-0.450000X0.350000X-0.450000X-0.350000X0*%
%ADD26RoundRect,0.250000X0.350000X0.450000X-0.350000X0.450000X-0.350000X-0.450000X0.350000X-0.450000X0*%
%ADD27RoundRect,0.250000X-0.350000X-0.450000X0.350000X-0.450000X0.350000X0.450000X-0.350000X0.450000X0*%
%ADD28R,1.000000X1.000000*%
%ADD29RoundRect,0.250000X-0.337500X-0.475000X0.337500X-0.475000X0.337500X0.475000X-0.337500X0.475000X0*%
%ADD30RoundRect,0.150000X0.150000X-0.825000X0.150000X0.825000X-0.150000X0.825000X-0.150000X-0.825000X0*%
%ADD31R,1.500000X0.400000*%
%ADD32R,0.900000X1.300000*%
%ADD33FreePoly1,270.000000*%
G04 APERTURE END LIST*
D10*
X126620000Y-130510000D03*
D11*
X122820000Y-130510000D03*
X130420000Y-130510000D03*
D10*
X112620000Y-130510000D03*
D11*
X108820000Y-130510000D03*
X116420000Y-130510000D03*
D12*
X138840000Y-123020000D03*
X163840000Y-123020000D03*
D13*
X145800000Y-121600000D03*
D14*
X148570000Y-121600000D03*
X151340000Y-121600000D03*
X154110000Y-121600000D03*
X156880000Y-121600000D03*
X147185000Y-124440000D03*
X149955000Y-124440000D03*
X152725000Y-124440000D03*
X155495000Y-124440000D03*
D15*
X149860000Y-104140000D03*
D16*
X152400000Y-104140000D03*
X149860000Y-106680000D03*
X152400000Y-106680000D03*
X149860000Y-109220000D03*
X152400000Y-109220000D03*
X149860000Y-111760000D03*
X152400000Y-111760000D03*
D15*
X149860000Y-93980000D03*
D16*
X152400000Y-93980000D03*
X149860000Y-96520000D03*
X152400000Y-96520000D03*
X149860000Y-99060000D03*
X152400000Y-99060000D03*
X149860000Y-101600000D03*
X152400000Y-101600000D03*
D15*
X135890000Y-95250000D03*
D16*
X135890000Y-97790000D03*
X135890000Y-100330000D03*
X135890000Y-102870000D03*
X135890000Y-105410000D03*
D15*
X130810000Y-100330000D03*
D16*
X130810000Y-102870000D03*
X190890000Y-133530000D03*
X190890000Y-130990000D03*
D15*
X190890000Y-128450000D03*
D16*
X190890000Y-125910000D03*
X190890000Y-123370000D03*
X190890000Y-120830000D03*
X190890000Y-118290000D03*
D15*
X190890000Y-115750000D03*
D16*
X190890000Y-113210000D03*
X190890000Y-110670000D03*
X190890000Y-108130000D03*
X190890000Y-105590000D03*
D15*
X190890000Y-103050000D03*
D16*
X190890000Y-100510000D03*
X190890000Y-97970000D03*
X190890000Y-95430000D03*
X190890000Y-92890000D03*
D15*
X190890000Y-90350000D03*
D16*
X190890000Y-87810000D03*
X190890000Y-85270000D03*
X173110000Y-85270000D03*
X173110000Y-87810000D03*
D15*
X173110000Y-90350000D03*
D16*
X173110000Y-92890000D03*
X173110000Y-95430000D03*
X173110000Y-97970000D03*
X173110000Y-100510000D03*
D15*
X173110000Y-103050000D03*
D16*
X173110000Y-105590000D03*
X173110000Y-108130000D03*
X173110000Y-110670000D03*
X173110000Y-113210000D03*
D15*
X173110000Y-115750000D03*
D16*
X173110000Y-118290000D03*
X173110000Y-120830000D03*
X173110000Y-123370000D03*
X173110000Y-125910000D03*
D15*
X173110000Y-128450000D03*
D16*
X173110000Y-130990000D03*
X173110000Y-133530000D03*
X184540000Y-85500000D03*
D15*
X182000000Y-85500000D03*
D16*
X179460000Y-85500000D03*
D15*
X107540000Y-86260000D03*
D16*
X107540000Y-83720000D03*
X110080000Y-86260000D03*
X110080000Y-83720000D03*
X112620000Y-86260000D03*
X112620000Y-83720000D03*
X115160000Y-86260000D03*
X115160000Y-83720000D03*
X117700000Y-86260000D03*
X117700000Y-83720000D03*
X120240000Y-86260000D03*
X120240000Y-83720000D03*
X122780000Y-86260000D03*
X122780000Y-83720000D03*
X125320000Y-86260000D03*
X125320000Y-83720000D03*
X127860000Y-86260000D03*
X127860000Y-83720000D03*
X130400000Y-86260000D03*
X130400000Y-83720000D03*
X132940000Y-86260000D03*
X132940000Y-83720000D03*
X135480000Y-86260000D03*
X135480000Y-83720000D03*
X138020000Y-86260000D03*
X138020000Y-83720000D03*
X140560000Y-86260000D03*
X140560000Y-83720000D03*
X143100000Y-86260000D03*
X143100000Y-83720000D03*
X145640000Y-86260000D03*
X145640000Y-83720000D03*
X148180000Y-86260000D03*
X148180000Y-83720000D03*
X150720000Y-86260000D03*
X150720000Y-83720000D03*
X153260000Y-86260000D03*
X153260000Y-83720000D03*
X155800000Y-86260000D03*
X155800000Y-83720000D03*
X158340000Y-86260000D03*
X158340000Y-83720000D03*
X160880000Y-86260000D03*
X160880000Y-83720000D03*
X163420000Y-86260000D03*
X163420000Y-83720000D03*
X165960000Y-86260000D03*
X165960000Y-83720000D03*
X168500000Y-86260000D03*
X168500000Y-83720000D03*
D15*
X107950000Y-100330000D03*
D16*
X107950000Y-102870000D03*
X107950000Y-105410000D03*
X107950000Y-107950000D03*
X107950000Y-110490000D03*
D15*
X135890000Y-110490000D03*
D16*
X135890000Y-113030000D03*
D17*
X168690000Y-127500000D03*
X126280000Y-90380000D03*
X105540000Y-124330000D03*
D15*
X137020000Y-116930000D03*
D16*
X139560000Y-116930000D03*
X142100000Y-116930000D03*
X144640000Y-116930000D03*
X147180000Y-116930000D03*
X149720000Y-116930000D03*
X152260000Y-116930000D03*
X154800000Y-116930000D03*
X157340000Y-116930000D03*
D17*
X168100000Y-108900000D03*
X129800000Y-119300000D03*
X107420000Y-114570000D03*
X107800000Y-97000000D03*
X129930000Y-96950000D03*
X109190000Y-118300000D03*
X110490000Y-97000000D03*
X168170000Y-90360000D03*
X165500000Y-90340000D03*
X162620000Y-90320000D03*
X130000000Y-92720000D03*
X145470000Y-89420000D03*
X168830000Y-100050000D03*
X168950000Y-105570000D03*
X155870000Y-93410000D03*
X158730000Y-93440000D03*
X166000000Y-92800000D03*
X168800000Y-92800000D03*
D18*
X176625000Y-84262500D03*
X176625000Y-86337500D03*
D19*
X179637500Y-111900000D03*
X177562500Y-111900000D03*
D20*
X132690000Y-95127500D03*
X132690000Y-93052500D03*
D19*
X160207500Y-89010000D03*
X158132500Y-89010000D03*
D21*
X176940000Y-120260000D03*
X176940000Y-118360000D03*
X178940000Y-119310000D03*
D22*
X177550000Y-91900000D03*
D23*
X177637500Y-90400000D03*
D22*
X177550000Y-88900000D03*
D24*
X136200000Y-88800000D03*
X136200000Y-90800000D03*
D20*
X160875000Y-111887500D03*
X160875000Y-109812500D03*
D25*
X163150000Y-117475000D03*
X163150000Y-115475000D03*
D21*
X178800000Y-105750000D03*
X178800000Y-107650000D03*
X176800000Y-106700000D03*
X179600000Y-102350000D03*
X179600000Y-100450000D03*
X181600000Y-101400000D03*
D25*
X176800000Y-102500000D03*
X176800000Y-100500000D03*
X181500000Y-107700000D03*
X181500000Y-105700000D03*
D26*
X144040000Y-110930000D03*
X142040000Y-110930000D03*
D27*
X141990000Y-113410000D03*
X143990000Y-113410000D03*
D26*
X144000000Y-106000000D03*
X142000000Y-106000000D03*
X144000000Y-101000000D03*
X142000000Y-101000000D03*
X144000000Y-96500000D03*
X142000000Y-96500000D03*
D27*
X142020000Y-108450000D03*
X144020000Y-108450000D03*
X142000000Y-103500000D03*
X144000000Y-103500000D03*
X142000000Y-98800000D03*
X144000000Y-98800000D03*
D28*
X165750000Y-131000000D03*
X163250000Y-131000000D03*
D26*
X144000000Y-91900000D03*
X142000000Y-91900000D03*
D27*
X142000000Y-94110000D03*
X144000000Y-94110000D03*
X161450000Y-93000000D03*
X163450000Y-93000000D03*
X161450000Y-95300000D03*
X163450000Y-95300000D03*
D18*
X138600000Y-111262500D03*
X138600000Y-113337500D03*
D29*
X158032500Y-130950000D03*
X160107500Y-130950000D03*
D24*
X166000000Y-95000000D03*
X166000000Y-97000000D03*
X168800000Y-95000000D03*
X168800000Y-97000000D03*
D30*
X188405000Y-95975000D03*
X187135000Y-95975000D03*
X185865000Y-95975000D03*
X184595000Y-95975000D03*
X184595000Y-91025000D03*
X185865000Y-91025000D03*
X187135000Y-91025000D03*
X188405000Y-91025000D03*
D18*
X120040000Y-92170000D03*
X120040000Y-94245000D03*
D27*
X131470000Y-117620000D03*
X133470000Y-117620000D03*
D25*
X187540000Y-109180000D03*
X187540000Y-107180000D03*
D31*
X127270000Y-109050000D03*
X127270000Y-108400000D03*
X127270000Y-107750000D03*
X129930000Y-107750000D03*
X129930000Y-109050000D03*
D32*
X128270000Y-111970000D03*
D33*
X129770000Y-112057500D03*
D32*
X131270000Y-111970000D03*
D20*
X185760000Y-117007500D03*
X185760000Y-114932500D03*
D24*
X124490000Y-105730000D03*
X124490000Y-107730000D03*
D26*
X129400000Y-105600000D03*
X127400000Y-105600000D03*
X187730000Y-120810000D03*
X185730000Y-120810000D03*
D18*
X125600000Y-110962500D03*
X125600000Y-113037500D03*
D29*
X122162500Y-125420000D03*
X124237500Y-125420000D03*
D19*
X121477500Y-119870000D03*
X119402500Y-119870000D03*
X111387500Y-94600000D03*
X109312500Y-94600000D03*
D28*
X140720000Y-88920000D03*
X138220000Y-88920000D03*
D26*
X120070000Y-123690000D03*
X118070000Y-123690000D03*
D24*
X121520000Y-115280000D03*
X121520000Y-117280000D03*
D26*
X115520000Y-94920000D03*
X113520000Y-94920000D03*
D30*
X121940000Y-105915000D03*
X120670000Y-105915000D03*
X119400000Y-105915000D03*
X118130000Y-105915000D03*
X116860000Y-105915000D03*
X115590000Y-105915000D03*
X114320000Y-105915000D03*
X114320000Y-100965000D03*
X115590000Y-100965000D03*
X116860000Y-100965000D03*
X118130000Y-100965000D03*
X119400000Y-100965000D03*
X120670000Y-100965000D03*
X121940000Y-100965000D03*
D29*
X163902500Y-99510000D03*
X165977500Y-99510000D03*
M02*
