%TF.GenerationSoftware,KiCad,Pcbnew,5.1.12-84ad8e8a86~92~ubuntu20.04.1*%
%TF.CreationDate,2022-05-15T08:31:46-04:00*%
%TF.ProjectId,HL2IOBoard,484c3249-4f42-46f6-9172-642e6b696361,D*%
%TF.SameCoordinates,Original*%
%TF.FileFunction,Paste,Top*%
%TF.FilePolarity,Positive*%
%FSLAX46Y46*%
G04 Gerber Fmt 4.6, Leading zero omitted, Abs format (unit mm)*
G04 Created by KiCad (PCBNEW 5.1.12-84ad8e8a86~92~ubuntu20.04.1) date 2022-05-15 08:31:46*
%MOMM*%
%LPD*%
G01*
G04 APERTURE LIST*
%ADD10R,1.475000X0.400000*%
%ADD11R,0.900000X0.800000*%
%ADD12R,0.650000X1.560000*%
%ADD13R,1.560000X0.650000*%
%ADD14R,0.800000X0.900000*%
%ADD15R,1.000000X1.000000*%
G04 APERTURE END LIST*
D10*
%TO.C,U8*%
X160938000Y-100600000D03*
X160938000Y-101250000D03*
X160938000Y-101900000D03*
X160938000Y-102550000D03*
X160938000Y-103200000D03*
X160938000Y-103850000D03*
X160938000Y-104500000D03*
X160938000Y-105150000D03*
X160938000Y-105800000D03*
X166662000Y-100600000D03*
X166662000Y-101250000D03*
X166662000Y-101900000D03*
X166662000Y-102550000D03*
X166662000Y-103200000D03*
X166662000Y-103850000D03*
X166662000Y-104500000D03*
X166662000Y-105150000D03*
X166662000Y-105800000D03*
%TD*%
%TO.C,B20*%
G36*
G01*
X123150000Y-90945000D02*
X123150000Y-89995000D01*
G75*
G02*
X123400000Y-89745000I250000J0D01*
G01*
X124075000Y-89745000D01*
G75*
G02*
X124325000Y-89995000I0J-250000D01*
G01*
X124325000Y-90945000D01*
G75*
G02*
X124075000Y-91195000I-250000J0D01*
G01*
X123400000Y-91195000D01*
G75*
G02*
X123150000Y-90945000I0J250000D01*
G01*
G37*
G36*
G01*
X121075000Y-90945000D02*
X121075000Y-89995000D01*
G75*
G02*
X121325000Y-89745000I250000J0D01*
G01*
X122000000Y-89745000D01*
G75*
G02*
X122250000Y-89995000I0J-250000D01*
G01*
X122250000Y-90945000D01*
G75*
G02*
X122000000Y-91195000I-250000J0D01*
G01*
X121325000Y-91195000D01*
G75*
G02*
X121075000Y-90945000I0J250000D01*
G01*
G37*
%TD*%
%TO.C,U7*%
G36*
G01*
X162875000Y-116825000D02*
X162875000Y-117025000D01*
G75*
G02*
X162775000Y-117125000I-100000J0D01*
G01*
X161500000Y-117125000D01*
G75*
G02*
X161400000Y-117025000I0J100000D01*
G01*
X161400000Y-116825000D01*
G75*
G02*
X161500000Y-116725000I100000J0D01*
G01*
X162775000Y-116725000D01*
G75*
G02*
X162875000Y-116825000I0J-100000D01*
G01*
G37*
G36*
G01*
X162875000Y-116175000D02*
X162875000Y-116375000D01*
G75*
G02*
X162775000Y-116475000I-100000J0D01*
G01*
X161500000Y-116475000D01*
G75*
G02*
X161400000Y-116375000I0J100000D01*
G01*
X161400000Y-116175000D01*
G75*
G02*
X161500000Y-116075000I100000J0D01*
G01*
X162775000Y-116075000D01*
G75*
G02*
X162875000Y-116175000I0J-100000D01*
G01*
G37*
G36*
G01*
X162875000Y-115525000D02*
X162875000Y-115725000D01*
G75*
G02*
X162775000Y-115825000I-100000J0D01*
G01*
X161500000Y-115825000D01*
G75*
G02*
X161400000Y-115725000I0J100000D01*
G01*
X161400000Y-115525000D01*
G75*
G02*
X161500000Y-115425000I100000J0D01*
G01*
X162775000Y-115425000D01*
G75*
G02*
X162875000Y-115525000I0J-100000D01*
G01*
G37*
G36*
G01*
X162875000Y-114875000D02*
X162875000Y-115075000D01*
G75*
G02*
X162775000Y-115175000I-100000J0D01*
G01*
X161500000Y-115175000D01*
G75*
G02*
X161400000Y-115075000I0J100000D01*
G01*
X161400000Y-114875000D01*
G75*
G02*
X161500000Y-114775000I100000J0D01*
G01*
X162775000Y-114775000D01*
G75*
G02*
X162875000Y-114875000I0J-100000D01*
G01*
G37*
G36*
G01*
X162875000Y-114225000D02*
X162875000Y-114425000D01*
G75*
G02*
X162775000Y-114525000I-100000J0D01*
G01*
X161500000Y-114525000D01*
G75*
G02*
X161400000Y-114425000I0J100000D01*
G01*
X161400000Y-114225000D01*
G75*
G02*
X161500000Y-114125000I100000J0D01*
G01*
X162775000Y-114125000D01*
G75*
G02*
X162875000Y-114225000I0J-100000D01*
G01*
G37*
G36*
G01*
X162875000Y-113575000D02*
X162875000Y-113775000D01*
G75*
G02*
X162775000Y-113875000I-100000J0D01*
G01*
X161500000Y-113875000D01*
G75*
G02*
X161400000Y-113775000I0J100000D01*
G01*
X161400000Y-113575000D01*
G75*
G02*
X161500000Y-113475000I100000J0D01*
G01*
X162775000Y-113475000D01*
G75*
G02*
X162875000Y-113575000I0J-100000D01*
G01*
G37*
G36*
G01*
X162875000Y-112925000D02*
X162875000Y-113125000D01*
G75*
G02*
X162775000Y-113225000I-100000J0D01*
G01*
X161500000Y-113225000D01*
G75*
G02*
X161400000Y-113125000I0J100000D01*
G01*
X161400000Y-112925000D01*
G75*
G02*
X161500000Y-112825000I100000J0D01*
G01*
X162775000Y-112825000D01*
G75*
G02*
X162875000Y-112925000I0J-100000D01*
G01*
G37*
G36*
G01*
X162875000Y-112275000D02*
X162875000Y-112475000D01*
G75*
G02*
X162775000Y-112575000I-100000J0D01*
G01*
X161500000Y-112575000D01*
G75*
G02*
X161400000Y-112475000I0J100000D01*
G01*
X161400000Y-112275000D01*
G75*
G02*
X161500000Y-112175000I100000J0D01*
G01*
X162775000Y-112175000D01*
G75*
G02*
X162875000Y-112275000I0J-100000D01*
G01*
G37*
G36*
G01*
X162875000Y-111625000D02*
X162875000Y-111825000D01*
G75*
G02*
X162775000Y-111925000I-100000J0D01*
G01*
X161500000Y-111925000D01*
G75*
G02*
X161400000Y-111825000I0J100000D01*
G01*
X161400000Y-111625000D01*
G75*
G02*
X161500000Y-111525000I100000J0D01*
G01*
X162775000Y-111525000D01*
G75*
G02*
X162875000Y-111625000I0J-100000D01*
G01*
G37*
G36*
G01*
X162875000Y-110975000D02*
X162875000Y-111175000D01*
G75*
G02*
X162775000Y-111275000I-100000J0D01*
G01*
X161500000Y-111275000D01*
G75*
G02*
X161400000Y-111175000I0J100000D01*
G01*
X161400000Y-110975000D01*
G75*
G02*
X161500000Y-110875000I100000J0D01*
G01*
X162775000Y-110875000D01*
G75*
G02*
X162875000Y-110975000I0J-100000D01*
G01*
G37*
G36*
G01*
X168600000Y-110975000D02*
X168600000Y-111175000D01*
G75*
G02*
X168500000Y-111275000I-100000J0D01*
G01*
X167225000Y-111275000D01*
G75*
G02*
X167125000Y-111175000I0J100000D01*
G01*
X167125000Y-110975000D01*
G75*
G02*
X167225000Y-110875000I100000J0D01*
G01*
X168500000Y-110875000D01*
G75*
G02*
X168600000Y-110975000I0J-100000D01*
G01*
G37*
G36*
G01*
X168600000Y-111625000D02*
X168600000Y-111825000D01*
G75*
G02*
X168500000Y-111925000I-100000J0D01*
G01*
X167225000Y-111925000D01*
G75*
G02*
X167125000Y-111825000I0J100000D01*
G01*
X167125000Y-111625000D01*
G75*
G02*
X167225000Y-111525000I100000J0D01*
G01*
X168500000Y-111525000D01*
G75*
G02*
X168600000Y-111625000I0J-100000D01*
G01*
G37*
G36*
G01*
X168600000Y-112275000D02*
X168600000Y-112475000D01*
G75*
G02*
X168500000Y-112575000I-100000J0D01*
G01*
X167225000Y-112575000D01*
G75*
G02*
X167125000Y-112475000I0J100000D01*
G01*
X167125000Y-112275000D01*
G75*
G02*
X167225000Y-112175000I100000J0D01*
G01*
X168500000Y-112175000D01*
G75*
G02*
X168600000Y-112275000I0J-100000D01*
G01*
G37*
G36*
G01*
X168600000Y-112925000D02*
X168600000Y-113125000D01*
G75*
G02*
X168500000Y-113225000I-100000J0D01*
G01*
X167225000Y-113225000D01*
G75*
G02*
X167125000Y-113125000I0J100000D01*
G01*
X167125000Y-112925000D01*
G75*
G02*
X167225000Y-112825000I100000J0D01*
G01*
X168500000Y-112825000D01*
G75*
G02*
X168600000Y-112925000I0J-100000D01*
G01*
G37*
G36*
G01*
X168600000Y-113575000D02*
X168600000Y-113775000D01*
G75*
G02*
X168500000Y-113875000I-100000J0D01*
G01*
X167225000Y-113875000D01*
G75*
G02*
X167125000Y-113775000I0J100000D01*
G01*
X167125000Y-113575000D01*
G75*
G02*
X167225000Y-113475000I100000J0D01*
G01*
X168500000Y-113475000D01*
G75*
G02*
X168600000Y-113575000I0J-100000D01*
G01*
G37*
G36*
G01*
X168600000Y-114225000D02*
X168600000Y-114425000D01*
G75*
G02*
X168500000Y-114525000I-100000J0D01*
G01*
X167225000Y-114525000D01*
G75*
G02*
X167125000Y-114425000I0J100000D01*
G01*
X167125000Y-114225000D01*
G75*
G02*
X167225000Y-114125000I100000J0D01*
G01*
X168500000Y-114125000D01*
G75*
G02*
X168600000Y-114225000I0J-100000D01*
G01*
G37*
G36*
G01*
X168600000Y-114875000D02*
X168600000Y-115075000D01*
G75*
G02*
X168500000Y-115175000I-100000J0D01*
G01*
X167225000Y-115175000D01*
G75*
G02*
X167125000Y-115075000I0J100000D01*
G01*
X167125000Y-114875000D01*
G75*
G02*
X167225000Y-114775000I100000J0D01*
G01*
X168500000Y-114775000D01*
G75*
G02*
X168600000Y-114875000I0J-100000D01*
G01*
G37*
G36*
G01*
X168600000Y-115525000D02*
X168600000Y-115725000D01*
G75*
G02*
X168500000Y-115825000I-100000J0D01*
G01*
X167225000Y-115825000D01*
G75*
G02*
X167125000Y-115725000I0J100000D01*
G01*
X167125000Y-115525000D01*
G75*
G02*
X167225000Y-115425000I100000J0D01*
G01*
X168500000Y-115425000D01*
G75*
G02*
X168600000Y-115525000I0J-100000D01*
G01*
G37*
G36*
G01*
X168600000Y-116175000D02*
X168600000Y-116375000D01*
G75*
G02*
X168500000Y-116475000I-100000J0D01*
G01*
X167225000Y-116475000D01*
G75*
G02*
X167125000Y-116375000I0J100000D01*
G01*
X167125000Y-116175000D01*
G75*
G02*
X167225000Y-116075000I100000J0D01*
G01*
X168500000Y-116075000D01*
G75*
G02*
X168600000Y-116175000I0J-100000D01*
G01*
G37*
G36*
G01*
X168600000Y-116825000D02*
X168600000Y-117025000D01*
G75*
G02*
X168500000Y-117125000I-100000J0D01*
G01*
X167225000Y-117125000D01*
G75*
G02*
X167125000Y-117025000I0J100000D01*
G01*
X167125000Y-116825000D01*
G75*
G02*
X167225000Y-116725000I100000J0D01*
G01*
X168500000Y-116725000D01*
G75*
G02*
X168600000Y-116825000I0J-100000D01*
G01*
G37*
%TD*%
%TO.C,C1*%
G36*
G01*
X122175000Y-117075000D02*
X122175000Y-116125000D01*
G75*
G02*
X122425000Y-115875000I250000J0D01*
G01*
X123100000Y-115875000D01*
G75*
G02*
X123350000Y-116125000I0J-250000D01*
G01*
X123350000Y-117075000D01*
G75*
G02*
X123100000Y-117325000I-250000J0D01*
G01*
X122425000Y-117325000D01*
G75*
G02*
X122175000Y-117075000I0J250000D01*
G01*
G37*
G36*
G01*
X124250000Y-117075000D02*
X124250000Y-116125000D01*
G75*
G02*
X124500000Y-115875000I250000J0D01*
G01*
X125175000Y-115875000D01*
G75*
G02*
X125425000Y-116125000I0J-250000D01*
G01*
X125425000Y-117075000D01*
G75*
G02*
X125175000Y-117325000I-250000J0D01*
G01*
X124500000Y-117325000D01*
G75*
G02*
X124250000Y-117075000I0J250000D01*
G01*
G37*
%TD*%
%TO.C,C2*%
G36*
G01*
X119450000Y-117075000D02*
X119450000Y-116125000D01*
G75*
G02*
X119700000Y-115875000I250000J0D01*
G01*
X120375000Y-115875000D01*
G75*
G02*
X120625000Y-116125000I0J-250000D01*
G01*
X120625000Y-117075000D01*
G75*
G02*
X120375000Y-117325000I-250000J0D01*
G01*
X119700000Y-117325000D01*
G75*
G02*
X119450000Y-117075000I0J250000D01*
G01*
G37*
G36*
G01*
X117375000Y-117075000D02*
X117375000Y-116125000D01*
G75*
G02*
X117625000Y-115875000I250000J0D01*
G01*
X118300000Y-115875000D01*
G75*
G02*
X118550000Y-116125000I0J-250000D01*
G01*
X118550000Y-117075000D01*
G75*
G02*
X118300000Y-117325000I-250000J0D01*
G01*
X117625000Y-117325000D01*
G75*
G02*
X117375000Y-117075000I0J250000D01*
G01*
G37*
%TD*%
%TO.C,C3*%
G36*
G01*
X112975000Y-117075000D02*
X112975000Y-116125000D01*
G75*
G02*
X113225000Y-115875000I250000J0D01*
G01*
X113900000Y-115875000D01*
G75*
G02*
X114150000Y-116125000I0J-250000D01*
G01*
X114150000Y-117075000D01*
G75*
G02*
X113900000Y-117325000I-250000J0D01*
G01*
X113225000Y-117325000D01*
G75*
G02*
X112975000Y-117075000I0J250000D01*
G01*
G37*
G36*
G01*
X115050000Y-117075000D02*
X115050000Y-116125000D01*
G75*
G02*
X115300000Y-115875000I250000J0D01*
G01*
X115975000Y-115875000D01*
G75*
G02*
X116225000Y-116125000I0J-250000D01*
G01*
X116225000Y-117075000D01*
G75*
G02*
X115975000Y-117325000I-250000J0D01*
G01*
X115300000Y-117325000D01*
G75*
G02*
X115050000Y-117075000I0J250000D01*
G01*
G37*
%TD*%
D11*
%TO.C,Q1*%
X131900000Y-88850000D03*
X133900000Y-89800000D03*
X131900000Y-90750000D03*
%TD*%
%TO.C,R2*%
G36*
G01*
X105600000Y-88949999D02*
X105600000Y-89850001D01*
G75*
G02*
X105350001Y-90100000I-249999J0D01*
G01*
X104649999Y-90100000D01*
G75*
G02*
X104400000Y-89850001I0J249999D01*
G01*
X104400000Y-88949999D01*
G75*
G02*
X104649999Y-88700000I249999J0D01*
G01*
X105350001Y-88700000D01*
G75*
G02*
X105600000Y-88949999I0J-249999D01*
G01*
G37*
G36*
G01*
X107600000Y-88949999D02*
X107600000Y-89850001D01*
G75*
G02*
X107350001Y-90100000I-249999J0D01*
G01*
X106649999Y-90100000D01*
G75*
G02*
X106400000Y-89850001I0J249999D01*
G01*
X106400000Y-88949999D01*
G75*
G02*
X106649999Y-88700000I249999J0D01*
G01*
X107350001Y-88700000D01*
G75*
G02*
X107600000Y-88949999I0J-249999D01*
G01*
G37*
%TD*%
%TO.C,R3*%
G36*
G01*
X110250001Y-90000000D02*
X109349999Y-90000000D01*
G75*
G02*
X109100000Y-89750001I0J249999D01*
G01*
X109100000Y-89049999D01*
G75*
G02*
X109349999Y-88800000I249999J0D01*
G01*
X110250001Y-88800000D01*
G75*
G02*
X110500000Y-89049999I0J-249999D01*
G01*
X110500000Y-89750001D01*
G75*
G02*
X110250001Y-90000000I-249999J0D01*
G01*
G37*
G36*
G01*
X110250001Y-92000000D02*
X109349999Y-92000000D01*
G75*
G02*
X109100000Y-91750001I0J249999D01*
G01*
X109100000Y-91049999D01*
G75*
G02*
X109349999Y-90800000I249999J0D01*
G01*
X110250001Y-90800000D01*
G75*
G02*
X110500000Y-91049999I0J-249999D01*
G01*
X110500000Y-91750001D01*
G75*
G02*
X110250001Y-92000000I-249999J0D01*
G01*
G37*
%TD*%
D12*
%TO.C,U2*%
X117150000Y-89250000D03*
X116200000Y-89250000D03*
X115250000Y-89250000D03*
X115250000Y-91950000D03*
X117150000Y-91950000D03*
X116200000Y-91950000D03*
%TD*%
D13*
%TO.C,U3*%
X118030000Y-121450000D03*
X118030000Y-122400000D03*
X118030000Y-123350000D03*
X120730000Y-123350000D03*
X120730000Y-121450000D03*
X120730000Y-122400000D03*
%TD*%
%TO.C,U4*%
X126550000Y-121600000D03*
X126550000Y-120650000D03*
X126550000Y-122550000D03*
X123850000Y-122550000D03*
X123850000Y-121600000D03*
X123850000Y-120650000D03*
%TD*%
D11*
%TO.C,Q2*%
X127400000Y-115800000D03*
X129400000Y-114850000D03*
X129400000Y-116750000D03*
%TD*%
%TO.C,R5*%
G36*
G01*
X131249999Y-116100000D02*
X132150001Y-116100000D01*
G75*
G02*
X132400000Y-116349999I0J-249999D01*
G01*
X132400000Y-117050001D01*
G75*
G02*
X132150001Y-117300000I-249999J0D01*
G01*
X131249999Y-117300000D01*
G75*
G02*
X131000000Y-117050001I0J249999D01*
G01*
X131000000Y-116349999D01*
G75*
G02*
X131249999Y-116100000I249999J0D01*
G01*
G37*
G36*
G01*
X131249999Y-114100000D02*
X132150001Y-114100000D01*
G75*
G02*
X132400000Y-114349999I0J-249999D01*
G01*
X132400000Y-115050001D01*
G75*
G02*
X132150001Y-115300000I-249999J0D01*
G01*
X131249999Y-115300000D01*
G75*
G02*
X131000000Y-115050001I0J249999D01*
G01*
X131000000Y-114349999D01*
G75*
G02*
X131249999Y-114100000I249999J0D01*
G01*
G37*
%TD*%
%TO.C,B5*%
G36*
G01*
X127475000Y-127125000D02*
X126525000Y-127125000D01*
G75*
G02*
X126275000Y-126875000I0J250000D01*
G01*
X126275000Y-126200000D01*
G75*
G02*
X126525000Y-125950000I250000J0D01*
G01*
X127475000Y-125950000D01*
G75*
G02*
X127725000Y-126200000I0J-250000D01*
G01*
X127725000Y-126875000D01*
G75*
G02*
X127475000Y-127125000I-250000J0D01*
G01*
G37*
G36*
G01*
X127475000Y-125050000D02*
X126525000Y-125050000D01*
G75*
G02*
X126275000Y-124800000I0J250000D01*
G01*
X126275000Y-124125000D01*
G75*
G02*
X126525000Y-123875000I250000J0D01*
G01*
X127475000Y-123875000D01*
G75*
G02*
X127725000Y-124125000I0J-250000D01*
G01*
X127725000Y-124800000D01*
G75*
G02*
X127475000Y-125050000I-250000J0D01*
G01*
G37*
%TD*%
%TO.C,B6*%
G36*
G01*
X119350000Y-125125000D02*
X119350000Y-126075000D01*
G75*
G02*
X119100000Y-126325000I-250000J0D01*
G01*
X118425000Y-126325000D01*
G75*
G02*
X118175000Y-126075000I0J250000D01*
G01*
X118175000Y-125125000D01*
G75*
G02*
X118425000Y-124875000I250000J0D01*
G01*
X119100000Y-124875000D01*
G75*
G02*
X119350000Y-125125000I0J-250000D01*
G01*
G37*
G36*
G01*
X121425000Y-125125000D02*
X121425000Y-126075000D01*
G75*
G02*
X121175000Y-126325000I-250000J0D01*
G01*
X120500000Y-126325000D01*
G75*
G02*
X120250000Y-126075000I0J250000D01*
G01*
X120250000Y-125125000D01*
G75*
G02*
X120500000Y-124875000I250000J0D01*
G01*
X121175000Y-124875000D01*
G75*
G02*
X121425000Y-125125000I0J-250000D01*
G01*
G37*
%TD*%
%TO.C,B7*%
G36*
G01*
X116425000Y-123625000D02*
X116425000Y-124575000D01*
G75*
G02*
X116175000Y-124825000I-250000J0D01*
G01*
X115500000Y-124825000D01*
G75*
G02*
X115250000Y-124575000I0J250000D01*
G01*
X115250000Y-123625000D01*
G75*
G02*
X115500000Y-123375000I250000J0D01*
G01*
X116175000Y-123375000D01*
G75*
G02*
X116425000Y-123625000I0J-250000D01*
G01*
G37*
G36*
G01*
X114350000Y-123625000D02*
X114350000Y-124575000D01*
G75*
G02*
X114100000Y-124825000I-250000J0D01*
G01*
X113425000Y-124825000D01*
G75*
G02*
X113175000Y-124575000I0J250000D01*
G01*
X113175000Y-123625000D01*
G75*
G02*
X113425000Y-123375000I250000J0D01*
G01*
X114100000Y-123375000D01*
G75*
G02*
X114350000Y-123625000I0J-250000D01*
G01*
G37*
%TD*%
%TO.C,B8*%
G36*
G01*
X113275000Y-89750000D02*
X112325000Y-89750000D01*
G75*
G02*
X112075000Y-89500000I0J250000D01*
G01*
X112075000Y-88825000D01*
G75*
G02*
X112325000Y-88575000I250000J0D01*
G01*
X113275000Y-88575000D01*
G75*
G02*
X113525000Y-88825000I0J-250000D01*
G01*
X113525000Y-89500000D01*
G75*
G02*
X113275000Y-89750000I-250000J0D01*
G01*
G37*
G36*
G01*
X113275000Y-91825000D02*
X112325000Y-91825000D01*
G75*
G02*
X112075000Y-91575000I0J250000D01*
G01*
X112075000Y-90900000D01*
G75*
G02*
X112325000Y-90650000I250000J0D01*
G01*
X113275000Y-90650000D01*
G75*
G02*
X113525000Y-90900000I0J-250000D01*
G01*
X113525000Y-91575000D01*
G75*
G02*
X113275000Y-91825000I-250000J0D01*
G01*
G37*
%TD*%
D14*
%TO.C,Q4*%
X132050000Y-122400000D03*
X133950000Y-122400000D03*
X133000000Y-120400000D03*
%TD*%
%TO.C,R6*%
G36*
G01*
X143400000Y-113950001D02*
X143400000Y-113049999D01*
G75*
G02*
X143649999Y-112800000I249999J0D01*
G01*
X144350001Y-112800000D01*
G75*
G02*
X144600000Y-113049999I0J-249999D01*
G01*
X144600000Y-113950001D01*
G75*
G02*
X144350001Y-114200000I-249999J0D01*
G01*
X143649999Y-114200000D01*
G75*
G02*
X143400000Y-113950001I0J249999D01*
G01*
G37*
G36*
G01*
X141400000Y-113950001D02*
X141400000Y-113049999D01*
G75*
G02*
X141649999Y-112800000I249999J0D01*
G01*
X142350001Y-112800000D01*
G75*
G02*
X142600000Y-113049999I0J-249999D01*
G01*
X142600000Y-113950001D01*
G75*
G02*
X142350001Y-114200000I-249999J0D01*
G01*
X141649999Y-114200000D01*
G75*
G02*
X141400000Y-113950001I0J249999D01*
G01*
G37*
%TD*%
%TO.C,R10*%
G36*
G01*
X134100000Y-124649999D02*
X134100000Y-125550001D01*
G75*
G02*
X133850001Y-125800000I-249999J0D01*
G01*
X133149999Y-125800000D01*
G75*
G02*
X132900000Y-125550001I0J249999D01*
G01*
X132900000Y-124649999D01*
G75*
G02*
X133149999Y-124400000I249999J0D01*
G01*
X133850001Y-124400000D01*
G75*
G02*
X134100000Y-124649999I0J-249999D01*
G01*
G37*
G36*
G01*
X132100000Y-124649999D02*
X132100000Y-125550001D01*
G75*
G02*
X131850001Y-125800000I-249999J0D01*
G01*
X131149999Y-125800000D01*
G75*
G02*
X130900000Y-125550001I0J249999D01*
G01*
X130900000Y-124649999D01*
G75*
G02*
X131149999Y-124400000I249999J0D01*
G01*
X131850001Y-124400000D01*
G75*
G02*
X132100000Y-124649999I0J-249999D01*
G01*
G37*
%TD*%
%TO.C,R12*%
G36*
G01*
X144600000Y-110549999D02*
X144600000Y-111450001D01*
G75*
G02*
X144350001Y-111700000I-249999J0D01*
G01*
X143649999Y-111700000D01*
G75*
G02*
X143400000Y-111450001I0J249999D01*
G01*
X143400000Y-110549999D01*
G75*
G02*
X143649999Y-110300000I249999J0D01*
G01*
X144350001Y-110300000D01*
G75*
G02*
X144600000Y-110549999I0J-249999D01*
G01*
G37*
G36*
G01*
X142600000Y-110549999D02*
X142600000Y-111450001D01*
G75*
G02*
X142350001Y-111700000I-249999J0D01*
G01*
X141649999Y-111700000D01*
G75*
G02*
X141400000Y-111450001I0J249999D01*
G01*
X141400000Y-110549999D01*
G75*
G02*
X141649999Y-110300000I249999J0D01*
G01*
X142350001Y-110300000D01*
G75*
G02*
X142600000Y-110549999I0J-249999D01*
G01*
G37*
%TD*%
%TO.C,R13*%
G36*
G01*
X147800000Y-113950001D02*
X147800000Y-113049999D01*
G75*
G02*
X148049999Y-112800000I249999J0D01*
G01*
X148750001Y-112800000D01*
G75*
G02*
X149000000Y-113049999I0J-249999D01*
G01*
X149000000Y-113950001D01*
G75*
G02*
X148750001Y-114200000I-249999J0D01*
G01*
X148049999Y-114200000D01*
G75*
G02*
X147800000Y-113950001I0J249999D01*
G01*
G37*
G36*
G01*
X145800000Y-113950001D02*
X145800000Y-113049999D01*
G75*
G02*
X146049999Y-112800000I249999J0D01*
G01*
X146750001Y-112800000D01*
G75*
G02*
X147000000Y-113049999I0J-249999D01*
G01*
X147000000Y-113950001D01*
G75*
G02*
X146750001Y-114200000I-249999J0D01*
G01*
X146049999Y-114200000D01*
G75*
G02*
X145800000Y-113950001I0J249999D01*
G01*
G37*
%TD*%
%TO.C,R14*%
G36*
G01*
X142600000Y-105549999D02*
X142600000Y-106450001D01*
G75*
G02*
X142350001Y-106700000I-249999J0D01*
G01*
X141649999Y-106700000D01*
G75*
G02*
X141400000Y-106450001I0J249999D01*
G01*
X141400000Y-105549999D01*
G75*
G02*
X141649999Y-105300000I249999J0D01*
G01*
X142350001Y-105300000D01*
G75*
G02*
X142600000Y-105549999I0J-249999D01*
G01*
G37*
G36*
G01*
X144600000Y-105549999D02*
X144600000Y-106450001D01*
G75*
G02*
X144350001Y-106700000I-249999J0D01*
G01*
X143649999Y-106700000D01*
G75*
G02*
X143400000Y-106450001I0J249999D01*
G01*
X143400000Y-105549999D01*
G75*
G02*
X143649999Y-105300000I249999J0D01*
G01*
X144350001Y-105300000D01*
G75*
G02*
X144600000Y-105549999I0J-249999D01*
G01*
G37*
%TD*%
%TO.C,R15*%
G36*
G01*
X144600000Y-100749999D02*
X144600000Y-101650001D01*
G75*
G02*
X144350001Y-101900000I-249999J0D01*
G01*
X143649999Y-101900000D01*
G75*
G02*
X143400000Y-101650001I0J249999D01*
G01*
X143400000Y-100749999D01*
G75*
G02*
X143649999Y-100500000I249999J0D01*
G01*
X144350001Y-100500000D01*
G75*
G02*
X144600000Y-100749999I0J-249999D01*
G01*
G37*
G36*
G01*
X142600000Y-100749999D02*
X142600000Y-101650001D01*
G75*
G02*
X142350001Y-101900000I-249999J0D01*
G01*
X141649999Y-101900000D01*
G75*
G02*
X141400000Y-101650001I0J249999D01*
G01*
X141400000Y-100749999D01*
G75*
G02*
X141649999Y-100500000I249999J0D01*
G01*
X142350001Y-100500000D01*
G75*
G02*
X142600000Y-100749999I0J-249999D01*
G01*
G37*
%TD*%
%TO.C,R16*%
G36*
G01*
X144600000Y-96049999D02*
X144600000Y-96950001D01*
G75*
G02*
X144350001Y-97200000I-249999J0D01*
G01*
X143649999Y-97200000D01*
G75*
G02*
X143400000Y-96950001I0J249999D01*
G01*
X143400000Y-96049999D01*
G75*
G02*
X143649999Y-95800000I249999J0D01*
G01*
X144350001Y-95800000D01*
G75*
G02*
X144600000Y-96049999I0J-249999D01*
G01*
G37*
G36*
G01*
X142600000Y-96049999D02*
X142600000Y-96950001D01*
G75*
G02*
X142350001Y-97200000I-249999J0D01*
G01*
X141649999Y-97200000D01*
G75*
G02*
X141400000Y-96950001I0J249999D01*
G01*
X141400000Y-96049999D01*
G75*
G02*
X141649999Y-95800000I249999J0D01*
G01*
X142350001Y-95800000D01*
G75*
G02*
X142600000Y-96049999I0J-249999D01*
G01*
G37*
%TD*%
%TO.C,R19*%
G36*
G01*
X143400000Y-108950001D02*
X143400000Y-108049999D01*
G75*
G02*
X143649999Y-107800000I249999J0D01*
G01*
X144350001Y-107800000D01*
G75*
G02*
X144600000Y-108049999I0J-249999D01*
G01*
X144600000Y-108950001D01*
G75*
G02*
X144350001Y-109200000I-249999J0D01*
G01*
X143649999Y-109200000D01*
G75*
G02*
X143400000Y-108950001I0J249999D01*
G01*
G37*
G36*
G01*
X141400000Y-108950001D02*
X141400000Y-108049999D01*
G75*
G02*
X141649999Y-107800000I249999J0D01*
G01*
X142350001Y-107800000D01*
G75*
G02*
X142600000Y-108049999I0J-249999D01*
G01*
X142600000Y-108950001D01*
G75*
G02*
X142350001Y-109200000I-249999J0D01*
G01*
X141649999Y-109200000D01*
G75*
G02*
X141400000Y-108950001I0J249999D01*
G01*
G37*
%TD*%
%TO.C,R20*%
G36*
G01*
X141400000Y-104150001D02*
X141400000Y-103249999D01*
G75*
G02*
X141649999Y-103000000I249999J0D01*
G01*
X142350001Y-103000000D01*
G75*
G02*
X142600000Y-103249999I0J-249999D01*
G01*
X142600000Y-104150001D01*
G75*
G02*
X142350001Y-104400000I-249999J0D01*
G01*
X141649999Y-104400000D01*
G75*
G02*
X141400000Y-104150001I0J249999D01*
G01*
G37*
G36*
G01*
X143400000Y-104150001D02*
X143400000Y-103249999D01*
G75*
G02*
X143649999Y-103000000I249999J0D01*
G01*
X144350001Y-103000000D01*
G75*
G02*
X144600000Y-103249999I0J-249999D01*
G01*
X144600000Y-104150001D01*
G75*
G02*
X144350001Y-104400000I-249999J0D01*
G01*
X143649999Y-104400000D01*
G75*
G02*
X143400000Y-104150001I0J249999D01*
G01*
G37*
%TD*%
%TO.C,R21*%
G36*
G01*
X143400000Y-99250001D02*
X143400000Y-98349999D01*
G75*
G02*
X143649999Y-98100000I249999J0D01*
G01*
X144350001Y-98100000D01*
G75*
G02*
X144600000Y-98349999I0J-249999D01*
G01*
X144600000Y-99250001D01*
G75*
G02*
X144350001Y-99500000I-249999J0D01*
G01*
X143649999Y-99500000D01*
G75*
G02*
X143400000Y-99250001I0J249999D01*
G01*
G37*
G36*
G01*
X141400000Y-99250001D02*
X141400000Y-98349999D01*
G75*
G02*
X141649999Y-98100000I249999J0D01*
G01*
X142350001Y-98100000D01*
G75*
G02*
X142600000Y-98349999I0J-249999D01*
G01*
X142600000Y-99250001D01*
G75*
G02*
X142350001Y-99500000I-249999J0D01*
G01*
X141649999Y-99500000D01*
G75*
G02*
X141400000Y-99250001I0J249999D01*
G01*
G37*
%TD*%
%TO.C,R22*%
G36*
G01*
X145800000Y-108950001D02*
X145800000Y-108049999D01*
G75*
G02*
X146049999Y-107800000I249999J0D01*
G01*
X146750001Y-107800000D01*
G75*
G02*
X147000000Y-108049999I0J-249999D01*
G01*
X147000000Y-108950001D01*
G75*
G02*
X146750001Y-109200000I-249999J0D01*
G01*
X146049999Y-109200000D01*
G75*
G02*
X145800000Y-108950001I0J249999D01*
G01*
G37*
G36*
G01*
X147800000Y-108950001D02*
X147800000Y-108049999D01*
G75*
G02*
X148049999Y-107800000I249999J0D01*
G01*
X148750001Y-107800000D01*
G75*
G02*
X149000000Y-108049999I0J-249999D01*
G01*
X149000000Y-108950001D01*
G75*
G02*
X148750001Y-109200000I-249999J0D01*
G01*
X148049999Y-109200000D01*
G75*
G02*
X147800000Y-108950001I0J249999D01*
G01*
G37*
%TD*%
%TO.C,R23*%
G36*
G01*
X147900000Y-104050001D02*
X147900000Y-103149999D01*
G75*
G02*
X148149999Y-102900000I249999J0D01*
G01*
X148850001Y-102900000D01*
G75*
G02*
X149100000Y-103149999I0J-249999D01*
G01*
X149100000Y-104050001D01*
G75*
G02*
X148850001Y-104300000I-249999J0D01*
G01*
X148149999Y-104300000D01*
G75*
G02*
X147900000Y-104050001I0J249999D01*
G01*
G37*
G36*
G01*
X145900000Y-104050001D02*
X145900000Y-103149999D01*
G75*
G02*
X146149999Y-102900000I249999J0D01*
G01*
X146850001Y-102900000D01*
G75*
G02*
X147100000Y-103149999I0J-249999D01*
G01*
X147100000Y-104050001D01*
G75*
G02*
X146850001Y-104300000I-249999J0D01*
G01*
X146149999Y-104300000D01*
G75*
G02*
X145900000Y-104050001I0J249999D01*
G01*
G37*
%TD*%
%TO.C,R24*%
G36*
G01*
X145900000Y-99250001D02*
X145900000Y-98349999D01*
G75*
G02*
X146149999Y-98100000I249999J0D01*
G01*
X146850001Y-98100000D01*
G75*
G02*
X147100000Y-98349999I0J-249999D01*
G01*
X147100000Y-99250001D01*
G75*
G02*
X146850001Y-99500000I-249999J0D01*
G01*
X146149999Y-99500000D01*
G75*
G02*
X145900000Y-99250001I0J249999D01*
G01*
G37*
G36*
G01*
X147900000Y-99250001D02*
X147900000Y-98349999D01*
G75*
G02*
X148149999Y-98100000I249999J0D01*
G01*
X148850001Y-98100000D01*
G75*
G02*
X149100000Y-98349999I0J-249999D01*
G01*
X149100000Y-99250001D01*
G75*
G02*
X148850001Y-99500000I-249999J0D01*
G01*
X148149999Y-99500000D01*
G75*
G02*
X147900000Y-99250001I0J249999D01*
G01*
G37*
%TD*%
%TO.C,R25*%
G36*
G01*
X144600000Y-91449999D02*
X144600000Y-92350001D01*
G75*
G02*
X144350001Y-92600000I-249999J0D01*
G01*
X143649999Y-92600000D01*
G75*
G02*
X143400000Y-92350001I0J249999D01*
G01*
X143400000Y-91449999D01*
G75*
G02*
X143649999Y-91200000I249999J0D01*
G01*
X144350001Y-91200000D01*
G75*
G02*
X144600000Y-91449999I0J-249999D01*
G01*
G37*
G36*
G01*
X142600000Y-91449999D02*
X142600000Y-92350001D01*
G75*
G02*
X142350001Y-92600000I-249999J0D01*
G01*
X141649999Y-92600000D01*
G75*
G02*
X141400000Y-92350001I0J249999D01*
G01*
X141400000Y-91449999D01*
G75*
G02*
X141649999Y-91200000I249999J0D01*
G01*
X142350001Y-91200000D01*
G75*
G02*
X142600000Y-91449999I0J-249999D01*
G01*
G37*
%TD*%
%TO.C,R26*%
G36*
G01*
X143400000Y-94650001D02*
X143400000Y-93749999D01*
G75*
G02*
X143649999Y-93500000I249999J0D01*
G01*
X144350001Y-93500000D01*
G75*
G02*
X144600000Y-93749999I0J-249999D01*
G01*
X144600000Y-94650001D01*
G75*
G02*
X144350001Y-94900000I-249999J0D01*
G01*
X143649999Y-94900000D01*
G75*
G02*
X143400000Y-94650001I0J249999D01*
G01*
G37*
G36*
G01*
X141400000Y-94650001D02*
X141400000Y-93749999D01*
G75*
G02*
X141649999Y-93500000I249999J0D01*
G01*
X142350001Y-93500000D01*
G75*
G02*
X142600000Y-93749999I0J-249999D01*
G01*
X142600000Y-94650001D01*
G75*
G02*
X142350001Y-94900000I-249999J0D01*
G01*
X141649999Y-94900000D01*
G75*
G02*
X141400000Y-94650001I0J249999D01*
G01*
G37*
%TD*%
%TO.C,R27*%
G36*
G01*
X145900000Y-94650001D02*
X145900000Y-93749999D01*
G75*
G02*
X146149999Y-93500000I249999J0D01*
G01*
X146850001Y-93500000D01*
G75*
G02*
X147100000Y-93749999I0J-249999D01*
G01*
X147100000Y-94650001D01*
G75*
G02*
X146850001Y-94900000I-249999J0D01*
G01*
X146149999Y-94900000D01*
G75*
G02*
X145900000Y-94650001I0J249999D01*
G01*
G37*
G36*
G01*
X147900000Y-94650001D02*
X147900000Y-93749999D01*
G75*
G02*
X148149999Y-93500000I249999J0D01*
G01*
X148850001Y-93500000D01*
G75*
G02*
X149100000Y-93749999I0J-249999D01*
G01*
X149100000Y-94650001D01*
G75*
G02*
X148850001Y-94900000I-249999J0D01*
G01*
X148149999Y-94900000D01*
G75*
G02*
X147900000Y-94650001I0J249999D01*
G01*
G37*
%TD*%
%TO.C,L1*%
G36*
G01*
X120550000Y-118279999D02*
X120550000Y-119180001D01*
G75*
G02*
X120300001Y-119430000I-249999J0D01*
G01*
X119649999Y-119430000D01*
G75*
G02*
X119400000Y-119180001I0J249999D01*
G01*
X119400000Y-118279999D01*
G75*
G02*
X119649999Y-118030000I249999J0D01*
G01*
X120300001Y-118030000D01*
G75*
G02*
X120550000Y-118279999I0J-249999D01*
G01*
G37*
G36*
G01*
X122600000Y-118279999D02*
X122600000Y-119180001D01*
G75*
G02*
X122350001Y-119430000I-249999J0D01*
G01*
X121699999Y-119430000D01*
G75*
G02*
X121450000Y-119180001I0J249999D01*
G01*
X121450000Y-118279999D01*
G75*
G02*
X121699999Y-118030000I249999J0D01*
G01*
X122350001Y-118030000D01*
G75*
G02*
X122600000Y-118279999I0J-249999D01*
G01*
G37*
%TD*%
%TO.C,L2*%
G36*
G01*
X114950000Y-119220001D02*
X114950000Y-118319999D01*
G75*
G02*
X115199999Y-118070000I249999J0D01*
G01*
X115850001Y-118070000D01*
G75*
G02*
X116100000Y-118319999I0J-249999D01*
G01*
X116100000Y-119220001D01*
G75*
G02*
X115850001Y-119470000I-249999J0D01*
G01*
X115199999Y-119470000D01*
G75*
G02*
X114950000Y-119220001I0J249999D01*
G01*
G37*
G36*
G01*
X117000000Y-119220001D02*
X117000000Y-118319999D01*
G75*
G02*
X117249999Y-118070000I249999J0D01*
G01*
X117900001Y-118070000D01*
G75*
G02*
X118150000Y-118319999I0J-249999D01*
G01*
X118150000Y-119220001D01*
G75*
G02*
X117900001Y-119470000I-249999J0D01*
G01*
X117249999Y-119470000D01*
G75*
G02*
X117000000Y-119220001I0J249999D01*
G01*
G37*
%TD*%
%TO.C,B16*%
G36*
G01*
X133225000Y-112675000D02*
X132275000Y-112675000D01*
G75*
G02*
X132025000Y-112425000I0J250000D01*
G01*
X132025000Y-111750000D01*
G75*
G02*
X132275000Y-111500000I250000J0D01*
G01*
X133225000Y-111500000D01*
G75*
G02*
X133475000Y-111750000I0J-250000D01*
G01*
X133475000Y-112425000D01*
G75*
G02*
X133225000Y-112675000I-250000J0D01*
G01*
G37*
G36*
G01*
X133225000Y-110600000D02*
X132275000Y-110600000D01*
G75*
G02*
X132025000Y-110350000I0J250000D01*
G01*
X132025000Y-109675000D01*
G75*
G02*
X132275000Y-109425000I250000J0D01*
G01*
X133225000Y-109425000D01*
G75*
G02*
X133475000Y-109675000I0J-250000D01*
G01*
X133475000Y-110350000D01*
G75*
G02*
X133225000Y-110600000I-250000J0D01*
G01*
G37*
%TD*%
D15*
%TO.C,D2*%
X146250000Y-111000000D03*
X148750000Y-111000000D03*
%TD*%
%TO.C,D3*%
X148750000Y-106050000D03*
X146250000Y-106050000D03*
%TD*%
%TO.C,D4*%
X146350000Y-101200000D03*
X148850000Y-101200000D03*
%TD*%
%TO.C,D5*%
X148850000Y-96500000D03*
X146350000Y-96500000D03*
%TD*%
%TO.C,D7*%
X148650000Y-91900000D03*
X146150000Y-91900000D03*
%TD*%
%TO.C,R36*%
G36*
G01*
X122330000Y-92349999D02*
X122330000Y-93250001D01*
G75*
G02*
X122080001Y-93500000I-249999J0D01*
G01*
X121379999Y-93500000D01*
G75*
G02*
X121130000Y-93250001I0J249999D01*
G01*
X121130000Y-92349999D01*
G75*
G02*
X121379999Y-92100000I249999J0D01*
G01*
X122080001Y-92100000D01*
G75*
G02*
X122330000Y-92349999I0J-249999D01*
G01*
G37*
G36*
G01*
X124330000Y-92349999D02*
X124330000Y-93250001D01*
G75*
G02*
X124080001Y-93500000I-249999J0D01*
G01*
X123379999Y-93500000D01*
G75*
G02*
X123130000Y-93250001I0J249999D01*
G01*
X123130000Y-92349999D01*
G75*
G02*
X123379999Y-92100000I249999J0D01*
G01*
X124080001Y-92100000D01*
G75*
G02*
X124330000Y-92349999I0J-249999D01*
G01*
G37*
%TD*%
M02*
