%TF.GenerationSoftware,KiCad,Pcbnew,6.0.2+dfsg-1*%
%TF.CreationDate,2023-03-28T12:08:36-04:00*%
%TF.ProjectId,HL2IOBoard,484c3249-4f42-46f6-9172-642e6b696361,E*%
%TF.SameCoordinates,Original*%
%TF.FileFunction,Legend,Top*%
%TF.FilePolarity,Positive*%
%FSLAX46Y46*%
G04 Gerber Fmt 4.6, Leading zero omitted, Abs format (unit mm)*
G04 Created by KiCad (PCBNEW 6.0.2+dfsg-1) date 2023-03-28 12:08:36*
%MOMM*%
%LPD*%
G01*
G04 APERTURE LIST*
%ADD10C,0.150000*%
%ADD11C,0.100000*%
%ADD12C,0.120000*%
%ADD13R,1.600000X5.200000*%
%ADD14R,4.400000X5.200000*%
G04 APERTURE END LIST*
D10*
X104742857Y-118342857D02*
X103542857Y-118342857D01*
X104742857Y-117657142D01*
X103542857Y-117657142D01*
X103657142Y-117142857D02*
X103600000Y-117085714D01*
X103542857Y-116971428D01*
X103542857Y-116685714D01*
X103600000Y-116571428D01*
X103657142Y-116514285D01*
X103771428Y-116457142D01*
X103885714Y-116457142D01*
X104057142Y-116514285D01*
X104742857Y-117200000D01*
X104742857Y-116457142D01*
X104400000Y-116000000D02*
X104400000Y-115428571D01*
X104742857Y-116114285D02*
X103542857Y-115714285D01*
X104742857Y-115314285D01*
X104742857Y-114914285D02*
X103542857Y-114914285D01*
X103542857Y-114628571D01*
X103600000Y-114457142D01*
X103714285Y-114342857D01*
X103828571Y-114285714D01*
X104057142Y-114228571D01*
X104228571Y-114228571D01*
X104457142Y-114285714D01*
X104571428Y-114342857D01*
X104685714Y-114457142D01*
X104742857Y-114628571D01*
X104742857Y-114914285D01*
X104742857Y-113028571D02*
X104171428Y-113428571D01*
X104742857Y-113714285D02*
X103542857Y-113714285D01*
X103542857Y-113257142D01*
X103600000Y-113142857D01*
X103657142Y-113085714D01*
X103771428Y-113028571D01*
X103942857Y-113028571D01*
X104057142Y-113085714D01*
X104114285Y-113142857D01*
X104171428Y-113257142D01*
X104171428Y-113714285D01*
X104742857Y-111600000D02*
X103542857Y-111600000D01*
X104114285Y-111600000D02*
X104114285Y-110914285D01*
X104742857Y-110914285D02*
X103542857Y-110914285D01*
X104742857Y-109771428D02*
X104742857Y-110342857D01*
X103542857Y-110342857D01*
X103657142Y-109428571D02*
X103600000Y-109371428D01*
X103542857Y-109257142D01*
X103542857Y-108971428D01*
X103600000Y-108857142D01*
X103657142Y-108800000D01*
X103771428Y-108742857D01*
X103885714Y-108742857D01*
X104057142Y-108800000D01*
X104742857Y-109485714D01*
X104742857Y-108742857D01*
X104742857Y-107314285D02*
X103542857Y-107314285D01*
X103542857Y-106514285D02*
X103542857Y-106285714D01*
X103600000Y-106171428D01*
X103714285Y-106057142D01*
X103942857Y-106000000D01*
X104342857Y-106000000D01*
X104571428Y-106057142D01*
X104685714Y-106171428D01*
X104742857Y-106285714D01*
X104742857Y-106514285D01*
X104685714Y-106628571D01*
X104571428Y-106742857D01*
X104342857Y-106800000D01*
X103942857Y-106800000D01*
X103714285Y-106742857D01*
X103600000Y-106628571D01*
X103542857Y-106514285D01*
X104114285Y-104171428D02*
X104171428Y-104000000D01*
X104228571Y-103942857D01*
X104342857Y-103885714D01*
X104514285Y-103885714D01*
X104628571Y-103942857D01*
X104685714Y-104000000D01*
X104742857Y-104114285D01*
X104742857Y-104571428D01*
X103542857Y-104571428D01*
X103542857Y-104171428D01*
X103600000Y-104057142D01*
X103657142Y-104000000D01*
X103771428Y-103942857D01*
X103885714Y-103942857D01*
X104000000Y-104000000D01*
X104057142Y-104057142D01*
X104114285Y-104171428D01*
X104114285Y-104571428D01*
X104742857Y-103200000D02*
X104685714Y-103314285D01*
X104628571Y-103371428D01*
X104514285Y-103428571D01*
X104171428Y-103428571D01*
X104057142Y-103371428D01*
X104000000Y-103314285D01*
X103942857Y-103200000D01*
X103942857Y-103028571D01*
X104000000Y-102914285D01*
X104057142Y-102857142D01*
X104171428Y-102800000D01*
X104514285Y-102800000D01*
X104628571Y-102857142D01*
X104685714Y-102914285D01*
X104742857Y-103028571D01*
X104742857Y-103200000D01*
X104742857Y-101771428D02*
X104114285Y-101771428D01*
X104000000Y-101828571D01*
X103942857Y-101942857D01*
X103942857Y-102171428D01*
X104000000Y-102285714D01*
X104685714Y-101771428D02*
X104742857Y-101885714D01*
X104742857Y-102171428D01*
X104685714Y-102285714D01*
X104571428Y-102342857D01*
X104457142Y-102342857D01*
X104342857Y-102285714D01*
X104285714Y-102171428D01*
X104285714Y-101885714D01*
X104228571Y-101771428D01*
X104742857Y-101200000D02*
X103942857Y-101200000D01*
X104171428Y-101200000D02*
X104057142Y-101142857D01*
X104000000Y-101085714D01*
X103942857Y-100971428D01*
X103942857Y-100857142D01*
X104742857Y-99942857D02*
X103542857Y-99942857D01*
X104685714Y-99942857D02*
X104742857Y-100057142D01*
X104742857Y-100285714D01*
X104685714Y-100400000D01*
X104628571Y-100457142D01*
X104514285Y-100514285D01*
X104171428Y-100514285D01*
X104057142Y-100457142D01*
X104000000Y-100400000D01*
X103942857Y-100285714D01*
X103942857Y-100057142D01*
X104000000Y-99942857D01*
X103542857Y-98628571D02*
X104742857Y-98228571D01*
X103542857Y-97828571D01*
X104685714Y-96971428D02*
X104742857Y-97085714D01*
X104742857Y-97314285D01*
X104685714Y-97428571D01*
X104571428Y-97485714D01*
X104114285Y-97485714D01*
X104000000Y-97428571D01*
X103942857Y-97314285D01*
X103942857Y-97085714D01*
X104000000Y-96971428D01*
X104114285Y-96914285D01*
X104228571Y-96914285D01*
X104342857Y-97485714D01*
X104742857Y-96400000D02*
X103942857Y-96400000D01*
X104171428Y-96400000D02*
X104057142Y-96342857D01*
X104000000Y-96285714D01*
X103942857Y-96171428D01*
X103942857Y-96057142D01*
X104742857Y-94114285D02*
X104742857Y-94800000D01*
X104742857Y-94457142D02*
X103542857Y-94457142D01*
X103714285Y-94571428D01*
X103828571Y-94685714D01*
X103885714Y-94800000D01*
X104628571Y-93600000D02*
X104685714Y-93542857D01*
X104742857Y-93600000D01*
X104685714Y-93657142D01*
X104628571Y-93600000D01*
X104742857Y-93600000D01*
X103942857Y-92514285D02*
X104742857Y-92514285D01*
X103485714Y-92800000D02*
X104342857Y-93085714D01*
X104342857Y-92342857D01*
X159390952Y-90642380D02*
X158819523Y-90642380D01*
X159105238Y-90642380D02*
X159105238Y-89642380D01*
X159010000Y-89785238D01*
X158914761Y-89880476D01*
X158819523Y-89928095D01*
X159771904Y-89737619D02*
X159819523Y-89690000D01*
X159914761Y-89642380D01*
X160152857Y-89642380D01*
X160248095Y-89690000D01*
X160295714Y-89737619D01*
X160343333Y-89832857D01*
X160343333Y-89928095D01*
X160295714Y-90070952D01*
X159724285Y-90642380D01*
X160343333Y-90642380D01*
X160629047Y-89642380D02*
X160962380Y-90642380D01*
X161295714Y-89642380D01*
D11*
%TO.C,J9*%
X133533333Y-132011904D02*
X133533333Y-132583333D01*
X133495238Y-132697619D01*
X133419047Y-132773809D01*
X133304761Y-132811904D01*
X133228571Y-132811904D01*
X133952380Y-132811904D02*
X134104761Y-132811904D01*
X134180952Y-132773809D01*
X134219047Y-132735714D01*
X134295238Y-132621428D01*
X134333333Y-132469047D01*
X134333333Y-132164285D01*
X134295238Y-132088095D01*
X134257142Y-132050000D01*
X134180952Y-132011904D01*
X134028571Y-132011904D01*
X133952380Y-132050000D01*
X133914285Y-132088095D01*
X133876190Y-132164285D01*
X133876190Y-132354761D01*
X133914285Y-132430952D01*
X133952380Y-132469047D01*
X134028571Y-132507142D01*
X134180952Y-132507142D01*
X134257142Y-132469047D01*
X134295238Y-132430952D01*
X134333333Y-132354761D01*
%TO.C,J10*%
X104027380Y-131736904D02*
X104027380Y-132308333D01*
X103989285Y-132422619D01*
X103913095Y-132498809D01*
X103798809Y-132536904D01*
X103722619Y-132536904D01*
X104827380Y-132536904D02*
X104370238Y-132536904D01*
X104598809Y-132536904D02*
X104598809Y-131736904D01*
X104522619Y-131851190D01*
X104446428Y-131927380D01*
X104370238Y-131965476D01*
X105322619Y-131736904D02*
X105398809Y-131736904D01*
X105475000Y-131775000D01*
X105513095Y-131813095D01*
X105551190Y-131889285D01*
X105589285Y-132041666D01*
X105589285Y-132232142D01*
X105551190Y-132384523D01*
X105513095Y-132460714D01*
X105475000Y-132498809D01*
X105398809Y-132536904D01*
X105322619Y-132536904D01*
X105246428Y-132498809D01*
X105208333Y-132460714D01*
X105170238Y-132384523D01*
X105132142Y-132232142D01*
X105132142Y-132041666D01*
X105170238Y-131889285D01*
X105208333Y-131813095D01*
X105246428Y-131775000D01*
X105322619Y-131736904D01*
D10*
%TO.C,C1*%
X123633333Y-115277142D02*
X123585714Y-115324761D01*
X123442857Y-115372380D01*
X123347619Y-115372380D01*
X123204761Y-115324761D01*
X123109523Y-115229523D01*
X123061904Y-115134285D01*
X123014285Y-114943809D01*
X123014285Y-114800952D01*
X123061904Y-114610476D01*
X123109523Y-114515238D01*
X123204761Y-114420000D01*
X123347619Y-114372380D01*
X123442857Y-114372380D01*
X123585714Y-114420000D01*
X123633333Y-114467619D01*
X124585714Y-115372380D02*
X124014285Y-115372380D01*
X124300000Y-115372380D02*
X124300000Y-114372380D01*
X124204761Y-114515238D01*
X124109523Y-114610476D01*
X124014285Y-114658095D01*
%TO.C,C2*%
X118833333Y-115277142D02*
X118785714Y-115324761D01*
X118642857Y-115372380D01*
X118547619Y-115372380D01*
X118404761Y-115324761D01*
X118309523Y-115229523D01*
X118261904Y-115134285D01*
X118214285Y-114943809D01*
X118214285Y-114800952D01*
X118261904Y-114610476D01*
X118309523Y-114515238D01*
X118404761Y-114420000D01*
X118547619Y-114372380D01*
X118642857Y-114372380D01*
X118785714Y-114420000D01*
X118833333Y-114467619D01*
X119214285Y-114467619D02*
X119261904Y-114420000D01*
X119357142Y-114372380D01*
X119595238Y-114372380D01*
X119690476Y-114420000D01*
X119738095Y-114467619D01*
X119785714Y-114562857D01*
X119785714Y-114658095D01*
X119738095Y-114800952D01*
X119166666Y-115372380D01*
X119785714Y-115372380D01*
%TO.C,C3*%
X114433333Y-115277142D02*
X114385714Y-115324761D01*
X114242857Y-115372380D01*
X114147619Y-115372380D01*
X114004761Y-115324761D01*
X113909523Y-115229523D01*
X113861904Y-115134285D01*
X113814285Y-114943809D01*
X113814285Y-114800952D01*
X113861904Y-114610476D01*
X113909523Y-114515238D01*
X114004761Y-114420000D01*
X114147619Y-114372380D01*
X114242857Y-114372380D01*
X114385714Y-114420000D01*
X114433333Y-114467619D01*
X114766666Y-114372380D02*
X115385714Y-114372380D01*
X115052380Y-114753333D01*
X115195238Y-114753333D01*
X115290476Y-114800952D01*
X115338095Y-114848571D01*
X115385714Y-114943809D01*
X115385714Y-115181904D01*
X115338095Y-115277142D01*
X115290476Y-115324761D01*
X115195238Y-115372380D01*
X114909523Y-115372380D01*
X114814285Y-115324761D01*
X114766666Y-115277142D01*
D11*
%TO.C,Q1*%
X132723809Y-92638095D02*
X132647619Y-92600000D01*
X132571428Y-92523809D01*
X132457142Y-92409523D01*
X132380952Y-92371428D01*
X132304761Y-92371428D01*
X132342857Y-92561904D02*
X132266666Y-92523809D01*
X132190476Y-92447619D01*
X132152380Y-92295238D01*
X132152380Y-92028571D01*
X132190476Y-91876190D01*
X132266666Y-91800000D01*
X132342857Y-91761904D01*
X132495238Y-91761904D01*
X132571428Y-91800000D01*
X132647619Y-91876190D01*
X132685714Y-92028571D01*
X132685714Y-92295238D01*
X132647619Y-92447619D01*
X132571428Y-92523809D01*
X132495238Y-92561904D01*
X132342857Y-92561904D01*
X133447619Y-92561904D02*
X132990476Y-92561904D01*
X133219047Y-92561904D02*
X133219047Y-91761904D01*
X133142857Y-91876190D01*
X133066666Y-91952380D01*
X132990476Y-91990476D01*
D10*
%TO.C,R2*%
X104033333Y-87852380D02*
X103700000Y-87376190D01*
X103461904Y-87852380D02*
X103461904Y-86852380D01*
X103842857Y-86852380D01*
X103938095Y-86900000D01*
X103985714Y-86947619D01*
X104033333Y-87042857D01*
X104033333Y-87185714D01*
X103985714Y-87280952D01*
X103938095Y-87328571D01*
X103842857Y-87376190D01*
X103461904Y-87376190D01*
X104414285Y-86947619D02*
X104461904Y-86900000D01*
X104557142Y-86852380D01*
X104795238Y-86852380D01*
X104890476Y-86900000D01*
X104938095Y-86947619D01*
X104985714Y-87042857D01*
X104985714Y-87138095D01*
X104938095Y-87280952D01*
X104366666Y-87852380D01*
X104985714Y-87852380D01*
%TO.C,R3*%
X108553333Y-93452380D02*
X108220000Y-92976190D01*
X107981904Y-93452380D02*
X107981904Y-92452380D01*
X108362857Y-92452380D01*
X108458095Y-92500000D01*
X108505714Y-92547619D01*
X108553333Y-92642857D01*
X108553333Y-92785714D01*
X108505714Y-92880952D01*
X108458095Y-92928571D01*
X108362857Y-92976190D01*
X107981904Y-92976190D01*
X108886666Y-92452380D02*
X109505714Y-92452380D01*
X109172380Y-92833333D01*
X109315238Y-92833333D01*
X109410476Y-92880952D01*
X109458095Y-92928571D01*
X109505714Y-93023809D01*
X109505714Y-93261904D01*
X109458095Y-93357142D01*
X109410476Y-93404761D01*
X109315238Y-93452380D01*
X109029523Y-93452380D01*
X108934285Y-93404761D01*
X108886666Y-93357142D01*
%TO.C,U2*%
X118308095Y-91692380D02*
X118308095Y-92501904D01*
X118355714Y-92597142D01*
X118403333Y-92644761D01*
X118498571Y-92692380D01*
X118689047Y-92692380D01*
X118784285Y-92644761D01*
X118831904Y-92597142D01*
X118879523Y-92501904D01*
X118879523Y-91692380D01*
X119308095Y-91787619D02*
X119355714Y-91740000D01*
X119450952Y-91692380D01*
X119689047Y-91692380D01*
X119784285Y-91740000D01*
X119831904Y-91787619D01*
X119879523Y-91882857D01*
X119879523Y-91978095D01*
X119831904Y-92120952D01*
X119260476Y-92692380D01*
X119879523Y-92692380D01*
%TO.C,U3*%
X114988095Y-121352380D02*
X114988095Y-122161904D01*
X115035714Y-122257142D01*
X115083333Y-122304761D01*
X115178571Y-122352380D01*
X115369047Y-122352380D01*
X115464285Y-122304761D01*
X115511904Y-122257142D01*
X115559523Y-122161904D01*
X115559523Y-121352380D01*
X115940476Y-121352380D02*
X116559523Y-121352380D01*
X116226190Y-121733333D01*
X116369047Y-121733333D01*
X116464285Y-121780952D01*
X116511904Y-121828571D01*
X116559523Y-121923809D01*
X116559523Y-122161904D01*
X116511904Y-122257142D01*
X116464285Y-122304761D01*
X116369047Y-122352380D01*
X116083333Y-122352380D01*
X115988095Y-122304761D01*
X115940476Y-122257142D01*
%TO.C,Q2*%
X127504761Y-113747619D02*
X127409523Y-113700000D01*
X127314285Y-113604761D01*
X127171428Y-113461904D01*
X127076190Y-113414285D01*
X126980952Y-113414285D01*
X127028571Y-113652380D02*
X126933333Y-113604761D01*
X126838095Y-113509523D01*
X126790476Y-113319047D01*
X126790476Y-112985714D01*
X126838095Y-112795238D01*
X126933333Y-112700000D01*
X127028571Y-112652380D01*
X127219047Y-112652380D01*
X127314285Y-112700000D01*
X127409523Y-112795238D01*
X127457142Y-112985714D01*
X127457142Y-113319047D01*
X127409523Y-113509523D01*
X127314285Y-113604761D01*
X127219047Y-113652380D01*
X127028571Y-113652380D01*
X127838095Y-112747619D02*
X127885714Y-112700000D01*
X127980952Y-112652380D01*
X128219047Y-112652380D01*
X128314285Y-112700000D01*
X128361904Y-112747619D01*
X128409523Y-112842857D01*
X128409523Y-112938095D01*
X128361904Y-113080952D01*
X127790476Y-113652380D01*
X128409523Y-113652380D01*
%TO.C,R5*%
X133842380Y-115626666D02*
X133366190Y-115960000D01*
X133842380Y-116198095D02*
X132842380Y-116198095D01*
X132842380Y-115817142D01*
X132890000Y-115721904D01*
X132937619Y-115674285D01*
X133032857Y-115626666D01*
X133175714Y-115626666D01*
X133270952Y-115674285D01*
X133318571Y-115721904D01*
X133366190Y-115817142D01*
X133366190Y-116198095D01*
X132842380Y-114721904D02*
X132842380Y-115198095D01*
X133318571Y-115245714D01*
X133270952Y-115198095D01*
X133223333Y-115102857D01*
X133223333Y-114864761D01*
X133270952Y-114769523D01*
X133318571Y-114721904D01*
X133413809Y-114674285D01*
X133651904Y-114674285D01*
X133747142Y-114721904D01*
X133794761Y-114769523D01*
X133842380Y-114864761D01*
X133842380Y-115102857D01*
X133794761Y-115198095D01*
X133747142Y-115245714D01*
%TO.C,U7*%
X164438095Y-117852380D02*
X164438095Y-118661904D01*
X164485714Y-118757142D01*
X164533333Y-118804761D01*
X164628571Y-118852380D01*
X164819047Y-118852380D01*
X164914285Y-118804761D01*
X164961904Y-118757142D01*
X165009523Y-118661904D01*
X165009523Y-117852380D01*
X165390476Y-117852380D02*
X166057142Y-117852380D01*
X165628571Y-118852380D01*
%TO.C,B5*%
X128978571Y-125604761D02*
X129026190Y-125461904D01*
X129073809Y-125414285D01*
X129169047Y-125366666D01*
X129311904Y-125366666D01*
X129407142Y-125414285D01*
X129454761Y-125461904D01*
X129502380Y-125557142D01*
X129502380Y-125938095D01*
X128502380Y-125938095D01*
X128502380Y-125604761D01*
X128550000Y-125509523D01*
X128597619Y-125461904D01*
X128692857Y-125414285D01*
X128788095Y-125414285D01*
X128883333Y-125461904D01*
X128930952Y-125509523D01*
X128978571Y-125604761D01*
X128978571Y-125938095D01*
X128502380Y-124461904D02*
X128502380Y-124938095D01*
X128978571Y-124985714D01*
X128930952Y-124938095D01*
X128883333Y-124842857D01*
X128883333Y-124604761D01*
X128930952Y-124509523D01*
X128978571Y-124461904D01*
X129073809Y-124414285D01*
X129311904Y-124414285D01*
X129407142Y-124461904D01*
X129454761Y-124509523D01*
X129502380Y-124604761D01*
X129502380Y-124842857D01*
X129454761Y-124938095D01*
X129407142Y-124985714D01*
%TO.C,B7*%
X111195238Y-123778571D02*
X111338095Y-123826190D01*
X111385714Y-123873809D01*
X111433333Y-123969047D01*
X111433333Y-124111904D01*
X111385714Y-124207142D01*
X111338095Y-124254761D01*
X111242857Y-124302380D01*
X110861904Y-124302380D01*
X110861904Y-123302380D01*
X111195238Y-123302380D01*
X111290476Y-123350000D01*
X111338095Y-123397619D01*
X111385714Y-123492857D01*
X111385714Y-123588095D01*
X111338095Y-123683333D01*
X111290476Y-123730952D01*
X111195238Y-123778571D01*
X110861904Y-123778571D01*
X111766666Y-123302380D02*
X112433333Y-123302380D01*
X112004761Y-124302380D01*
%TO.C,B6*%
X122995238Y-125478571D02*
X123138095Y-125526190D01*
X123185714Y-125573809D01*
X123233333Y-125669047D01*
X123233333Y-125811904D01*
X123185714Y-125907142D01*
X123138095Y-125954761D01*
X123042857Y-126002380D01*
X122661904Y-126002380D01*
X122661904Y-125002380D01*
X122995238Y-125002380D01*
X123090476Y-125050000D01*
X123138095Y-125097619D01*
X123185714Y-125192857D01*
X123185714Y-125288095D01*
X123138095Y-125383333D01*
X123090476Y-125430952D01*
X122995238Y-125478571D01*
X122661904Y-125478571D01*
X124090476Y-125002380D02*
X123900000Y-125002380D01*
X123804761Y-125050000D01*
X123757142Y-125097619D01*
X123661904Y-125240476D01*
X123614285Y-125430952D01*
X123614285Y-125811904D01*
X123661904Y-125907142D01*
X123709523Y-125954761D01*
X123804761Y-126002380D01*
X123995238Y-126002380D01*
X124090476Y-125954761D01*
X124138095Y-125907142D01*
X124185714Y-125811904D01*
X124185714Y-125573809D01*
X124138095Y-125478571D01*
X124090476Y-125430952D01*
X123995238Y-125383333D01*
X123804761Y-125383333D01*
X123709523Y-125430952D01*
X123661904Y-125478571D01*
X123614285Y-125573809D01*
%TO.C,B8*%
X111665238Y-92758571D02*
X111808095Y-92806190D01*
X111855714Y-92853809D01*
X111903333Y-92949047D01*
X111903333Y-93091904D01*
X111855714Y-93187142D01*
X111808095Y-93234761D01*
X111712857Y-93282380D01*
X111331904Y-93282380D01*
X111331904Y-92282380D01*
X111665238Y-92282380D01*
X111760476Y-92330000D01*
X111808095Y-92377619D01*
X111855714Y-92472857D01*
X111855714Y-92568095D01*
X111808095Y-92663333D01*
X111760476Y-92710952D01*
X111665238Y-92758571D01*
X111331904Y-92758571D01*
X112474761Y-92710952D02*
X112379523Y-92663333D01*
X112331904Y-92615714D01*
X112284285Y-92520476D01*
X112284285Y-92472857D01*
X112331904Y-92377619D01*
X112379523Y-92330000D01*
X112474761Y-92282380D01*
X112665238Y-92282380D01*
X112760476Y-92330000D01*
X112808095Y-92377619D01*
X112855714Y-92472857D01*
X112855714Y-92520476D01*
X112808095Y-92615714D01*
X112760476Y-92663333D01*
X112665238Y-92710952D01*
X112474761Y-92710952D01*
X112379523Y-92758571D01*
X112331904Y-92806190D01*
X112284285Y-92901428D01*
X112284285Y-93091904D01*
X112331904Y-93187142D01*
X112379523Y-93234761D01*
X112474761Y-93282380D01*
X112665238Y-93282380D01*
X112760476Y-93234761D01*
X112808095Y-93187142D01*
X112855714Y-93091904D01*
X112855714Y-92901428D01*
X112808095Y-92806190D01*
X112760476Y-92758571D01*
X112665238Y-92710952D01*
%TO.C,U4*%
X126708095Y-118642380D02*
X126708095Y-119451904D01*
X126755714Y-119547142D01*
X126803333Y-119594761D01*
X126898571Y-119642380D01*
X127089047Y-119642380D01*
X127184285Y-119594761D01*
X127231904Y-119547142D01*
X127279523Y-119451904D01*
X127279523Y-118642380D01*
X128184285Y-118975714D02*
X128184285Y-119642380D01*
X127946190Y-118594761D02*
X127708095Y-119309047D01*
X128327142Y-119309047D01*
%TO.C,J5*%
X134106666Y-130042380D02*
X134106666Y-130756666D01*
X134059047Y-130899523D01*
X133963809Y-130994761D01*
X133820952Y-131042380D01*
X133725714Y-131042380D01*
X135059047Y-130042380D02*
X134582857Y-130042380D01*
X134535238Y-130518571D01*
X134582857Y-130470952D01*
X134678095Y-130423333D01*
X134916190Y-130423333D01*
X135011428Y-130470952D01*
X135059047Y-130518571D01*
X135106666Y-130613809D01*
X135106666Y-130851904D01*
X135059047Y-130947142D01*
X135011428Y-130994761D01*
X134916190Y-131042380D01*
X134678095Y-131042380D01*
X134582857Y-130994761D01*
X134535238Y-130947142D01*
%TO.C,Q4*%
X130004761Y-123047619D02*
X129909523Y-123000000D01*
X129814285Y-122904761D01*
X129671428Y-122761904D01*
X129576190Y-122714285D01*
X129480952Y-122714285D01*
X129528571Y-122952380D02*
X129433333Y-122904761D01*
X129338095Y-122809523D01*
X129290476Y-122619047D01*
X129290476Y-122285714D01*
X129338095Y-122095238D01*
X129433333Y-122000000D01*
X129528571Y-121952380D01*
X129719047Y-121952380D01*
X129814285Y-122000000D01*
X129909523Y-122095238D01*
X129957142Y-122285714D01*
X129957142Y-122619047D01*
X129909523Y-122809523D01*
X129814285Y-122904761D01*
X129719047Y-122952380D01*
X129528571Y-122952380D01*
X130814285Y-122285714D02*
X130814285Y-122952380D01*
X130576190Y-121904761D02*
X130338095Y-122619047D01*
X130957142Y-122619047D01*
%TO.C,R6*%
X139453333Y-111492380D02*
X139120000Y-111016190D01*
X138881904Y-111492380D02*
X138881904Y-110492380D01*
X139262857Y-110492380D01*
X139358095Y-110540000D01*
X139405714Y-110587619D01*
X139453333Y-110682857D01*
X139453333Y-110825714D01*
X139405714Y-110920952D01*
X139358095Y-110968571D01*
X139262857Y-111016190D01*
X138881904Y-111016190D01*
X140310476Y-110492380D02*
X140120000Y-110492380D01*
X140024761Y-110540000D01*
X139977142Y-110587619D01*
X139881904Y-110730476D01*
X139834285Y-110920952D01*
X139834285Y-111301904D01*
X139881904Y-111397142D01*
X139929523Y-111444761D01*
X140024761Y-111492380D01*
X140215238Y-111492380D01*
X140310476Y-111444761D01*
X140358095Y-111397142D01*
X140405714Y-111301904D01*
X140405714Y-111063809D01*
X140358095Y-110968571D01*
X140310476Y-110920952D01*
X140215238Y-110873333D01*
X140024761Y-110873333D01*
X139929523Y-110920952D01*
X139881904Y-110968571D01*
X139834285Y-111063809D01*
%TO.C,R10*%
X132057142Y-127352380D02*
X131723809Y-126876190D01*
X131485714Y-127352380D02*
X131485714Y-126352380D01*
X131866666Y-126352380D01*
X131961904Y-126400000D01*
X132009523Y-126447619D01*
X132057142Y-126542857D01*
X132057142Y-126685714D01*
X132009523Y-126780952D01*
X131961904Y-126828571D01*
X131866666Y-126876190D01*
X131485714Y-126876190D01*
X133009523Y-127352380D02*
X132438095Y-127352380D01*
X132723809Y-127352380D02*
X132723809Y-126352380D01*
X132628571Y-126495238D01*
X132533333Y-126590476D01*
X132438095Y-126638095D01*
X133628571Y-126352380D02*
X133723809Y-126352380D01*
X133819047Y-126400000D01*
X133866666Y-126447619D01*
X133914285Y-126542857D01*
X133961904Y-126733333D01*
X133961904Y-126971428D01*
X133914285Y-127161904D01*
X133866666Y-127257142D01*
X133819047Y-127304761D01*
X133723809Y-127352380D01*
X133628571Y-127352380D01*
X133533333Y-127304761D01*
X133485714Y-127257142D01*
X133438095Y-127161904D01*
X133390476Y-126971428D01*
X133390476Y-126733333D01*
X133438095Y-126542857D01*
X133485714Y-126447619D01*
X133533333Y-126400000D01*
X133628571Y-126352380D01*
%TO.C,J4*%
X146546666Y-103152380D02*
X146546666Y-103866666D01*
X146499047Y-104009523D01*
X146403809Y-104104761D01*
X146260952Y-104152380D01*
X146165714Y-104152380D01*
X147451428Y-103485714D02*
X147451428Y-104152380D01*
X147213333Y-103104761D02*
X146975238Y-103819047D01*
X147594285Y-103819047D01*
%TO.C,J6*%
X150626666Y-90832380D02*
X150626666Y-91546666D01*
X150579047Y-91689523D01*
X150483809Y-91784761D01*
X150340952Y-91832380D01*
X150245714Y-91832380D01*
X151531428Y-90832380D02*
X151340952Y-90832380D01*
X151245714Y-90880000D01*
X151198095Y-90927619D01*
X151102857Y-91070476D01*
X151055238Y-91260952D01*
X151055238Y-91641904D01*
X151102857Y-91737142D01*
X151150476Y-91784761D01*
X151245714Y-91832380D01*
X151436190Y-91832380D01*
X151531428Y-91784761D01*
X151579047Y-91737142D01*
X151626666Y-91641904D01*
X151626666Y-91403809D01*
X151579047Y-91308571D01*
X151531428Y-91260952D01*
X151436190Y-91213333D01*
X151245714Y-91213333D01*
X151150476Y-91260952D01*
X151102857Y-91308571D01*
X151055238Y-91403809D01*
%TO.C,R20*%
X138857142Y-101252380D02*
X138523809Y-100776190D01*
X138285714Y-101252380D02*
X138285714Y-100252380D01*
X138666666Y-100252380D01*
X138761904Y-100300000D01*
X138809523Y-100347619D01*
X138857142Y-100442857D01*
X138857142Y-100585714D01*
X138809523Y-100680952D01*
X138761904Y-100728571D01*
X138666666Y-100776190D01*
X138285714Y-100776190D01*
X139238095Y-100347619D02*
X139285714Y-100300000D01*
X139380952Y-100252380D01*
X139619047Y-100252380D01*
X139714285Y-100300000D01*
X139761904Y-100347619D01*
X139809523Y-100442857D01*
X139809523Y-100538095D01*
X139761904Y-100680952D01*
X139190476Y-101252380D01*
X139809523Y-101252380D01*
X140428571Y-100252380D02*
X140523809Y-100252380D01*
X140619047Y-100300000D01*
X140666666Y-100347619D01*
X140714285Y-100442857D01*
X140761904Y-100633333D01*
X140761904Y-100871428D01*
X140714285Y-101061904D01*
X140666666Y-101157142D01*
X140619047Y-101204761D01*
X140523809Y-101252380D01*
X140428571Y-101252380D01*
X140333333Y-101204761D01*
X140285714Y-101157142D01*
X140238095Y-101061904D01*
X140190476Y-100871428D01*
X140190476Y-100633333D01*
X140238095Y-100442857D01*
X140285714Y-100347619D01*
X140333333Y-100300000D01*
X140428571Y-100252380D01*
%TO.C,R21*%
X138857142Y-97252380D02*
X138523809Y-96776190D01*
X138285714Y-97252380D02*
X138285714Y-96252380D01*
X138666666Y-96252380D01*
X138761904Y-96300000D01*
X138809523Y-96347619D01*
X138857142Y-96442857D01*
X138857142Y-96585714D01*
X138809523Y-96680952D01*
X138761904Y-96728571D01*
X138666666Y-96776190D01*
X138285714Y-96776190D01*
X139238095Y-96347619D02*
X139285714Y-96300000D01*
X139380952Y-96252380D01*
X139619047Y-96252380D01*
X139714285Y-96300000D01*
X139761904Y-96347619D01*
X139809523Y-96442857D01*
X139809523Y-96538095D01*
X139761904Y-96680952D01*
X139190476Y-97252380D01*
X139809523Y-97252380D01*
X140761904Y-97252380D02*
X140190476Y-97252380D01*
X140476190Y-97252380D02*
X140476190Y-96252380D01*
X140380952Y-96395238D01*
X140285714Y-96490476D01*
X140190476Y-96538095D01*
%TO.C,R19*%
X138857142Y-106452380D02*
X138523809Y-105976190D01*
X138285714Y-106452380D02*
X138285714Y-105452380D01*
X138666666Y-105452380D01*
X138761904Y-105500000D01*
X138809523Y-105547619D01*
X138857142Y-105642857D01*
X138857142Y-105785714D01*
X138809523Y-105880952D01*
X138761904Y-105928571D01*
X138666666Y-105976190D01*
X138285714Y-105976190D01*
X139809523Y-106452380D02*
X139238095Y-106452380D01*
X139523809Y-106452380D02*
X139523809Y-105452380D01*
X139428571Y-105595238D01*
X139333333Y-105690476D01*
X139238095Y-105738095D01*
X140285714Y-106452380D02*
X140476190Y-106452380D01*
X140571428Y-106404761D01*
X140619047Y-106357142D01*
X140714285Y-106214285D01*
X140761904Y-106023809D01*
X140761904Y-105642857D01*
X140714285Y-105547619D01*
X140666666Y-105500000D01*
X140571428Y-105452380D01*
X140380952Y-105452380D01*
X140285714Y-105500000D01*
X140238095Y-105547619D01*
X140190476Y-105642857D01*
X140190476Y-105880952D01*
X140238095Y-105976190D01*
X140285714Y-106023809D01*
X140380952Y-106071428D01*
X140571428Y-106071428D01*
X140666666Y-106023809D01*
X140714285Y-105976190D01*
X140761904Y-105880952D01*
%TO.C,R26*%
X138857142Y-92352380D02*
X138523809Y-91876190D01*
X138285714Y-92352380D02*
X138285714Y-91352380D01*
X138666666Y-91352380D01*
X138761904Y-91400000D01*
X138809523Y-91447619D01*
X138857142Y-91542857D01*
X138857142Y-91685714D01*
X138809523Y-91780952D01*
X138761904Y-91828571D01*
X138666666Y-91876190D01*
X138285714Y-91876190D01*
X139238095Y-91447619D02*
X139285714Y-91400000D01*
X139380952Y-91352380D01*
X139619047Y-91352380D01*
X139714285Y-91400000D01*
X139761904Y-91447619D01*
X139809523Y-91542857D01*
X139809523Y-91638095D01*
X139761904Y-91780952D01*
X139190476Y-92352380D01*
X139809523Y-92352380D01*
X140666666Y-91352380D02*
X140476190Y-91352380D01*
X140380952Y-91400000D01*
X140333333Y-91447619D01*
X140238095Y-91590476D01*
X140190476Y-91780952D01*
X140190476Y-92161904D01*
X140238095Y-92257142D01*
X140285714Y-92304761D01*
X140380952Y-92352380D01*
X140571428Y-92352380D01*
X140666666Y-92304761D01*
X140714285Y-92257142D01*
X140761904Y-92161904D01*
X140761904Y-91923809D01*
X140714285Y-91828571D01*
X140666666Y-91780952D01*
X140571428Y-91733333D01*
X140380952Y-91733333D01*
X140285714Y-91780952D01*
X140238095Y-91828571D01*
X140190476Y-91923809D01*
%TO.C,J8*%
X135666666Y-92052380D02*
X135666666Y-92766666D01*
X135619047Y-92909523D01*
X135523809Y-93004761D01*
X135380952Y-93052380D01*
X135285714Y-93052380D01*
X136285714Y-92480952D02*
X136190476Y-92433333D01*
X136142857Y-92385714D01*
X136095238Y-92290476D01*
X136095238Y-92242857D01*
X136142857Y-92147619D01*
X136190476Y-92100000D01*
X136285714Y-92052380D01*
X136476190Y-92052380D01*
X136571428Y-92100000D01*
X136619047Y-92147619D01*
X136666666Y-92242857D01*
X136666666Y-92290476D01*
X136619047Y-92385714D01*
X136571428Y-92433333D01*
X136476190Y-92480952D01*
X136285714Y-92480952D01*
X136190476Y-92528571D01*
X136142857Y-92576190D01*
X136095238Y-92671428D01*
X136095238Y-92861904D01*
X136142857Y-92957142D01*
X136190476Y-93004761D01*
X136285714Y-93052380D01*
X136476190Y-93052380D01*
X136571428Y-93004761D01*
X136619047Y-92957142D01*
X136666666Y-92861904D01*
X136666666Y-92671428D01*
X136619047Y-92576190D01*
X136571428Y-92528571D01*
X136476190Y-92480952D01*
%TO.C,J12*%
X131380476Y-104782380D02*
X131380476Y-105496666D01*
X131332857Y-105639523D01*
X131237619Y-105734761D01*
X131094761Y-105782380D01*
X130999523Y-105782380D01*
X132380476Y-105782380D02*
X131809047Y-105782380D01*
X132094761Y-105782380D02*
X132094761Y-104782380D01*
X131999523Y-104925238D01*
X131904285Y-105020476D01*
X131809047Y-105068095D01*
X132761428Y-104877619D02*
X132809047Y-104830000D01*
X132904285Y-104782380D01*
X133142380Y-104782380D01*
X133237619Y-104830000D01*
X133285238Y-104877619D01*
X133332857Y-104972857D01*
X133332857Y-105068095D01*
X133285238Y-105210952D01*
X132713809Y-105782380D01*
X133332857Y-105782380D01*
%TO.C,U1*%
X185218095Y-116712380D02*
X185218095Y-117521904D01*
X185265714Y-117617142D01*
X185313333Y-117664761D01*
X185408571Y-117712380D01*
X185599047Y-117712380D01*
X185694285Y-117664761D01*
X185741904Y-117617142D01*
X185789523Y-117521904D01*
X185789523Y-116712380D01*
X186789523Y-117712380D02*
X186218095Y-117712380D01*
X186503809Y-117712380D02*
X186503809Y-116712380D01*
X186408571Y-116855238D01*
X186313333Y-116950476D01*
X186218095Y-116998095D01*
X194661904Y-130771428D02*
X194661904Y-131228571D01*
X194661904Y-131000000D02*
X193861904Y-131000000D01*
X193976190Y-131076190D01*
X194052380Y-131152380D01*
X194090476Y-131228571D01*
X193861904Y-110966666D02*
X193861904Y-110433333D01*
X194661904Y-110776190D01*
X185890476Y-83523809D02*
X186004761Y-83561904D01*
X186195238Y-83561904D01*
X186271428Y-83523809D01*
X186309523Y-83485714D01*
X186347619Y-83409523D01*
X186347619Y-83333333D01*
X186309523Y-83257142D01*
X186271428Y-83219047D01*
X186195238Y-83180952D01*
X186042857Y-83142857D01*
X185966666Y-83104761D01*
X185928571Y-83066666D01*
X185890476Y-82990476D01*
X185890476Y-82914285D01*
X185928571Y-82838095D01*
X185966666Y-82800000D01*
X186042857Y-82761904D01*
X186233333Y-82761904D01*
X186347619Y-82800000D01*
X186614285Y-82761904D02*
X186804761Y-83561904D01*
X186957142Y-82990476D01*
X187109523Y-83561904D01*
X187300000Y-82761904D01*
X188061904Y-83485714D02*
X188023809Y-83523809D01*
X187909523Y-83561904D01*
X187833333Y-83561904D01*
X187719047Y-83523809D01*
X187642857Y-83447619D01*
X187604761Y-83371428D01*
X187566666Y-83219047D01*
X187566666Y-83104761D01*
X187604761Y-82952380D01*
X187642857Y-82876190D01*
X187719047Y-82800000D01*
X187833333Y-82761904D01*
X187909523Y-82761904D01*
X188023809Y-82800000D01*
X188061904Y-82838095D01*
X188785714Y-83561904D02*
X188404761Y-83561904D01*
X188404761Y-82761904D01*
X189052380Y-83561904D02*
X189052380Y-82761904D01*
X189509523Y-83561904D02*
X189166666Y-83104761D01*
X189509523Y-82761904D02*
X189052380Y-83219047D01*
X167353129Y-134327309D02*
X168107377Y-134704433D01*
X167730253Y-133950186D01*
X168376751Y-133842436D02*
X168484500Y-133788561D01*
X168538375Y-133788561D01*
X168619187Y-133815499D01*
X168700000Y-133896311D01*
X168726937Y-133977123D01*
X168726937Y-134030998D01*
X168700000Y-134111810D01*
X168484500Y-134327309D01*
X167918815Y-133761624D01*
X168107377Y-133573062D01*
X168188189Y-133546125D01*
X168242064Y-133546125D01*
X168322876Y-133573062D01*
X168376751Y-133626937D01*
X168403688Y-133707749D01*
X168403688Y-133761624D01*
X168376751Y-133842436D01*
X168188189Y-134030998D01*
X168484500Y-133195938D02*
X168942436Y-133653874D01*
X169023248Y-133680812D01*
X169077123Y-133680812D01*
X169157935Y-133653874D01*
X169265685Y-133546125D01*
X169292622Y-133465312D01*
X169292622Y-133411438D01*
X169265685Y-133330625D01*
X168807749Y-132872690D01*
X169588934Y-133169001D02*
X169696683Y-133115126D01*
X169831370Y-132980439D01*
X169858308Y-132899627D01*
X169858308Y-132845752D01*
X169831370Y-132764940D01*
X169777496Y-132711065D01*
X169696683Y-132684128D01*
X169642809Y-132684128D01*
X169561996Y-132711065D01*
X169427309Y-132791877D01*
X169346497Y-132818815D01*
X169292622Y-132818815D01*
X169211810Y-132791877D01*
X169157935Y-132738003D01*
X169130998Y-132657190D01*
X169130998Y-132603316D01*
X169157935Y-132522503D01*
X169292622Y-132387816D01*
X169400372Y-132333942D01*
X194661904Y-85422380D02*
X194661904Y-85879523D01*
X194661904Y-85650952D02*
X193861904Y-85650952D01*
X193976190Y-85727142D01*
X194052380Y-85803333D01*
X194090476Y-85879523D01*
X193861904Y-84698571D02*
X193861904Y-85079523D01*
X194242857Y-85117619D01*
X194204761Y-85079523D01*
X194166666Y-85003333D01*
X194166666Y-84812857D01*
X194204761Y-84736666D01*
X194242857Y-84698571D01*
X194319047Y-84660476D01*
X194509523Y-84660476D01*
X194585714Y-84698571D01*
X194623809Y-84736666D01*
X194661904Y-84812857D01*
X194661904Y-85003333D01*
X194623809Y-85079523D01*
X194585714Y-85117619D01*
X193938095Y-126138571D02*
X193900000Y-126100476D01*
X193861904Y-126024285D01*
X193861904Y-125833809D01*
X193900000Y-125757619D01*
X193938095Y-125719523D01*
X194014285Y-125681428D01*
X194090476Y-125681428D01*
X194204761Y-125719523D01*
X194661904Y-126176666D01*
X194661904Y-125681428D01*
X193861904Y-118099523D02*
X193861904Y-118480476D01*
X194242857Y-118518571D01*
X194204761Y-118480476D01*
X194166666Y-118404285D01*
X194166666Y-118213809D01*
X194204761Y-118137619D01*
X194242857Y-118099523D01*
X194319047Y-118061428D01*
X194509523Y-118061428D01*
X194585714Y-118099523D01*
X194623809Y-118137619D01*
X194661904Y-118213809D01*
X194661904Y-118404285D01*
X194623809Y-118480476D01*
X194585714Y-118518571D01*
X193900000Y-90959523D02*
X193861904Y-91035714D01*
X193861904Y-91150000D01*
X193900000Y-91264285D01*
X193976190Y-91340476D01*
X194052380Y-91378571D01*
X194204761Y-91416666D01*
X194319047Y-91416666D01*
X194471428Y-91378571D01*
X194547619Y-91340476D01*
X194623809Y-91264285D01*
X194661904Y-91150000D01*
X194661904Y-91073809D01*
X194623809Y-90959523D01*
X194585714Y-90921428D01*
X194319047Y-90921428D01*
X194319047Y-91073809D01*
X194661904Y-90578571D02*
X193861904Y-90578571D01*
X194661904Y-90121428D01*
X193861904Y-90121428D01*
X194661904Y-89740476D02*
X193861904Y-89740476D01*
X193861904Y-89550000D01*
X193900000Y-89435714D01*
X193976190Y-89359523D01*
X194052380Y-89321428D01*
X194204761Y-89283333D01*
X194319047Y-89283333D01*
X194471428Y-89321428D01*
X194547619Y-89359523D01*
X194623809Y-89435714D01*
X194661904Y-89550000D01*
X194661904Y-89740476D01*
X193900000Y-116359523D02*
X193861904Y-116435714D01*
X193861904Y-116550000D01*
X193900000Y-116664285D01*
X193976190Y-116740476D01*
X194052380Y-116778571D01*
X194204761Y-116816666D01*
X194319047Y-116816666D01*
X194471428Y-116778571D01*
X194547619Y-116740476D01*
X194623809Y-116664285D01*
X194661904Y-116550000D01*
X194661904Y-116473809D01*
X194623809Y-116359523D01*
X194585714Y-116321428D01*
X194319047Y-116321428D01*
X194319047Y-116473809D01*
X194661904Y-115978571D02*
X193861904Y-115978571D01*
X194661904Y-115521428D01*
X193861904Y-115521428D01*
X194661904Y-115140476D02*
X193861904Y-115140476D01*
X193861904Y-114950000D01*
X193900000Y-114835714D01*
X193976190Y-114759523D01*
X194052380Y-114721428D01*
X194204761Y-114683333D01*
X194319047Y-114683333D01*
X194471428Y-114721428D01*
X194547619Y-114759523D01*
X194623809Y-114835714D01*
X194661904Y-114950000D01*
X194661904Y-115140476D01*
X194661904Y-98122380D02*
X194661904Y-98579523D01*
X194661904Y-98350952D02*
X193861904Y-98350952D01*
X193976190Y-98427142D01*
X194052380Y-98503333D01*
X194090476Y-98579523D01*
X194661904Y-97360476D02*
X194661904Y-97817619D01*
X194661904Y-97589047D02*
X193861904Y-97589047D01*
X193976190Y-97665238D01*
X194052380Y-97741428D01*
X194090476Y-97817619D01*
X194128571Y-120677619D02*
X194661904Y-120677619D01*
X193823809Y-120868095D02*
X194395238Y-121058571D01*
X194395238Y-120563333D01*
X194204761Y-108206190D02*
X194166666Y-108282380D01*
X194128571Y-108320476D01*
X194052380Y-108358571D01*
X194014285Y-108358571D01*
X193938095Y-108320476D01*
X193900000Y-108282380D01*
X193861904Y-108206190D01*
X193861904Y-108053809D01*
X193900000Y-107977619D01*
X193938095Y-107939523D01*
X194014285Y-107901428D01*
X194052380Y-107901428D01*
X194128571Y-107939523D01*
X194166666Y-107977619D01*
X194204761Y-108053809D01*
X194204761Y-108206190D01*
X194242857Y-108282380D01*
X194280952Y-108320476D01*
X194357142Y-108358571D01*
X194509523Y-108358571D01*
X194585714Y-108320476D01*
X194623809Y-108282380D01*
X194661904Y-108206190D01*
X194661904Y-108053809D01*
X194623809Y-107977619D01*
X194585714Y-107939523D01*
X194509523Y-107901428D01*
X194357142Y-107901428D01*
X194280952Y-107939523D01*
X194242857Y-107977619D01*
X194204761Y-108053809D01*
X167520473Y-131649966D02*
X168274720Y-132027089D01*
X167897597Y-131272842D01*
X168597969Y-131649966D02*
X168705719Y-131596091D01*
X168840406Y-131461404D01*
X168867343Y-131380592D01*
X168867343Y-131326717D01*
X168840406Y-131245905D01*
X168786531Y-131192030D01*
X168705719Y-131165093D01*
X168651844Y-131165093D01*
X168571032Y-131192030D01*
X168436345Y-131272842D01*
X168355532Y-131299780D01*
X168301658Y-131299780D01*
X168220845Y-131272842D01*
X168166971Y-131218967D01*
X168140033Y-131138155D01*
X168140033Y-131084280D01*
X168166971Y-131003468D01*
X168301658Y-130868781D01*
X168409407Y-130814906D01*
X169028967Y-130734094D02*
X169298341Y-131003468D01*
X168544094Y-130626345D02*
X169028967Y-130734094D01*
X168921218Y-130249221D01*
X169621590Y-130626345D02*
X169729340Y-130572470D01*
X169864027Y-130437783D01*
X169890964Y-130356971D01*
X169890964Y-130303096D01*
X169864027Y-130222284D01*
X169810152Y-130168409D01*
X169729340Y-130141471D01*
X169675465Y-130141471D01*
X169594653Y-130168409D01*
X169459966Y-130249221D01*
X169379154Y-130276158D01*
X169325279Y-130276158D01*
X169244467Y-130249221D01*
X169190592Y-130195346D01*
X169163654Y-130114534D01*
X169163654Y-130060659D01*
X169190592Y-129979847D01*
X169325279Y-129845160D01*
X169433028Y-129791285D01*
X194661904Y-105742380D02*
X194661904Y-105590000D01*
X194623809Y-105513809D01*
X194585714Y-105475714D01*
X194471428Y-105399523D01*
X194319047Y-105361428D01*
X194014285Y-105361428D01*
X193938095Y-105399523D01*
X193900000Y-105437619D01*
X193861904Y-105513809D01*
X193861904Y-105666190D01*
X193900000Y-105742380D01*
X193938095Y-105780476D01*
X194014285Y-105818571D01*
X194204761Y-105818571D01*
X194280952Y-105780476D01*
X194319047Y-105742380D01*
X194357142Y-105666190D01*
X194357142Y-105513809D01*
X194319047Y-105437619D01*
X194280952Y-105399523D01*
X194204761Y-105361428D01*
X193861904Y-133568095D02*
X193861904Y-133491904D01*
X193900000Y-133415714D01*
X193938095Y-133377619D01*
X194014285Y-133339523D01*
X194166666Y-133301428D01*
X194357142Y-133301428D01*
X194509523Y-133339523D01*
X194585714Y-133377619D01*
X194623809Y-133415714D01*
X194661904Y-133491904D01*
X194661904Y-133568095D01*
X194623809Y-133644285D01*
X194585714Y-133682380D01*
X194509523Y-133720476D01*
X194357142Y-133758571D01*
X194166666Y-133758571D01*
X194014285Y-133720476D01*
X193938095Y-133682380D01*
X193900000Y-133644285D01*
X193861904Y-133568095D01*
X174704761Y-83523809D02*
X174819047Y-83561904D01*
X175009523Y-83561904D01*
X175085714Y-83523809D01*
X175123809Y-83485714D01*
X175161904Y-83409523D01*
X175161904Y-83333333D01*
X175123809Y-83257142D01*
X175085714Y-83219047D01*
X175009523Y-83180952D01*
X174857142Y-83142857D01*
X174780952Y-83104761D01*
X174742857Y-83066666D01*
X174704761Y-82990476D01*
X174704761Y-82914285D01*
X174742857Y-82838095D01*
X174780952Y-82800000D01*
X174857142Y-82761904D01*
X175047619Y-82761904D01*
X175161904Y-82800000D01*
X175428571Y-82761904D02*
X175619047Y-83561904D01*
X175771428Y-82990476D01*
X175923809Y-83561904D01*
X176114285Y-82761904D01*
X176419047Y-83561904D02*
X176419047Y-82761904D01*
X176609523Y-82761904D01*
X176723809Y-82800000D01*
X176800000Y-82876190D01*
X176838095Y-82952380D01*
X176876190Y-83104761D01*
X176876190Y-83219047D01*
X176838095Y-83371428D01*
X176800000Y-83447619D01*
X176723809Y-83523809D01*
X176609523Y-83561904D01*
X176419047Y-83561904D01*
X177219047Y-83561904D02*
X177219047Y-82761904D01*
X177752380Y-82761904D02*
X177904761Y-82761904D01*
X177980952Y-82800000D01*
X178057142Y-82876190D01*
X178095238Y-83028571D01*
X178095238Y-83295238D01*
X178057142Y-83447619D01*
X177980952Y-83523809D01*
X177904761Y-83561904D01*
X177752380Y-83561904D01*
X177676190Y-83523809D01*
X177600000Y-83447619D01*
X177561904Y-83295238D01*
X177561904Y-83028571D01*
X177600000Y-82876190D01*
X177676190Y-82800000D01*
X177752380Y-82761904D01*
X167989722Y-98360592D02*
X167908910Y-98387529D01*
X167828097Y-98468341D01*
X167774223Y-98576091D01*
X167774223Y-98683841D01*
X167801160Y-98764653D01*
X167881972Y-98899340D01*
X167962784Y-98980152D01*
X168097471Y-99060964D01*
X168178284Y-99087902D01*
X168286033Y-99087902D01*
X168393783Y-99034027D01*
X168447658Y-98980152D01*
X168501532Y-98872402D01*
X168501532Y-98818528D01*
X168312971Y-98629966D01*
X168205221Y-98737715D01*
X168797844Y-98629966D02*
X168232158Y-98064280D01*
X168447658Y-97848781D01*
X168528470Y-97821844D01*
X168582345Y-97821844D01*
X168663157Y-97848781D01*
X168743969Y-97929593D01*
X168770906Y-98010406D01*
X168770906Y-98064280D01*
X168743969Y-98145093D01*
X168528470Y-98360592D01*
X168824781Y-97579407D02*
X168824781Y-97525532D01*
X168851719Y-97444720D01*
X168986406Y-97310033D01*
X169067218Y-97283096D01*
X169121093Y-97283096D01*
X169201905Y-97310033D01*
X169255780Y-97363908D01*
X169309654Y-97471658D01*
X169309654Y-98118155D01*
X169659841Y-97767969D01*
X169444341Y-96852097D02*
X169498216Y-96798223D01*
X169579028Y-96771285D01*
X169632903Y-96771285D01*
X169713715Y-96798223D01*
X169848402Y-96879035D01*
X169983089Y-97013722D01*
X170063902Y-97148409D01*
X170090839Y-97229221D01*
X170090839Y-97283096D01*
X170063902Y-97363908D01*
X170010027Y-97417783D01*
X169929215Y-97444720D01*
X169875340Y-97444720D01*
X169794528Y-97417783D01*
X169659841Y-97336971D01*
X169525154Y-97202284D01*
X169444341Y-97067597D01*
X169417404Y-96986784D01*
X169417404Y-96932910D01*
X169444341Y-96852097D01*
X193900000Y-103659523D02*
X193861904Y-103735714D01*
X193861904Y-103850000D01*
X193900000Y-103964285D01*
X193976190Y-104040476D01*
X194052380Y-104078571D01*
X194204761Y-104116666D01*
X194319047Y-104116666D01*
X194471428Y-104078571D01*
X194547619Y-104040476D01*
X194623809Y-103964285D01*
X194661904Y-103850000D01*
X194661904Y-103773809D01*
X194623809Y-103659523D01*
X194585714Y-103621428D01*
X194319047Y-103621428D01*
X194319047Y-103773809D01*
X194661904Y-103278571D02*
X193861904Y-103278571D01*
X194661904Y-102821428D01*
X193861904Y-102821428D01*
X194661904Y-102440476D02*
X193861904Y-102440476D01*
X193861904Y-102250000D01*
X193900000Y-102135714D01*
X193976190Y-102059523D01*
X194052380Y-102021428D01*
X194204761Y-101983333D01*
X194319047Y-101983333D01*
X194471428Y-102021428D01*
X194547619Y-102059523D01*
X194623809Y-102135714D01*
X194661904Y-102250000D01*
X194661904Y-102440476D01*
X194661904Y-87962380D02*
X194661904Y-88419523D01*
X194661904Y-88190952D02*
X193861904Y-88190952D01*
X193976190Y-88267142D01*
X194052380Y-88343333D01*
X194090476Y-88419523D01*
X194128571Y-87276666D02*
X194661904Y-87276666D01*
X193823809Y-87467142D02*
X194395238Y-87657619D01*
X194395238Y-87162380D01*
X193861904Y-113057619D02*
X193861904Y-113210000D01*
X193900000Y-113286190D01*
X193938095Y-113324285D01*
X194052380Y-113400476D01*
X194204761Y-113438571D01*
X194509523Y-113438571D01*
X194585714Y-113400476D01*
X194623809Y-113362380D01*
X194661904Y-113286190D01*
X194661904Y-113133809D01*
X194623809Y-113057619D01*
X194585714Y-113019523D01*
X194509523Y-112981428D01*
X194319047Y-112981428D01*
X194242857Y-113019523D01*
X194204761Y-113057619D01*
X194166666Y-113133809D01*
X194166666Y-113286190D01*
X194204761Y-113362380D01*
X194242857Y-113400476D01*
X194319047Y-113438571D01*
X194661904Y-95582380D02*
X194661904Y-96039523D01*
X194661904Y-95810952D02*
X193861904Y-95810952D01*
X193976190Y-95887142D01*
X194052380Y-95963333D01*
X194090476Y-96039523D01*
X193938095Y-95277619D02*
X193900000Y-95239523D01*
X193861904Y-95163333D01*
X193861904Y-94972857D01*
X193900000Y-94896666D01*
X193938095Y-94858571D01*
X194014285Y-94820476D01*
X194090476Y-94820476D01*
X194204761Y-94858571D01*
X194661904Y-95315714D01*
X194661904Y-94820476D01*
X166154788Y-123933773D02*
X166424162Y-123664399D01*
X166262537Y-124149272D02*
X165885414Y-123395025D01*
X166639661Y-123772149D01*
X166828223Y-123583587D02*
X166262537Y-123017902D01*
X166397224Y-122883215D01*
X166504974Y-122829340D01*
X166612723Y-122829340D01*
X166693536Y-122856277D01*
X166828223Y-122937089D01*
X166909035Y-123017902D01*
X166989847Y-123152589D01*
X167016784Y-123233401D01*
X167016784Y-123341150D01*
X166962910Y-123448900D01*
X166828223Y-123583587D01*
X167663282Y-122640778D02*
X167663282Y-122694653D01*
X167609407Y-122802402D01*
X167555532Y-122856277D01*
X167447783Y-122910152D01*
X167340033Y-122910152D01*
X167259221Y-122883215D01*
X167124534Y-122802402D01*
X167043722Y-122721590D01*
X166962910Y-122586903D01*
X166935972Y-122506091D01*
X166935972Y-122398341D01*
X166989847Y-122290592D01*
X167043722Y-122236717D01*
X167151471Y-122182842D01*
X167205346Y-122182842D01*
X167878781Y-122640778D02*
X168309780Y-122209780D01*
X167744094Y-121536345D02*
X168498341Y-121913468D01*
X168121218Y-121159221D01*
X169198714Y-121213096D02*
X168740778Y-121132284D01*
X168875465Y-121536345D02*
X168309780Y-120970659D01*
X168525279Y-120755160D01*
X168606091Y-120728223D01*
X168659966Y-120728223D01*
X168740778Y-120755160D01*
X168821590Y-120835972D01*
X168848528Y-120916784D01*
X168848528Y-120970659D01*
X168821590Y-121051471D01*
X168606091Y-121266971D01*
X169144839Y-120674348D02*
X169333401Y-120485786D01*
X169710524Y-120701285D02*
X169441150Y-120970659D01*
X168875465Y-120404974D01*
X169144839Y-120135600D01*
X169845211Y-119973975D02*
X169656650Y-120162537D01*
X169952961Y-120458849D02*
X169387276Y-119893163D01*
X169656650Y-119623789D01*
X194661904Y-93042380D02*
X194661904Y-93499523D01*
X194661904Y-93270952D02*
X193861904Y-93270952D01*
X193976190Y-93347142D01*
X194052380Y-93423333D01*
X194090476Y-93499523D01*
X193861904Y-92775714D02*
X193861904Y-92280476D01*
X194166666Y-92547142D01*
X194166666Y-92432857D01*
X194204761Y-92356666D01*
X194242857Y-92318571D01*
X194319047Y-92280476D01*
X194509523Y-92280476D01*
X194585714Y-92318571D01*
X194623809Y-92356666D01*
X194661904Y-92432857D01*
X194661904Y-92661428D01*
X194623809Y-92737619D01*
X194585714Y-92775714D01*
X194661904Y-100662380D02*
X194661904Y-101119523D01*
X194661904Y-100890952D02*
X193861904Y-100890952D01*
X193976190Y-100967142D01*
X194052380Y-101043333D01*
X194090476Y-101119523D01*
X193861904Y-100167142D02*
X193861904Y-100090952D01*
X193900000Y-100014761D01*
X193938095Y-99976666D01*
X194014285Y-99938571D01*
X194166666Y-99900476D01*
X194357142Y-99900476D01*
X194509523Y-99938571D01*
X194585714Y-99976666D01*
X194623809Y-100014761D01*
X194661904Y-100090952D01*
X194661904Y-100167142D01*
X194623809Y-100243333D01*
X194585714Y-100281428D01*
X194509523Y-100319523D01*
X194357142Y-100357619D01*
X194166666Y-100357619D01*
X194014285Y-100319523D01*
X193938095Y-100281428D01*
X193900000Y-100243333D01*
X193861904Y-100167142D01*
X193900000Y-129059523D02*
X193861904Y-129135714D01*
X193861904Y-129250000D01*
X193900000Y-129364285D01*
X193976190Y-129440476D01*
X194052380Y-129478571D01*
X194204761Y-129516666D01*
X194319047Y-129516666D01*
X194471428Y-129478571D01*
X194547619Y-129440476D01*
X194623809Y-129364285D01*
X194661904Y-129250000D01*
X194661904Y-129173809D01*
X194623809Y-129059523D01*
X194585714Y-129021428D01*
X194319047Y-129021428D01*
X194319047Y-129173809D01*
X194661904Y-128678571D02*
X193861904Y-128678571D01*
X194661904Y-128221428D01*
X193861904Y-128221428D01*
X194661904Y-127840476D02*
X193861904Y-127840476D01*
X193861904Y-127650000D01*
X193900000Y-127535714D01*
X193976190Y-127459523D01*
X194052380Y-127421428D01*
X194204761Y-127383333D01*
X194319047Y-127383333D01*
X194471428Y-127421428D01*
X194547619Y-127459523D01*
X194623809Y-127535714D01*
X194661904Y-127650000D01*
X194661904Y-127840476D01*
X193861904Y-123636666D02*
X193861904Y-123141428D01*
X194166666Y-123408095D01*
X194166666Y-123293809D01*
X194204761Y-123217619D01*
X194242857Y-123179523D01*
X194319047Y-123141428D01*
X194509523Y-123141428D01*
X194585714Y-123179523D01*
X194623809Y-123217619D01*
X194661904Y-123293809D01*
X194661904Y-123522380D01*
X194623809Y-123598571D01*
X194585714Y-123636666D01*
X168089847Y-123690592D02*
X168440033Y-123340406D01*
X168466971Y-123744467D01*
X168547783Y-123663654D01*
X168628595Y-123636717D01*
X168682470Y-123636717D01*
X168763282Y-123663654D01*
X168897969Y-123798341D01*
X168924906Y-123879154D01*
X168924906Y-123933028D01*
X168897969Y-124013841D01*
X168736345Y-124175465D01*
X168655532Y-124202402D01*
X168601658Y-124202402D01*
X168601658Y-123178781D02*
X169355905Y-123555905D01*
X168978781Y-122801658D01*
X169113468Y-122666971D02*
X169463654Y-122316784D01*
X169490592Y-122720845D01*
X169571404Y-122640033D01*
X169652216Y-122613096D01*
X169706091Y-122613096D01*
X169786903Y-122640033D01*
X169921590Y-122774720D01*
X169948528Y-122855532D01*
X169948528Y-122909407D01*
X169921590Y-122990219D01*
X169759966Y-123151844D01*
X169679154Y-123178781D01*
X169625279Y-123178781D01*
X167989722Y-118934592D02*
X167908910Y-118961529D01*
X167828097Y-119042341D01*
X167774223Y-119150091D01*
X167774223Y-119257841D01*
X167801160Y-119338653D01*
X167881972Y-119473340D01*
X167962784Y-119554152D01*
X168097471Y-119634964D01*
X168178284Y-119661902D01*
X168286033Y-119661902D01*
X168393783Y-119608027D01*
X168447658Y-119554152D01*
X168501532Y-119446402D01*
X168501532Y-119392528D01*
X168312971Y-119203966D01*
X168205221Y-119311715D01*
X168797844Y-119203966D02*
X168232158Y-118638280D01*
X168447658Y-118422781D01*
X168528470Y-118395844D01*
X168582345Y-118395844D01*
X168663157Y-118422781D01*
X168743969Y-118503593D01*
X168770906Y-118584406D01*
X168770906Y-118638280D01*
X168743969Y-118719093D01*
X168528470Y-118934592D01*
X168824781Y-118153407D02*
X168824781Y-118099532D01*
X168851719Y-118018720D01*
X168986406Y-117884033D01*
X169067218Y-117857096D01*
X169121093Y-117857096D01*
X169201905Y-117884033D01*
X169255780Y-117937908D01*
X169309654Y-118045658D01*
X169309654Y-118692155D01*
X169659841Y-118341969D01*
X169659841Y-117695471D02*
X169579028Y-117722409D01*
X169525154Y-117722409D01*
X169444341Y-117695471D01*
X169417404Y-117668534D01*
X169390467Y-117587722D01*
X169390467Y-117533847D01*
X169417404Y-117453035D01*
X169525154Y-117345285D01*
X169605966Y-117318348D01*
X169659841Y-117318348D01*
X169740653Y-117345285D01*
X169767590Y-117372223D01*
X169794528Y-117453035D01*
X169794528Y-117506910D01*
X169767590Y-117587722D01*
X169659841Y-117695471D01*
X169632903Y-117776284D01*
X169632903Y-117830158D01*
X169659841Y-117910971D01*
X169767590Y-118018720D01*
X169848402Y-118045658D01*
X169902277Y-118045658D01*
X169983089Y-118018720D01*
X170090839Y-117910971D01*
X170117776Y-117830158D01*
X170117776Y-117776284D01*
X170090839Y-117695471D01*
X169983089Y-117587722D01*
X169902277Y-117560784D01*
X169848402Y-117560784D01*
X169767590Y-117587722D01*
%TO.C,J1*%
X104066666Y-83252380D02*
X104066666Y-83966666D01*
X104019047Y-84109523D01*
X103923809Y-84204761D01*
X103780952Y-84252380D01*
X103685714Y-84252380D01*
X105066666Y-84252380D02*
X104495238Y-84252380D01*
X104780952Y-84252380D02*
X104780952Y-83252380D01*
X104685714Y-83395238D01*
X104590476Y-83490476D01*
X104495238Y-83538095D01*
%TO.C,L1*%
X123933333Y-119102380D02*
X123457142Y-119102380D01*
X123457142Y-118102380D01*
X124790476Y-119102380D02*
X124219047Y-119102380D01*
X124504761Y-119102380D02*
X124504761Y-118102380D01*
X124409523Y-118245238D01*
X124314285Y-118340476D01*
X124219047Y-118388095D01*
%TO.C,L2*%
X113483333Y-119252380D02*
X113007142Y-119252380D01*
X113007142Y-118252380D01*
X113769047Y-118347619D02*
X113816666Y-118300000D01*
X113911904Y-118252380D01*
X114150000Y-118252380D01*
X114245238Y-118300000D01*
X114292857Y-118347619D01*
X114340476Y-118442857D01*
X114340476Y-118538095D01*
X114292857Y-118680952D01*
X113721428Y-119252380D01*
X114340476Y-119252380D01*
%TO.C,B16*%
X130848571Y-111990952D02*
X130896190Y-111848095D01*
X130943809Y-111800476D01*
X131039047Y-111752857D01*
X131181904Y-111752857D01*
X131277142Y-111800476D01*
X131324761Y-111848095D01*
X131372380Y-111943333D01*
X131372380Y-112324285D01*
X130372380Y-112324285D01*
X130372380Y-111990952D01*
X130420000Y-111895714D01*
X130467619Y-111848095D01*
X130562857Y-111800476D01*
X130658095Y-111800476D01*
X130753333Y-111848095D01*
X130800952Y-111895714D01*
X130848571Y-111990952D01*
X130848571Y-112324285D01*
X131372380Y-110800476D02*
X131372380Y-111371904D01*
X131372380Y-111086190D02*
X130372380Y-111086190D01*
X130515238Y-111181428D01*
X130610476Y-111276666D01*
X130658095Y-111371904D01*
X130372380Y-109943333D02*
X130372380Y-110133809D01*
X130420000Y-110229047D01*
X130467619Y-110276666D01*
X130610476Y-110371904D01*
X130800952Y-110419523D01*
X131181904Y-110419523D01*
X131277142Y-110371904D01*
X131324761Y-110324285D01*
X131372380Y-110229047D01*
X131372380Y-110038571D01*
X131324761Y-109943333D01*
X131277142Y-109895714D01*
X131181904Y-109848095D01*
X130943809Y-109848095D01*
X130848571Y-109895714D01*
X130800952Y-109943333D01*
X130753333Y-110038571D01*
X130753333Y-110229047D01*
X130800952Y-110324285D01*
X130848571Y-110371904D01*
X130943809Y-110419523D01*
%TO.C,D2*%
X138791904Y-113872380D02*
X138791904Y-112872380D01*
X139030000Y-112872380D01*
X139172857Y-112920000D01*
X139268095Y-113015238D01*
X139315714Y-113110476D01*
X139363333Y-113300952D01*
X139363333Y-113443809D01*
X139315714Y-113634285D01*
X139268095Y-113729523D01*
X139172857Y-113824761D01*
X139030000Y-113872380D01*
X138791904Y-113872380D01*
X139744285Y-112967619D02*
X139791904Y-112920000D01*
X139887142Y-112872380D01*
X140125238Y-112872380D01*
X140220476Y-112920000D01*
X140268095Y-112967619D01*
X140315714Y-113062857D01*
X140315714Y-113158095D01*
X140268095Y-113300952D01*
X139696666Y-113872380D01*
X140315714Y-113872380D01*
%TO.C,D3*%
X138581904Y-108902380D02*
X138581904Y-107902380D01*
X138820000Y-107902380D01*
X138962857Y-107950000D01*
X139058095Y-108045238D01*
X139105714Y-108140476D01*
X139153333Y-108330952D01*
X139153333Y-108473809D01*
X139105714Y-108664285D01*
X139058095Y-108759523D01*
X138962857Y-108854761D01*
X138820000Y-108902380D01*
X138581904Y-108902380D01*
X139486666Y-107902380D02*
X140105714Y-107902380D01*
X139772380Y-108283333D01*
X139915238Y-108283333D01*
X140010476Y-108330952D01*
X140058095Y-108378571D01*
X140105714Y-108473809D01*
X140105714Y-108711904D01*
X140058095Y-108807142D01*
X140010476Y-108854761D01*
X139915238Y-108902380D01*
X139629523Y-108902380D01*
X139534285Y-108854761D01*
X139486666Y-108807142D01*
%TO.C,D4*%
X138261904Y-103952380D02*
X138261904Y-102952380D01*
X138500000Y-102952380D01*
X138642857Y-103000000D01*
X138738095Y-103095238D01*
X138785714Y-103190476D01*
X138833333Y-103380952D01*
X138833333Y-103523809D01*
X138785714Y-103714285D01*
X138738095Y-103809523D01*
X138642857Y-103904761D01*
X138500000Y-103952380D01*
X138261904Y-103952380D01*
X139690476Y-103285714D02*
X139690476Y-103952380D01*
X139452380Y-102904761D02*
X139214285Y-103619047D01*
X139833333Y-103619047D01*
%TO.C,D5*%
X138461904Y-99052380D02*
X138461904Y-98052380D01*
X138700000Y-98052380D01*
X138842857Y-98100000D01*
X138938095Y-98195238D01*
X138985714Y-98290476D01*
X139033333Y-98480952D01*
X139033333Y-98623809D01*
X138985714Y-98814285D01*
X138938095Y-98909523D01*
X138842857Y-99004761D01*
X138700000Y-99052380D01*
X138461904Y-99052380D01*
X139938095Y-98052380D02*
X139461904Y-98052380D01*
X139414285Y-98528571D01*
X139461904Y-98480952D01*
X139557142Y-98433333D01*
X139795238Y-98433333D01*
X139890476Y-98480952D01*
X139938095Y-98528571D01*
X139985714Y-98623809D01*
X139985714Y-98861904D01*
X139938095Y-98957142D01*
X139890476Y-99004761D01*
X139795238Y-99052380D01*
X139557142Y-99052380D01*
X139461904Y-99004761D01*
X139414285Y-98957142D01*
%TO.C,D7*%
X138661904Y-94652380D02*
X138661904Y-93652380D01*
X138900000Y-93652380D01*
X139042857Y-93700000D01*
X139138095Y-93795238D01*
X139185714Y-93890476D01*
X139233333Y-94080952D01*
X139233333Y-94223809D01*
X139185714Y-94414285D01*
X139138095Y-94509523D01*
X139042857Y-94604761D01*
X138900000Y-94652380D01*
X138661904Y-94652380D01*
X139566666Y-93652380D02*
X140233333Y-93652380D01*
X139804761Y-94652380D01*
%TO.C,J2*%
X110286666Y-110742380D02*
X110286666Y-111456666D01*
X110239047Y-111599523D01*
X110143809Y-111694761D01*
X110000952Y-111742380D01*
X109905714Y-111742380D01*
X110715238Y-110837619D02*
X110762857Y-110790000D01*
X110858095Y-110742380D01*
X111096190Y-110742380D01*
X111191428Y-110790000D01*
X111239047Y-110837619D01*
X111286666Y-110932857D01*
X111286666Y-111028095D01*
X111239047Y-111170952D01*
X110667619Y-111742380D01*
X111286666Y-111742380D01*
%TO.C,J3*%
X134866666Y-107452380D02*
X134866666Y-108166666D01*
X134819047Y-108309523D01*
X134723809Y-108404761D01*
X134580952Y-108452380D01*
X134485714Y-108452380D01*
X135247619Y-107452380D02*
X135866666Y-107452380D01*
X135533333Y-107833333D01*
X135676190Y-107833333D01*
X135771428Y-107880952D01*
X135819047Y-107928571D01*
X135866666Y-108023809D01*
X135866666Y-108261904D01*
X135819047Y-108357142D01*
X135771428Y-108404761D01*
X135676190Y-108452380D01*
X135390476Y-108452380D01*
X135295238Y-108404761D01*
X135247619Y-108357142D01*
%TO.C,B20*%
X121819047Y-88718571D02*
X121961904Y-88766190D01*
X122009523Y-88813809D01*
X122057142Y-88909047D01*
X122057142Y-89051904D01*
X122009523Y-89147142D01*
X121961904Y-89194761D01*
X121866666Y-89242380D01*
X121485714Y-89242380D01*
X121485714Y-88242380D01*
X121819047Y-88242380D01*
X121914285Y-88290000D01*
X121961904Y-88337619D01*
X122009523Y-88432857D01*
X122009523Y-88528095D01*
X121961904Y-88623333D01*
X121914285Y-88670952D01*
X121819047Y-88718571D01*
X121485714Y-88718571D01*
X122438095Y-88337619D02*
X122485714Y-88290000D01*
X122580952Y-88242380D01*
X122819047Y-88242380D01*
X122914285Y-88290000D01*
X122961904Y-88337619D01*
X123009523Y-88432857D01*
X123009523Y-88528095D01*
X122961904Y-88670952D01*
X122390476Y-89242380D01*
X123009523Y-89242380D01*
X123628571Y-88242380D02*
X123723809Y-88242380D01*
X123819047Y-88290000D01*
X123866666Y-88337619D01*
X123914285Y-88432857D01*
X123961904Y-88623333D01*
X123961904Y-88861428D01*
X123914285Y-89051904D01*
X123866666Y-89147142D01*
X123819047Y-89194761D01*
X123723809Y-89242380D01*
X123628571Y-89242380D01*
X123533333Y-89194761D01*
X123485714Y-89147142D01*
X123438095Y-89051904D01*
X123390476Y-88861428D01*
X123390476Y-88623333D01*
X123438095Y-88432857D01*
X123485714Y-88337619D01*
X123533333Y-88290000D01*
X123628571Y-88242380D01*
%TO.C,R36*%
X122087142Y-94902380D02*
X121753809Y-94426190D01*
X121515714Y-94902380D02*
X121515714Y-93902380D01*
X121896666Y-93902380D01*
X121991904Y-93950000D01*
X122039523Y-93997619D01*
X122087142Y-94092857D01*
X122087142Y-94235714D01*
X122039523Y-94330952D01*
X121991904Y-94378571D01*
X121896666Y-94426190D01*
X121515714Y-94426190D01*
X122420476Y-93902380D02*
X123039523Y-93902380D01*
X122706190Y-94283333D01*
X122849047Y-94283333D01*
X122944285Y-94330952D01*
X122991904Y-94378571D01*
X123039523Y-94473809D01*
X123039523Y-94711904D01*
X122991904Y-94807142D01*
X122944285Y-94854761D01*
X122849047Y-94902380D01*
X122563333Y-94902380D01*
X122468095Y-94854761D01*
X122420476Y-94807142D01*
X123896666Y-93902380D02*
X123706190Y-93902380D01*
X123610952Y-93950000D01*
X123563333Y-93997619D01*
X123468095Y-94140476D01*
X123420476Y-94330952D01*
X123420476Y-94711904D01*
X123468095Y-94807142D01*
X123515714Y-94854761D01*
X123610952Y-94902380D01*
X123801428Y-94902380D01*
X123896666Y-94854761D01*
X123944285Y-94807142D01*
X123991904Y-94711904D01*
X123991904Y-94473809D01*
X123944285Y-94378571D01*
X123896666Y-94330952D01*
X123801428Y-94283333D01*
X123610952Y-94283333D01*
X123515714Y-94330952D01*
X123468095Y-94378571D01*
X123420476Y-94473809D01*
%TO.C,G1*%
X168475714Y-125352000D02*
X168380476Y-125304380D01*
X168237619Y-125304380D01*
X168094761Y-125352000D01*
X167999523Y-125447238D01*
X167951904Y-125542476D01*
X167904285Y-125732952D01*
X167904285Y-125875809D01*
X167951904Y-126066285D01*
X167999523Y-126161523D01*
X168094761Y-126256761D01*
X168237619Y-126304380D01*
X168332857Y-126304380D01*
X168475714Y-126256761D01*
X168523333Y-126209142D01*
X168523333Y-125875809D01*
X168332857Y-125875809D01*
X169475714Y-126304380D02*
X168904285Y-126304380D01*
X169190000Y-126304380D02*
X169190000Y-125304380D01*
X169094761Y-125447238D01*
X168999523Y-125542476D01*
X168904285Y-125590095D01*
%TO.C,G2*%
X126065714Y-88232000D02*
X125970476Y-88184380D01*
X125827619Y-88184380D01*
X125684761Y-88232000D01*
X125589523Y-88327238D01*
X125541904Y-88422476D01*
X125494285Y-88612952D01*
X125494285Y-88755809D01*
X125541904Y-88946285D01*
X125589523Y-89041523D01*
X125684761Y-89136761D01*
X125827619Y-89184380D01*
X125922857Y-89184380D01*
X126065714Y-89136761D01*
X126113333Y-89089142D01*
X126113333Y-88755809D01*
X125922857Y-88755809D01*
X126494285Y-88279619D02*
X126541904Y-88232000D01*
X126637142Y-88184380D01*
X126875238Y-88184380D01*
X126970476Y-88232000D01*
X127018095Y-88279619D01*
X127065714Y-88374857D01*
X127065714Y-88470095D01*
X127018095Y-88612952D01*
X126446666Y-89184380D01*
X127065714Y-89184380D01*
%TO.C,G3*%
X105325714Y-122182000D02*
X105230476Y-122134380D01*
X105087619Y-122134380D01*
X104944761Y-122182000D01*
X104849523Y-122277238D01*
X104801904Y-122372476D01*
X104754285Y-122562952D01*
X104754285Y-122705809D01*
X104801904Y-122896285D01*
X104849523Y-122991523D01*
X104944761Y-123086761D01*
X105087619Y-123134380D01*
X105182857Y-123134380D01*
X105325714Y-123086761D01*
X105373333Y-123039142D01*
X105373333Y-122705809D01*
X105182857Y-122705809D01*
X105706666Y-122134380D02*
X106325714Y-122134380D01*
X105992380Y-122515333D01*
X106135238Y-122515333D01*
X106230476Y-122562952D01*
X106278095Y-122610571D01*
X106325714Y-122705809D01*
X106325714Y-122943904D01*
X106278095Y-123039142D01*
X106230476Y-123086761D01*
X106135238Y-123134380D01*
X105849523Y-123134380D01*
X105754285Y-123086761D01*
X105706666Y-123039142D01*
%TO.C,J7*%
X134142380Y-117263333D02*
X134856666Y-117263333D01*
X134999523Y-117310952D01*
X135094761Y-117406190D01*
X135142380Y-117549047D01*
X135142380Y-117644285D01*
X134142380Y-116882380D02*
X134142380Y-116215714D01*
X135142380Y-116644285D01*
%TO.C,Sw5*%
X164194285Y-108714761D02*
X164337142Y-108762380D01*
X164575238Y-108762380D01*
X164670476Y-108714761D01*
X164718095Y-108667142D01*
X164765714Y-108571904D01*
X164765714Y-108476666D01*
X164718095Y-108381428D01*
X164670476Y-108333809D01*
X164575238Y-108286190D01*
X164384761Y-108238571D01*
X164289523Y-108190952D01*
X164241904Y-108143333D01*
X164194285Y-108048095D01*
X164194285Y-107952857D01*
X164241904Y-107857619D01*
X164289523Y-107810000D01*
X164384761Y-107762380D01*
X164622857Y-107762380D01*
X164765714Y-107810000D01*
X165099047Y-108095714D02*
X165289523Y-108762380D01*
X165480000Y-108286190D01*
X165670476Y-108762380D01*
X165860952Y-108095714D01*
X166718095Y-107762380D02*
X166241904Y-107762380D01*
X166194285Y-108238571D01*
X166241904Y-108190952D01*
X166337142Y-108143333D01*
X166575238Y-108143333D01*
X166670476Y-108190952D01*
X166718095Y-108238571D01*
X166765714Y-108333809D01*
X166765714Y-108571904D01*
X166718095Y-108667142D01*
X166670476Y-108714761D01*
X166575238Y-108762380D01*
X166337142Y-108762380D01*
X166241904Y-108714761D01*
X166194285Y-108667142D01*
%TO.C,Sw12*%
X131018095Y-118894761D02*
X131160952Y-118942380D01*
X131399047Y-118942380D01*
X131494285Y-118894761D01*
X131541904Y-118847142D01*
X131589523Y-118751904D01*
X131589523Y-118656666D01*
X131541904Y-118561428D01*
X131494285Y-118513809D01*
X131399047Y-118466190D01*
X131208571Y-118418571D01*
X131113333Y-118370952D01*
X131065714Y-118323333D01*
X131018095Y-118228095D01*
X131018095Y-118132857D01*
X131065714Y-118037619D01*
X131113333Y-117990000D01*
X131208571Y-117942380D01*
X131446666Y-117942380D01*
X131589523Y-117990000D01*
X131922857Y-118275714D02*
X132113333Y-118942380D01*
X132303809Y-118466190D01*
X132494285Y-118942380D01*
X132684761Y-118275714D01*
X133589523Y-118942380D02*
X133018095Y-118942380D01*
X133303809Y-118942380D02*
X133303809Y-117942380D01*
X133208571Y-118085238D01*
X133113333Y-118180476D01*
X133018095Y-118228095D01*
X133970476Y-118037619D02*
X134018095Y-117990000D01*
X134113333Y-117942380D01*
X134351428Y-117942380D01*
X134446666Y-117990000D01*
X134494285Y-118037619D01*
X134541904Y-118132857D01*
X134541904Y-118228095D01*
X134494285Y-118370952D01*
X133922857Y-118942380D01*
X134541904Y-118942380D01*
%TO.C,T1*%
X106098095Y-116152380D02*
X106669523Y-116152380D01*
X106383809Y-117152380D02*
X106383809Y-116152380D01*
X107526666Y-117152380D02*
X106955238Y-117152380D01*
X107240952Y-117152380D02*
X107240952Y-116152380D01*
X107145714Y-116295238D01*
X107050476Y-116390476D01*
X106955238Y-116438095D01*
%TO.C,T2*%
X106038095Y-94562380D02*
X106609523Y-94562380D01*
X106323809Y-95562380D02*
X106323809Y-94562380D01*
X106895238Y-94657619D02*
X106942857Y-94610000D01*
X107038095Y-94562380D01*
X107276190Y-94562380D01*
X107371428Y-94610000D01*
X107419047Y-94657619D01*
X107466666Y-94752857D01*
X107466666Y-94848095D01*
X107419047Y-94990952D01*
X106847619Y-95562380D01*
X107466666Y-95562380D01*
%TO.C,T4*%
X129168095Y-94754380D02*
X129739523Y-94754380D01*
X129453809Y-95754380D02*
X129453809Y-94754380D01*
X130501428Y-95087714D02*
X130501428Y-95754380D01*
X130263333Y-94706761D02*
X130025238Y-95421047D01*
X130644285Y-95421047D01*
%TO.C,T5*%
X109848095Y-119802380D02*
X110419523Y-119802380D01*
X110133809Y-120802380D02*
X110133809Y-119802380D01*
X111229047Y-119802380D02*
X110752857Y-119802380D01*
X110705238Y-120278571D01*
X110752857Y-120230952D01*
X110848095Y-120183333D01*
X111086190Y-120183333D01*
X111181428Y-120230952D01*
X111229047Y-120278571D01*
X111276666Y-120373809D01*
X111276666Y-120611904D01*
X111229047Y-120707142D01*
X111181428Y-120754761D01*
X111086190Y-120802380D01*
X110848095Y-120802380D01*
X110752857Y-120754761D01*
X110705238Y-120707142D01*
%TO.C,T6*%
X109728095Y-94462380D02*
X110299523Y-94462380D01*
X110013809Y-95462380D02*
X110013809Y-94462380D01*
X111061428Y-94462380D02*
X110870952Y-94462380D01*
X110775714Y-94510000D01*
X110728095Y-94557619D01*
X110632857Y-94700476D01*
X110585238Y-94890952D01*
X110585238Y-95271904D01*
X110632857Y-95367142D01*
X110680476Y-95414761D01*
X110775714Y-95462380D01*
X110966190Y-95462380D01*
X111061428Y-95414761D01*
X111109047Y-95367142D01*
X111156666Y-95271904D01*
X111156666Y-95033809D01*
X111109047Y-94938571D01*
X111061428Y-94890952D01*
X110966190Y-94843333D01*
X110775714Y-94843333D01*
X110680476Y-94890952D01*
X110632857Y-94938571D01*
X110585238Y-95033809D01*
%TO.C,3V1*%
X128761904Y-90524380D02*
X129380952Y-90524380D01*
X129047619Y-90905333D01*
X129190476Y-90905333D01*
X129285714Y-90952952D01*
X129333333Y-91000571D01*
X129380952Y-91095809D01*
X129380952Y-91333904D01*
X129333333Y-91429142D01*
X129285714Y-91476761D01*
X129190476Y-91524380D01*
X128904761Y-91524380D01*
X128809523Y-91476761D01*
X128761904Y-91429142D01*
X129666666Y-90524380D02*
X130000000Y-91524380D01*
X130333333Y-90524380D01*
X131190476Y-91524380D02*
X130619047Y-91524380D01*
X130904761Y-91524380D02*
X130904761Y-90524380D01*
X130809523Y-90667238D01*
X130714285Y-90762476D01*
X130619047Y-90810095D01*
%TO.C,3V2*%
X146931904Y-88922380D02*
X147550952Y-88922380D01*
X147217619Y-89303333D01*
X147360476Y-89303333D01*
X147455714Y-89350952D01*
X147503333Y-89398571D01*
X147550952Y-89493809D01*
X147550952Y-89731904D01*
X147503333Y-89827142D01*
X147455714Y-89874761D01*
X147360476Y-89922380D01*
X147074761Y-89922380D01*
X146979523Y-89874761D01*
X146931904Y-89827142D01*
X147836666Y-88922380D02*
X148170000Y-89922380D01*
X148503333Y-88922380D01*
X148789047Y-89017619D02*
X148836666Y-88970000D01*
X148931904Y-88922380D01*
X149170000Y-88922380D01*
X149265238Y-88970000D01*
X149312857Y-89017619D01*
X149360476Y-89112857D01*
X149360476Y-89208095D01*
X149312857Y-89350952D01*
X148741428Y-89922380D01*
X149360476Y-89922380D01*
%TO.C,5V1*%
X168373333Y-101312380D02*
X167897142Y-101312380D01*
X167849523Y-101788571D01*
X167897142Y-101740952D01*
X167992380Y-101693333D01*
X168230476Y-101693333D01*
X168325714Y-101740952D01*
X168373333Y-101788571D01*
X168420952Y-101883809D01*
X168420952Y-102121904D01*
X168373333Y-102217142D01*
X168325714Y-102264761D01*
X168230476Y-102312380D01*
X167992380Y-102312380D01*
X167897142Y-102264761D01*
X167849523Y-102217142D01*
X168706666Y-101312380D02*
X169040000Y-102312380D01*
X169373333Y-101312380D01*
X170230476Y-102312380D02*
X169659047Y-102312380D01*
X169944761Y-102312380D02*
X169944761Y-101312380D01*
X169849523Y-101455238D01*
X169754285Y-101550476D01*
X169659047Y-101598095D01*
%TO.C,5V3*%
X168283333Y-103374380D02*
X167807142Y-103374380D01*
X167759523Y-103850571D01*
X167807142Y-103802952D01*
X167902380Y-103755333D01*
X168140476Y-103755333D01*
X168235714Y-103802952D01*
X168283333Y-103850571D01*
X168330952Y-103945809D01*
X168330952Y-104183904D01*
X168283333Y-104279142D01*
X168235714Y-104326761D01*
X168140476Y-104374380D01*
X167902380Y-104374380D01*
X167807142Y-104326761D01*
X167759523Y-104279142D01*
X168616666Y-103374380D02*
X168950000Y-104374380D01*
X169283333Y-103374380D01*
X169521428Y-103374380D02*
X170140476Y-103374380D01*
X169807142Y-103755333D01*
X169950000Y-103755333D01*
X170045238Y-103802952D01*
X170092857Y-103850571D01*
X170140476Y-103945809D01*
X170140476Y-104183904D01*
X170092857Y-104279142D01*
X170045238Y-104326761D01*
X169950000Y-104374380D01*
X169664285Y-104374380D01*
X169569047Y-104326761D01*
X169521428Y-104279142D01*
%TO.C,P1*%
X153781904Y-92062380D02*
X153781904Y-91062380D01*
X154162857Y-91062380D01*
X154258095Y-91110000D01*
X154305714Y-91157619D01*
X154353333Y-91252857D01*
X154353333Y-91395714D01*
X154305714Y-91490952D01*
X154258095Y-91538571D01*
X154162857Y-91586190D01*
X153781904Y-91586190D01*
X155305714Y-92062380D02*
X154734285Y-92062380D01*
X155020000Y-92062380D02*
X155020000Y-91062380D01*
X154924761Y-91205238D01*
X154829523Y-91300476D01*
X154734285Y-91348095D01*
%TO.C,P2*%
X157291904Y-92002380D02*
X157291904Y-91002380D01*
X157672857Y-91002380D01*
X157768095Y-91050000D01*
X157815714Y-91097619D01*
X157863333Y-91192857D01*
X157863333Y-91335714D01*
X157815714Y-91430952D01*
X157768095Y-91478571D01*
X157672857Y-91526190D01*
X157291904Y-91526190D01*
X158244285Y-91097619D02*
X158291904Y-91050000D01*
X158387142Y-91002380D01*
X158625238Y-91002380D01*
X158720476Y-91050000D01*
X158768095Y-91097619D01*
X158815714Y-91192857D01*
X158815714Y-91288095D01*
X158768095Y-91430952D01*
X158196666Y-92002380D01*
X158815714Y-92002380D01*
%TO.C,P3*%
X162821904Y-93782380D02*
X162821904Y-92782380D01*
X163202857Y-92782380D01*
X163298095Y-92830000D01*
X163345714Y-92877619D01*
X163393333Y-92972857D01*
X163393333Y-93115714D01*
X163345714Y-93210952D01*
X163298095Y-93258571D01*
X163202857Y-93306190D01*
X162821904Y-93306190D01*
X163726666Y-92782380D02*
X164345714Y-92782380D01*
X164012380Y-93163333D01*
X164155238Y-93163333D01*
X164250476Y-93210952D01*
X164298095Y-93258571D01*
X164345714Y-93353809D01*
X164345714Y-93591904D01*
X164298095Y-93687142D01*
X164250476Y-93734761D01*
X164155238Y-93782380D01*
X163869523Y-93782380D01*
X163774285Y-93734761D01*
X163726666Y-93687142D01*
%TO.C,P4*%
X168171904Y-95412380D02*
X168171904Y-94412380D01*
X168552857Y-94412380D01*
X168648095Y-94460000D01*
X168695714Y-94507619D01*
X168743333Y-94602857D01*
X168743333Y-94745714D01*
X168695714Y-94840952D01*
X168648095Y-94888571D01*
X168552857Y-94936190D01*
X168171904Y-94936190D01*
X169600476Y-94745714D02*
X169600476Y-95412380D01*
X169362380Y-94364761D02*
X169124285Y-95079047D01*
X169743333Y-95079047D01*
%TO.C,U8*%
X156538095Y-108282380D02*
X156538095Y-109091904D01*
X156585714Y-109187142D01*
X156633333Y-109234761D01*
X156728571Y-109282380D01*
X156919047Y-109282380D01*
X157014285Y-109234761D01*
X157061904Y-109187142D01*
X157109523Y-109091904D01*
X157109523Y-108282380D01*
X157728571Y-108710952D02*
X157633333Y-108663333D01*
X157585714Y-108615714D01*
X157538095Y-108520476D01*
X157538095Y-108472857D01*
X157585714Y-108377619D01*
X157633333Y-108330000D01*
X157728571Y-108282380D01*
X157919047Y-108282380D01*
X158014285Y-108330000D01*
X158061904Y-108377619D01*
X158109523Y-108472857D01*
X158109523Y-108520476D01*
X158061904Y-108615714D01*
X158014285Y-108663333D01*
X157919047Y-108710952D01*
X157728571Y-108710952D01*
X157633333Y-108758571D01*
X157585714Y-108806190D01*
X157538095Y-108901428D01*
X157538095Y-109091904D01*
X157585714Y-109187142D01*
X157633333Y-109234761D01*
X157728571Y-109282380D01*
X157919047Y-109282380D01*
X158014285Y-109234761D01*
X158061904Y-109187142D01*
X158109523Y-109091904D01*
X158109523Y-108901428D01*
X158061904Y-108806190D01*
X158014285Y-108758571D01*
X157919047Y-108710952D01*
D11*
%TO.C,J9*%
X132720000Y-127810000D02*
X132720000Y-133210000D01*
X120520000Y-127810000D02*
X132720000Y-127810000D01*
X120520000Y-133210000D02*
X120520000Y-127810000D01*
%TO.C,J10*%
X106520000Y-127810000D02*
X118720000Y-127810000D01*
X118720000Y-127810000D02*
X118720000Y-133210000D01*
X106520000Y-133210000D02*
X106520000Y-127810000D01*
D12*
%TO.C,C1*%
X123538748Y-115865000D02*
X124061252Y-115865000D01*
X123538748Y-117335000D02*
X124061252Y-117335000D01*
%TO.C,C2*%
X118738748Y-117335000D02*
X119261252Y-117335000D01*
X118738748Y-115865000D02*
X119261252Y-115865000D01*
%TO.C,C3*%
X114338748Y-117335000D02*
X114861252Y-117335000D01*
X114338748Y-115865000D02*
X114861252Y-115865000D01*
D11*
%TO.C,Q1*%
X134500000Y-88200000D02*
X131300000Y-88200000D01*
X131300000Y-91400000D02*
X134500000Y-91400000D01*
X131300000Y-88200000D02*
X131300000Y-91400000D01*
X134500000Y-91400000D02*
X134500000Y-88200000D01*
D12*
%TO.C,R2*%
X106227064Y-90135000D02*
X105772936Y-90135000D01*
X106227064Y-88665000D02*
X105772936Y-88665000D01*
%TO.C,R3*%
X110535000Y-90627064D02*
X110535000Y-90172936D01*
X109065000Y-90627064D02*
X109065000Y-90172936D01*
%TO.C,U2*%
X117810000Y-91500000D02*
X117810000Y-88550000D01*
X114590000Y-89700000D02*
X114590000Y-91500000D01*
%TO.C,U3*%
X118480000Y-124010000D02*
X120280000Y-124010000D01*
X120280000Y-120790000D02*
X117330000Y-120790000D01*
%TO.C,Q2*%
X127640000Y-117380000D02*
X129800000Y-117380000D01*
X127640000Y-114220000D02*
X129100000Y-114220000D01*
X127640000Y-117380000D02*
X127640000Y-116450000D01*
X127640000Y-114220000D02*
X127640000Y-115150000D01*
%TO.C,R5*%
X132435000Y-115472936D02*
X132435000Y-115927064D01*
X130965000Y-115472936D02*
X130965000Y-115927064D01*
%TO.C,U7*%
X165000000Y-117385000D02*
X162800000Y-117385000D01*
X165000000Y-110615000D02*
X167200000Y-110615000D01*
X165000000Y-117385000D02*
X168600000Y-117385000D01*
X165000000Y-110615000D02*
X162800000Y-110615000D01*
%TO.C,B5*%
X127735000Y-125761252D02*
X127735000Y-125238748D01*
X126265000Y-125761252D02*
X126265000Y-125238748D01*
%TO.C,B7*%
X115061252Y-123365000D02*
X114538748Y-123365000D01*
X115061252Y-124835000D02*
X114538748Y-124835000D01*
%TO.C,B6*%
X120061252Y-124865000D02*
X119538748Y-124865000D01*
X120061252Y-126335000D02*
X119538748Y-126335000D01*
%TO.C,B8*%
X113535000Y-90461252D02*
X113535000Y-89938748D01*
X112065000Y-90461252D02*
X112065000Y-89938748D01*
%TO.C,U4*%
X124300000Y-123210000D02*
X126100000Y-123210000D01*
X126100000Y-119990000D02*
X123150000Y-119990000D01*
%TO.C,J5*%
X166825000Y-119740000D02*
X166825000Y-134280000D01*
X145550000Y-118845662D02*
X146050000Y-118845662D01*
X146050000Y-118845662D02*
X145800000Y-119278675D01*
X135855000Y-119740000D02*
X166825000Y-119740000D01*
X145800000Y-119278675D02*
X145550000Y-118845662D01*
X135855000Y-134280000D02*
X135855000Y-119740000D01*
%TO.C,Q4*%
X134580000Y-120640000D02*
X133650000Y-120640000D01*
X134580000Y-120640000D02*
X134580000Y-122100000D01*
X131420000Y-120640000D02*
X131420000Y-122800000D01*
X131420000Y-120640000D02*
X132350000Y-120640000D01*
%TO.C,R6*%
X142842936Y-111655000D02*
X143297064Y-111655000D01*
X142842936Y-110185000D02*
X143297064Y-110185000D01*
%TO.C,R10*%
X132727064Y-124365000D02*
X132272936Y-124365000D01*
X132727064Y-125835000D02*
X132272936Y-125835000D01*
%TO.C,J4*%
X153730000Y-102810000D02*
X153730000Y-113090000D01*
X151130000Y-105410000D02*
X151130000Y-102810000D01*
X151130000Y-102810000D02*
X153730000Y-102810000D01*
X148530000Y-104140000D02*
X148530000Y-102810000D01*
X148530000Y-105410000D02*
X151130000Y-105410000D01*
X148530000Y-113090000D02*
X153730000Y-113090000D01*
X148530000Y-102810000D02*
X149860000Y-102810000D01*
X148530000Y-105410000D02*
X148530000Y-113090000D01*
%TO.C,J6*%
X151130000Y-92650000D02*
X153730000Y-92650000D01*
X148530000Y-92650000D02*
X149860000Y-92650000D01*
X148530000Y-95250000D02*
X151130000Y-95250000D01*
X151130000Y-95250000D02*
X151130000Y-92650000D01*
X148530000Y-93980000D02*
X148530000Y-92650000D01*
X153730000Y-92650000D02*
X153730000Y-102930000D01*
X148530000Y-95250000D02*
X148530000Y-102930000D01*
X148530000Y-102930000D02*
X153730000Y-102930000D01*
%TO.C,R20*%
X142772936Y-100265000D02*
X143227064Y-100265000D01*
X142772936Y-101735000D02*
X143227064Y-101735000D01*
%TO.C,R21*%
X142772936Y-95865000D02*
X143227064Y-95865000D01*
X142772936Y-97335000D02*
X143227064Y-97335000D01*
%TO.C,R19*%
X142772936Y-106735000D02*
X143227064Y-106735000D01*
X142772936Y-105265000D02*
X143227064Y-105265000D01*
%TO.C,R26*%
X142772936Y-92535000D02*
X143227064Y-92535000D01*
X142772936Y-91065000D02*
X143227064Y-91065000D01*
%TO.C,J8*%
X134560000Y-106740000D02*
X137220000Y-106740000D01*
X134560000Y-96520000D02*
X137220000Y-96520000D01*
X134560000Y-93920000D02*
X135890000Y-93920000D01*
X134560000Y-95250000D02*
X134560000Y-93920000D01*
X137220000Y-96520000D02*
X137220000Y-106740000D01*
X134560000Y-96520000D02*
X134560000Y-106740000D01*
%TO.C,J12*%
X129480000Y-104200000D02*
X132140000Y-104200000D01*
X129480000Y-101600000D02*
X129480000Y-104200000D01*
X132140000Y-101600000D02*
X132140000Y-104200000D01*
X129480000Y-100330000D02*
X129480000Y-99000000D01*
X129480000Y-99000000D02*
X130810000Y-99000000D01*
X129480000Y-101600000D02*
X132140000Y-101600000D01*
%TO.C,U1*%
X192500000Y-107100000D02*
X192500000Y-106700000D01*
X171500000Y-124800000D02*
X171500000Y-124400000D01*
X183500000Y-83900000D02*
X183100000Y-83900000D01*
X192500000Y-112100000D02*
X192500000Y-111700000D01*
X171500000Y-83900000D02*
X178300000Y-83900000D01*
X192500000Y-94300000D02*
X192500000Y-93900000D01*
X189493000Y-132233000D02*
X189493000Y-134900000D01*
X192500000Y-132233000D02*
X189493000Y-132233000D01*
X171500000Y-96900000D02*
X171500000Y-96500000D01*
X192500000Y-96900000D02*
X192500000Y-96500000D01*
X171500000Y-89300000D02*
X171500000Y-88900000D01*
X192500000Y-134900000D02*
X192500000Y-134600000D01*
X171500000Y-104500000D02*
X171500000Y-104100000D01*
X185700000Y-83900000D02*
X192500000Y-83900000D01*
X192500000Y-114700000D02*
X192500000Y-114300000D01*
X171500000Y-102000000D02*
X171500000Y-101600000D01*
X192500000Y-124800000D02*
X192500000Y-124400000D01*
X192500000Y-134900000D02*
X171500000Y-134900000D01*
X171500000Y-129900000D02*
X171500000Y-129500000D01*
X192500000Y-129900000D02*
X192500000Y-129500000D01*
X171500000Y-91800000D02*
X171500000Y-91400000D01*
X180900000Y-83900000D02*
X180500000Y-83900000D01*
X192500000Y-104500000D02*
X192500000Y-104100000D01*
X171500000Y-114700000D02*
X171500000Y-114300000D01*
X171500000Y-134900000D02*
X171500000Y-134600000D01*
X171500000Y-119800000D02*
X171500000Y-119400000D01*
X192500000Y-127400000D02*
X192500000Y-127000000D01*
X171500000Y-122300000D02*
X171500000Y-121900000D01*
X192500000Y-119800000D02*
X192500000Y-119400000D01*
X171500000Y-99400000D02*
X171500000Y-99000000D01*
X192500000Y-132500000D02*
X192500000Y-132100000D01*
X171500000Y-86700000D02*
X171500000Y-86300000D01*
X192500000Y-91800000D02*
X192500000Y-91400000D01*
X171500000Y-107100000D02*
X171500000Y-106700000D01*
X192500000Y-99400000D02*
X192500000Y-99000000D01*
X192500000Y-102000000D02*
X192500000Y-101600000D01*
X171500000Y-117200000D02*
X171500000Y-116800000D01*
X171500000Y-109600000D02*
X171500000Y-109200000D01*
X192500000Y-122300000D02*
X192500000Y-121900000D01*
X171500000Y-94300000D02*
X171500000Y-93900000D01*
X192500000Y-86700000D02*
X192500000Y-86300000D01*
X192500000Y-109600000D02*
X192500000Y-109200000D01*
X171500000Y-132500000D02*
X171500000Y-132100000D01*
X192500000Y-117200000D02*
X192500000Y-116800000D01*
X171500000Y-112100000D02*
X171500000Y-111700000D01*
X192500000Y-89300000D02*
X192500000Y-88900000D01*
X171500000Y-127400000D02*
X171500000Y-127000000D01*
%TO.C,J1*%
X106210000Y-87590000D02*
X106210000Y-86260000D01*
X108810000Y-87590000D02*
X169830000Y-87590000D01*
X169830000Y-87590000D02*
X169830000Y-82390000D01*
X108810000Y-84990000D02*
X106210000Y-84990000D01*
X108810000Y-87590000D02*
X108810000Y-84990000D01*
X106210000Y-84990000D02*
X106210000Y-82390000D01*
X107540000Y-87590000D02*
X106210000Y-87590000D01*
X106210000Y-82390000D02*
X169830000Y-82390000D01*
%TO.C,L1*%
X121261252Y-119440000D02*
X120738748Y-119440000D01*
X121261252Y-118020000D02*
X120738748Y-118020000D01*
%TO.C,L2*%
X116288748Y-119480000D02*
X116811252Y-119480000D01*
X116288748Y-118060000D02*
X116811252Y-118060000D01*
%TO.C,B16*%
X133485000Y-111311252D02*
X133485000Y-110788748D01*
X132015000Y-111311252D02*
X132015000Y-110788748D01*
%TO.C,D2*%
X144940000Y-114260000D02*
X144940000Y-112560000D01*
X144940000Y-114260000D02*
X141790000Y-114260000D01*
X144940000Y-112560000D02*
X141790000Y-112560000D01*
%TO.C,D3*%
X145080000Y-109300000D02*
X145080000Y-107600000D01*
X145080000Y-109300000D02*
X141930000Y-109300000D01*
X145080000Y-107600000D02*
X141930000Y-107600000D01*
%TO.C,D4*%
X144900000Y-102650000D02*
X141750000Y-102650000D01*
X144900000Y-104350000D02*
X144900000Y-102650000D01*
X144900000Y-104350000D02*
X141750000Y-104350000D01*
%TO.C,D5*%
X145100000Y-99650000D02*
X141950000Y-99650000D01*
X145100000Y-97950000D02*
X141950000Y-97950000D01*
X145100000Y-99650000D02*
X145100000Y-97950000D01*
%TO.C,D7*%
X144900000Y-94850000D02*
X144900000Y-93150000D01*
X144900000Y-93150000D02*
X141750000Y-93150000D01*
X144900000Y-94850000D02*
X141750000Y-94850000D01*
%TO.C,J2*%
X106620000Y-100330000D02*
X106620000Y-99000000D01*
X106620000Y-111820000D02*
X109280000Y-111820000D01*
X106620000Y-101600000D02*
X109280000Y-101600000D01*
X106620000Y-101600000D02*
X106620000Y-111820000D01*
X109280000Y-101600000D02*
X109280000Y-111820000D01*
X106620000Y-99000000D02*
X107950000Y-99000000D01*
%TO.C,J3*%
X134560000Y-110490000D02*
X134560000Y-109160000D01*
X134560000Y-111760000D02*
X137220000Y-111760000D01*
X134560000Y-109160000D02*
X135890000Y-109160000D01*
X137220000Y-111760000D02*
X137220000Y-114360000D01*
X134560000Y-111760000D02*
X134560000Y-114360000D01*
X134560000Y-114360000D02*
X137220000Y-114360000D01*
%TO.C,B20*%
X122438748Y-89735000D02*
X122961252Y-89735000D01*
X122438748Y-91205000D02*
X122961252Y-91205000D01*
%TO.C,R36*%
X122957064Y-92065000D02*
X122502936Y-92065000D01*
X122957064Y-93535000D02*
X122502936Y-93535000D01*
%TO.C,G1*%
X169640000Y-127500000D02*
G75*
G03*
X169640000Y-127500000I-950000J0D01*
G01*
%TO.C,G2*%
X127230000Y-90380000D02*
G75*
G03*
X127230000Y-90380000I-950000J0D01*
G01*
%TO.C,G3*%
X106490000Y-124330000D02*
G75*
G03*
X106490000Y-124330000I-950000J0D01*
G01*
%TO.C,J7*%
X135690000Y-118260000D02*
X135690000Y-116930000D01*
X138290000Y-115600000D02*
X158670000Y-115600000D01*
X158670000Y-118260000D02*
X158670000Y-115600000D01*
X137020000Y-118260000D02*
X135690000Y-118260000D01*
X138290000Y-118260000D02*
X138290000Y-115600000D01*
X138290000Y-118260000D02*
X158670000Y-118260000D01*
%TO.C,Sw5*%
X169050000Y-108900000D02*
G75*
G03*
X169050000Y-108900000I-950000J0D01*
G01*
%TO.C,Sw12*%
X130750000Y-119300000D02*
G75*
G03*
X130750000Y-119300000I-950000J0D01*
G01*
%TO.C,T1*%
X108370000Y-114570000D02*
G75*
G03*
X108370000Y-114570000I-950000J0D01*
G01*
%TO.C,T2*%
X108750000Y-97000000D02*
G75*
G03*
X108750000Y-97000000I-950000J0D01*
G01*
%TO.C,T4*%
X130880000Y-96950000D02*
G75*
G03*
X130880000Y-96950000I-950000J0D01*
G01*
%TO.C,T5*%
X110140000Y-118300000D02*
G75*
G03*
X110140000Y-118300000I-950000J0D01*
G01*
%TO.C,T6*%
X111440000Y-97000000D02*
G75*
G03*
X111440000Y-97000000I-950000J0D01*
G01*
%TO.C,12V1*%
X169120000Y-90360000D02*
G75*
G03*
X169120000Y-90360000I-950000J0D01*
G01*
%TO.C,12V2*%
X166450000Y-90340000D02*
G75*
G03*
X166450000Y-90340000I-950000J0D01*
G01*
%TO.C,12V3*%
X163570000Y-90320000D02*
G75*
G03*
X163570000Y-90320000I-950000J0D01*
G01*
%TO.C,3V1*%
X130950000Y-92720000D02*
G75*
G03*
X130950000Y-92720000I-950000J0D01*
G01*
%TO.C,3V2*%
X146420000Y-89420000D02*
G75*
G03*
X146420000Y-89420000I-950000J0D01*
G01*
%TO.C,5V1*%
X169780000Y-100050000D02*
G75*
G03*
X169780000Y-100050000I-950000J0D01*
G01*
%TO.C,5V3*%
X169900000Y-105570000D02*
G75*
G03*
X169900000Y-105570000I-950000J0D01*
G01*
%TO.C,P1*%
X156820000Y-93410000D02*
G75*
G03*
X156820000Y-93410000I-950000J0D01*
G01*
%TO.C,P2*%
X159680000Y-93440000D02*
G75*
G03*
X159680000Y-93440000I-950000J0D01*
G01*
%TO.C,P3*%
X166950000Y-92800000D02*
G75*
G03*
X166950000Y-92800000I-950000J0D01*
G01*
%TO.C,P4*%
X169750000Y-92800000D02*
G75*
G03*
X169750000Y-92800000I-950000J0D01*
G01*
%TO.C,U8*%
X161080000Y-95595000D02*
X164940000Y-95595000D01*
X164940000Y-95595000D02*
X164940000Y-95840000D01*
X161080000Y-95595000D02*
X157220000Y-95595000D01*
X157220000Y-95595000D02*
X157220000Y-95840000D01*
X157220000Y-107365000D02*
X157220000Y-107120000D01*
X164940000Y-107120000D02*
X166755000Y-107120000D01*
X164940000Y-107365000D02*
X164940000Y-107120000D01*
X161080000Y-107365000D02*
X164940000Y-107365000D01*
X161080000Y-107365000D02*
X157220000Y-107365000D01*
%TD*%
D13*
%TO.C,J9*%
X126620000Y-130510000D03*
D14*
X122820000Y-130510000D03*
X130420000Y-130510000D03*
%TD*%
D13*
%TO.C,J10*%
X112620000Y-130510000D03*
D14*
X108820000Y-130510000D03*
X116420000Y-130510000D03*
%TD*%
M02*
