%TF.GenerationSoftware,KiCad,Pcbnew,6.0.2+dfsg-1*%
%TF.CreationDate,2023-03-28T12:08:36-04:00*%
%TF.ProjectId,HL2IOBoard,484c3249-4f42-46f6-9172-642e6b696361,E*%
%TF.SameCoordinates,Original*%
%TF.FileFunction,Paste,Top*%
%TF.FilePolarity,Positive*%
%FSLAX46Y46*%
G04 Gerber Fmt 4.6, Leading zero omitted, Abs format (unit mm)*
G04 Created by KiCad (PCBNEW 6.0.2+dfsg-1) date 2023-03-28 12:08:36*
%MOMM*%
%LPD*%
G01*
G04 APERTURE LIST*
G04 Aperture macros list*
%AMRoundRect*
0 Rectangle with rounded corners*
0 $1 Rounding radius*
0 $2 $3 $4 $5 $6 $7 $8 $9 X,Y pos of 4 corners*
0 Add a 4 corners polygon primitive as box body*
4,1,4,$2,$3,$4,$5,$6,$7,$8,$9,$2,$3,0*
0 Add four circle primitives for the rounded corners*
1,1,$1+$1,$2,$3*
1,1,$1+$1,$4,$5*
1,1,$1+$1,$6,$7*
1,1,$1+$1,$8,$9*
0 Add four rect primitives between the rounded corners*
20,1,$1+$1,$2,$3,$4,$5,0*
20,1,$1+$1,$4,$5,$6,$7,0*
20,1,$1+$1,$6,$7,$8,$9,0*
20,1,$1+$1,$8,$9,$2,$3,0*%
G04 Aperture macros list end*
%ADD10RoundRect,0.250000X-0.337500X-0.475000X0.337500X-0.475000X0.337500X0.475000X-0.337500X0.475000X0*%
%ADD11R,0.900000X0.800000*%
%ADD12RoundRect,0.250000X0.350000X0.450000X-0.350000X0.450000X-0.350000X-0.450000X0.350000X-0.450000X0*%
%ADD13RoundRect,0.250000X0.450000X-0.350000X0.450000X0.350000X-0.450000X0.350000X-0.450000X-0.350000X0*%
%ADD14R,0.650000X1.560000*%
%ADD15R,1.560000X0.650000*%
%ADD16RoundRect,0.250000X-0.450000X0.350000X-0.450000X-0.350000X0.450000X-0.350000X0.450000X0.350000X0*%
%ADD17RoundRect,0.100000X0.637500X0.100000X-0.637500X0.100000X-0.637500X-0.100000X0.637500X-0.100000X0*%
%ADD18RoundRect,0.250000X0.475000X-0.337500X0.475000X0.337500X-0.475000X0.337500X-0.475000X-0.337500X0*%
%ADD19RoundRect,0.250000X0.337500X0.475000X-0.337500X0.475000X-0.337500X-0.475000X0.337500X-0.475000X0*%
%ADD20R,0.800000X0.900000*%
%ADD21RoundRect,0.250000X-0.350000X-0.450000X0.350000X-0.450000X0.350000X0.450000X-0.350000X0.450000X0*%
%ADD22RoundRect,0.250000X0.325000X0.450000X-0.325000X0.450000X-0.325000X-0.450000X0.325000X-0.450000X0*%
%ADD23RoundRect,0.250000X-0.325000X-0.450000X0.325000X-0.450000X0.325000X0.450000X-0.325000X0.450000X0*%
%ADD24R,1.000000X1.000000*%
%ADD25RoundRect,0.150000X0.875000X0.150000X-0.875000X0.150000X-0.875000X-0.150000X0.875000X-0.150000X0*%
G04 APERTURE END LIST*
D10*
%TO.C,C1*%
X122762500Y-116600000D03*
X124837500Y-116600000D03*
%TD*%
%TO.C,C2*%
X117962500Y-116600000D03*
X120037500Y-116600000D03*
%TD*%
%TO.C,C3*%
X113562500Y-116600000D03*
X115637500Y-116600000D03*
%TD*%
D11*
%TO.C,Q1*%
X131900000Y-88850000D03*
X131900000Y-90750000D03*
X133900000Y-89800000D03*
%TD*%
D12*
%TO.C,R2*%
X107000000Y-89400000D03*
X105000000Y-89400000D03*
%TD*%
D13*
%TO.C,R3*%
X109800000Y-91400000D03*
X109800000Y-89400000D03*
%TD*%
D14*
%TO.C,U2*%
X117150000Y-89250000D03*
X116200000Y-89250000D03*
X115250000Y-89250000D03*
X115250000Y-91950000D03*
X116200000Y-91950000D03*
X117150000Y-91950000D03*
%TD*%
D15*
%TO.C,U3*%
X118030000Y-121450000D03*
X118030000Y-122400000D03*
X118030000Y-123350000D03*
X120730000Y-123350000D03*
X120730000Y-122400000D03*
X120730000Y-121450000D03*
%TD*%
D11*
%TO.C,Q2*%
X129400000Y-116750000D03*
X129400000Y-114850000D03*
X127400000Y-115800000D03*
%TD*%
D16*
%TO.C,R5*%
X131700000Y-114700000D03*
X131700000Y-116700000D03*
%TD*%
D17*
%TO.C,U7*%
X167862500Y-116925000D03*
X167862500Y-116275000D03*
X167862500Y-115625000D03*
X167862500Y-114975000D03*
X167862500Y-114325000D03*
X167862500Y-113675000D03*
X167862500Y-113025000D03*
X167862500Y-112375000D03*
X167862500Y-111725000D03*
X167862500Y-111075000D03*
X162137500Y-111075000D03*
X162137500Y-111725000D03*
X162137500Y-112375000D03*
X162137500Y-113025000D03*
X162137500Y-113675000D03*
X162137500Y-114325000D03*
X162137500Y-114975000D03*
X162137500Y-115625000D03*
X162137500Y-116275000D03*
X162137500Y-116925000D03*
%TD*%
D18*
%TO.C,B5*%
X127000000Y-126537500D03*
X127000000Y-124462500D03*
%TD*%
D19*
%TO.C,B7*%
X115837500Y-124100000D03*
X113762500Y-124100000D03*
%TD*%
%TO.C,B6*%
X120837500Y-125600000D03*
X118762500Y-125600000D03*
%TD*%
D18*
%TO.C,B8*%
X112800000Y-91237500D03*
X112800000Y-89162500D03*
%TD*%
D15*
%TO.C,U4*%
X123850000Y-120650000D03*
X123850000Y-121600000D03*
X123850000Y-122550000D03*
X126550000Y-122550000D03*
X126550000Y-121600000D03*
X126550000Y-120650000D03*
%TD*%
D20*
%TO.C,Q4*%
X132050000Y-122400000D03*
X133950000Y-122400000D03*
X133000000Y-120400000D03*
%TD*%
D21*
%TO.C,R6*%
X142070000Y-110920000D03*
X144070000Y-110920000D03*
%TD*%
D12*
%TO.C,R10*%
X133500000Y-125100000D03*
X131500000Y-125100000D03*
%TD*%
D21*
%TO.C,R20*%
X142000000Y-101000000D03*
X144000000Y-101000000D03*
%TD*%
%TO.C,R21*%
X142000000Y-96600000D03*
X144000000Y-96600000D03*
%TD*%
%TO.C,R19*%
X142000000Y-106000000D03*
X144000000Y-106000000D03*
%TD*%
%TO.C,R26*%
X142000000Y-91800000D03*
X144000000Y-91800000D03*
%TD*%
D22*
%TO.C,L1*%
X122025000Y-118730000D03*
X119975000Y-118730000D03*
%TD*%
D23*
%TO.C,L2*%
X115525000Y-118770000D03*
X117575000Y-118770000D03*
%TD*%
D18*
%TO.C,B16*%
X132750000Y-112087500D03*
X132750000Y-110012500D03*
%TD*%
D24*
%TO.C,D2*%
X144290000Y-113410000D03*
X141790000Y-113410000D03*
%TD*%
%TO.C,D3*%
X144430000Y-108450000D03*
X141930000Y-108450000D03*
%TD*%
%TO.C,D4*%
X144250000Y-103500000D03*
X141750000Y-103500000D03*
%TD*%
%TO.C,D5*%
X144450000Y-98800000D03*
X141950000Y-98800000D03*
%TD*%
%TO.C,D7*%
X144250000Y-94000000D03*
X141750000Y-94000000D03*
%TD*%
D10*
%TO.C,B20*%
X121662500Y-90470000D03*
X123737500Y-90470000D03*
%TD*%
D12*
%TO.C,R36*%
X123730000Y-92800000D03*
X121730000Y-92800000D03*
%TD*%
D25*
%TO.C,U8*%
X165730000Y-106560000D03*
X165730000Y-105290000D03*
X165730000Y-104020000D03*
X165730000Y-102750000D03*
X165730000Y-101480000D03*
X165730000Y-100210000D03*
X165730000Y-98940000D03*
X165730000Y-97670000D03*
X165730000Y-96400000D03*
X156430000Y-96400000D03*
X156430000Y-97670000D03*
X156430000Y-98940000D03*
X156430000Y-100210000D03*
X156430000Y-101480000D03*
X156430000Y-102750000D03*
X156430000Y-104020000D03*
X156430000Y-105290000D03*
X156430000Y-106560000D03*
%TD*%
M02*
