G04 #@! TF.GenerationSoftware,KiCad,Pcbnew,(6.0.10)*
G04 #@! TF.CreationDate,2023-08-10T06:38:26+00:00*
G04 #@! TF.ProjectId,HL2IO_endcap,484c3249-4f5f-4656-9e64-6361702e6b69,2.1*
G04 #@! TF.SameCoordinates,Original*
G04 #@! TF.FileFunction,Legend,Top*
G04 #@! TF.FilePolarity,Positive*
%FSLAX46Y46*%
G04 Gerber Fmt 4.6, Leading zero omitted, Abs format (unit mm)*
G04 Created by KiCad (PCBNEW (6.0.10)) date 2023-08-10 06:38:26*
%MOMM*%
%LPD*%
G01*
G04 APERTURE LIST*
%ADD10C,0.300000*%
%ADD11C,0.200000*%
%ADD12C,0.150000*%
%ADD13C,1.000000*%
%ADD14C,7.000000*%
%ADD15C,4.900000*%
%ADD16C,9.500000*%
%ADD17C,3.050000*%
G04 APERTURE END LIST*
D10*
X132547619Y-70630952D02*
X132547619Y-68130952D01*
X133500000Y-68130952D01*
X133738095Y-68250000D01*
X133857142Y-68369047D01*
X133976190Y-68607142D01*
X133976190Y-68964285D01*
X133857142Y-69202380D01*
X133738095Y-69321428D01*
X133500000Y-69440476D01*
X132547619Y-69440476D01*
X135047619Y-70630952D02*
X135047619Y-68964285D01*
X135047619Y-68130952D02*
X134928571Y-68250000D01*
X135047619Y-68369047D01*
X135166666Y-68250000D01*
X135047619Y-68130952D01*
X135047619Y-68369047D01*
X137309523Y-70511904D02*
X137071428Y-70630952D01*
X136595238Y-70630952D01*
X136357142Y-70511904D01*
X136238095Y-70392857D01*
X136119047Y-70154761D01*
X136119047Y-69440476D01*
X136238095Y-69202380D01*
X136357142Y-69083333D01*
X136595238Y-68964285D01*
X137071428Y-68964285D01*
X137309523Y-69083333D01*
X138738095Y-70630952D02*
X138500000Y-70511904D01*
X138380952Y-70392857D01*
X138261904Y-70154761D01*
X138261904Y-69440476D01*
X138380952Y-69202380D01*
X138500000Y-69083333D01*
X138738095Y-68964285D01*
X139095238Y-68964285D01*
X139333333Y-69083333D01*
X139452380Y-69202380D01*
X139571428Y-69440476D01*
X139571428Y-70154761D01*
X139452380Y-70392857D01*
X139333333Y-70511904D01*
X139095238Y-70630952D01*
X138738095Y-70630952D01*
X72219047Y-90921428D02*
X73052380Y-90921428D01*
X73409523Y-92230952D02*
X72219047Y-92230952D01*
X72219047Y-89730952D01*
X73409523Y-89730952D01*
X74242857Y-89730952D02*
X75909523Y-92230952D01*
X75909523Y-89730952D02*
X74242857Y-92230952D01*
X76504761Y-89730952D02*
X77933333Y-89730952D01*
X77219047Y-92230952D02*
X77219047Y-89730952D01*
X78409523Y-89730952D02*
X79838095Y-89730952D01*
X79123809Y-92230952D02*
X79123809Y-89730952D01*
X82100000Y-92230952D02*
X81266666Y-91040476D01*
X80671428Y-92230952D02*
X80671428Y-89730952D01*
X81623809Y-89730952D01*
X81861904Y-89850000D01*
X81980952Y-89969047D01*
X82100000Y-90207142D01*
X82100000Y-90564285D01*
X81980952Y-90802380D01*
X81861904Y-90921428D01*
X81623809Y-91040476D01*
X80671428Y-91040476D01*
X78440476Y-68904166D02*
X79630952Y-68904166D01*
X78202380Y-69618452D02*
X79035714Y-67118452D01*
X79869047Y-69618452D01*
X81892857Y-69618452D02*
X80702380Y-69618452D01*
X80702380Y-67118452D01*
X82369047Y-67118452D02*
X83797619Y-67118452D01*
X83083333Y-69618452D02*
X83083333Y-67118452D01*
X80583333Y-73643452D02*
X79750000Y-72452976D01*
X79154761Y-73643452D02*
X79154761Y-71143452D01*
X80107142Y-71143452D01*
X80345238Y-71262500D01*
X80464285Y-71381547D01*
X80583333Y-71619642D01*
X80583333Y-71976785D01*
X80464285Y-72214880D01*
X80345238Y-72333928D01*
X80107142Y-72452976D01*
X79154761Y-72452976D01*
X81416666Y-71143452D02*
X83083333Y-73643452D01*
X83083333Y-71143452D02*
X81416666Y-73643452D01*
X123142857Y-97216666D02*
X124333333Y-97216666D01*
X122904761Y-97930952D02*
X123738095Y-95430952D01*
X124571428Y-97930952D01*
X125404761Y-97930952D02*
X125404761Y-95430952D01*
X126833333Y-97930952D01*
X126833333Y-95430952D01*
X127666666Y-95430952D02*
X129095238Y-95430952D01*
X128380952Y-97930952D02*
X128380952Y-95430952D01*
X101604761Y-81416666D02*
X102795238Y-81416666D01*
X101366666Y-82130952D02*
X102200000Y-79630952D01*
X103033333Y-82130952D01*
X105295238Y-81892857D02*
X105176190Y-82011904D01*
X104819047Y-82130952D01*
X104580952Y-82130952D01*
X104223809Y-82011904D01*
X103985714Y-81773809D01*
X103866666Y-81535714D01*
X103747619Y-81059523D01*
X103747619Y-80702380D01*
X103866666Y-80226190D01*
X103985714Y-79988095D01*
X104223809Y-79750000D01*
X104580952Y-79630952D01*
X104819047Y-79630952D01*
X105176190Y-79750000D01*
X105295238Y-79869047D01*
X107795238Y-81892857D02*
X107676190Y-82011904D01*
X107319047Y-82130952D01*
X107080952Y-82130952D01*
X106723809Y-82011904D01*
X106485714Y-81773809D01*
X106366666Y-81535714D01*
X106247619Y-81059523D01*
X106247619Y-80702380D01*
X106366666Y-80226190D01*
X106485714Y-79988095D01*
X106723809Y-79750000D01*
X107080952Y-79630952D01*
X107319047Y-79630952D01*
X107676190Y-79750000D01*
X107795238Y-79869047D01*
X62654761Y-73630952D02*
X62654761Y-71130952D01*
X63607142Y-71130952D01*
X63845238Y-71250000D01*
X63964285Y-71369047D01*
X64083333Y-71607142D01*
X64083333Y-71964285D01*
X63964285Y-72202380D01*
X63845238Y-72321428D01*
X63607142Y-72440476D01*
X62654761Y-72440476D01*
X65154761Y-71130952D02*
X65154761Y-73154761D01*
X65273809Y-73392857D01*
X65392857Y-73511904D01*
X65630952Y-73630952D01*
X66107142Y-73630952D01*
X66345238Y-73511904D01*
X66464285Y-73392857D01*
X66583333Y-73154761D01*
X66583333Y-71130952D01*
X69202380Y-73630952D02*
X68369047Y-72440476D01*
X67773809Y-73630952D02*
X67773809Y-71130952D01*
X68726190Y-71130952D01*
X68964285Y-71250000D01*
X69083333Y-71369047D01*
X69202380Y-71607142D01*
X69202380Y-71964285D01*
X69083333Y-72202380D01*
X68964285Y-72321428D01*
X68726190Y-72440476D01*
X67773809Y-72440476D01*
X70273809Y-72321428D02*
X71107142Y-72321428D01*
X71464285Y-73630952D02*
X70273809Y-73630952D01*
X70273809Y-71130952D01*
X71464285Y-71130952D01*
X92211904Y-97930952D02*
X91378571Y-96740476D01*
X90783333Y-97930952D02*
X90783333Y-95430952D01*
X91735714Y-95430952D01*
X91973809Y-95550000D01*
X92092857Y-95669047D01*
X92211904Y-95907142D01*
X92211904Y-96264285D01*
X92092857Y-96502380D01*
X91973809Y-96621428D01*
X91735714Y-96740476D01*
X90783333Y-96740476D01*
X94116666Y-96621428D02*
X93283333Y-96621428D01*
X93283333Y-97930952D02*
X93283333Y-95430952D01*
X94473809Y-95430952D01*
X96735714Y-97930952D02*
X95307142Y-97930952D01*
X96021428Y-97930952D02*
X96021428Y-95430952D01*
X95783333Y-95788095D01*
X95545238Y-96026190D01*
X95307142Y-96145238D01*
D11*
X128500000Y-102314285D02*
X128500000Y-100514285D01*
X128500000Y-101371428D02*
X129528571Y-101371428D01*
X129528571Y-102314285D02*
X129528571Y-100514285D01*
X131071428Y-102228571D02*
X130900000Y-102314285D01*
X130557142Y-102314285D01*
X130385714Y-102228571D01*
X130300000Y-102057142D01*
X130300000Y-101371428D01*
X130385714Y-101200000D01*
X130557142Y-101114285D01*
X130900000Y-101114285D01*
X131071428Y-101200000D01*
X131157142Y-101371428D01*
X131157142Y-101542857D01*
X130300000Y-101714285D01*
X131928571Y-102314285D02*
X131928571Y-101114285D01*
X131928571Y-101457142D02*
X132014285Y-101285714D01*
X132100000Y-101200000D01*
X132271428Y-101114285D01*
X132442857Y-101114285D01*
X133042857Y-102314285D02*
X133042857Y-101114285D01*
X133042857Y-101285714D02*
X133128571Y-101200000D01*
X133300000Y-101114285D01*
X133557142Y-101114285D01*
X133728571Y-101200000D01*
X133814285Y-101371428D01*
X133814285Y-102314285D01*
X133814285Y-101371428D02*
X133900000Y-101200000D01*
X134071428Y-101114285D01*
X134328571Y-101114285D01*
X134500000Y-101200000D01*
X134585714Y-101371428D01*
X134585714Y-102314285D01*
X136128571Y-102228571D02*
X135957142Y-102314285D01*
X135614285Y-102314285D01*
X135442857Y-102228571D01*
X135357142Y-102057142D01*
X135357142Y-101371428D01*
X135442857Y-101200000D01*
X135614285Y-101114285D01*
X135957142Y-101114285D01*
X136128571Y-101200000D01*
X136214285Y-101371428D01*
X136214285Y-101542857D01*
X135357142Y-101714285D01*
X136900000Y-102228571D02*
X137071428Y-102314285D01*
X137414285Y-102314285D01*
X137585714Y-102228571D01*
X137671428Y-102057142D01*
X137671428Y-101971428D01*
X137585714Y-101800000D01*
X137414285Y-101714285D01*
X137157142Y-101714285D01*
X136985714Y-101628571D01*
X136900000Y-101457142D01*
X136900000Y-101371428D01*
X136985714Y-101200000D01*
X137157142Y-101114285D01*
X137414285Y-101114285D01*
X137585714Y-101200000D01*
X138442857Y-101628571D02*
X139814285Y-101628571D01*
X141528571Y-102314285D02*
X140671428Y-102314285D01*
X140671428Y-100514285D01*
X142128571Y-102314285D02*
X142128571Y-101114285D01*
X142128571Y-100514285D02*
X142042857Y-100600000D01*
X142128571Y-100685714D01*
X142214285Y-100600000D01*
X142128571Y-100514285D01*
X142128571Y-100685714D01*
X142728571Y-101114285D02*
X143414285Y-101114285D01*
X142985714Y-100514285D02*
X142985714Y-102057142D01*
X143071428Y-102228571D01*
X143242857Y-102314285D01*
X143414285Y-102314285D01*
X144700000Y-102228571D02*
X144528571Y-102314285D01*
X144185714Y-102314285D01*
X144014285Y-102228571D01*
X143928571Y-102057142D01*
X143928571Y-101371428D01*
X144014285Y-101200000D01*
X144185714Y-101114285D01*
X144528571Y-101114285D01*
X144700000Y-101200000D01*
X144785714Y-101371428D01*
X144785714Y-101542857D01*
X143928571Y-101714285D01*
D12*
X79966666Y-79217380D02*
X79633333Y-78741190D01*
X79395238Y-79217380D02*
X79395238Y-78217380D01*
X79776190Y-78217380D01*
X79871428Y-78265000D01*
X79919047Y-78312619D01*
X79966666Y-78407857D01*
X79966666Y-78550714D01*
X79919047Y-78645952D01*
X79871428Y-78693571D01*
X79776190Y-78741190D01*
X79395238Y-78741190D01*
X80395238Y-78693571D02*
X80728571Y-78693571D01*
X80871428Y-79217380D02*
X80395238Y-79217380D01*
X80395238Y-78217380D01*
X80871428Y-78217380D01*
X81633333Y-78693571D02*
X81300000Y-78693571D01*
X81300000Y-79217380D02*
X81300000Y-78217380D01*
X81776190Y-78217380D01*
X82300000Y-78217380D02*
X82300000Y-78455476D01*
X82061904Y-78360238D02*
X82300000Y-78455476D01*
X82538095Y-78360238D01*
X82157142Y-78645952D02*
X82300000Y-78455476D01*
X82442857Y-78645952D01*
X83061904Y-78217380D02*
X83061904Y-78455476D01*
X82823809Y-78360238D02*
X83061904Y-78455476D01*
X83300000Y-78360238D01*
X82919047Y-78645952D02*
X83061904Y-78455476D01*
X83204761Y-78645952D01*
X65766666Y-79482380D02*
X65433333Y-79006190D01*
X65195238Y-79482380D02*
X65195238Y-78482380D01*
X65576190Y-78482380D01*
X65671428Y-78530000D01*
X65719047Y-78577619D01*
X65766666Y-78672857D01*
X65766666Y-78815714D01*
X65719047Y-78910952D01*
X65671428Y-78958571D01*
X65576190Y-79006190D01*
X65195238Y-79006190D01*
X66195238Y-78958571D02*
X66528571Y-78958571D01*
X66671428Y-79482380D02*
X66195238Y-79482380D01*
X66195238Y-78482380D01*
X66671428Y-78482380D01*
X67433333Y-78958571D02*
X67100000Y-78958571D01*
X67100000Y-79482380D02*
X67100000Y-78482380D01*
X67576190Y-78482380D01*
X68100000Y-78482380D02*
X68100000Y-78720476D01*
X67861904Y-78625238D02*
X68100000Y-78720476D01*
X68338095Y-78625238D01*
X67957142Y-78910952D02*
X68100000Y-78720476D01*
X68242857Y-78910952D01*
X68861904Y-78482380D02*
X68861904Y-78720476D01*
X68623809Y-78625238D02*
X68861904Y-78720476D01*
X69100000Y-78625238D01*
X68719047Y-78910952D02*
X68861904Y-78720476D01*
X69004761Y-78910952D01*
X134666666Y-75452380D02*
X134333333Y-74976190D01*
X134095238Y-75452380D02*
X134095238Y-74452380D01*
X134476190Y-74452380D01*
X134571428Y-74500000D01*
X134619047Y-74547619D01*
X134666666Y-74642857D01*
X134666666Y-74785714D01*
X134619047Y-74880952D01*
X134571428Y-74928571D01*
X134476190Y-74976190D01*
X134095238Y-74976190D01*
X135095238Y-74928571D02*
X135428571Y-74928571D01*
X135571428Y-75452380D02*
X135095238Y-75452380D01*
X135095238Y-74452380D01*
X135571428Y-74452380D01*
X136333333Y-74928571D02*
X136000000Y-74928571D01*
X136000000Y-75452380D02*
X136000000Y-74452380D01*
X136476190Y-74452380D01*
X137000000Y-74452380D02*
X137000000Y-74690476D01*
X136761904Y-74595238D02*
X137000000Y-74690476D01*
X137238095Y-74595238D01*
X136857142Y-74880952D02*
X137000000Y-74690476D01*
X137142857Y-74880952D01*
X137761904Y-74452380D02*
X137761904Y-74690476D01*
X137523809Y-74595238D02*
X137761904Y-74690476D01*
X138000000Y-74595238D01*
X137619047Y-74880952D02*
X137761904Y-74690476D01*
X137904761Y-74880952D01*
%LPC*%
D13*
X54000000Y-69000000D03*
D14*
X140500000Y-87200000D03*
D13*
X152000000Y-69000000D03*
D15*
X151125000Y-101250000D03*
X54875000Y-101250000D03*
X54875000Y-53750000D03*
X151125000Y-53750000D03*
D16*
X65000000Y-90900000D03*
D14*
X85000000Y-96765000D03*
X117000000Y-96765000D03*
X81300000Y-79265000D03*
X67300000Y-79265000D03*
D17*
X118000000Y-71265000D03*
X93000000Y-71265000D03*
M02*
