G04 #@! TF.GenerationSoftware,KiCad,Pcbnew,(6.0.10)*
G04 #@! TF.CreationDate,2023-08-10T06:38:26+00:00*
G04 #@! TF.ProjectId,HL2IO_endcap,484c3249-4f5f-4656-9e64-6361702e6b69,2.1*
G04 #@! TF.SameCoordinates,Original*
G04 #@! TF.FileFunction,Legend,Bot*
G04 #@! TF.FilePolarity,Positive*
%FSLAX46Y46*%
G04 Gerber Fmt 4.6, Leading zero omitted, Abs format (unit mm)*
G04 Created by KiCad (PCBNEW (6.0.10)) date 2023-08-10 06:38:26*
%MOMM*%
%LPD*%
G01*
G04 APERTURE LIST*
%ADD10C,0.150000*%
%ADD11C,0.120000*%
%ADD12C,0.100000*%
%ADD13C,0.002540*%
%ADD14C,1.000000*%
%ADD15C,7.000000*%
%ADD16C,4.900000*%
%ADD17C,9.500000*%
%ADD18C,3.050000*%
G04 APERTURE END LIST*
D10*
X51400000Y-65000000D02*
X154600000Y-65000000D01*
D11*
X90316095Y-101352619D02*
X90316095Y-102352619D01*
X90316095Y-101876428D02*
X90887523Y-101876428D01*
X90887523Y-101352619D02*
X90887523Y-102352619D01*
X91839904Y-101352619D02*
X91363714Y-101352619D01*
X91363714Y-102352619D01*
X92125619Y-102257380D02*
X92173238Y-102305000D01*
X92268476Y-102352619D01*
X92506571Y-102352619D01*
X92601809Y-102305000D01*
X92649428Y-102257380D01*
X92697047Y-102162142D01*
X92697047Y-102066904D01*
X92649428Y-101924047D01*
X92078000Y-101352619D01*
X92697047Y-101352619D01*
X93125619Y-101352619D02*
X93125619Y-102352619D01*
X93792285Y-102352619D02*
X93982761Y-102352619D01*
X94078000Y-102305000D01*
X94173238Y-102209761D01*
X94220857Y-102019285D01*
X94220857Y-101685952D01*
X94173238Y-101495476D01*
X94078000Y-101400238D01*
X93982761Y-101352619D01*
X93792285Y-101352619D01*
X93697047Y-101400238D01*
X93601809Y-101495476D01*
X93554190Y-101685952D01*
X93554190Y-102019285D01*
X93601809Y-102209761D01*
X93697047Y-102305000D01*
X93792285Y-102352619D01*
X94982761Y-101876428D02*
X95125619Y-101828809D01*
X95173238Y-101781190D01*
X95220857Y-101685952D01*
X95220857Y-101543095D01*
X95173238Y-101447857D01*
X95125619Y-101400238D01*
X95030380Y-101352619D01*
X94649428Y-101352619D01*
X94649428Y-102352619D01*
X94982761Y-102352619D01*
X95078000Y-102305000D01*
X95125619Y-102257380D01*
X95173238Y-102162142D01*
X95173238Y-102066904D01*
X95125619Y-101971666D01*
X95078000Y-101924047D01*
X94982761Y-101876428D01*
X94649428Y-101876428D01*
X95792285Y-101352619D02*
X95697047Y-101400238D01*
X95649428Y-101447857D01*
X95601809Y-101543095D01*
X95601809Y-101828809D01*
X95649428Y-101924047D01*
X95697047Y-101971666D01*
X95792285Y-102019285D01*
X95935142Y-102019285D01*
X96030380Y-101971666D01*
X96078000Y-101924047D01*
X96125619Y-101828809D01*
X96125619Y-101543095D01*
X96078000Y-101447857D01*
X96030380Y-101400238D01*
X95935142Y-101352619D01*
X95792285Y-101352619D01*
X96982761Y-101352619D02*
X96982761Y-101876428D01*
X96935142Y-101971666D01*
X96839904Y-102019285D01*
X96649428Y-102019285D01*
X96554190Y-101971666D01*
X96982761Y-101400238D02*
X96887523Y-101352619D01*
X96649428Y-101352619D01*
X96554190Y-101400238D01*
X96506571Y-101495476D01*
X96506571Y-101590714D01*
X96554190Y-101685952D01*
X96649428Y-101733571D01*
X96887523Y-101733571D01*
X96982761Y-101781190D01*
X97458952Y-101352619D02*
X97458952Y-102019285D01*
X97458952Y-101828809D02*
X97506571Y-101924047D01*
X97554190Y-101971666D01*
X97649428Y-102019285D01*
X97744666Y-102019285D01*
X98506571Y-101352619D02*
X98506571Y-102352619D01*
X98506571Y-101400238D02*
X98411333Y-101352619D01*
X98220857Y-101352619D01*
X98125619Y-101400238D01*
X98078000Y-101447857D01*
X98030380Y-101543095D01*
X98030380Y-101828809D01*
X98078000Y-101924047D01*
X98125619Y-101971666D01*
X98220857Y-102019285D01*
X98411333Y-102019285D01*
X98506571Y-101971666D01*
X99697047Y-101400238D02*
X99792285Y-101352619D01*
X99982761Y-101352619D01*
X100078000Y-101400238D01*
X100125619Y-101495476D01*
X100125619Y-101543095D01*
X100078000Y-101638333D01*
X99982761Y-101685952D01*
X99839904Y-101685952D01*
X99744666Y-101733571D01*
X99697047Y-101828809D01*
X99697047Y-101876428D01*
X99744666Y-101971666D01*
X99839904Y-102019285D01*
X99982761Y-102019285D01*
X100078000Y-101971666D01*
X100982761Y-102019285D02*
X100982761Y-101352619D01*
X100554190Y-102019285D02*
X100554190Y-101495476D01*
X100601809Y-101400238D01*
X100697047Y-101352619D01*
X100839904Y-101352619D01*
X100935142Y-101400238D01*
X100982761Y-101447857D01*
X101458952Y-102019285D02*
X101458952Y-101019285D01*
X101458952Y-101971666D02*
X101554190Y-102019285D01*
X101744666Y-102019285D01*
X101839904Y-101971666D01*
X101887523Y-101924047D01*
X101935142Y-101828809D01*
X101935142Y-101543095D01*
X101887523Y-101447857D01*
X101839904Y-101400238D01*
X101744666Y-101352619D01*
X101554190Y-101352619D01*
X101458952Y-101400238D01*
X102363714Y-102019285D02*
X102363714Y-101019285D01*
X102363714Y-101971666D02*
X102458952Y-102019285D01*
X102649428Y-102019285D01*
X102744666Y-101971666D01*
X102792285Y-101924047D01*
X102839904Y-101828809D01*
X102839904Y-101543095D01*
X102792285Y-101447857D01*
X102744666Y-101400238D01*
X102649428Y-101352619D01*
X102458952Y-101352619D01*
X102363714Y-101400238D01*
X103411333Y-101352619D02*
X103316095Y-101400238D01*
X103268476Y-101447857D01*
X103220857Y-101543095D01*
X103220857Y-101828809D01*
X103268476Y-101924047D01*
X103316095Y-101971666D01*
X103411333Y-102019285D01*
X103554190Y-102019285D01*
X103649428Y-101971666D01*
X103697047Y-101924047D01*
X103744666Y-101828809D01*
X103744666Y-101543095D01*
X103697047Y-101447857D01*
X103649428Y-101400238D01*
X103554190Y-101352619D01*
X103411333Y-101352619D01*
X104173238Y-101352619D02*
X104173238Y-102019285D01*
X104173238Y-101828809D02*
X104220857Y-101924047D01*
X104268476Y-101971666D01*
X104363714Y-102019285D01*
X104458952Y-102019285D01*
X104649428Y-102019285D02*
X105030380Y-102019285D01*
X104792285Y-102352619D02*
X104792285Y-101495476D01*
X104839904Y-101400238D01*
X104935142Y-101352619D01*
X105030380Y-101352619D01*
X90268476Y-100647380D02*
X90316095Y-100695000D01*
X90411333Y-100742619D01*
X90649428Y-100742619D01*
X90744666Y-100695000D01*
X90792285Y-100647380D01*
X90839904Y-100552142D01*
X90839904Y-100456904D01*
X90792285Y-100314047D01*
X90220857Y-99742619D01*
X90839904Y-99742619D01*
X91458952Y-100742619D02*
X91554190Y-100742619D01*
X91649428Y-100695000D01*
X91697047Y-100647380D01*
X91744666Y-100552142D01*
X91792285Y-100361666D01*
X91792285Y-100123571D01*
X91744666Y-99933095D01*
X91697047Y-99837857D01*
X91649428Y-99790238D01*
X91554190Y-99742619D01*
X91458952Y-99742619D01*
X91363714Y-99790238D01*
X91316095Y-99837857D01*
X91268476Y-99933095D01*
X91220857Y-100123571D01*
X91220857Y-100361666D01*
X91268476Y-100552142D01*
X91316095Y-100647380D01*
X91363714Y-100695000D01*
X91458952Y-100742619D01*
X92173238Y-100647380D02*
X92220857Y-100695000D01*
X92316095Y-100742619D01*
X92554190Y-100742619D01*
X92649428Y-100695000D01*
X92697047Y-100647380D01*
X92744666Y-100552142D01*
X92744666Y-100456904D01*
X92697047Y-100314047D01*
X92125619Y-99742619D01*
X92744666Y-99742619D01*
X93078000Y-100742619D02*
X93697047Y-100742619D01*
X93363714Y-100361666D01*
X93506571Y-100361666D01*
X93601809Y-100314047D01*
X93649428Y-100266428D01*
X93697047Y-100171190D01*
X93697047Y-99933095D01*
X93649428Y-99837857D01*
X93601809Y-99790238D01*
X93506571Y-99742619D01*
X93220857Y-99742619D01*
X93125619Y-99790238D01*
X93078000Y-99837857D01*
X95411333Y-100695000D02*
X95316095Y-100742619D01*
X95173238Y-100742619D01*
X95030380Y-100695000D01*
X94935142Y-100599761D01*
X94887523Y-100504523D01*
X94839904Y-100314047D01*
X94839904Y-100171190D01*
X94887523Y-99980714D01*
X94935142Y-99885476D01*
X95030380Y-99790238D01*
X95173238Y-99742619D01*
X95268476Y-99742619D01*
X95411333Y-99790238D01*
X95458952Y-99837857D01*
X95458952Y-100171190D01*
X95268476Y-100171190D01*
X96316095Y-100409285D02*
X96316095Y-99742619D01*
X96078000Y-100790238D02*
X95839904Y-100075952D01*
X96458952Y-100075952D01*
X97173238Y-100266428D02*
X97316095Y-100218809D01*
X97363714Y-100171190D01*
X97411333Y-100075952D01*
X97411333Y-99933095D01*
X97363714Y-99837857D01*
X97316095Y-99790238D01*
X97220857Y-99742619D01*
X96839904Y-99742619D01*
X96839904Y-100742619D01*
X97173238Y-100742619D01*
X97268476Y-100695000D01*
X97316095Y-100647380D01*
X97363714Y-100552142D01*
X97363714Y-100456904D01*
X97316095Y-100361666D01*
X97268476Y-100314047D01*
X97173238Y-100266428D01*
X96839904Y-100266428D01*
X98411333Y-99742619D02*
X98078000Y-100218809D01*
X97839904Y-99742619D02*
X97839904Y-100742619D01*
X98220857Y-100742619D01*
X98316095Y-100695000D01*
X98363714Y-100647380D01*
X98411333Y-100552142D01*
X98411333Y-100409285D01*
X98363714Y-100314047D01*
X98316095Y-100266428D01*
X98220857Y-100218809D01*
X97839904Y-100218809D01*
X98839904Y-99742619D02*
X98839904Y-100742619D01*
X99411333Y-99742619D02*
X98982761Y-100314047D01*
X99411333Y-100742619D02*
X98839904Y-100171190D01*
X100506571Y-100409285D02*
X100744666Y-99742619D01*
X100982761Y-100409285D01*
X101316095Y-100647380D02*
X101363714Y-100695000D01*
X101458952Y-100742619D01*
X101697047Y-100742619D01*
X101792285Y-100695000D01*
X101839904Y-100647380D01*
X101887523Y-100552142D01*
X101887523Y-100456904D01*
X101839904Y-100314047D01*
X101268476Y-99742619D01*
X101887523Y-99742619D01*
X102316095Y-99837857D02*
X102363714Y-99790238D01*
X102316095Y-99742619D01*
X102268476Y-99790238D01*
X102316095Y-99837857D01*
X102316095Y-99742619D01*
X102697047Y-100742619D02*
X103316095Y-100742619D01*
X102982761Y-100361666D01*
X103125619Y-100361666D01*
X103220857Y-100314047D01*
X103268476Y-100266428D01*
X103316095Y-100171190D01*
X103316095Y-99933095D01*
X103268476Y-99837857D01*
X103220857Y-99790238D01*
X103125619Y-99742619D01*
X102839904Y-99742619D01*
X102744666Y-99790238D01*
X102697047Y-99837857D01*
X60316095Y-101652619D02*
X60316095Y-102652619D01*
X60316095Y-102176428D02*
X60887523Y-102176428D01*
X60887523Y-101652619D02*
X60887523Y-102652619D01*
X61839904Y-101652619D02*
X61363714Y-101652619D01*
X61363714Y-102652619D01*
X62125619Y-102557380D02*
X62173238Y-102605000D01*
X62268476Y-102652619D01*
X62506571Y-102652619D01*
X62601809Y-102605000D01*
X62649428Y-102557380D01*
X62697047Y-102462142D01*
X62697047Y-102366904D01*
X62649428Y-102224047D01*
X62078000Y-101652619D01*
X62697047Y-101652619D01*
X63887523Y-101652619D02*
X63887523Y-102652619D01*
X64554190Y-102652619D02*
X64744666Y-102652619D01*
X64839904Y-102605000D01*
X64935142Y-102509761D01*
X64982761Y-102319285D01*
X64982761Y-101985952D01*
X64935142Y-101795476D01*
X64839904Y-101700238D01*
X64744666Y-101652619D01*
X64554190Y-101652619D01*
X64458952Y-101700238D01*
X64363714Y-101795476D01*
X64316095Y-101985952D01*
X64316095Y-102319285D01*
X64363714Y-102509761D01*
X64458952Y-102605000D01*
X64554190Y-102652619D01*
X66173238Y-102176428D02*
X66506571Y-102176428D01*
X66649428Y-101652619D02*
X66173238Y-101652619D01*
X66173238Y-102652619D01*
X66649428Y-102652619D01*
X67077999Y-102319285D02*
X67077999Y-101652619D01*
X67077999Y-102224047D02*
X67125619Y-102271666D01*
X67220857Y-102319285D01*
X67363714Y-102319285D01*
X67458952Y-102271666D01*
X67506571Y-102176428D01*
X67506571Y-101652619D01*
X68411333Y-101652619D02*
X68411333Y-102652619D01*
X68411333Y-101700238D02*
X68316095Y-101652619D01*
X68125619Y-101652619D01*
X68030380Y-101700238D01*
X67982761Y-101747857D01*
X67935142Y-101843095D01*
X67935142Y-102128809D01*
X67982761Y-102224047D01*
X68030380Y-102271666D01*
X68125619Y-102319285D01*
X68316095Y-102319285D01*
X68411333Y-102271666D01*
X69649428Y-101652619D02*
X69649428Y-102652619D01*
X70030380Y-102652619D01*
X70125619Y-102605000D01*
X70173238Y-102557380D01*
X70220857Y-102462142D01*
X70220857Y-102319285D01*
X70173238Y-102224047D01*
X70125619Y-102176428D01*
X70030380Y-102128809D01*
X69649428Y-102128809D01*
X70792285Y-101652619D02*
X70697047Y-101700238D01*
X70649428Y-101795476D01*
X70649428Y-102652619D01*
X71601809Y-101652619D02*
X71601809Y-102176428D01*
X71554190Y-102271666D01*
X71458952Y-102319285D01*
X71268476Y-102319285D01*
X71173238Y-102271666D01*
X71601809Y-101700238D02*
X71506571Y-101652619D01*
X71268476Y-101652619D01*
X71173238Y-101700238D01*
X71125619Y-101795476D01*
X71125619Y-101890714D01*
X71173238Y-101985952D01*
X71268476Y-102033571D01*
X71506571Y-102033571D01*
X71601809Y-102081190D01*
X71935142Y-102319285D02*
X72316095Y-102319285D01*
X72078000Y-102652619D02*
X72078000Y-101795476D01*
X72125619Y-101700238D01*
X72220857Y-101652619D01*
X72316095Y-101652619D01*
X73030380Y-101700238D02*
X72935142Y-101652619D01*
X72744666Y-101652619D01*
X72649428Y-101700238D01*
X72601809Y-101795476D01*
X72601809Y-102176428D01*
X72649428Y-102271666D01*
X72744666Y-102319285D01*
X72935142Y-102319285D01*
X73030380Y-102271666D01*
X73078000Y-102176428D01*
X73078000Y-102081190D01*
X72601809Y-101985952D01*
X74173238Y-102319285D02*
X74411333Y-101652619D01*
X74649428Y-102319285D01*
X74982761Y-102557380D02*
X75030380Y-102605000D01*
X75125619Y-102652619D01*
X75363714Y-102652619D01*
X75458952Y-102605000D01*
X75506571Y-102557380D01*
X75554190Y-102462142D01*
X75554190Y-102366904D01*
X75506571Y-102224047D01*
X74935142Y-101652619D01*
X75554190Y-101652619D01*
X75982761Y-101747857D02*
X76030380Y-101700238D01*
X75982761Y-101652619D01*
X75935142Y-101700238D01*
X75982761Y-101747857D01*
X75982761Y-101652619D01*
X76982761Y-101652619D02*
X76411333Y-101652619D01*
X76697047Y-101652619D02*
X76697047Y-102652619D01*
X76601809Y-102509761D01*
X76506571Y-102414523D01*
X76411333Y-102366904D01*
X61125619Y-100804523D02*
X61030380Y-100852142D01*
X60839904Y-100852142D01*
X60744666Y-100804523D01*
X60649428Y-100709285D01*
X60601809Y-100614047D01*
X60601809Y-100423571D01*
X60649428Y-100328333D01*
X60744666Y-100233095D01*
X60839904Y-100185476D01*
X61030380Y-100185476D01*
X61125619Y-100233095D01*
X60935142Y-101185476D02*
X60697047Y-101137857D01*
X60458952Y-100995000D01*
X60316095Y-100756904D01*
X60268476Y-100518809D01*
X60316095Y-100280714D01*
X60458952Y-100042619D01*
X60697047Y-99899761D01*
X60935142Y-99852142D01*
X61173238Y-99899761D01*
X61411333Y-100042619D01*
X61554190Y-100280714D01*
X61601809Y-100518809D01*
X61554190Y-100756904D01*
X61411333Y-100995000D01*
X61173238Y-101137857D01*
X60935142Y-101185476D01*
X62744666Y-100947380D02*
X62792285Y-100995000D01*
X62887523Y-101042619D01*
X63125619Y-101042619D01*
X63220857Y-100995000D01*
X63268476Y-100947380D01*
X63316095Y-100852142D01*
X63316095Y-100756904D01*
X63268476Y-100614047D01*
X62697047Y-100042619D01*
X63316095Y-100042619D01*
X63935142Y-101042619D02*
X64030380Y-101042619D01*
X64125619Y-100995000D01*
X64173238Y-100947380D01*
X64220857Y-100852142D01*
X64268476Y-100661666D01*
X64268476Y-100423571D01*
X64220857Y-100233095D01*
X64173238Y-100137857D01*
X64125619Y-100090238D01*
X64030380Y-100042619D01*
X63935142Y-100042619D01*
X63839904Y-100090238D01*
X63792285Y-100137857D01*
X63744666Y-100233095D01*
X63697047Y-100423571D01*
X63697047Y-100661666D01*
X63744666Y-100852142D01*
X63792285Y-100947380D01*
X63839904Y-100995000D01*
X63935142Y-101042619D01*
X64649428Y-100947380D02*
X64697047Y-100995000D01*
X64792285Y-101042619D01*
X65030380Y-101042619D01*
X65125619Y-100995000D01*
X65173238Y-100947380D01*
X65220857Y-100852142D01*
X65220857Y-100756904D01*
X65173238Y-100614047D01*
X64601809Y-100042619D01*
X65220857Y-100042619D01*
X65839904Y-101042619D02*
X65935142Y-101042619D01*
X66030380Y-100995000D01*
X66078000Y-100947380D01*
X66125619Y-100852142D01*
X66173238Y-100661666D01*
X66173238Y-100423571D01*
X66125619Y-100233095D01*
X66078000Y-100137857D01*
X66030380Y-100090238D01*
X65935142Y-100042619D01*
X65839904Y-100042619D01*
X65744666Y-100090238D01*
X65697047Y-100137857D01*
X65649428Y-100233095D01*
X65601809Y-100423571D01*
X65601809Y-100661666D01*
X65649428Y-100852142D01*
X65697047Y-100947380D01*
X65744666Y-100995000D01*
X65839904Y-101042619D01*
X67316095Y-100090238D02*
X67458952Y-100042619D01*
X67697047Y-100042619D01*
X67792285Y-100090238D01*
X67839904Y-100137857D01*
X67887523Y-100233095D01*
X67887523Y-100328333D01*
X67839904Y-100423571D01*
X67792285Y-100471190D01*
X67697047Y-100518809D01*
X67506571Y-100566428D01*
X67411333Y-100614047D01*
X67363714Y-100661666D01*
X67316095Y-100756904D01*
X67316095Y-100852142D01*
X67363714Y-100947380D01*
X67411333Y-100995000D01*
X67506571Y-101042619D01*
X67744666Y-101042619D01*
X67887523Y-100995000D01*
X68458952Y-100042619D02*
X68363714Y-100090238D01*
X68316095Y-100137857D01*
X68268476Y-100233095D01*
X68268476Y-100518809D01*
X68316095Y-100614047D01*
X68363714Y-100661666D01*
X68458952Y-100709285D01*
X68601809Y-100709285D01*
X68697047Y-100661666D01*
X68744666Y-100614047D01*
X68792285Y-100518809D01*
X68792285Y-100233095D01*
X68744666Y-100137857D01*
X68697047Y-100090238D01*
X68601809Y-100042619D01*
X68458952Y-100042619D01*
X69078000Y-100709285D02*
X69458952Y-100709285D01*
X69220857Y-100042619D02*
X69220857Y-100899761D01*
X69268476Y-100995000D01*
X69363714Y-101042619D01*
X69458952Y-101042619D01*
X69649428Y-100709285D02*
X70030380Y-100709285D01*
X69792285Y-101042619D02*
X69792285Y-100185476D01*
X69839904Y-100090238D01*
X69935142Y-100042619D01*
X70030380Y-100042619D01*
X70744666Y-100090238D02*
X70649428Y-100042619D01*
X70458952Y-100042619D01*
X70363714Y-100090238D01*
X70316095Y-100185476D01*
X70316095Y-100566428D01*
X70363714Y-100661666D01*
X70458952Y-100709285D01*
X70649428Y-100709285D01*
X70744666Y-100661666D01*
X70792285Y-100566428D01*
X70792285Y-100471190D01*
X70316095Y-100375952D01*
X71220857Y-100042619D02*
X71220857Y-100709285D01*
X71220857Y-100518809D02*
X71268476Y-100614047D01*
X71316095Y-100661666D01*
X71411333Y-100709285D01*
X71506571Y-100709285D01*
X71839904Y-100042619D02*
X71839904Y-101042619D01*
X71839904Y-100566428D02*
X72411333Y-100566428D01*
X72411333Y-100042619D02*
X72411333Y-101042619D01*
X73316095Y-100042619D02*
X73316095Y-100566428D01*
X73268476Y-100661666D01*
X73173238Y-100709285D01*
X72982761Y-100709285D01*
X72887523Y-100661666D01*
X73316095Y-100090238D02*
X73220857Y-100042619D01*
X72982761Y-100042619D01*
X72887523Y-100090238D01*
X72839904Y-100185476D01*
X72839904Y-100280714D01*
X72887523Y-100375952D01*
X72982761Y-100423571D01*
X73220857Y-100423571D01*
X73316095Y-100471190D01*
X73792285Y-100042619D02*
X73792285Y-100709285D01*
X73792285Y-100518809D02*
X73839904Y-100614047D01*
X73887523Y-100661666D01*
X73982761Y-100709285D01*
X74078000Y-100709285D01*
X74839904Y-100042619D02*
X74839904Y-101042619D01*
X74839904Y-100090238D02*
X74744666Y-100042619D01*
X74554190Y-100042619D01*
X74458952Y-100090238D01*
X74411333Y-100137857D01*
X74363714Y-100233095D01*
X74363714Y-100518809D01*
X74411333Y-100614047D01*
X74458952Y-100661666D01*
X74554190Y-100709285D01*
X74744666Y-100709285D01*
X74839904Y-100661666D01*
X75220857Y-100709285D02*
X75411333Y-100042619D01*
X75601809Y-100518809D01*
X75792285Y-100042619D01*
X75982761Y-100709285D01*
X76792285Y-100042619D02*
X76792285Y-100566428D01*
X76744666Y-100661666D01*
X76649428Y-100709285D01*
X76458952Y-100709285D01*
X76363714Y-100661666D01*
X76792285Y-100090238D02*
X76697047Y-100042619D01*
X76458952Y-100042619D01*
X76363714Y-100090238D01*
X76316095Y-100185476D01*
X76316095Y-100280714D01*
X76363714Y-100375952D01*
X76458952Y-100423571D01*
X76697047Y-100423571D01*
X76792285Y-100471190D01*
X77268476Y-100042619D02*
X77268476Y-100709285D01*
X77268476Y-100518809D02*
X77316095Y-100614047D01*
X77363714Y-100661666D01*
X77458952Y-100709285D01*
X77554190Y-100709285D01*
X78268476Y-100090238D02*
X78173238Y-100042619D01*
X77982761Y-100042619D01*
X77887523Y-100090238D01*
X77839904Y-100185476D01*
X77839904Y-100566428D01*
X77887523Y-100661666D01*
X77982761Y-100709285D01*
X78173238Y-100709285D01*
X78268476Y-100661666D01*
X78316095Y-100566428D01*
X78316095Y-100471190D01*
X77839904Y-100375952D01*
D12*
X119990476Y-79298333D02*
X119609523Y-79298333D01*
X120066666Y-79526904D02*
X119800000Y-78726904D01*
X119533333Y-79526904D01*
X118809523Y-79450714D02*
X118847619Y-79488809D01*
X118961904Y-79526904D01*
X119038095Y-79526904D01*
X119152380Y-79488809D01*
X119228571Y-79412619D01*
X119266666Y-79336428D01*
X119304761Y-79184047D01*
X119304761Y-79069761D01*
X119266666Y-78917380D01*
X119228571Y-78841190D01*
X119152380Y-78765000D01*
X119038095Y-78726904D01*
X118961904Y-78726904D01*
X118847619Y-78765000D01*
X118809523Y-78803095D01*
X118009523Y-79450714D02*
X118047619Y-79488809D01*
X118161904Y-79526904D01*
X118238095Y-79526904D01*
X118352380Y-79488809D01*
X118428571Y-79412619D01*
X118466666Y-79336428D01*
X118504761Y-79184047D01*
X118504761Y-79069761D01*
X118466666Y-78917380D01*
X118428571Y-78841190D01*
X118352380Y-78765000D01*
X118238095Y-78726904D01*
X118161904Y-78726904D01*
X118047619Y-78765000D01*
X118009523Y-78803095D01*
X121000000Y-64765000D02*
X90000000Y-64765000D01*
X90000000Y-64765000D02*
X90000000Y-77765000D01*
X90000000Y-77765000D02*
X121000000Y-77765000D01*
X121000000Y-77765000D02*
X121000000Y-64765000D01*
G36*
X79108180Y-100511000D02*
G01*
X79131040Y-100526240D01*
X79166600Y-100549100D01*
X79202160Y-100574500D01*
X79240260Y-100599900D01*
X79273280Y-100620220D01*
X79293600Y-100635460D01*
X79303760Y-100640540D01*
X79313920Y-100635460D01*
X79336780Y-100625300D01*
X79387580Y-100599900D01*
X79402820Y-100594820D01*
X79410440Y-100594820D01*
X79415520Y-100607520D01*
X79428220Y-100632920D01*
X79446000Y-100673560D01*
X79466320Y-100724360D01*
X79491720Y-100782780D01*
X79506960Y-100818340D01*
X79595860Y-101034240D01*
X79583160Y-101044400D01*
X79567920Y-101054560D01*
X79542520Y-101072340D01*
X79537440Y-101077420D01*
X79484100Y-101128220D01*
X79448540Y-101186640D01*
X79428220Y-101255220D01*
X79425680Y-101326340D01*
X79425680Y-101341580D01*
X79446000Y-101402540D01*
X79481560Y-101463500D01*
X79504420Y-101491440D01*
X79565380Y-101537160D01*
X79631420Y-101562560D01*
X79700000Y-101570180D01*
X79771120Y-101562560D01*
X79837160Y-101534620D01*
X79893040Y-101491440D01*
X79938760Y-101430480D01*
X79964160Y-101366980D01*
X79971780Y-101300940D01*
X79964160Y-101227280D01*
X79933680Y-101161240D01*
X79887960Y-101102820D01*
X79839700Y-101062180D01*
X79819380Y-101046940D01*
X79804140Y-101031700D01*
X79809220Y-101021540D01*
X79819380Y-100993600D01*
X79834620Y-100955500D01*
X79854940Y-100907240D01*
X79877800Y-100853900D01*
X79923520Y-100742140D01*
X79943840Y-100691340D01*
X79964160Y-100648160D01*
X79976860Y-100615140D01*
X79987020Y-100597360D01*
X79989560Y-100592280D01*
X80002260Y-100594820D01*
X80042900Y-100615140D01*
X80070840Y-100627840D01*
X80088620Y-100638000D01*
X80093700Y-100640540D01*
X80103860Y-100635460D01*
X80126720Y-100620220D01*
X80159740Y-100597360D01*
X80197840Y-100571960D01*
X80238480Y-100544020D01*
X80271500Y-100523700D01*
X80294360Y-100508460D01*
X80304520Y-100503380D01*
X80314680Y-100508460D01*
X80335000Y-100528780D01*
X80365480Y-100554180D01*
X80398500Y-100589740D01*
X80406120Y-100594820D01*
X80451840Y-100640540D01*
X80479780Y-100671020D01*
X80495020Y-100688800D01*
X80500100Y-100696420D01*
X80492480Y-100706580D01*
X80477240Y-100731980D01*
X80454380Y-100765000D01*
X80426440Y-100805640D01*
X80401040Y-100843740D01*
X80378180Y-100876760D01*
X80362940Y-100899620D01*
X80357860Y-100909780D01*
X80362940Y-100925020D01*
X80373100Y-100950420D01*
X80385800Y-100985980D01*
X80401040Y-101024080D01*
X80416280Y-101059640D01*
X80444220Y-101115520D01*
X80456920Y-101118060D01*
X80484860Y-101123140D01*
X80525500Y-101130760D01*
X80563600Y-101138380D01*
X80609320Y-101146000D01*
X80649960Y-101153620D01*
X80675360Y-101158700D01*
X80688060Y-101163780D01*
X80698220Y-101168860D01*
X80695680Y-101435560D01*
X80622020Y-101450800D01*
X80576300Y-101460960D01*
X80525500Y-101468580D01*
X80489940Y-101476200D01*
X80431520Y-101486360D01*
X80393420Y-101575260D01*
X80375640Y-101615900D01*
X80362940Y-101648920D01*
X80355320Y-101671780D01*
X80352780Y-101676860D01*
X80360400Y-101689560D01*
X80375640Y-101717500D01*
X80421360Y-101788620D01*
X80449300Y-101826720D01*
X80472160Y-101862280D01*
X80489940Y-101885140D01*
X80495020Y-101897840D01*
X80497560Y-101902920D01*
X80482320Y-101925780D01*
X80431520Y-101976580D01*
X80406120Y-102004520D01*
X80370560Y-102037540D01*
X80340080Y-102068020D01*
X80317220Y-102088340D01*
X80307060Y-102098500D01*
X80296900Y-102093420D01*
X80274040Y-102078180D01*
X80241020Y-102057860D01*
X80200380Y-102029920D01*
X80190220Y-102022300D01*
X80078460Y-101946100D01*
X79987020Y-101981660D01*
X79946380Y-101999440D01*
X79913360Y-102012140D01*
X79895580Y-102019760D01*
X79890500Y-102022300D01*
X79887960Y-102032460D01*
X79882880Y-102060400D01*
X79872720Y-102098500D01*
X79865100Y-102146760D01*
X79862560Y-102154380D01*
X79854940Y-102205180D01*
X79844780Y-102245820D01*
X79839700Y-102276300D01*
X79834620Y-102289000D01*
X79834620Y-102291540D01*
X79821920Y-102294080D01*
X79796520Y-102294080D01*
X79758420Y-102296620D01*
X79593320Y-102296620D01*
X79567920Y-102294080D01*
X79562840Y-102294080D01*
X79560300Y-102281380D01*
X79552680Y-102253440D01*
X79545060Y-102215340D01*
X79537440Y-102167080D01*
X79534900Y-102159460D01*
X79527280Y-102111200D01*
X79517120Y-102070560D01*
X79512040Y-102040080D01*
X79506960Y-102024840D01*
X79494260Y-102017220D01*
X79468860Y-102007060D01*
X79435840Y-101991820D01*
X79397740Y-101976580D01*
X79364720Y-101963880D01*
X79319000Y-101948640D01*
X79316460Y-101948640D01*
X79306300Y-101956260D01*
X79283440Y-101971500D01*
X79250420Y-101994360D01*
X79209780Y-102019760D01*
X79207240Y-102022300D01*
X79166600Y-102050240D01*
X79133580Y-102073100D01*
X79108180Y-102090880D01*
X79095480Y-102095960D01*
X79095480Y-102098500D01*
X79087860Y-102093420D01*
X79070080Y-102080720D01*
X79042140Y-102055320D01*
X78927840Y-101941020D01*
X78907520Y-101918160D01*
X78899900Y-101908000D01*
X78899900Y-101905460D01*
X78904980Y-101895300D01*
X78920220Y-101872440D01*
X78940540Y-101836880D01*
X78968480Y-101798780D01*
X78971020Y-101793700D01*
X78998960Y-101753060D01*
X79021820Y-101720040D01*
X79037060Y-101694640D01*
X79044680Y-101684480D01*
X79042140Y-101671780D01*
X79034520Y-101648920D01*
X78988800Y-101542240D01*
X78976100Y-101511760D01*
X78965940Y-101493980D01*
X78963400Y-101491440D01*
X78950700Y-101486360D01*
X78922760Y-101481280D01*
X78884660Y-101471120D01*
X78836400Y-101463500D01*
X78833860Y-101463500D01*
X78785600Y-101453340D01*
X78747500Y-101445720D01*
X78719560Y-101440640D01*
X78706860Y-101435560D01*
X78704320Y-101425400D01*
X78701780Y-101400000D01*
X78701780Y-101181560D01*
X78704320Y-101168860D01*
X78706860Y-101163780D01*
X78709400Y-101161240D01*
X78722100Y-101158700D01*
X78752580Y-101153620D01*
X78790680Y-101146000D01*
X78836400Y-101135840D01*
X78882120Y-101128220D01*
X78920220Y-101120600D01*
X78948160Y-101112980D01*
X78958320Y-101110440D01*
X78963400Y-101097740D01*
X78976100Y-101072340D01*
X78991340Y-101036780D01*
X79001500Y-101006300D01*
X79042140Y-100909780D01*
X78971020Y-100805640D01*
X78943080Y-100765000D01*
X78920220Y-100731980D01*
X78904980Y-100706580D01*
X78899900Y-100693880D01*
X78904980Y-100686260D01*
X78925300Y-100665940D01*
X78953240Y-100635460D01*
X78986260Y-100599900D01*
X78993880Y-100594820D01*
X79062460Y-100526240D01*
X79092940Y-100503380D01*
X79095480Y-100503380D01*
X79108180Y-100511000D01*
G37*
D13*
X79108180Y-100511000D02*
X79131040Y-100526240D01*
X79166600Y-100549100D01*
X79202160Y-100574500D01*
X79240260Y-100599900D01*
X79273280Y-100620220D01*
X79293600Y-100635460D01*
X79303760Y-100640540D01*
X79313920Y-100635460D01*
X79336780Y-100625300D01*
X79387580Y-100599900D01*
X79402820Y-100594820D01*
X79410440Y-100594820D01*
X79415520Y-100607520D01*
X79428220Y-100632920D01*
X79446000Y-100673560D01*
X79466320Y-100724360D01*
X79491720Y-100782780D01*
X79506960Y-100818340D01*
X79595860Y-101034240D01*
X79583160Y-101044400D01*
X79567920Y-101054560D01*
X79542520Y-101072340D01*
X79537440Y-101077420D01*
X79484100Y-101128220D01*
X79448540Y-101186640D01*
X79428220Y-101255220D01*
X79425680Y-101326340D01*
X79425680Y-101341580D01*
X79446000Y-101402540D01*
X79481560Y-101463500D01*
X79504420Y-101491440D01*
X79565380Y-101537160D01*
X79631420Y-101562560D01*
X79700000Y-101570180D01*
X79771120Y-101562560D01*
X79837160Y-101534620D01*
X79893040Y-101491440D01*
X79938760Y-101430480D01*
X79964160Y-101366980D01*
X79971780Y-101300940D01*
X79964160Y-101227280D01*
X79933680Y-101161240D01*
X79887960Y-101102820D01*
X79839700Y-101062180D01*
X79819380Y-101046940D01*
X79804140Y-101031700D01*
X79809220Y-101021540D01*
X79819380Y-100993600D01*
X79834620Y-100955500D01*
X79854940Y-100907240D01*
X79877800Y-100853900D01*
X79923520Y-100742140D01*
X79943840Y-100691340D01*
X79964160Y-100648160D01*
X79976860Y-100615140D01*
X79987020Y-100597360D01*
X79989560Y-100592280D01*
X80002260Y-100594820D01*
X80042900Y-100615140D01*
X80070840Y-100627840D01*
X80088620Y-100638000D01*
X80093700Y-100640540D01*
X80103860Y-100635460D01*
X80126720Y-100620220D01*
X80159740Y-100597360D01*
X80197840Y-100571960D01*
X80238480Y-100544020D01*
X80271500Y-100523700D01*
X80294360Y-100508460D01*
X80304520Y-100503380D01*
X80314680Y-100508460D01*
X80335000Y-100528780D01*
X80365480Y-100554180D01*
X80398500Y-100589740D01*
X80406120Y-100594820D01*
X80451840Y-100640540D01*
X80479780Y-100671020D01*
X80495020Y-100688800D01*
X80500100Y-100696420D01*
X80492480Y-100706580D01*
X80477240Y-100731980D01*
X80454380Y-100765000D01*
X80426440Y-100805640D01*
X80401040Y-100843740D01*
X80378180Y-100876760D01*
X80362940Y-100899620D01*
X80357860Y-100909780D01*
X80362940Y-100925020D01*
X80373100Y-100950420D01*
X80385800Y-100985980D01*
X80401040Y-101024080D01*
X80416280Y-101059640D01*
X80444220Y-101115520D01*
X80456920Y-101118060D01*
X80484860Y-101123140D01*
X80525500Y-101130760D01*
X80563600Y-101138380D01*
X80609320Y-101146000D01*
X80649960Y-101153620D01*
X80675360Y-101158700D01*
X80688060Y-101163780D01*
X80698220Y-101168860D01*
X80695680Y-101435560D01*
X80622020Y-101450800D01*
X80576300Y-101460960D01*
X80525500Y-101468580D01*
X80489940Y-101476200D01*
X80431520Y-101486360D01*
X80393420Y-101575260D01*
X80375640Y-101615900D01*
X80362940Y-101648920D01*
X80355320Y-101671780D01*
X80352780Y-101676860D01*
X80360400Y-101689560D01*
X80375640Y-101717500D01*
X80421360Y-101788620D01*
X80449300Y-101826720D01*
X80472160Y-101862280D01*
X80489940Y-101885140D01*
X80495020Y-101897840D01*
X80497560Y-101902920D01*
X80482320Y-101925780D01*
X80431520Y-101976580D01*
X80406120Y-102004520D01*
X80370560Y-102037540D01*
X80340080Y-102068020D01*
X80317220Y-102088340D01*
X80307060Y-102098500D01*
X80296900Y-102093420D01*
X80274040Y-102078180D01*
X80241020Y-102057860D01*
X80200380Y-102029920D01*
X80190220Y-102022300D01*
X80078460Y-101946100D01*
X79987020Y-101981660D01*
X79946380Y-101999440D01*
X79913360Y-102012140D01*
X79895580Y-102019760D01*
X79890500Y-102022300D01*
X79887960Y-102032460D01*
X79882880Y-102060400D01*
X79872720Y-102098500D01*
X79865100Y-102146760D01*
X79862560Y-102154380D01*
X79854940Y-102205180D01*
X79844780Y-102245820D01*
X79839700Y-102276300D01*
X79834620Y-102289000D01*
X79834620Y-102291540D01*
X79821920Y-102294080D01*
X79796520Y-102294080D01*
X79758420Y-102296620D01*
X79593320Y-102296620D01*
X79567920Y-102294080D01*
X79562840Y-102294080D01*
X79560300Y-102281380D01*
X79552680Y-102253440D01*
X79545060Y-102215340D01*
X79537440Y-102167080D01*
X79534900Y-102159460D01*
X79527280Y-102111200D01*
X79517120Y-102070560D01*
X79512040Y-102040080D01*
X79506960Y-102024840D01*
X79494260Y-102017220D01*
X79468860Y-102007060D01*
X79435840Y-101991820D01*
X79397740Y-101976580D01*
X79364720Y-101963880D01*
X79319000Y-101948640D01*
X79316460Y-101948640D01*
X79306300Y-101956260D01*
X79283440Y-101971500D01*
X79250420Y-101994360D01*
X79209780Y-102019760D01*
X79207240Y-102022300D01*
X79166600Y-102050240D01*
X79133580Y-102073100D01*
X79108180Y-102090880D01*
X79095480Y-102095960D01*
X79095480Y-102098500D01*
X79087860Y-102093420D01*
X79070080Y-102080720D01*
X79042140Y-102055320D01*
X78927840Y-101941020D01*
X78907520Y-101918160D01*
X78899900Y-101908000D01*
X78899900Y-101905460D01*
X78904980Y-101895300D01*
X78920220Y-101872440D01*
X78940540Y-101836880D01*
X78968480Y-101798780D01*
X78971020Y-101793700D01*
X78998960Y-101753060D01*
X79021820Y-101720040D01*
X79037060Y-101694640D01*
X79044680Y-101684480D01*
X79042140Y-101671780D01*
X79034520Y-101648920D01*
X78988800Y-101542240D01*
X78976100Y-101511760D01*
X78965940Y-101493980D01*
X78963400Y-101491440D01*
X78950700Y-101486360D01*
X78922760Y-101481280D01*
X78884660Y-101471120D01*
X78836400Y-101463500D01*
X78833860Y-101463500D01*
X78785600Y-101453340D01*
X78747500Y-101445720D01*
X78719560Y-101440640D01*
X78706860Y-101435560D01*
X78704320Y-101425400D01*
X78701780Y-101400000D01*
X78701780Y-101181560D01*
X78704320Y-101168860D01*
X78706860Y-101163780D01*
X78709400Y-101161240D01*
X78722100Y-101158700D01*
X78752580Y-101153620D01*
X78790680Y-101146000D01*
X78836400Y-101135840D01*
X78882120Y-101128220D01*
X78920220Y-101120600D01*
X78948160Y-101112980D01*
X78958320Y-101110440D01*
X78963400Y-101097740D01*
X78976100Y-101072340D01*
X78991340Y-101036780D01*
X79001500Y-101006300D01*
X79042140Y-100909780D01*
X78971020Y-100805640D01*
X78943080Y-100765000D01*
X78920220Y-100731980D01*
X78904980Y-100706580D01*
X78899900Y-100693880D01*
X78904980Y-100686260D01*
X78925300Y-100665940D01*
X78953240Y-100635460D01*
X78986260Y-100599900D01*
X78993880Y-100594820D01*
X79062460Y-100526240D01*
X79092940Y-100503380D01*
X79095480Y-100503380D01*
X79108180Y-100511000D01*
%LPC*%
D14*
X54000000Y-69000000D03*
D15*
X140500000Y-87200000D03*
D14*
X152000000Y-69000000D03*
D16*
X151125000Y-101250000D03*
X54875000Y-101250000D03*
X54875000Y-53750000D03*
X151125000Y-53750000D03*
D17*
X65000000Y-90900000D03*
D15*
X85000000Y-96765000D03*
X117000000Y-96765000D03*
X81300000Y-79265000D03*
X67300000Y-79265000D03*
D18*
X118000000Y-71265000D03*
X93000000Y-71265000D03*
M02*
