G04 #@! TF.GenerationSoftware,KiCad,Pcbnew,(6.0.10)*
G04 #@! TF.CreationDate,2023-08-10T06:38:26+00:00*
G04 #@! TF.ProjectId,HL2IO_endcap,484c3249-4f5f-4656-9e64-6361702e6b69,2.1*
G04 #@! TF.SameCoordinates,Original*
G04 #@! TF.FileFunction,Profile,NP*
%FSLAX46Y46*%
G04 Gerber Fmt 4.6, Leading zero omitted, Abs format (unit mm)*
G04 Created by KiCad (PCBNEW (6.0.10)) date 2023-08-10 06:38:26*
%MOMM*%
%LPD*%
G01*
G04 APERTURE LIST*
G04 #@! TA.AperFunction,Profile*
%ADD10C,0.150000*%
G04 #@! TD*
G04 #@! TA.AperFunction,Profile*
%ADD11C,0.250000*%
G04 #@! TD*
G04 #@! TA.AperFunction,Profile*
%ADD12C,0.100000*%
G04 #@! TD*
G04 APERTURE END LIST*
D10*
X154000000Y-105000000D02*
X52000000Y-105000000D01*
X156000000Y-60000000D02*
X155000000Y-60500000D01*
X51000000Y-94500000D02*
X51000000Y-60500000D01*
X155000000Y-60500000D02*
X155000000Y-94500000D01*
X52000000Y-50000000D02*
X154000000Y-50000000D01*
X155000000Y-94500000D02*
X156000000Y-95000000D01*
X50000000Y-95000000D02*
X51000000Y-94500000D01*
X50000000Y-103000000D02*
X50000000Y-95000000D01*
X52000000Y-50000000D02*
G75*
G03*
X50000000Y-52000000I0J-2000000D01*
G01*
X156000000Y-95000000D02*
X156000000Y-103000000D01*
X50000000Y-103000000D02*
G75*
G03*
X52000000Y-105000000I2000000J0D01*
G01*
X156000000Y-52000000D02*
G75*
G03*
X154000000Y-50000000I-2000000J0D01*
G01*
X154000000Y-105000000D02*
G75*
G03*
X156000000Y-103000000I0J2000000D01*
G01*
X156000000Y-52000000D02*
X156000000Y-60000000D01*
X50000000Y-60000000D02*
X50000000Y-52000000D01*
X51000000Y-60500000D02*
X50000000Y-60000000D01*
D11*
X140262563Y-72487437D02*
X131737437Y-72487437D01*
X129987437Y-76762563D02*
X129987437Y-74237437D01*
X140262563Y-78512563D02*
X131737437Y-78512563D01*
X142012563Y-74237437D02*
X142012563Y-76762563D01*
X140262563Y-78512563D02*
G75*
G03*
X142012563Y-76762563I-3J1750003D01*
G01*
X129987437Y-76762563D02*
G75*
G03*
X131737437Y-78512563I1750000J0D01*
G01*
X142012563Y-74237437D02*
G75*
G03*
X140262563Y-72487437I-1750003J-3D01*
G01*
X131737437Y-72487437D02*
G75*
G03*
X129987437Y-74237437I0J-1750000D01*
G01*
D12*
X112385000Y-65935000D02*
X98615000Y-65935000D01*
X111505000Y-76595000D02*
X99495000Y-76595000D01*
X95350000Y-69995000D02*
X96230000Y-74015000D01*
X115650000Y-69995000D02*
X114770000Y-74015000D01*
X111489200Y-76599532D02*
G75*
G03*
X114770000Y-74015000I15799J3354532D01*
G01*
X96230000Y-74015000D02*
G75*
G03*
X99510800Y-76599531I3265000J770000D01*
G01*
X115649140Y-70038586D02*
G75*
G03*
X112385000Y-65935000I-3264141J753585D01*
G01*
X98615000Y-65935000D02*
G75*
G03*
X95350860Y-70038586I0J-3350000D01*
G01*
M02*
